<svg width="32" height="32" viewBox="0 0 32 32" fill="none" xmlns="http://www.w3.org/2000/svg">
<path d="M28.2788 24.0573C27.9351 28.1334 23.1237 31.5659 15.9066 31.3943C9.11916 31.2226 4.35073 28.3908 4.05002 24.3147C4.00706 23.7999 4.05002 23.285 4.09298 22.7272C4.30777 21.1397 4.86624 19.638 5.68245 18.265L6.19796 18.4795C7.52968 17.9646 8.90436 17.5785 10.322 17.321C12.1692 17.0636 14.1024 16.7203 15.9496 16.892L16.1214 16.8491C17.9687 16.7203 19.6441 17.1065 21.4913 17.3639C22.9089 17.6214 24.2836 18.0075 25.6153 18.5224L26.1308 18.3079L26.4745 18.1362C27.2907 19.5092 27.8492 21.011 28.1499 22.5985C28.2358 23.0705 28.2788 23.5853 28.2358 24.0573" fill="#F4A427"/>
<path d="M28.2788 24.0573C27.9781 28.0905 23.2096 31.3943 15.9496 31.3514C9.16212 31.1798 4.3937 28.3479 4.09299 24.2719C4.05003 23.757 4.09299 23.2421 4.13595 22.6843C4.86625 22.5127 5.59655 22.5127 6.32685 22.6414C7.70153 22.856 8.47478 23.7141 9.46283 24.1431C10.0213 24.4006 10.5798 23.9715 11.0953 23.4995C12.4699 22.1695 14.3172 21.3971 16.2074 21.3542C18.1405 21.3113 19.73 22.0836 21.4054 23.6283C21.749 23.9715 22.2216 24.186 22.6941 24.1431C23.1237 24.0144 23.5533 23.7999 23.897 23.4995C25.1857 22.6414 26.7323 22.2982 28.2358 22.5127C28.3217 23.0705 28.3647 23.5425 28.2788 24.0573Z" fill="white"/>
<path d="M8.34562 14.0176C7.87307 14.4895 7.27165 14.8328 6.62727 14.9615L6.36952 15.0044C6.11177 15.0902 5.85401 15.1331 5.5533 15.1331C5.51034 15.1331 5.42443 15.1331 5.38147 15.1331C5.25259 15.0902 5.08075 15.0473 4.95188 15.0044C4.47933 14.7899 4.04974 14.5325 3.66312 14.1892C2.88986 13.5456 2.15956 12.8162 1.6011 11.9581C-0.761637 8.52558 -0.0313378 3.89171 3.23353 1.31734C3.40536 1.18862 3.70607 1.18862 3.87791 1.40315C3.96383 1.53187 4.00679 1.66059 3.96383 1.78931C3.62016 3.16231 3.40536 5.30762 4.65117 7.15258C5.7681 8.74012 8.08787 10.2418 9.50551 10.1989C9.84918 11.9152 9.33367 13.0736 8.34562 14.0176Z" fill="#F79422"/>
<path fill-rule="evenodd" clip-rule="evenodd" d="M3.36439 1.48741C0.189436 3.99293 -0.519016 8.49878 1.77833 11.8363L1.78148 11.8409C2.32405 12.6746 3.03695 13.3883 3.80086 14.0241L3.80605 14.0286C4.17013 14.3518 4.57676 14.5972 5.03054 14.8041C5.08743 14.8227 5.154 14.8417 5.22591 14.8622L5.22858 14.863C5.29004 14.8805 5.35553 14.8992 5.41573 14.9184H5.55328C5.83155 14.9184 6.06658 14.879 6.30183 14.8006C6.31247 14.7971 6.32337 14.7944 6.33444 14.7926L6.58871 14.7502C7.18578 14.6302 7.74883 14.3102 8.19397 13.8656C8.19617 13.8634 8.19842 13.8613 8.20071 13.8592C8.69544 13.4062 9.04704 12.9105 9.23718 12.3308C9.41422 11.7911 9.45586 11.1644 9.32679 10.4111C8.58561 10.3739 7.68817 9.99896 6.8507 9.46804C5.93522 8.88767 5.05349 8.09696 4.47566 7.27567L4.47329 7.2723C3.17637 5.35164 3.40675 3.13104 3.75568 1.73702C3.75701 1.73169 3.75855 1.72641 3.76029 1.72121C3.772 1.68613 3.77066 1.63153 3.70505 1.53043C3.61392 1.42434 3.45358 1.42218 3.36439 1.48741ZM3.10488 1.14545C3.35796 0.955878 3.79285 0.952988 4.04587 1.26887C4.04975 1.27372 4.05342 1.27873 4.05686 1.28389C4.15621 1.43273 4.23948 1.63018 4.17069 1.84808C3.83346 3.19976 3.63698 5.26483 4.82833 7.03067C5.36747 7.79633 6.2035 8.54955 7.08091 9.10579C7.96579 9.66676 8.85525 10.0037 9.49924 9.98423C9.60403 9.98106 9.6958 10.0539 9.71636 10.1566C9.89384 11.0429 9.86332 11.8001 9.64542 12.4644C9.42792 13.1275 9.02898 13.6821 8.49442 14.1723C7.99578 14.6692 7.35855 15.034 6.66963 15.1716L6.66281 15.1729L6.42136 15.2131C6.14651 15.3028 5.87042 15.3474 5.55353 15.3474H5.3817C5.35861 15.3474 5.33568 15.3437 5.31378 15.3364C5.25464 15.3167 5.18429 15.2966 5.1079 15.2748L5.10512 15.274C5.03194 15.2531 4.95306 15.2306 4.88419 15.2077C4.87706 15.2053 4.87007 15.2026 4.86323 15.1995C4.37716 14.9788 3.92894 14.7112 3.52324 14.3516C2.74226 13.7013 1.99628 12.9576 1.42276 12.0771C-1.00287 8.55067 -0.251291 3.79174 3.10066 1.1487L3.10488 1.14545Z" fill="#221F1F"/>
<path d="M14.5321 8.09644L13.9736 13.5884H13.9307C13.0715 13.7172 11.9116 13.8888 10.3221 14.1462C8.86154 14.3607 6.88543 15.3905 5.72555 16.077L5.55371 15.2189C5.81146 15.176 6.11218 15.1331 6.36993 15.0902L6.62768 15.0472C7.27206 14.9185 7.87348 14.5753 8.34603 14.1033C9.33408 13.1165 9.84959 12.0009 9.50592 10.2417L9.67775 10.2847C10.1933 9.72687 10.7947 9.29781 11.482 8.95456C12.4271 8.39678 13.4581 8.13934 14.5321 8.09644Z" fill="#5A595C"/>
<path fill-rule="evenodd" clip-rule="evenodd" d="M14.6885 7.94939C14.7311 7.99467 14.752 8.0562 14.7457 8.11804L14.1873 13.61C14.1761 13.7196 14.0838 13.8029 13.9736 13.8029H13.9466C13.8759 13.8135 13.8032 13.8244 13.7283 13.8356C12.8957 13.9601 11.8046 14.1234 10.3565 14.3579L10.3533 14.3584L10.3533 14.3584C9.65251 14.4613 8.81477 14.7628 7.99933 15.1301C7.18693 15.496 6.41018 15.9211 5.835 16.2615C5.77509 16.2969 5.70168 16.3012 5.63807 16.2729C5.57445 16.2446 5.52853 16.1872 5.51487 16.119L5.34304 15.2609C5.33163 15.2039 5.34385 15.1448 5.37689 15.0969C5.40993 15.0491 5.46097 15.0167 5.51835 15.0072C5.64851 14.9855 5.78917 14.9639 5.92819 14.9425L5.92911 14.9424C6.06902 14.9209 6.20726 14.8997 6.33457 14.8785L6.36988 15.0901L6.33457 14.8785L6.58884 14.8361C7.18591 14.7161 7.74896 14.3961 8.1941 13.9515C8.67274 13.4735 9.02598 12.9752 9.22173 12.3937C9.41714 11.8132 9.46117 11.1331 9.29505 10.2828C9.28098 10.2108 9.30473 10.1366 9.35801 10.0861C9.41129 10.0356 9.48671 10.0158 9.55796 10.0336L9.60777 10.046C10.1215 9.51356 10.7131 9.0994 11.3792 8.76597C12.3579 8.18995 13.4225 7.92599 14.5235 7.88201C14.5856 7.87952 14.6459 7.9041 14.6885 7.94939ZM9.76519 10.4805C9.8835 11.2666 9.82901 11.936 9.62892 12.5304C9.40581 13.1932 9.00728 13.7461 8.49786 14.2549C8.359 14.3936 8.20935 14.5221 8.05079 14.6382C8.80977 14.3096 9.59926 14.0357 10.2892 13.9341C11.7393 13.6993 12.8322 13.5358 13.6647 13.4112C13.7028 13.4055 13.7404 13.3999 13.7774 13.3944L14.2929 8.32463C13.3387 8.39391 12.4288 8.6449 11.5912 9.13919C11.5869 9.14174 11.5825 9.14413 11.578 9.14637C10.9105 9.47971 10.331 9.89396 9.83554 10.4301C9.81541 10.4519 9.79139 10.4688 9.76519 10.4805ZM6.82571 15.2223C6.77405 15.2353 6.72205 15.2471 6.66976 15.2575L6.66294 15.2588L6.40519 15.3017C6.27506 15.3234 6.13444 15.345 5.99545 15.3663L5.99443 15.3665C5.93169 15.3761 5.86928 15.3857 5.80805 15.3953L5.8771 15.7401C6.16198 15.5763 6.4831 15.3995 6.82571 15.2223Z" fill="#221F1F"/>
<path d="M27.0757 17.9649L26.732 18.1366L26.3884 18.3082L25.8729 18.5227C24.5412 18.0078 23.1665 17.6217 21.7488 17.3642C19.9016 17.021 18.0544 16.8494 16.1642 16.8494C14.274 16.8494 12.4268 16.9781 10.5796 17.3642C9.16191 17.6217 7.78723 18.0078 6.45551 18.5227C6.28368 18.4369 6.11184 18.3511 5.94001 18.3082L5.16675 17.9649C5.20971 17.3642 5.16675 17.021 5.16675 16.4203C5.29562 16.3345 5.51042 16.2058 5.72521 16.0771L5.76817 16.0342C6.84214 15.3477 8.81824 14.3608 10.2788 14.1034C11.8683 13.8459 12.9852 13.6743 13.8874 13.5456C14.4458 13.5027 15.0473 13.5027 15.6487 13.5027C16.5508 13.5027 17.367 13.5027 18.1833 13.5456C19.0424 13.6743 20.2023 13.8459 21.8347 14.1034C23.3383 14.3179 25.3144 15.3477 26.4743 16.0342H26.5173C26.732 16.1629 26.9039 16.2487 27.0328 16.3774C27.0328 17.021 27.0328 17.3642 27.0757 17.9649Z" fill="#929497"/>
<path fill-rule="evenodd" clip-rule="evenodd" d="M13.911 13.7589C13.0122 13.8872 11.8988 14.0583 10.3149 14.3148C8.90383 14.564 6.97176 15.5229 5.90369 16.2023L5.87729 16.2287C5.86487 16.2411 5.85098 16.2519 5.83592 16.2609C5.66807 16.3615 5.50482 16.4594 5.38231 16.5367C5.38377 16.6876 5.38779 16.8257 5.3917 16.9599C5.39985 17.2395 5.40751 17.5024 5.39052 17.8293L6.01115 18.1048C6.17063 18.1471 6.3262 18.2191 6.46685 18.2885C7.78353 17.7858 9.14161 17.4073 10.5409 17.1532C12.4039 16.807 14.2646 16.6777 16.1644 16.6777C18.0677 16.6777 19.9266 16.8505 21.7835 17.1524L21.7875 17.1531C23.1897 17.4077 24.5506 17.7872 25.8699 18.2916L26.2991 18.1129L26.8527 17.8365C26.8396 17.5943 26.8396 17.3911 26.8396 17.189V17.1872C26.8396 16.9687 26.8396 16.7507 26.824 16.4779C26.754 16.4214 26.6689 16.3718 26.5527 16.3039C26.523 16.2866 26.4912 16.2681 26.4571 16.2479C26.4247 16.2453 26.3931 16.2353 26.365 16.2186C25.2043 15.5317 23.2612 14.5235 21.8046 14.3157L21.8014 14.3152C20.3652 14.0887 19.2951 13.9287 18.4733 13.8058C18.3653 13.7897 18.2615 13.7742 18.1618 13.7592C17.3557 13.7172 16.5483 13.7171 15.6489 13.7171C15.0482 13.7171 14.4578 13.7173 13.911 13.7589ZM15.6441 13.2881H15.6521C16.5519 13.2881 17.3729 13.2881 18.1947 13.3313C18.2016 13.3317 18.2085 13.3323 18.2153 13.3334C18.3181 13.3488 18.4252 13.3648 18.5369 13.3815C19.3585 13.5043 20.4297 13.6645 21.8669 13.8912C23.3952 14.1097 25.3686 15.1342 26.5343 15.8202C26.5674 15.8228 26.5994 15.833 26.628 15.8501C26.6655 15.8726 26.7036 15.8947 26.7418 15.9169C26.9006 16.009 27.0611 16.1021 27.1848 16.2256C27.2216 16.2624 27.2438 16.3112 27.2473 16.3631C27.2692 16.692 27.2692 16.9446 27.2692 17.1858V17.1872C27.2692 17.4284 27.2693 17.6576 27.2902 17.9496C27.2964 18.0362 27.2497 18.1179 27.172 18.1567L26.4846 18.5C26.4802 18.5022 26.4757 18.5042 26.4712 18.5061L25.9557 18.7207C25.9046 18.7419 25.8472 18.7427 25.7955 18.7227C24.4772 18.213 23.1163 17.8306 21.7126 17.5756C19.8757 17.277 18.0407 17.1067 16.1644 17.1067C14.284 17.1067 12.4503 17.2348 10.619 17.5751L10.6182 17.5752C9.21377 17.8303 7.85219 18.2128 6.53325 18.7227C6.47681 18.7445 6.41378 18.7416 6.35965 18.7145C6.18291 18.6263 6.03281 18.5524 5.88811 18.5162C5.87607 18.5132 5.86431 18.5092 5.85297 18.5042L5.07971 18.1609C4.99704 18.1242 4.94625 18.0397 4.9527 17.9496C4.97989 17.5694 4.97196 17.3052 4.96279 16.9993C4.95767 16.8285 4.95215 16.6446 4.95215 16.4202C4.95215 16.3485 4.98804 16.2815 5.0478 16.2417C5.17725 16.1555 5.38676 16.0298 5.59222 15.9066L5.61649 15.8824C5.62744 15.8715 5.63954 15.8617 5.65258 15.8534C6.73625 15.1607 8.74038 14.1567 10.2417 13.892L10.2447 13.8915C11.8348 13.634 12.9532 13.4621 13.8572 13.3331C13.8618 13.3325 13.8665 13.332 13.8711 13.3316C14.4378 13.2881 15.0461 13.2881 15.6441 13.2881Z" fill="#221F1F"/>
<path d="M18.2261 13.5884C17.4528 13.5455 16.5936 13.5026 15.6915 13.5455C15.0901 13.5455 14.4886 13.5884 13.9302 13.5884H13.9731L14.5316 8.09644L14.6605 6.98088C15.0901 6.72345 15.6056 6.59473 16.0781 6.59473H16.164C16.6795 6.59473 17.1521 6.72345 17.5817 6.98088L17.7105 8.09644V8.13935L18.2261 13.5884Z" fill="#929497"/>
<path fill-rule="evenodd" clip-rule="evenodd" d="M14.8616 7.11341L14.7453 8.11951L14.2114 13.3707C14.3939 13.3668 14.5811 13.36 14.7726 13.3531L14.7871 13.3525C15.0803 13.3419 15.3831 13.3311 15.6866 13.3309C16.5021 13.2924 17.2815 13.3231 17.9889 13.3606L17.4969 8.15946C17.4963 8.15275 17.4959 8.14602 17.4959 8.13928V8.10871L17.3809 7.11301C17.0102 6.91064 16.6058 6.80919 16.1642 6.80919H16.0783C15.6747 6.80919 15.2366 6.91144 14.8616 7.11341ZM13.7722 13.4432L14.3184 8.07178L14.4473 6.95622C14.4549 6.89003 14.4929 6.83114 14.5502 6.79686C15.0155 6.51797 15.5697 6.38013 16.0783 6.38013H16.1642C16.7175 6.38013 17.2284 6.51881 17.6924 6.79686C17.7496 6.83114 17.7876 6.89003 17.7952 6.95622L17.9241 8.07179C17.9251 8.07995 17.9255 8.08816 17.9255 8.09638V8.12917L18.4401 13.5682C18.446 13.6304 18.4244 13.6921 18.381 13.7371C18.3377 13.7821 18.2768 13.806 18.2143 13.8026C17.4411 13.7597 16.5918 13.7174 15.7019 13.7598C15.6985 13.7599 15.6951 13.76 15.6917 13.76C15.3955 13.76 15.0986 13.7706 14.8027 13.7813L14.7845 13.782C14.5134 13.7918 14.2427 13.8017 13.9802 13.8028C13.9779 13.8029 13.9756 13.8029 13.9733 13.8029H13.9304C13.8117 13.8029 13.7156 13.7069 13.7156 13.5884C13.7156 13.5324 13.737 13.4814 13.7722 13.4432Z" fill="#221F1F"/>
<path fill-rule="evenodd" clip-rule="evenodd" d="M15.9498 16.6345V16.6346C17.8531 16.6346 19.7133 16.8074 21.5732 17.153C22.9765 17.4078 24.3383 17.7877 25.6585 18.2926L26.1301 18.1114L26.4645 17.9444C26.5653 17.8941 26.6878 17.9301 26.7453 18.0268C27.5748 19.4221 28.1418 20.9475 28.447 22.5587L28.4479 22.5633L28.4478 22.5633C28.5354 23.0877 28.581 23.6221 28.5359 24.119C28.3561 26.2474 26.9123 28.1341 24.6794 29.4809C22.4442 30.8292 19.3972 31.6518 15.9498 31.6518H15.9443L15.9443 31.6517C12.5248 31.5652 9.59703 30.8087 7.47883 29.5458C5.35917 28.2822 4.03625 26.5006 3.87901 24.3745C3.83632 23.8615 3.87583 23.3504 3.91668 22.8219C3.91844 22.7992 3.9202 22.7765 3.92195 22.7537C3.92227 22.7496 3.9227 22.7455 3.92325 22.7414C4.1423 21.1225 4.71152 19.5935 5.54089 18.1984C5.5955 18.1065 5.70946 18.0688 5.8082 18.1099L6.24426 18.2914C7.56343 17.7871 8.92416 17.4076 10.3263 17.153C12.189 16.8069 14.0486 16.6777 15.9449 16.6346L15.9498 16.6345ZM15.9522 17.0636C14.0691 17.1065 12.2352 17.2347 10.4044 17.5749L10.4036 17.5751C8.99915 17.8301 7.63758 18.2126 6.31863 18.7225C6.26698 18.7425 6.2096 18.7418 6.15848 18.7205L5.81632 18.5781C5.0655 19.8831 4.55259 21.3004 4.3498 22.7928C4.34854 22.8091 4.34729 22.8253 4.34604 22.8415C4.30437 23.3815 4.2673 23.8617 4.3072 24.3399L4.30737 24.3419C4.45119 26.2915 5.66276 27.9635 7.69901 29.1774C9.73653 30.3921 12.5857 31.1372 15.9525 31.2227C19.3344 31.2223 22.3006 30.4145 24.4573 29.1136C26.6168 27.8111 27.9437 26.0296 28.1079 24.0823L28.108 24.0808C28.1486 23.6346 28.1085 23.1404 28.0245 22.6361C27.7407 21.1392 27.2246 19.7211 26.4765 18.4181L26.313 18.4998C26.3068 18.5029 26.3005 18.5057 26.294 18.5082L25.7356 18.7227C25.6858 18.7418 25.6307 18.7417 25.5809 18.7225C24.262 18.2126 22.9004 17.8301 21.496 17.5751L21.4951 17.5749C19.6616 17.2342 17.8283 17.0638 15.9522 17.0636Z" fill="#221F1F"/>
<path d="M30.3839 11.9577C29.7825 12.773 29.0951 13.5453 28.2789 14.1889C27.8923 14.5321 27.4627 14.7896 26.9901 15.0041L26.7753 15.0899L26.6465 15.1328C26.3458 15.2186 26.1739 15.1328 25.6155 15.047L25.3577 14.9612C24.7133 14.8325 24.1119 14.4892 23.6394 14.0172C22.6513 13.0304 22.1358 11.9148 22.4795 10.1557C23.8542 10.1986 26.2169 8.69687 27.3338 7.10934C28.6226 5.30728 28.3648 3.16197 28.0641 1.78897C28.0212 1.53153 28.15 1.317 28.4078 1.23119C28.5367 1.18828 28.7085 1.23119 28.7944 1.317C32.0593 3.89137 32.7466 8.52525 30.3839 11.9577Z" fill="#F79422"/>
<path fill-rule="evenodd" clip-rule="evenodd" d="M28.5689 1.43503C28.5288 1.42581 28.4949 1.42846 28.4756 1.43488C28.3884 1.46394 28.3357 1.50989 28.3064 1.55776C28.2778 1.60455 28.2625 1.66771 28.2752 1.74912C28.5776 3.13249 28.852 5.35511 27.509 7.23354C26.9306 8.05536 26.0379 8.84576 25.1179 9.42553C24.2787 9.95436 23.3831 10.3291 22.6593 10.368C22.5308 11.1392 22.5814 11.7668 22.7636 12.3079C22.9593 12.8894 23.3125 13.3877 23.7912 13.8657C24.2372 14.3111 24.8015 14.6315 25.3998 14.751C25.4085 14.7527 25.4171 14.755 25.4256 14.7578L25.6662 14.8379C25.8014 14.859 25.914 14.88 26.0097 14.8981L26.0343 14.9027C26.124 14.9197 26.1944 14.933 26.2579 14.9421C26.3855 14.9603 26.4713 14.9592 26.5832 14.9279L26.7014 14.8885L26.9057 14.8069C27.3619 14.5994 27.7705 14.3533 28.1362 14.0287C28.1393 14.0259 28.1425 14.0232 28.1458 14.0207C28.9417 13.393 29.6155 12.6373 30.2088 11.8335C32.5056 8.49364 31.8357 3.98863 28.6613 1.48555C28.6547 1.48036 28.6484 1.47479 28.6425 1.46887C28.6346 1.46105 28.6098 1.44446 28.5689 1.43503ZM28.9359 1.15544C28.8591 1.08336 28.7598 1.03872 28.6654 1.01696C28.5658 0.994003 28.4494 0.991351 28.3398 1.02784C28.1693 1.08459 28.0287 1.18881 27.9398 1.33403C27.8509 1.47941 27.8232 1.65068 27.8522 1.82441C27.8528 1.82795 27.8535 1.83148 27.8542 1.83499C28.1527 3.19787 28.3911 5.26191 27.159 6.98482L27.158 6.98617C26.6195 7.75164 25.7726 8.50558 24.8886 9.06266C23.9972 9.62442 23.1081 9.96084 22.4861 9.94143C22.3809 9.93814 22.2888 10.0115 22.2686 10.1148C22.091 11.0236 22.1329 11.7808 22.3564 12.4446C22.5795 13.1074 22.978 13.6603 23.4874 14.1691C23.9833 14.6644 24.6169 15.0291 25.3022 15.169L25.5475 15.2507C25.559 15.2545 25.5708 15.2574 25.5827 15.2592C25.7186 15.2801 25.8312 15.301 25.9299 15.3196C25.9388 15.3213 25.9476 15.323 25.9564 15.3247C26.0432 15.3411 26.1235 15.3563 26.1972 15.3668C26.3687 15.3913 26.5186 15.3926 26.7054 15.3393C26.7084 15.3384 26.7114 15.3375 26.7143 15.3365L26.8432 15.2936C26.8472 15.2923 26.8512 15.2908 26.8551 15.2893L27.0699 15.2034C27.0729 15.2022 27.076 15.2009 27.079 15.1996C27.5642 14.9793 28.0117 14.7122 28.4168 14.3536C29.2502 13.6955 29.9489 12.9091 30.5567 12.0852L30.5608 12.0795C32.9851 8.55755 32.283 3.80171 28.9359 1.15544Z" fill="#221F1F"/>
<path d="M26.6891 15.1331L26.5172 16.077C25.3573 15.3905 23.3812 14.3607 21.8777 14.1462C20.2453 13.8888 19.1283 13.7172 18.2262 13.5884L17.6677 8.09644C18.6558 8.13934 19.6438 8.43969 20.546 8.91165C21.2333 9.2549 21.8347 9.72687 22.3502 10.2417L22.5221 10.1988C22.1784 11.9151 22.6939 13.0736 23.682 14.0604C24.1545 14.5324 24.7559 14.8756 25.4003 15.0043C25.4433 15.0043 25.6151 15.0902 25.6581 15.0902C25.9588 15.2189 26.3454 15.2189 26.6891 15.1331Z" fill="#5A595C"/>
<path fill-rule="evenodd" clip-rule="evenodd" d="M17.5117 7.94911C17.5545 7.90381 17.6149 7.87933 17.6772 7.88204C18.7013 7.92651 19.7194 8.23713 20.644 8.72061C21.3171 9.05704 21.9074 9.51073 22.4154 10.0043L22.4702 9.99065C22.5416 9.97281 22.6172 9.99276 22.6705 10.0435C22.7238 10.0943 22.7473 10.1687 22.7329 10.2408C22.5672 11.0684 22.6108 11.7486 22.8066 12.3352C23.0027 12.9229 23.3566 13.4318 23.834 13.9086C24.2792 14.3532 24.8422 14.6732 25.4393 14.7932L25.6923 14.8353C25.8355 14.8574 25.9511 14.8794 26.0479 14.8983C26.0609 14.9009 26.0734 14.9033 26.0855 14.9057C26.1658 14.9215 26.2282 14.9337 26.2858 14.9422C26.4059 14.96 26.4954 14.9602 26.6372 14.9249C26.7079 14.9072 26.7829 14.9266 26.8361 14.9764C26.8894 15.0263 26.9136 15.0997 26.9006 15.1714L26.7288 16.1153C26.7162 16.1844 26.6705 16.243 26.6066 16.2721C26.5426 16.3013 26.4684 16.2973 26.4079 16.2615C25.2472 15.5745 23.3042 14.5664 21.8475 14.3585L21.8444 14.3581L21.8444 14.3581C20.2121 14.1006 19.0965 13.9292 18.196 13.8007C18.0983 13.7868 18.0227 13.7081 18.0127 13.61L17.4542 8.11804C17.4479 8.05607 17.4689 7.99442 17.5117 7.94911ZM22.2621 10.4372C22.2388 10.4267 22.2172 10.412 22.1985 10.3934C21.6952 9.89069 21.1122 9.43409 20.4501 9.10347L20.4465 9.10166L20.4465 9.10162C19.644 8.68176 18.7762 8.40377 17.9073 8.32709L18.4231 13.3999C19.2974 13.526 20.3768 13.6922 21.9098 13.934C22.5137 14.0204 23.187 14.2325 23.8526 14.4999C23.7398 14.41 23.6321 14.3138 23.5303 14.212C23.0197 13.7021 22.6217 13.1382 22.399 12.4709C22.1998 11.874 22.1448 11.2063 22.2621 10.4372ZM25.4221 15.2254C25.7624 15.401 26.08 15.5759 26.3609 15.7373L26.4254 15.3831C26.3582 15.383 26.2924 15.377 26.2228 15.3667C26.1545 15.3565 26.0809 15.3421 26.0019 15.3265C25.9898 15.3242 25.9776 15.3218 25.9653 15.3194C25.8704 15.3008 25.761 15.28 25.6256 15.2592L25.6229 15.2588L25.6229 15.2588L25.4221 15.2254Z" fill="#221F1F"/>
<path fill-rule="evenodd" clip-rule="evenodd" d="M17.4961 7.88184H17.6679V8.31142H17.4961V7.88184Z" fill="#221F1F"/>
<path d="M26.5603 16.0769C26.5173 16.1199 26.5173 16.1199 26.4744 16.1628L26.5603 16.0769Z" fill="#F79422"/>
<path fill-rule="evenodd" clip-rule="evenodd" d="M26.4087 15.9253L26.7124 16.2291L26.6265 16.315L26.3228 16.0112L26.4087 15.9253Z" fill="#221F1F"/>
<path d="M5.63965 16.0769C5.68261 16.1199 5.68261 16.1199 5.72557 16.1628L5.63965 16.0769Z" fill="#F79422"/>
<path fill-rule="evenodd" clip-rule="evenodd" d="M5.48755 16.2291L5.79131 15.9253L5.87723 16.0112L5.57347 16.315L5.48755 16.2291Z" fill="#221F1F"/>
<path fill-rule="evenodd" clip-rule="evenodd" d="M16.2074 24.229C16.3191 24.229 16.4122 24.3145 16.4214 24.4257C16.4274 24.4968 16.4278 24.5672 16.4229 24.6365C16.4583 24.9846 16.6852 25.282 17.0111 25.4004C17.0149 25.4018 17.0186 25.4032 17.0223 25.4048C17.2897 25.5193 17.5507 25.5553 17.8094 25.5183C17.9269 25.5016 18.0357 25.5831 18.0524 25.7004C18.0692 25.8177 17.9876 25.9263 17.8702 25.9431C17.5293 25.9917 17.1908 25.9427 16.8585 25.8015C16.5842 25.7005 16.3596 25.5151 16.2074 25.2813C16.0573 25.5118 15.8368 25.6952 15.5678 25.7972C15.2238 25.9882 14.8274 26.0381 14.473 25.937C14.3589 25.9044 14.2929 25.7857 14.3255 25.6718C14.358 25.5579 14.4769 25.4919 14.591 25.5244C14.8325 25.5934 15.1167 25.5606 15.3705 25.4157C15.3811 25.4097 15.3922 25.4046 15.4037 25.4004C15.7295 25.282 15.9565 24.9846 15.9918 24.6365C15.987 24.5672 15.9874 24.4968 15.9933 24.4257C16.0026 24.3145 16.0957 24.229 16.2074 24.229Z" fill="#171717"/>
<path d="M17.8398 22.9846C17.8398 23.4995 17.0665 24.186 16.1214 24.186C15.1763 24.186 14.4031 23.4995 14.4031 22.9846C14.4031 22.4697 15.1763 22.2981 16.1214 22.2981C17.0665 22.2981 17.8398 22.5126 17.8398 22.9846Z" fill="#171717"/>
<path d="M16.8515 22.8132C16.8515 22.9421 16.5078 23.1139 16.1212 23.1139C15.7345 23.1139 15.3909 22.9421 15.3909 22.8562C15.3909 22.7702 15.7345 22.7702 16.1212 22.7702C16.5078 22.7702 16.8515 22.6843 16.8515 22.8132Z" fill="white"/>
<path fill-rule="evenodd" clip-rule="evenodd" d="M13.4733 24.2296C13.5917 24.238 13.6807 24.3406 13.6723 24.4588C13.6375 24.9446 13.9413 25.3595 14.4269 25.4733H14.532C14.6506 25.4733 14.7468 25.5693 14.7468 25.6878C14.7468 25.8063 14.6506 25.9024 14.532 25.9024H14.4031C14.388 25.9024 14.3729 25.9008 14.3581 25.8976C13.6532 25.7467 13.1931 25.1368 13.2438 24.4283C13.2522 24.3101 13.355 24.2211 13.4733 24.2296Z" fill="#171717"/>
<path fill-rule="evenodd" clip-rule="evenodd" d="M16.1643 23.6284C16.2829 23.6284 16.3791 23.7245 16.3791 23.8429V24.4436C16.3791 24.5621 16.2829 24.6582 16.1643 24.6582C16.0456 24.6582 15.9495 24.5621 15.9495 24.4436V23.8429C15.9495 23.7245 16.0456 23.6284 16.1643 23.6284Z" fill="#171717"/>
<path fill-rule="evenodd" clip-rule="evenodd" d="M18.8831 24.2742C19.0006 24.2574 19.1094 24.3389 19.1262 24.4562C19.2309 25.1887 18.704 25.7928 18.0134 25.9406C17.9986 25.9437 17.9836 25.9453 17.9684 25.9453H17.8395C17.7209 25.9453 17.6248 25.8493 17.6248 25.7308C17.6248 25.6123 17.7209 25.5163 17.8395 25.5163H17.9447C18.4449 25.3995 18.767 24.9792 18.7009 24.5169C18.6841 24.3996 18.7657 24.2909 18.8831 24.2742Z" fill="#171717"/>
<path fill-rule="evenodd" clip-rule="evenodd" d="M30.2077 11.7926C32.5052 8.49644 31.8374 3.99 28.6614 1.48569L28.9276 1.14893C32.2813 3.79336 32.9881 8.55467 30.5602 12.0377L30.2077 11.7926Z" fill="#221F1F"/>
<path fill-rule="evenodd" clip-rule="evenodd" d="M3.36439 1.48741C0.189436 3.99293 -0.519016 8.49878 1.77833 11.8363L1.78148 11.8409C2.32405 12.6746 3.03695 13.3883 3.80086 14.0241L3.80605 14.0286C4.17013 14.3518 4.57676 14.5972 5.03054 14.8041C5.08743 14.8227 5.154 14.8417 5.22591 14.8622L5.22858 14.863C5.29004 14.8805 5.35553 14.8992 5.41573 14.9184H5.55328C5.83155 14.9184 6.06658 14.879 6.30183 14.8006C6.31247 14.7971 6.32337 14.7944 6.33444 14.7926L6.58871 14.7502C7.18578 14.6302 7.74883 14.3102 8.19397 13.8656C8.19617 13.8634 8.19842 13.8613 8.20071 13.8592C8.69544 13.4062 9.04704 12.9105 9.23718 12.3308C9.41422 11.7911 9.45586 11.1644 9.32679 10.4111C8.58561 10.3739 7.68817 9.99896 6.8507 9.46804C5.93522 8.88767 5.05349 8.09696 4.47566 7.27567L4.47329 7.2723C3.17637 5.35164 3.40675 3.13104 3.75568 1.73702C3.75701 1.73169 3.75855 1.72641 3.76029 1.72121C3.772 1.68613 3.77066 1.63153 3.70505 1.53043C3.61392 1.42434 3.45358 1.42218 3.36439 1.48741ZM3.10488 1.14545C3.35796 0.955878 3.79285 0.952988 4.04587 1.26887C4.04975 1.27372 4.05342 1.27873 4.05686 1.28389C4.15621 1.43273 4.23948 1.63018 4.17069 1.84808C3.83346 3.19976 3.63698 5.26483 4.82833 7.03067C5.36747 7.79633 6.2035 8.54955 7.08091 9.10579C7.96579 9.66676 8.85525 10.0037 9.49924 9.98423C9.60403 9.98106 9.6958 10.0539 9.71636 10.1566C9.89384 11.0429 9.86332 11.8001 9.64542 12.4644C9.42792 13.1275 9.02898 13.6821 8.49442 14.1723C7.99578 14.6692 7.35855 15.034 6.66963 15.1716L6.66281 15.1729L6.42136 15.2131C6.14651 15.3028 5.87042 15.3474 5.55353 15.3474H5.3817C5.35861 15.3474 5.33568 15.3437 5.31378 15.3364C5.25464 15.3167 5.18429 15.2966 5.1079 15.2748L5.10512 15.274C5.03194 15.2531 4.95306 15.2306 4.88419 15.2077C4.87706 15.2053 4.87007 15.2026 4.86323 15.1995C4.37716 14.9788 3.92894 14.7112 3.52324 14.3516C2.74226 13.7013 1.99628 12.9576 1.42276 12.0771C-1.00287 8.55067 -0.251291 3.79174 3.10066 1.1487L3.10488 1.14545Z" fill="#221F1F"/>
<path d="M12.9857 20.1958C12.9857 21.1397 12.4273 21.8691 11.7399 21.8691C11.0526 21.8691 10.4941 21.0968 10.4941 20.1958C10.4941 19.3806 10.9237 18.6941 11.4822 18.5225L12.8569 19.5522C12.9428 19.7667 12.9857 19.9813 12.9857 20.1958Z" fill="#221F1F"/>
<path d="M12.5557 19.9815C12.5557 20.3248 12.3409 20.5822 12.1261 20.5822C11.9113 20.5822 11.6965 20.3248 11.6965 19.9815C11.6965 19.6383 11.9113 19.3809 12.1261 19.3809C12.3409 19.3809 12.5557 19.6383 12.5557 19.9815Z" fill="white"/>
<path d="M11.4821 21.483C11.0096 21.8692 10.58 22.2982 10.1933 22.7702C10.0215 22.9847 9.84966 23.2422 9.72079 23.5425C9.59191 23.7999 9.50599 24.1003 9.46303 24.4006C9.42008 24.5293 9.42008 24.701 9.42008 24.8297V25.0442V25.2587C9.42008 25.5591 9.42008 25.8594 9.42008 26.2027C9.46303 26.503 9.50599 26.8463 9.54895 27.1466C9.59191 27.3182 9.59191 27.447 9.63487 27.6186C9.67783 27.7473 9.72079 27.9189 9.8067 28.0476C9.72079 27.9189 9.67783 27.7473 9.59191 27.6186C9.54895 27.4899 9.46303 27.3182 9.42008 27.1895C9.33416 26.8892 9.24824 26.5888 9.16232 26.2456C9.11936 25.9452 9.07641 25.602 9.03345 25.3016V25.0871V24.8297C9.03345 24.6581 9.03345 24.4864 9.03345 24.3577C9.07641 24.0145 9.11936 23.6712 9.24824 23.3709C9.37712 23.0705 9.50599 22.7702 9.67783 22.4698C10.0645 21.9121 10.4511 21.3972 10.9236 20.9681C11.0955 20.8394 11.3103 20.8394 11.4821 20.9681C11.6539 21.0539 11.6539 21.3114 11.4821 21.483Z" fill="#221F1F"/>
<path d="M11.2239 21.3541C11.181 21.3541 11.181 21.3541 11.138 21.3541H11.095H11.0091L10.7943 21.3112C10.6655 21.2683 10.5366 21.2683 10.4077 21.2683C10.15 21.2683 9.84924 21.2683 9.59149 21.3541C9.46261 21.397 9.33373 21.4399 9.20486 21.4828C8.81823 21.6544 8.47456 21.9548 8.25977 22.298C8.38864 21.9977 8.51752 21.7403 8.73231 21.5257C8.81823 21.397 8.94711 21.3112 9.07598 21.2254C9.20486 21.1396 9.33373 21.0538 9.46261 20.9679C9.72036 20.7963 10.0211 20.7105 10.3647 20.6247C10.5366 20.5818 10.6655 20.5818 10.8373 20.5818C10.9232 20.5818 11.0091 20.5818 11.095 20.5818H11.2669C11.4817 20.5818 11.6535 20.7534 11.6965 20.9679C11.7394 21.1825 11.4817 21.3541 11.2239 21.3541Z" fill="#221F1F"/>
<path d="M21.8346 20.1958C21.8346 21.1397 21.2762 21.8691 20.6318 21.8691C19.9874 21.8691 19.343 21.1397 19.343 20.1958C19.343 19.9813 19.386 19.7667 19.4289 19.5522L20.8036 18.5225C21.405 18.6941 21.8346 19.3806 21.8346 20.1958Z" fill="#221F1F"/>
<path d="M19.8159 19.9815C19.8159 20.3248 20.0307 20.5822 20.2455 20.5822C20.4603 20.5822 20.6751 20.3248 20.6751 19.9815C20.6751 19.6383 20.4603 19.3809 20.2455 19.3809C20.0307 19.3809 19.8159 19.6383 19.8159 19.9815Z" fill="white"/>
<path d="M21.4051 20.8826C21.8777 21.3546 22.2643 21.8265 22.608 22.3843C22.7798 22.6417 22.9516 22.9421 23.0805 23.2424C23.2094 23.5428 23.2953 23.886 23.3383 24.1864C23.3812 24.5296 23.3812 24.83 23.3383 25.1732C23.2953 25.4736 23.2524 25.8168 23.2094 26.1171C23.1664 26.4175 23.0805 26.7178 22.9946 27.0182C22.9516 27.1469 22.9087 27.3185 22.8228 27.4472C22.7798 27.576 22.6939 27.7476 22.608 27.8763C22.6509 27.7476 22.7368 27.576 22.7798 27.4472C22.8228 27.3185 22.8657 27.1469 22.9087 27.0182C22.9516 26.7178 23.0376 26.4175 23.0376 26.1171C23.0805 25.8168 23.0805 25.5165 23.0805 25.1732C23.0805 24.8729 23.0376 24.5725 22.9946 24.2722C22.9087 23.9718 22.8228 23.7144 22.6939 23.457C22.565 23.1995 22.3932 22.9421 22.1784 22.7276C21.7918 22.2556 21.3622 21.8265 20.8896 21.4404C20.7178 21.2687 20.7178 21.0542 20.8896 20.8826C21.0185 20.7539 21.2333 20.711 21.4051 20.8397V20.8826Z" fill="#221F1F"/>
<path d="M21.1044 20.5821H21.3192C21.4052 20.5821 21.4911 20.5821 21.577 20.5821C21.7488 20.5821 21.9207 20.5822 22.0925 20.6251C22.4362 20.668 22.7369 20.7538 23.0376 20.8825C23.3383 21.0112 23.5961 21.2257 23.8538 21.4403C24.0686 21.6548 24.2404 21.9551 24.3693 22.2126C24.1975 21.9551 23.9827 21.7406 23.7249 21.569C23.4672 21.3974 23.2094 21.2686 22.9087 21.2257C22.608 21.1828 22.3503 21.1828 22.0495 21.1828C21.9207 21.1828 21.7488 21.2257 21.62 21.2257L21.4052 21.2686H21.3192H21.2763H21.2333H21.1904C20.9756 21.3116 20.7608 21.1399 20.7608 20.9254C20.7178 20.7109 20.8897 20.4963 21.1044 20.4963C21.1474 20.4963 21.1474 20.4963 21.1904 20.4963" fill="#221F1F"/>
</svg>
