<svg width="84" height="26" viewBox="0 0 84 26" fill="none" xmlns="http://www.w3.org/2000/svg">
<path d="M14.9675 11.0245C14.8739 11.0578 14.7756 11.042 14.6791 11.0426C13.5007 11.0438 12.3217 11.0432 11.1433 11.0432C11.1041 11.0432 11.0649 11.0391 11.0263 11.0438C10.8789 11.0613 10.807 11.011 10.821 10.8496C10.8327 10.7145 10.8234 10.5771 10.8234 10.4408C10.8234 9.74953 10.8234 9.05768 10.8222 8.36641C10.8216 8.05236 10.8532 8.09213 10.5368 8.09213C9.03672 8.08979 7.53663 8.08803 6.03655 8.08979C5.52015 8.08979 5.15346 7.88919 4.92538 7.40086C4.49261 6.47566 4.02942 5.5645 3.5791 4.6469C3.54928 4.5855 3.5177 4.52526 3.49079 4.46268C3.3674 4.17553 3.47325 3.98371 3.78087 3.9457C3.86742 3.93517 3.95573 3.93985 4.04346 3.93985C9.92741 3.93985 15.8108 3.93985 21.6947 3.93985C21.8111 3.93985 21.9293 3.92698 22.0433 3.96149C22.2702 4.0305 22.3486 4.19132 22.2649 4.41297C22.248 4.45801 22.2234 4.5007 22.2018 4.54456C21.7257 5.5142 21.2432 6.48093 20.7771 7.45525C20.566 7.89738 20.2157 8.08511 19.7496 8.08628C18.3179 8.09096 16.8857 8.08979 15.4535 8.09096C15.395 8.09096 15.3365 8.09037 15.278 8.09096C14.9651 8.09447 14.9973 8.05353 14.9967 8.36992C14.9949 9.18809 14.9961 10.0057 14.9944 10.8239C14.9944 10.8911 15.009 10.9607 14.9669 11.0239L14.9675 11.0245Z" fill="white"/>
<path d="M32.1055 7.39447C34.2396 7.39447 36.3736 7.39447 38.5077 7.39505C38.6147 7.39505 38.724 7.38979 38.8276 7.4126C39.0188 7.45412 39.0773 7.57694 39.0094 7.76116C38.9896 7.81555 38.9603 7.86701 38.9346 7.91965C38.6001 8.60097 38.2579 9.27937 37.9339 9.96537C37.7772 10.297 37.5246 10.4467 37.1713 10.4496C36.5771 10.4537 35.9824 10.4549 35.3882 10.4566C34.911 10.4578 34.4332 10.4572 33.9559 10.4566C33.6109 10.456 33.6659 10.4572 33.6647 10.7625C33.6629 11.3081 33.6647 11.8538 33.6647 12.3988C33.6641 14.2984 33.6612 16.1979 33.6647 18.0974C33.6647 18.3378 33.6132 18.5536 33.5045 18.7688C33.1571 19.4548 32.8249 20.1484 32.4822 20.8367C32.4155 20.9712 32.3699 21.142 32.1675 21.1373C31.9681 21.1327 31.926 20.9613 31.8593 20.8268C31.4903 20.0864 31.1301 19.3413 30.7569 18.6027C30.6482 18.3875 30.5985 18.1717 30.599 17.9313C30.602 15.5739 30.6002 13.217 30.5967 10.8596C30.5961 10.3935 30.664 10.4601 30.1967 10.4578C29.1639 10.4531 28.1311 10.449 27.0983 10.4543C26.6824 10.456 26.407 10.29 26.2298 9.90046C25.9268 9.23668 25.5906 8.5881 25.2683 7.9331C25.2555 7.90678 25.2438 7.87988 25.2315 7.85356C25.0929 7.55471 25.1753 7.41435 25.5017 7.39681C25.5795 7.39272 25.6578 7.39564 25.7356 7.39564C27.8597 7.39564 29.9838 7.39564 32.1085 7.39564L32.1055 7.39447Z" fill="white"/>
<path d="M63.0085 14.7604C63.0085 15.0709 63.0085 15.3809 63.0085 15.6914C63.0085 16.6844 63.0091 17.6775 63.0079 18.6705C63.0079 18.8968 63.0044 18.9004 62.7892 18.9009C62.1465 18.9027 61.5037 18.8974 60.861 18.9044C60.7107 18.9062 60.6569 18.8635 60.6593 18.7085C60.6674 18.212 60.6622 17.7155 60.6622 17.219C60.6622 15.2037 60.6622 13.1883 60.6622 11.173C60.6622 10.8017 60.6323 10.8525 60.9944 10.8508C61.4523 10.8484 61.9102 10.8619 62.3675 10.8449C62.5769 10.8373 62.7009 10.9052 62.8208 11.0754C63.7062 12.3327 64.6022 13.5825 65.4946 14.8352C65.5391 14.8978 65.5864 14.9586 65.635 15.0241C65.7303 14.9639 65.6923 14.8802 65.6923 14.8136C65.6952 13.6158 65.694 12.4187 65.694 11.221C65.694 11.1625 65.6999 11.1034 65.6929 11.0461C65.6753 10.8941 65.7361 10.8455 65.8905 10.8473C66.4847 10.8555 67.0783 10.8502 67.6725 10.8508C67.7503 10.8508 67.8287 10.8543 67.9064 10.8508C68.0094 10.8455 68.0445 10.897 68.0398 10.9923C68.0369 11.0508 68.0398 11.1093 68.0398 11.1678C68.0398 13.6404 68.0398 16.1131 68.0398 18.5863C68.0398 18.939 68.0749 18.9009 67.7316 18.9021C67.2544 18.9039 66.7771 18.8927 66.2999 18.9074C66.1023 18.9132 65.9841 18.8483 65.8707 18.6875C64.9963 17.4459 64.1132 16.2113 63.2319 14.9744C63.1764 14.8966 63.1179 14.8212 63.0611 14.7451C63.0436 14.7504 63.0261 14.7563 63.0085 14.7615V14.7604Z" fill="white"/>
<path d="M47.3876 13.6147C47.5104 13.5732 47.5444 13.4989 47.5929 13.4422C48.2795 12.645 48.9696 11.8508 49.6468 11.0461C49.7737 10.8952 49.9035 10.8444 50.0936 10.8467C50.7855 10.8561 51.4773 10.8502 52.1692 10.8502C52.2534 10.8502 52.337 10.8502 52.4382 10.8502C52.4154 10.9853 52.33 11.042 52.2703 11.111C51.4592 12.0579 50.6463 13.003 49.8334 13.9486C49.617 14.2007 49.6491 14.1369 49.8088 14.3872C50.7089 15.7996 51.613 17.2096 52.5142 18.6214C52.5645 18.7003 52.6329 18.7723 52.6505 18.8758C52.5552 18.9173 52.468 18.8998 52.3844 18.8998C51.751 18.9015 51.1177 18.8916 50.4843 18.9056C50.2749 18.9103 50.1533 18.8501 50.0433 18.6658C49.4948 17.7459 48.931 16.8353 48.3707 15.9224C48.321 15.8411 48.2859 15.747 48.1877 15.678C47.9385 15.9558 47.6947 16.2318 47.4461 16.5037C47.3695 16.5874 47.3888 16.6856 47.3882 16.7804C47.3864 17.3938 47.3882 18.0079 47.387 18.6214C47.387 18.8974 47.3853 18.8992 47.1256 18.8998C46.5115 18.9009 45.8981 18.9009 45.284 18.8998C45.0378 18.8998 45.0337 18.8974 45.0331 18.6705C45.0319 16.1376 45.0319 13.6053 45.0331 11.0724C45.0331 10.8566 45.0378 10.852 45.2325 10.8508C45.8852 10.8484 46.5384 10.8543 47.1911 10.8467C47.3467 10.8449 47.3905 10.8982 47.3894 11.0479C47.3835 11.7883 47.387 12.5287 47.387 13.2691C47.387 13.3755 47.387 13.4819 47.387 13.6135L47.3876 13.6147Z" fill="white"/>
<path d="M53.6899 14.8732C53.6899 13.6463 53.6899 12.4199 53.6899 11.1929C53.6899 11.1245 53.6916 11.0567 53.6899 10.9882C53.687 10.8911 53.7296 10.8444 53.8291 10.8502C53.8875 10.8537 53.946 10.8502 54.0045 10.8502C55.8257 10.8502 57.6468 10.8502 59.468 10.8502C59.8136 10.8502 59.7873 10.8134 59.7873 11.1572C59.7879 11.576 59.7885 11.9947 59.7873 12.4135C59.7861 12.6509 59.7844 12.6538 59.5487 12.6544C58.4966 12.6556 57.4451 12.6532 56.393 12.6562C55.9923 12.6573 56.0456 12.5965 56.0415 13.0158C56.0391 13.2398 56.0403 13.4638 56.0415 13.6878C56.0426 13.989 56.0122 13.9609 56.3304 13.9615C57.207 13.9627 58.0837 13.9615 58.9598 13.9615C59.0182 13.9615 59.0773 13.9673 59.1352 13.9603C59.2955 13.9416 59.33 14.0194 59.3276 14.1656C59.32 14.6329 59.3264 15.1002 59.3241 15.5674C59.3229 15.7862 59.32 15.7897 59.096 15.7903C58.21 15.792 57.3234 15.7908 56.4374 15.7908C56.3789 15.7908 56.3204 15.7902 56.262 15.7908C56.045 15.7949 56.0432 15.7949 56.0421 16.0166C56.0403 16.3183 56.0491 16.6207 56.0385 16.9219C56.0333 17.0687 56.0888 17.1003 56.2239 17.0991C56.8959 17.0932 57.5679 17.0968 58.2398 17.0968C58.6779 17.0968 59.1165 17.0956 59.5545 17.0968C59.7826 17.0979 59.7861 17.1003 59.7873 17.3131C59.7896 17.7804 59.7838 18.2477 59.7902 18.715C59.792 18.8524 59.7493 18.9039 59.6072 18.9015C59.1884 18.8945 58.7697 18.8992 58.351 18.8992C56.9193 18.8992 55.4876 18.8992 54.056 18.8992C53.9876 18.8992 53.9191 18.8933 53.8513 18.9004C53.7174 18.9132 53.6799 18.8454 53.6887 18.7267C53.6928 18.6688 53.6887 18.6097 53.6887 18.5512C53.6887 17.3243 53.6887 16.0979 53.6887 14.8709L53.6899 14.8732Z" fill="white"/>
<path d="M72.4738 12.5626C72.4738 12.6059 72.4528 12.6357 72.4066 12.6357C72.2861 12.6357 72.1949 12.6357 72.0762 12.6357C71.258 12.6333 70.4398 12.6357 69.6216 12.6339C69.4971 12.6339 69.3965 12.5328 69.3965 12.4082C69.3965 10.821 69.3977 9.23374 69.3988 7.64594C69.3988 7.39855 69.4012 7.39505 69.6567 7.39505C71.8487 7.39446 74.04 7.39505 76.232 7.39505C76.6121 7.39505 76.9916 7.39446 77.3718 7.39505C77.4496 7.39505 77.5297 7.38978 77.6045 7.40499C77.7999 7.44476 77.9104 7.57751 77.8034 7.78922C77.5876 8.21439 77.3811 8.64424 77.1712 9.07233C77.0256 9.36943 76.8741 9.66359 76.7378 9.96536C76.5875 10.2981 76.3296 10.4467 75.9752 10.4502C75.6635 10.4531 75.3518 10.456 75.0401 10.456C74.2704 10.4566 73.5008 10.4555 72.7312 10.456C72.475 10.456 72.4733 10.4584 72.4727 10.7058C72.4715 11.3584 72.4727 11.8158 72.4733 12.4678V12.5614L72.4738 12.5626Z" fill="white"/>
<path d="M12.921 15.2025C13.5345 15.2025 14.148 15.2013 14.7615 15.2025C14.9896 15.2025 14.9937 15.2054 14.9937 15.4166C14.9948 16.4967 14.9937 17.5775 14.9925 18.6577C14.9925 18.8559 14.9428 19.0402 14.8545 19.2185C14.3539 20.2297 13.8573 21.2426 13.3567 22.2538C13.2754 22.4181 13.2023 22.6006 12.9719 22.6041C12.7403 22.6076 12.6637 22.4281 12.5818 22.2626C12.0327 21.1561 11.4853 20.049 10.9385 18.9413C10.8595 18.7817 10.8279 18.6103 10.8279 18.4325C10.8273 17.4202 10.8291 16.4078 10.8203 15.3955C10.8192 15.2341 10.8741 15.1978 11.0227 15.199C11.6555 15.2054 12.2882 15.2019 12.921 15.2019V15.2025Z" fill="white"/>
<path d="M14.9989 13.0989C14.9989 12.4854 14.9977 11.8719 14.9995 11.259C15.0001 11.0532 15.0036 11.0485 15.2042 11.0485C16.3048 11.0461 17.4055 11.0467 18.5055 11.0461C18.5541 11.0461 18.6026 11.0497 18.6512 11.052C18.9237 11.0654 19.129 11.2614 18.9564 11.5994C18.5371 12.4228 18.1383 13.2574 17.7312 14.0872C17.6453 14.2621 17.5552 14.4346 17.4745 14.6113C17.3125 14.9662 17.023 15.1551 16.6516 15.1762C16.1469 15.2049 15.6393 15.1861 15.1334 15.1943C14.9743 15.1967 14.9995 15.092 14.9995 14.9978C14.9989 14.365 14.9995 13.7323 14.9995 13.0995L14.9989 13.0989Z" fill="white"/>
<path d="M79.9071 16.4698C79.9071 17.2091 79.9082 17.9477 79.9065 18.6869C79.9065 18.8957 79.9018 18.8998 79.7012 18.901C79.0591 18.9033 78.4175 18.9033 77.7754 18.901C77.5631 18.9004 77.5601 18.8969 77.5596 18.6688C77.5578 17.9687 77.559 17.2687 77.559 16.5687C77.559 15.7809 77.5578 14.9937 77.5596 14.206C77.5596 14.0007 77.5637 13.9966 77.7637 13.996C78.4058 13.9943 79.0474 13.9943 79.6895 13.996C79.9036 13.996 79.9059 14.0001 79.9065 14.2241C79.9076 14.9727 79.9065 15.7212 79.9065 16.4704L79.9071 16.4698Z" fill="white"/>
<path d="M43.7921 13.0497C43.4798 12.0374 42.8295 11.3473 41.8248 11.0151C40.6458 10.625 39.448 10.6215 38.255 10.9414C37.0988 11.252 36.3385 11.99 36.0315 13.1556C35.7332 14.2884 35.7256 15.4317 36.0221 16.5646C36.3163 17.6886 37.038 18.4378 38.1509 18.7711C39.3264 19.1238 40.5183 19.1261 41.6938 18.7729C42.8044 18.4395 43.5161 17.6909 43.8313 16.5716C43.9857 16.0236 44.036 15.4627 44.0354 14.8955C44.0337 14.2697 43.9775 13.6515 43.7921 13.0497ZM41.502 15.9768C41.3248 16.5704 40.9294 16.9032 40.3165 16.9909C40.034 17.0312 39.7545 17.0289 39.4744 16.9804C38.9533 16.8897 38.586 16.6108 38.3983 16.1078C38.3298 15.9242 38.2831 15.7364 38.2608 15.5423C38.1942 14.9686 38.1953 14.3972 38.3345 13.8322C38.4889 13.2059 38.8831 12.8474 39.5247 12.755C39.8171 12.7129 40.106 12.7152 40.396 12.7655C40.9698 12.8661 41.3394 13.193 41.5008 13.7545C41.6061 14.1229 41.6394 14.4989 41.6335 14.8802C41.6406 15.2516 41.6096 15.6183 41.5025 15.9762L41.502 15.9768Z" fill="white"/>
<path d="M80.0993 11.8204C80.0438 11.4368 79.8572 11.1286 79.6157 10.842C79.1724 10.3168 78.4811 10.1847 77.8735 10.5087C77.3062 10.811 76.9623 11.4233 77.0483 12.0286C77.1167 12.507 77.5448 13.2971 78.2314 13.4609C78.3635 13.4924 78.494 13.5363 78.6174 13.5205C79.5209 13.5188 80.2256 12.693 80.0987 11.8204H80.0993ZM79.549 12.9831C79.0858 13.4422 78.3904 13.4895 77.8758 13.0696C78.3729 13.1696 78.8285 13.0761 79.2238 12.7591C79.6098 12.4491 79.8051 12.0374 79.8104 11.5321C80.0905 11.8994 79.966 12.5702 79.5496 12.9831H79.549Z" fill="white"/>
<path d="M70.9401 15.6978C71.3904 15.6978 71.8407 15.6973 72.291 15.6978C72.4589 15.6978 72.4612 15.7002 72.4618 15.8552C72.4624 16.6482 72.4618 17.4412 72.4612 18.2348C72.4612 18.3804 72.4244 18.5155 72.36 18.6465C71.9922 19.3887 71.6278 20.1326 71.2606 20.8747C71.2009 20.9952 71.1471 21.1291 70.9781 21.1321C70.8079 21.1344 70.7518 21.0028 70.6915 20.8812C70.2886 20.0688 69.8862 19.2559 69.485 18.443C69.4271 18.3261 69.4037 18.1997 69.4037 18.0693C69.4031 17.326 69.4049 16.5833 69.3985 15.84C69.3973 15.7218 69.4382 15.6949 69.547 15.6955C70.0114 15.7002 70.4763 15.6973 70.9407 15.6973L70.9401 15.6978Z" fill="white"/>
<path d="M72.4655 14.1533C72.4655 13.703 72.4643 13.2527 72.4655 12.8024C72.4655 12.6509 72.4684 12.648 72.6158 12.6474C73.4234 12.6456 74.2317 12.6456 75.0393 12.6456C75.075 12.6456 75.1107 12.648 75.1463 12.6497C75.3463 12.6597 75.4972 12.8035 75.3703 13.0515C75.0621 13.6562 74.7697 14.2685 74.4709 14.8779C74.4077 15.006 74.3416 15.1329 74.282 15.2627C74.1632 15.523 73.9504 15.6622 73.6778 15.6774C73.307 15.6984 72.9345 15.6844 72.5631 15.6902C72.4468 15.692 72.4649 15.6154 72.4649 15.5464C72.4649 15.082 72.4649 14.6171 72.4649 14.1527L72.4655 14.1533Z" fill="white"/>
</svg>
