<?xml version="1.0" encoding="UTF-8"?>
<svg id="Layer_1" data-name="Layer 1" xmlns="http://www.w3.org/2000/svg" viewBox="0 0 1436.32 418.36">
  <defs>
    <style>
      .cls-1 {
        stroke-width: 0px;
      }
    </style>
  </defs>
  <path class="cls-1" d="m255.93,175.4c-1.6.57-3.28.3-4.93.31-20.15.02-40.31.01-60.46.01-.67,0-1.34-.07-2,.01-2.52.3-3.75-.56-3.51-3.32.2-2.31.04-4.66.04-6.99,0-11.82,0-23.65-.02-35.47-.01-5.37.53-4.69-4.88-4.69-25.65-.04-51.3-.07-76.95-.04-8.83,0-15.1-3.43-19-11.78-7.4-15.82-15.32-31.4-23.02-47.09-.51-1.05-1.05-2.08-1.51-3.15-2.11-4.91-.3-8.19,4.96-8.84,1.48-.18,2.99-.1,4.49-.1,100.61,0,201.21,0,301.82,0,1.99,0,4.01-.22,5.96.37,3.88,1.18,5.22,3.93,3.79,7.72-.29.77-.71,1.5-1.08,2.25-8.14,16.58-16.39,33.11-24.36,49.77-3.61,7.56-9.6,10.77-17.57,10.79-24.48.08-48.97.06-73.46.08-1,0-2-.01-3,0-5.35.06-4.8-.64-4.81,4.77-.03,13.99-.01,27.97-.04,41.96,0,1.15.25,2.34-.47,3.42Z"/>
  <path class="cls-1" d="m548.97,113.33c36.49,0,72.98,0,109.47.01,1.83,0,3.7-.09,5.47.3,3.27.71,4.27,2.81,3.11,5.96-.34.93-.84,1.81-1.28,2.71-5.72,11.65-11.57,23.25-17.11,34.98-2.68,5.67-7,8.23-13.04,8.28-10.16.07-20.33.09-30.49.12-8.16.02-16.33.01-24.49,0-5.9-.01-4.96.01-4.98,5.23-.03,9.33,0,18.66,0,27.98-.01,32.48-.06,64.96,0,97.44,0,4.11-.88,7.8-2.74,11.48-5.94,11.73-11.62,23.59-17.48,35.36-1.14,2.3-1.92,5.22-5.38,5.14-3.41-.08-4.13-3.01-5.27-5.31-6.31-12.66-12.47-25.4-18.85-38.03-1.86-3.68-2.71-7.37-2.7-11.48.05-40.31.02-80.61-.04-120.92-.01-7.97,1.15-6.83-6.84-6.87-17.66-.08-35.32-.15-52.98-.06-7.11.03-11.82-2.81-14.85-9.47-5.18-11.35-10.93-22.44-16.44-33.64-.22-.45-.42-.91-.63-1.36-2.37-5.11-.96-7.51,4.62-7.81,1.33-.07,2.67-.02,4-.02,36.32,0,72.64,0,108.97,0Z"/>
  <path class="cls-1" d="m1077.39,239.28c0,5.31,0,10.61,0,15.92,0,16.98.01,33.96-.01,50.94,0,3.87-.06,3.93-3.74,3.94-10.99.03-21.98-.06-32.97.06-2.57.03-3.49-.7-3.45-3.35.14-8.49.05-16.98.05-25.47,0-34.46,0-68.92,0-103.38,0-6.35-.51-5.48,5.68-5.51,7.83-.04,15.66.19,23.48-.1,3.58-.13,5.7,1.03,7.75,3.94,15.14,21.5,30.46,42.87,45.72,64.29.76,1.07,1.57,2.11,2.4,3.23,1.63-1.03.98-2.46.98-3.6.05-20.48.03-40.95.03-61.43,0-1,.1-2.01-.02-2.99-.3-2.6.74-3.43,3.38-3.4,10.16.14,20.31.05,30.47.06,1.33,0,2.67.06,4,0,1.76-.09,2.36.79,2.28,2.42-.05,1,0,2,0,3,0,42.28,0,84.56,0,126.85,0,6.03.6,5.38-5.27,5.4-8.16.03-16.32-.16-24.48.09-3.38.1-5.4-1.01-7.34-3.76-14.95-21.23-30.05-42.34-45.12-63.49-.95-1.33-1.95-2.62-2.92-3.92-.3.09-.6.19-.9.28Z"/>
  <path class="cls-1" d="m810.28,219.69c2.1-.71,2.68-1.98,3.51-2.95,11.74-13.63,23.54-27.21,35.12-40.97,2.17-2.58,4.39-3.45,7.64-3.41,11.83.16,23.66.06,35.49.06,1.44,0,2.87,0,4.6,0-.39,2.31-1.85,3.28-2.87,4.46-13.87,16.19-27.77,32.35-41.67,48.52-3.7,4.31-3.15,3.22-.42,7.5,15.39,24.15,30.85,48.26,46.26,72.4.86,1.35,2.03,2.58,2.33,4.35-1.63.71-3.12.41-4.55.41-10.83.03-21.66-.14-32.49.1-3.58.08-5.66-.95-7.54-4.1-9.38-15.73-19.02-31.3-28.6-46.91-.85-1.39-1.45-3-3.13-4.18-4.26,4.75-8.43,9.47-12.68,14.12-1.31,1.43-.98,3.11-.99,4.73-.03,10.49,0,20.99-.02,31.48,0,4.72-.03,4.75-4.47,4.76-10.5.02-20.99.02-31.49,0-4.21,0-4.28-.04-4.29-3.92-.02-43.31-.02-86.61,0-129.92,0-3.69.08-3.77,3.41-3.79,11.16-.04,22.33.06,33.49-.07,2.66-.03,3.41.88,3.39,3.44-.1,12.66-.04,25.32-.04,37.98,0,1.82,0,3.64,0,5.89Z"/>
  <path class="cls-1" d="m918.05,241.21c0-20.98,0-41.95,0-62.93,0-1.17.03-2.33,0-3.5-.05-1.66.68-2.46,2.38-2.36,1,.06,2,0,3,0,31.14,0,62.28,0,93.42,0,5.91,0,5.46-.63,5.46,5.25.01,7.16.02,14.32,0,21.48-.02,4.06-.05,4.11-4.08,4.12-17.99.02-35.97-.02-53.96.03-6.85.02-5.94-1.02-6.01,6.15-.04,3.83-.02,7.66,0,11.49.02,5.15-.5,4.67,4.94,4.68,14.99.02,29.98,0,44.96,0,1,0,2.01.1,3-.02,2.74-.32,3.33,1.01,3.29,3.51-.13,7.99-.02,15.98-.06,23.97-.02,3.74-.07,3.8-3.9,3.81-15.15.03-30.31.01-45.46.01-1,0-2-.01-3,0-3.71.07-3.74.07-3.76,3.86-.03,5.16.12,10.33-.06,15.48-.09,2.51.86,3.05,3.17,3.03,11.49-.1,22.98-.04,34.47-.04,7.49,0,14.99-.02,22.48,0,3.9.02,3.96.06,3.98,3.7.04,7.99-.06,15.98.05,23.97.03,2.35-.7,3.23-3.13,3.19-7.16-.12-14.32-.04-21.48-.04-24.48,0-48.96,0-73.44,0-1.17,0-2.34-.1-3.5.02-2.29.22-2.93-.94-2.78-2.97.07-.99,0-2,0-3,0-20.98,0-41.95,0-62.93Z"/>
  <path class="cls-1" d="m1239.24,201.7c0,.74-.36,1.25-1.15,1.25-2.06,0-3.62,0-5.65,0-13.99-.04-27.98,0-41.97-.03-2.13,0-3.85-1.73-3.85-3.86,0-27.14.02-54.28.04-81.43,0-4.23.04-4.29,4.41-4.29,37.48-.01,74.95,0,112.43,0,6.5,0,12.99-.01,19.49,0,1.33,0,2.7-.09,3.98.17,3.34.68,5.23,2.95,3.4,6.57-3.69,7.27-7.22,14.62-10.81,21.94-2.49,5.08-5.08,10.11-7.41,15.27-2.57,5.69-6.98,8.23-13.04,8.29-5.33.05-10.66.1-15.99.1-13.16.01-26.32-.01-39.48,0-4.38,0-4.41.04-4.42,4.27-.02,11.16,0,18.98.01,30.13v1.6Z"/>
  <path class="cls-1" d="m220.93,246.84c10.49,0,20.98-.02,31.47,0,3.9,0,3.97.05,3.97,3.66.02,18.47,0,36.95-.02,55.42,0,3.39-.85,6.54-2.36,9.59-8.56,17.29-17.05,34.61-25.61,51.9-1.39,2.81-2.64,5.93-6.58,5.99-3.96.06-5.27-3.01-6.67-5.84-9.39-18.92-18.75-37.85-28.1-56.79-1.35-2.73-1.89-5.66-1.89-8.7-.01-17.31.02-34.62-.13-51.93-.02-2.76.92-3.38,3.46-3.36,10.82.11,21.64.05,32.46.05Z"/>
  <path class="cls-1" d="m256.47,210.87c0-10.49-.02-20.98.01-31.46.01-3.52.07-3.6,3.5-3.6,18.82-.04,37.64-.03,56.45-.04.83,0,1.66.06,2.49.1,4.66.23,8.17,3.58,5.22,9.36-7.17,14.08-13.99,28.35-20.95,42.54-1.47,2.99-3.01,5.94-4.39,8.96-2.77,6.07-7.72,9.3-14.07,9.66-8.63.49-17.31.17-25.96.31-2.72.04-2.29-1.75-2.29-3.36-.01-10.82,0-21.64,0-32.46Z"/>
  <path class="cls-1" d="m1366.33,268.51c0,12.64.02,25.27-.01,37.91,0,3.57-.08,3.64-3.51,3.66-10.98.04-21.95.04-32.93,0-3.63-.01-3.68-.07-3.69-3.97-.03-11.97-.01-23.94-.01-35.91,0-13.47-.02-26.93.01-40.4,0-3.51.07-3.58,3.49-3.59,10.98-.03,21.95-.03,32.93,0,3.66,0,3.7.07,3.71,3.9.02,12.8,0,25.6,0,38.41Z"/>
  <path class="cls-1" d="m748.8,210.03c-5.34-17.31-16.46-29.11-33.64-34.79-20.16-6.67-40.64-6.73-61.04-1.26-19.77,5.31-32.77,17.93-38.02,37.86-5.1,19.37-5.23,38.92-.16,58.29,5.03,19.22,17.37,32.03,36.4,37.73,20.1,6.03,40.48,6.07,60.58.03,18.99-5.7,31.16-18.5,36.55-37.64,2.64-9.37,3.5-18.96,3.49-28.66-.03-10.7-.99-21.27-4.16-31.56Zm-39.16,50.05c-3.03,10.15-9.79,15.84-20.27,17.34-4.83.69-9.61.65-14.4-.18-8.91-1.55-15.19-6.32-18.4-14.92-1.17-3.14-1.97-6.35-2.35-9.67-1.14-9.81-1.12-19.58,1.26-29.24,2.64-10.71,9.38-16.84,20.35-18.42,5-.72,9.94-.68,14.9.18,9.81,1.72,16.13,7.31,18.89,16.91,1.8,6.3,2.37,12.73,2.27,19.25.12,6.35-.41,12.62-2.24,18.74Z"/>
  <path class="cls-1" d="m1369.63,189.01c-.95-6.56-4.14-11.83-8.27-16.73-7.58-8.98-19.4-11.24-29.79-5.7-9.7,5.17-15.58,15.64-14.11,25.99,1.17,8.18,8.49,21.69,20.23,24.49,2.26.54,4.49,1.29,6.6,1.02,15.45-.03,27.5-14.15,25.33-29.07Zm-9.41,19.88c-7.92,7.85-19.81,8.66-28.61,1.48,8.5,1.71,16.29.11,23.05-5.31,6.6-5.3,9.94-12.34,10.03-20.98,4.79,6.28,2.66,17.75-4.46,24.81Z"/>
  <path class="cls-1" d="m1213,255.31c7.7,0,15.4-.01,23.1,0,2.87,0,2.91.04,2.92,2.69.01,13.56,0,27.12-.01,40.69,0,2.49-.63,4.8-1.73,7.04-6.29,12.69-12.52,25.41-18.8,38.1-1.02,2.06-1.94,4.35-4.83,4.4-2.91.04-3.87-2.21-4.9-4.29-6.89-13.89-13.77-27.79-20.63-41.69-.99-2-1.39-4.16-1.39-6.39-.01-12.71.02-25.41-.09-38.12-.02-2.02.68-2.48,2.54-2.47,7.94.08,15.89.03,23.83.03Z"/>
  <path class="cls-1" d="m1239.09,228.9c0-7.7-.02-15.4,0-23.1,0-2.59.05-2.64,2.57-2.65,13.81-.03,27.63-.03,41.44-.03.61,0,1.22.04,1.83.07,3.42.17,6,2.63,3.83,6.87-5.27,10.34-10.27,20.81-15.38,31.23-1.08,2.19-2.21,4.36-3.23,6.58-2.03,4.45-5.67,6.83-10.33,7.09-6.34.36-12.71.12-19.06.22-1.99.03-1.68-1.28-1.68-2.46,0-7.94,0-15.89,0-23.83Z"/>
</svg>