<svg width="18" height="18" viewBox="0 0 18 18" fill="none" xmlns="http://www.w3.org/2000/svg">
<path d="M13.5486 0.905725L13.6528 1.11381L14.439 3.20462C14.5008 3.36927 14.6307 3.49919 14.7954 3.56096L16.814 4.31829C17.6999 4.65063 18.1759 5.59722 17.9399 6.49282L17.8831 6.67107L16.9439 8.74803C16.8712 8.90813 16.8712 9.09187 16.9439 9.25197L17.8358 11.2149C18.2272 12.0763 17.8945 13.0822 17.0943 13.5486L16.8862 13.6528L14.7954 14.439C14.6307 14.5008 14.5008 14.6307 14.439 14.7954L13.6817 16.814C13.3494 17.6999 12.4028 18.1759 11.5072 17.9399L11.3289 17.8831L9.25197 16.9439C9.09187 16.8712 8.90813 16.8712 8.74803 16.9439L6.78511 17.8358C5.92372 18.2272 4.91778 17.8945 4.45141 17.0943L4.34718 16.8862L3.56096 14.7954C3.49919 14.6307 3.36927 14.5008 3.20462 14.439L1.18597 13.6817C0.300118 13.3494 -0.17591 12.4028 0.0601429 11.5072L0.116938 11.3289L1.05606 9.25197C1.12881 9.09187 1.12881 8.90813 1.05606 8.74803L0.164176 6.78511C-0.227213 5.92372 0.105523 4.91778 0.905725 4.45141L1.11381 4.34718L3.20462 3.56096C3.36927 3.49919 3.49919 3.36927 3.56096 3.20462L4.31829 1.18597C4.65063 0.300118 5.59722 -0.17591 6.49282 0.0601429L6.67107 0.116938L8.74803 1.05606C8.90813 1.12881 9.09187 1.12881 9.25197 1.05606L11.2149 0.164176C12.0763 -0.227213 13.0822 0.105523 13.5486 0.905725Z" fill="url(#paint0_linear_23298_8059)"/>
<path d="M7.60184 10.8376L11.9467 5.87208C12.1682 5.61891 12.553 5.59326 12.8062 5.81478C13.0594 6.0363 13.085 6.42112 12.8635 6.67429L8.08991 12.1298C7.85789 12.395 7.44995 12.4086 7.2008 12.1594L5.15497 10.1136C4.91709 9.87574 4.91709 9.49007 5.15497 9.25219C5.39284 9.01432 5.77851 9.01432 6.01639 9.25219L7.60184 10.8376Z" fill="white"/>
<defs>
<linearGradient id="paint0_linear_23298_8059" x1="9" y1="0" x2="9" y2="18" gradientUnits="userSpaceOnUse">
<stop stop-color="#59B0F3"/>
<stop offset="1" stop-color="#118BE8"/>
</linearGradient>
</defs>
</svg>
