<svg width="25" height="25" viewBox="0 0 25 25" fill="none" xmlns="http://www.w3.org/2000/svg">
<g clip-path="url(#clip0_2805_13604)">
<path d="M23.3578 10.2538C23.3443 9.20003 23.1226 8.15928 22.7056 7.19139C22.2886 6.2235 21.6844 5.34754 20.9278 4.61385C20.7934 4.49555 20.6297 4.41552 20.4538 4.38209C20.2779 4.34867 20.0963 4.36309 19.9278 4.42385C19.7553 4.49169 19.605 4.60617 19.4937 4.75451C19.3825 4.90285 19.3147 5.07919 19.2978 5.26385C19.26 5.61704 19.0844 5.94107 18.8092 6.16569C18.5341 6.39032 18.1815 6.49745 17.8278 6.46385C17.2203 5.83779 16.8131 5.04494 16.6582 4.18646C16.5032 3.32797 16.6075 2.44278 16.9578 1.64385C17.0447 1.48958 17.089 1.31503 17.0862 1.13803C17.0835 0.961037 17.0338 0.787936 16.9423 0.636415C16.8508 0.484893 16.7207 0.360381 16.5653 0.275599C16.4099 0.190817 16.2348 0.148803 16.0578 0.153849C11.7478 0.153849 8.50784 2.56385 7.55784 6.36385C7.3052 6.27626 7.07993 6.12399 6.90447 5.92221C6.72901 5.72044 6.6095 5.4762 6.55784 5.21385C6.53163 5.03822 6.45913 4.87274 6.34779 4.73441C6.23645 4.59608 6.09028 4.48989 5.92431 4.42676C5.75834 4.36363 5.57855 4.34583 5.40342 4.3752C5.22829 4.40456 5.06414 4.48003 4.92784 4.59385C3.98867 5.38809 3.26198 6.40363 2.81331 7.54887C2.36465 8.6941 2.20812 9.93301 2.35784 11.1538C2.48385 12.1274 2.83388 13.0586 3.38044 13.8741C3.927 14.6896 4.6552 15.3672 5.50784 15.8538C5.54208 15.8706 5.57971 15.8793 5.61784 15.8793C5.65597 15.8793 5.6936 15.8706 5.72784 15.8538C5.76376 15.841 5.7961 15.8198 5.82219 15.792C5.84827 15.7642 5.86735 15.7305 5.87784 15.6938C6.01432 15.2244 6.19513 14.769 6.41784 14.3338C6.4485 14.2789 6.45729 14.2144 6.44246 14.1532C6.42763 14.092 6.39027 14.0387 6.33784 14.0038C5.79436 13.6642 5.33304 13.2082 4.98718 12.6686C4.64132 12.1291 4.41954 11.5195 4.33784 10.8838C4.18843 9.56623 4.52634 8.23947 5.28784 7.15385C5.67118 7.61138 6.16006 7.96879 6.71232 8.19527C7.26458 8.42175 7.86364 8.51049 8.45784 8.45385C8.68119 8.43121 8.89043 8.33407 9.05187 8.17807C9.2133 8.02207 9.31756 7.81629 9.34784 7.59385C9.49159 6.23611 10.0941 4.968 11.0559 3.99894C12.0177 3.02988 13.2812 2.41782 14.6378 2.26385C14.4484 3.37453 14.5578 4.51562 14.955 5.57003C15.3521 6.62443 16.0227 7.55418 16.8978 8.26385C17.0463 8.3643 17.219 8.42301 17.3978 8.43385C17.974 8.49993 18.5577 8.42424 19.0979 8.21336C19.6382 8.00248 20.1188 7.6628 20.4978 7.22385C21.05 8.12793 21.3471 9.16457 21.3578 10.2238C21.3759 10.8291 21.2534 11.4303 21.0001 11.9803C20.7468 12.5303 20.3695 13.0141 19.8978 13.3938C19.8503 13.433 19.8189 13.4884 19.8097 13.5493C19.8005 13.6102 19.8141 13.6723 19.8478 13.7238C20.1093 14.1419 20.3303 14.5839 20.5078 15.0438C20.523 15.0801 20.5462 15.1124 20.5756 15.1384C20.6051 15.1643 20.64 15.1833 20.6778 15.1938C20.7109 15.2085 20.7467 15.216 20.7828 15.216C20.819 15.216 20.8548 15.2085 20.8878 15.1938C21.6707 14.6338 22.3049 13.8911 22.7354 13.0301C23.1659 12.1692 23.3795 11.2162 23.3578 10.2538Z" fill="#904BFF"/>
<path d="M12.0889 11.7738C13.301 11.5328 14.5574 11.6564 15.6992 12.1293C16.8412 12.6023 17.8181 13.4033 18.5049 14.431C19.1916 15.4588 19.5576 16.6676 19.5576 17.9037C19.555 19.5605 18.8961 21.1491 17.7246 22.3207C16.5531 23.4922 14.9644 24.151 13.3076 24.1537C12.0718 24.1536 10.8636 23.7875 9.83594 23.101C8.80813 22.4142 8.00625 21.4373 7.5332 20.2953C7.06035 19.1535 6.93673 17.897 7.17773 16.6849C7.41889 15.4726 8.01463 14.3588 8.88867 13.4847C9.76275 12.6107 10.8765 12.015 12.0889 11.7738Z" fill="#904BFF"/>
</g>
<defs>
<clipPath id="clip0_2805_13604">
<rect width="24" height="24" fill="white" transform="translate(0.828125 0.153809)"/>
</clipPath>
</defs>
</svg>
