<svg width="120" height="120" viewBox="0 0 120 120" fill="none" xmlns="http://www.w3.org/2000/svg">
<g clip-path="url(#clip0_229_618)">
<path d="M77.8241 33.4642C89.5167 28.5108 96.2736 40.2724 93.1286 50.369C91.244 56.4112 86.7144 61.2229 82.5602 65.7802C81.6908 66.7159 83.0589 68.1437 83.9398 67.1968C85.0384 65.9935 86.1716 64.7342 87.2828 63.4295C89.1273 62.1007 91.1265 61.022 93.3448 60.4199C96.5024 59.5709 103.79 58.5286 101.497 66.4374C101.131 67.7069 99.7623 68.8616 98.8826 69.7183C94.4723 74.0353 88.6866 76.62 82.5371 75.1738C82.3347 75.126 82.1426 75.1573 81.961 75.2451C79.922 73.3799 78.0971 71.5287 76.7395 70.1574C73.4902 66.8665 71.0538 61.8045 67.8069 58.3331C67.4039 48.7533 70.6111 36.5262 77.8241 33.4642Z" fill="#F088B6"/>
<path d="M56.3492 65.1284C57.9205 69.9421 62.8456 74.4281 66.1273 76.9752C68.8065 79.0407 71.7165 80.7032 74.7883 82.0747C75.9478 88.1798 78.0967 102.158 69.3954 100.949C61.6848 99.8656 62.2221 85.7197 63.6364 80.269C63.8144 79.606 63.0738 79.3255 62.652 79.6695C62.2993 79.0558 61.3891 78.8069 60.9724 79.6134C57.5923 86.177 51.8901 91.8189 44.05 91.9968C36.0067 92.1946 28.3965 86.0941 28.5758 77.6836C28.8843 63.7828 44.8065 63.0355 56.3492 65.1284Z" fill="#F088B6"/>
<path d="M58.0739 50.7159C58.1539 49.7923 57.8053 48.8629 56.9899 48.2769C57.075 48.6615 57.1712 49.0575 57.2452 49.4306C57.6235 49.8191 57.8995 50.2625 58.0739 50.7159ZM65.9804 72.7326C65.9804 72.7326 66.0264 72.6656 66.0495 72.6208C66.005 72.5751 65.9263 72.5628 65.8818 72.5171C65.6809 72.3565 65.5026 72.1963 65.3132 72.0246C63.4714 70.5905 61.879 69.0695 60.4476 67.3025C60.8431 68.0972 61.565 68.93 62.6139 69.7784C63.5686 70.9188 64.6372 71.9705 65.7519 72.9552C65.8319 72.8773 65.8893 72.7991 65.9804 72.7326ZM50.9946 56.4524C52.3048 58.0035 54.3897 58.9559 56.6372 58.7038C56.7295 58.5471 56.8104 58.4016 56.9027 58.2449C54.1705 58.4793 52.9022 58.0227 50.9946 56.4524ZM49.7763 51.384C49.3843 52.8786 49.6577 54.3709 50.3968 55.6099C50.3866 55.5308 50.3986 55.4746 50.4107 55.4184C50.3117 55.2254 50.2128 55.0323 50.1367 54.817C49.9078 54.2163 49.8489 53.5614 49.9141 52.897C49.8629 52.5016 49.8915 52.0509 50.0105 51.5788C49.9438 51.5102 49.8542 51.4639 49.7763 51.384ZM78.4379 80.6793C81.3542 81.8683 84.3643 82.7878 87.421 83.5953C85.9392 83.0794 84.5486 82.4971 83.2042 81.8251C83.0338 81.9244 82.8191 81.9554 82.583 81.8958C81.819 81.6827 81.1136 81.3012 80.4542 80.8526C79.9376 80.6879 79.4439 80.5009 78.9505 80.2914C78.8242 80.4589 78.6531 80.6032 78.4379 80.6793ZM44.0498 91.9965C51.8899 91.8186 57.5921 86.1766 60.9722 79.613C61.3889 78.8066 62.299 79.0555 62.6518 79.6691C63.0736 79.3251 63.8142 79.6056 63.6362 80.2686C62.2219 85.7193 61.6846 99.8652 69.3952 100.949C78.0965 102.158 75.9475 88.1795 74.7881 82.0743C71.7163 80.7029 68.8062 79.0403 66.1271 76.9749C62.8454 74.4277 57.9203 69.9417 56.349 65.128C44.8063 63.0351 28.8841 63.7824 28.5756 77.6832C28.3963 86.0937 36.0065 92.1942 44.0498 91.9965ZM93.1284 50.3691C96.2734 40.2726 89.5165 28.5109 77.8239 33.4644C70.6109 36.5263 67.4038 48.7534 67.8067 58.3332C71.0536 61.8046 73.49 66.8666 76.7393 70.1576C78.0855 71.54 79.9218 73.38 81.9608 75.2453C82.1424 75.1575 82.3345 75.1262 82.5369 75.174C88.6864 76.6201 94.4721 74.0354 98.8824 69.7184C99.7622 68.8617 101.131 67.707 101.497 66.4375C103.79 58.5287 96.5023 59.5711 93.3446 60.4201C91.1263 61.0222 89.1272 62.1008 87.2826 63.4296C86.1714 64.7343 85.0382 65.9936 83.9396 67.197C83.0587 68.1439 81.6906 66.716 82.5601 65.7803C86.7142 61.223 91.2439 56.4113 93.1284 50.3691ZM83.6655 30.0685C90.1354 30.3122 94.8513 36.1149 95.7296 42.1599C96.6597 48.5552 94.0457 54.3283 90.4031 59.4337C93.1956 58.0499 96.261 57.3575 99.219 57.9493C102.649 58.6602 104.98 61.4428 104.291 64.986C102.861 72.4777 92.4152 78.6206 84.6926 77.5934C87.7383 80.0809 91.0365 82.2336 93.9167 82.7454C93.9167 82.7454 93.9507 82.7346 93.9621 82.7235C94.5421 82.359 95.271 82.6732 95.6135 83.2078C95.6685 83.31 95.7347 83.4236 95.8122 83.5262C96.3421 84.3903 95.5733 85.3837 94.6593 85.428C94.5125 85.4373 94.3436 85.4238 94.1746 85.4103C94.5399 85.9226 94.257 86.8436 93.5023 86.7772C87.9606 86.2751 82.3941 85.0848 77.177 83.0646C78.1484 87.1937 78.6983 91.6443 77.6183 95.701C76.6915 99.2524 73.9121 103.896 69.6843 103.806C65.4565 103.716 63.132 98.7228 61.9705 95.313C60.6139 91.3141 60.4444 87.0941 61.434 83.0587C57.3843 89.9405 50.2592 94.8756 41.9022 94.0656C35.0206 93.3991 28.7982 88.9522 26.9832 82.1054C22.2575 64.2922 41.9581 60.9561 55.9538 63.465C55.798 62.4592 55.7889 61.4442 56.0165 60.4435C50.1876 61.1781 45.4949 55.3306 47.7346 49.7217C40.1933 43.5319 31.954 36.3968 32.3151 26.1843C32.3505 25.215 33.8163 25.2344 33.826 26.2044C33.8796 36.614 41.9407 41.8747 48.3602 48.4669C48.4522 48.3328 48.4991 48.1981 48.5911 48.064C49.4654 46.7674 50.6049 45.8804 51.8749 45.3559C45.8404 36.0961 43.182 24.8174 44.7604 13.7978C44.8611 13.0098 46.1778 13.2189 46.1225 13.9851C45.2967 25.2289 47.5623 35.51 53.0983 44.9436C58.336 43.7162 64.6074 47.8705 62.0539 54.1858C61.9141 54.5222 61.7295 54.8355 61.5449 55.1489C62.9223 55.0318 64.3944 55.4235 65.7346 56.4111C65.9132 56.5488 66.0801 56.7202 66.2587 56.8579C65.969 44.6971 71.9656 29.62 83.6655 30.0685Z" fill="#1E1E1E"/>
</g>
<defs>
<clipPath id="clip0_229_618">
<rect width="82" height="86.6725" fill="white" transform="translate(0 57.208) rotate(-44.2398)"/>
</clipPath>
</defs>
</svg>
