<svg width="50" height="45" viewBox="0 0 50 45" fill="none" xmlns="http://www.w3.org/2000/svg">
<path d="M12.9541 16.6279C13.3213 17.334 14.4511 16.8256 14.2252 16.0913C14.1404 15.7806 14.0274 15.4134 13.9145 15.0462C14.0839 15.2439 14.2534 15.4134 14.4229 15.5829C14.7336 15.95 15.3832 15.5546 15.242 15.1027C14.79 13.8317 14.0839 12.8431 13.2366 12.1088C12.474 7.98502 12.5022 3.2399 17.1626 2.02537C21.2299 0.952073 23.1787 5.18879 23.6307 8.80412C23.4329 9.70795 23.4329 10.6683 23.6307 11.6286C23.7154 12.0805 24.1108 12.2782 24.5062 12.2782L24.5627 14.1706C21.71 14.2836 18.9703 16.2325 17.897 19.0005C16.4283 22.7853 18.9138 26.5136 22.5573 27.7281L21.3993 30.1289C21.2581 30.1289 21.1169 30.1289 20.9756 30.2136C20.6932 30.1007 20.3543 30.1289 20.1565 30.4396C19.4787 31.5976 19.1115 32.8404 18.9985 34.0267C16.7954 36.7947 12.8412 37.8962 9.19759 37.7267C5.46928 37.5573 2.0799 35.0435 4.31124 31.0045C5.52576 28.8297 7.8136 27.6434 10.0167 26.5418C10.7511 26.3724 11.4572 26.1182 12.1915 25.6945C13.0954 25.1861 12.474 23.5479 11.4572 23.9715C6.51433 25.9769 0.469954 22.3898 2.30586 16.5997C3.80283 11.9675 8.29375 11.4874 11.7679 13.408C12.0785 14.5943 12.474 15.6958 12.9259 16.6279H12.9541Z" fill="white"/>
<path d="M21.4281 30.1295L22.5861 27.7287C26.0885 28.8868 30.0428 27.3333 31.1726 23.6615C32.1894 20.3851 30.8336 16.7698 27.8397 15.1881C27.8114 14.9904 27.6984 14.7644 27.416 14.6514C26.4839 14.2278 25.5236 14.0865 24.5633 14.143L24.5068 12.2506C25.0152 12.2506 25.5236 11.9399 25.4671 11.3185C25.0717 6.71465 30.6359 1.5741 34.9291 5.16118C37.2169 7.05358 37.5276 10.6407 36.2001 13.2392C35.268 13.8041 34.4489 14.5667 33.7993 15.64C33.1779 16.685 34.6466 17.8713 35.4657 16.9393C39.1376 12.9003 47.1591 14.4255 47.2438 20.6393C47.2721 23.492 45.5491 26.3165 43.1766 27.8135C40.5498 29.4799 37.6971 29.2257 35.0703 28.0112C34.7031 27.6158 34.3077 27.2486 33.8558 26.9096C32.9237 26.2035 31.681 27.7852 32.5848 28.5761C37.3299 32.6151 36.4261 40.4671 29.9015 41.9923C24.9305 43.1504 21.3999 39.535 20.835 35.2136C21.6823 34.1121 22.2755 32.841 22.5297 31.4006C22.6426 30.638 21.993 30.1295 21.3999 30.1295H21.4281Z" fill="white"/>
<path d="M19.5354 20.1023C20.3545 16.9954 23.8286 15.3854 26.8225 16.2045C26.9638 16.2328 27.0767 16.2045 27.1897 16.2045C31.5959 19.2832 29.7317 27.7284 23.5744 26.062C20.9759 25.3558 18.7728 22.955 19.5636 20.1305L19.5354 20.1023Z" fill="#FEC703"/>
<path d="M17.9248 18.9721C18.9981 16.2041 21.7096 14.2552 24.5905 14.1422C25.5509 14.0858 26.5394 14.227 27.4433 14.6506C27.6975 14.7636 27.8104 14.9613 27.8669 15.1873C30.8609 16.769 32.2166 20.3843 31.1998 23.6607C30.07 27.3325 26.1158 28.886 22.6134 27.728C18.9698 26.5134 16.4843 22.7569 17.953 19.0003L17.9248 18.9721ZM23.5737 26.0333C29.7311 27.6997 31.5952 19.2545 27.189 16.1759C27.0478 16.2041 26.9348 16.2324 26.8219 16.1759C23.8279 15.3568 20.3821 16.995 19.5347 20.0736C18.7721 22.8981 20.9752 25.2989 23.5455 26.005L23.5737 26.0333Z" fill="#1E1E1E"/>
<path d="M1.88211 31.8241C2.58823 29.3668 4.3959 27.7287 6.57075 26.5706C2.10808 25.5256 -1.2813 20.724 0.469871 15.7529C2.05158 11.2902 7.3616 9.34132 11.2876 10.8948C10.6097 6.03668 11.7678 0.754908 17.445 0.0487887C21.6252 -0.431372 23.913 2.7038 24.6474 6.31913C26.8505 2.78853 31.7086 0.78316 35.4934 3.21221C38.5438 5.1611 39.4477 9.14361 38.3744 12.3918C43.2607 11.2902 49.3615 14.849 49.5875 20.3003C49.8982 26.5706 42.6958 32.6432 37.0186 31.0333C39.0805 36.1456 36.6514 42.5854 30.4941 44.0259C25.1276 45.2969 20.2695 41.6533 19.1962 36.9647C15.4114 40.0151 9.28225 40.8342 5.07378 39.0831C2.13633 37.8685 1.00654 34.8463 1.85388 31.8524L1.88211 31.8241ZM11.796 13.4086C8.32192 11.4879 3.83101 11.9681 2.33404 16.6002C0.498126 22.3904 6.5425 25.9492 11.4853 23.9721C12.5021 23.5484 13.1235 25.1866 12.2197 25.695C11.4853 26.1187 10.7792 26.3729 10.0448 26.5424C7.84175 27.6439 5.55394 28.8302 4.33941 31.0051C2.10807 35.0441 5.49745 37.5578 9.22576 37.7273C12.8693 37.8968 16.8236 36.7952 19.0267 34.0272C19.1679 32.8127 19.5068 31.5982 20.1847 30.4402C20.3824 30.1295 20.7214 30.1012 21.0038 30.2142C21.145 30.1295 21.258 30.1295 21.4275 30.1295C22.0206 30.1295 22.6702 30.6379 22.5573 31.4005C22.3031 32.841 21.7099 34.1402 20.8626 35.2135C21.4275 39.5067 24.9581 43.1503 29.9292 41.9923C36.4537 40.467 37.3575 32.615 32.6124 28.576C31.7086 27.8134 32.9513 26.2034 33.8834 26.9096C34.3353 27.2485 34.7308 27.6157 35.0979 28.0111C37.7247 29.2256 40.5774 29.4516 43.2042 27.8134C45.605 26.3164 47.3279 23.4919 47.2714 20.6392C47.1867 14.4254 39.1652 12.9002 35.4934 16.9392C34.6743 17.8712 33.2056 16.685 33.8269 15.6399C34.4766 14.5948 35.2957 13.804 36.2277 13.2391C37.5552 10.6406 37.2445 7.08174 34.9567 5.16109C30.6635 1.60225 25.0993 6.71456 25.4947 11.3185C25.5512 11.9116 25.0428 12.2505 24.5344 12.2505C24.139 12.2505 23.7435 12.0528 23.6588 11.6009C23.4611 10.6406 23.4611 9.68025 23.6588 8.77642C23.2069 5.16109 21.258 0.924383 17.1908 1.99768C12.5304 3.21221 12.5022 7.95733 13.2648 12.0811C14.1121 12.8154 14.8182 13.804 15.2701 15.075C15.4114 15.4987 14.7617 15.8941 14.451 15.5552C14.2816 15.3575 14.1121 15.188 13.9426 15.0185C14.0556 15.3857 14.1403 15.7529 14.2533 16.0636C14.451 16.8262 13.3212 17.3346 12.9823 16.6002C12.5304 15.6681 12.135 14.5666 11.8243 13.3803L11.796 13.4086Z" fill="#1E1E1E"/>
</svg>
