<svg width="148" height="93" viewBox="0 0 148 93" fill="none" xmlns="http://www.w3.org/2000/svg">
<path d="M47.5664 2.0861C49.5026 -1.08938 54.7354 1.27728 52.8494 4.59355C46.6915 15.5139 42.6011 26.5966 40.6177 38.9913C40.281 41.0152 37.4382 42.2396 35.9247 40.6633C26.0596 30.6389 14.5773 23.2003 1.44424 18.2538C-0.508971 17.5218 0.589428 14.2216 2.5092 14.8598C15.0835 18.6832 26.034 24.7775 35.8802 33.1163C38.0033 22.1527 41.7748 11.6595 47.5664 2.0861Z" fill="#1E1E1E"/>
<path d="M143.784 50.9125C147.323 50.0426 148.821 55.4509 145.327 56.3328C126.037 61.188 111.19 73.3948 102.418 91.192C101.189 93.6434 97.4816 92.3758 97.4096 89.8741C96.8892 69.0962 88.6913 53.2595 76.6043 37.0323C75.593 35.6952 77.6634 34.4874 78.7369 35.4028C92.3239 46.6697 99.64 63.6375 101.95 80.9432C111.511 65.8849 126.097 55.4106 143.784 50.9125Z" fill="#1E1E1E"/>
</svg>
