<svg xmlns="http://www.w3.org/2000/svg" width="1467" height="1191" fill="none"><g stroke="#1E1E1E" stroke-width="4" clip-path="url(#prefix__a)"><path fill="#008D36" d="M878.741 442.408c-192.209-18.768-385.366-41.137-578.632-26.898l-4.565.344c-103.106 7.915-205.066 26.978-301.266 61.839 1.738 9.262 3.444 18.548 4.913 27.887l.364 2.311h-2.83V945H1479V507.891h-.8l.01-2.006c.06-21.101.3-42.201.74-63.278-40.7 7.362-81.68 12.487-122.78 15.825-.51.332-1.08.502-1.6.545a3.38 3.38 0 0 1-1.65-.28c-50.73 4.043-101.69 5.346-152.65 4.8-.85.341-1.82.317-2.65-.038-99.96-1.227-200.144-9.617-299.076-19.132l-19.802-1.919h-.001Z"/><path fill="#66C61D" d="M1250.66 713.683c-152.57-42.273-291.311-66.576-449.147-44.18l-3.733.538c-101.545 14.86-192.673 46.995-289.859 77.421l-9.424 2.938h-.001c-108.351 33.63-226.837 46.423-338.05 67.174l-5.29.994c-68.998 13.061-136.442 30.191-201.082 58.745l39.472 715.107H1537.86l-52.05-794.079c-73.03-35.603-149.87-60.782-227.59-82.552l-7.56-2.106Z"/><path fill="#FEC703" d="M878.699 1146.34c-192.224-22.91-385.338-50.21-578.557-32.84l-4.565.42c-103.145 9.67-205.142 32.96-301.372 75.55.753 5.07 1.023 7.89 1.26 10.72.256 3.06.473 6.08 1.243 12.05l.017.13V2098H1479v-871.73h-.8l.01-2c.06-25.91.31-51.81.75-77.68-40.68 8.97-81.62 15.23-122.69 19.3-.97.74-2.32.93-3.43.34-50.69 4.93-101.58 6.52-152.5 5.85-.9.42-1.93.38-2.79-.05-103.31-1.55-206.829-12.43-308.953-24.52l-9.898-1.17Z"/></g><defs><clipPath id="prefix__a"><rect width="1467" height="1191" fill="#fff"/></clipPath></defs></svg>