<svg width="514" height="512" viewBox="0 0 514 512" fill="none" xmlns="http://www.w3.org/2000/svg">
<path d="M85.871 181.592C86.4581 152.523 69.9965 127.192 61.4224 121.104C61.3834 121.065 60.6198 120.654 60.6783 121.789C60.6783 121.809 60.6588 121.809 60.6588 121.829C59.7782 176.738 31.5516 191.537 16.2252 211.66C-17.8342 256.409 10.5875 307.462 47.4067 317.131C48.0337 317.288 49.7364 317.798 52.9664 318.463C54.6496 318.816 55.1391 317.386 53.9055 315.252C49.5014 307.598 41.6714 294.679 40.1257 278.079C36.6023 239.535 85.1855 215.418 85.871 181.592Z" fill="black"/>
<path d="M104.428 200.209C104.134 199.993 103.724 200.013 103.685 200.384C102.902 207.373 95.6782 221.859 86.165 235.405C54.141 281.074 70.271 301.785 82.7986 316.154C85.1079 318.816 86.2625 318.229 87.4767 316.33C88.6118 314.529 90.3341 312.238 97.734 308.735C98.8886 308.187 126.841 293.349 129.875 259.561C132.792 226.87 111.827 206.198 104.428 200.209Z" fill="#008CD6"/>
<path d="M270.713 191.888V312.061H244.933V263.515H195.391V312.061H168.965V191.888H195.391V240.435H244.933V191.888H270.713Z" fill="black"/>
<path d="M389.902 191.888V215.653H377.629H352.887V312.042H326.364V215.653H302.287H290.014V191.888H389.902Z" fill="black"/>
<path fill-rule="evenodd" clip-rule="evenodd" d="M483.781 312.179L453.479 270.366L423.413 312.003L394.013 312.042L438.584 250.693L396.518 191.888H425.899L513.044 312.179H483.781Z" fill="black"/>
<path d="M461.719 218.785L476.264 238.987L510.715 191.869H481.49L461.719 218.785Z" fill="#008CD6"/>
</svg>
