<svg xmlns="http://www.w3.org/2000/svg" width="1440" height="1600" fill="none"><g clip-path="url(#prefix__a)"><rect width="1440" height="78" y="1524" fill="#FF6969"/><path fill="#008D36" stroke="#1E1E1E" stroke-width="4" d="M-21.435 355.063c204.116-74.202 424.576-37.649 622.97 37.32v-.001c22.078 8.394 42.472 14.89 63.192 21.302 20.729 6.414 41.769 12.74 65.215 20.815l.056.02.057.015c22.162 6.191 36.434 8.708 46.985 9.329 10.604.624 17.384-.674 24.436-1.976l.157-.03.151-.053c206.706-73.647 424.036-153.615 640.106-69.183l17.67 385.913c-10.78-1.1-38.65-1.936-79.32-2.567-44.26-.687-103.87-1.133-173.59-1.392-139.43-.517-319.293-.285-497.67.278-343.821 1.083-682.207 3.39-714.711 3.901.021-.737.03-1.632.026-2.668-.013-3.083-.133-7.571-.34-13.245-.415-11.356-1.186-27.543-2.174-46.922-1.975-38.732-4.83-90.37-7.468-141.684-2.64-51.35-5.065-102.458-6.192-140.297-.564-18.927-.8-34.5-.58-45.116.11-5.324.335-9.326.678-11.865.117-.867.239-1.483.346-1.894Z"/><path stroke="#1E1E1E" stroke-width="4" d="M-.5 1552.56c41.25-7.94 83.37-13.73 125.05-17.27.44-.61 1.42-.7 1.92-.17 50.56-4.25 101.36-5.62 152.19-5.03.46-.37 1.19-.34 1.63.03 105.71 1.33 211.69 11.18 316.21 21.9 191.83 19.69 384.89 43.22 578.06 27.66 102.84-8.3 204.58-28.35 300.54-65.1"/><mask id="prefix__b" width="1476" height="1340" x="-1" y="245" maskUnits="userSpaceOnUse" style="mask-type:luminance"><path fill="#fff" d="M1469.83 1483.66h2.47V245.693H0V1484.64c-.059 22.81-.5 44.45 0 67.4 41.246-7.94 82.782-13.42 124.464-16.96.436-.61 1.422-.69 1.916-.17 50.564-4.26 101.36-5.62 152.185-5.03.464-.37 1.19-.34 1.625.02 105.714 1.34 211.689 11.2 316.213 21.91 191.834 19.69 384.888 43.21 578.057 27.65 102.84-8.3 204.58-28.34 300.54-65.09-1.83-10.22-3.63-20.44-5.17-30.71Z"/></mask><g mask="url(#prefix__b)"><mask id="prefix__c" width="1487" height="1328" x="-25" y="312" maskUnits="userSpaceOnUse" style="mask-type:alpha"><path fill="#008D36" stroke="#1E1E1E" d="M-22.104 353.711c204.642-74.453 425.568-37.778 624.169 37.269v-.001c22.033 8.377 42.391 14.862 63.105 21.272 20.716 6.411 41.786 12.746 65.261 20.83l.013.005.015.004c22.114 6.177 36.269 8.664 46.669 9.276 10.413.613 17.043-.656 24.075-1.955l.039-.006.038-.014c206.86-73.702 425.07-154.06 642.05-68.816l17.83 1267.175c-9.05-1.19-37.69-2.09-80.94-2.76-44.26-.69-103.86-1.14-173.57-1.4-139.43-.51-319.29-.28-497.665.28-351.555 1.11-697.358 3.5-716.379 3.93.011-.12.022-.25.032-.4.04-.64.07-1.58.094-2.81.05-2.46.07-6.1.063-10.84-.013-9.49-.132-23.39-.339-41.07-.414-35.36-1.184-85.86-2.172-146.42-1.976-121.11-4.828-282.51-7.468-443.67-2.64-161.166-5.066-322.107-6.194-442.329-.564-60.111-.803-110.04-.581-144.728.111-17.344.337-30.873.695-39.957.18-4.544.392-7.965.637-10.192.123-1.119.252-1.911.383-2.389a2.74 2.74 0 0 1 .085-.264l.055-.02Z"/></mask><g stroke="#1E1E1E" stroke-width="4" mask="url(#prefix__c)"><path fill="#66C61D" d="M1125.34 627.603c150.81-20.827 267.02-19.476 314.64-9.999l1.12.226c4.01.828 7.98 3.849 11.83 9.403 3.84 5.538 7.42 13.37 10.71 23.351 6.57 19.952 11.88 48.082 16.08 82.563 8.4 68.936 12.31 162.859 13.25 266.592 1.88 206.651-8.06 451.991-17.85 615.631H-80.955l19.954-896.454.008-.352-.112-.333c-.191-.565-.124-1.639 1.503-3.428 1.587-1.744 4.313-3.751 8.263-5.917 7.87-4.315 20.111-9 36.335-13.437 32.417-8.866 80.405-16.656 140.32-18.641 119.817-3.971 287.187 15.276 472.892 95.399l.79.342.791-.34c186.804-80.166 373.625-123.626 525.551-144.606Z"/><path fill="#F9D285" d="M944.278 349.844c2.751-.33 5.001-.374 6.687-.093 1.598.266 2.394.769 2.779 1.288l.071.104.001.001c.409.637 1.039.902 1.257.99.319.129.667.219.992.288.66.14 1.502.247 2.447.333 1.906.172 4.473.278 7.379.335 5.824.115 13.168.039 19.677-.113 2.794-.066 5.446-.148 7.766-.233-.711 1.594-2.014 3.484-4.021 5.659-3.197 3.467-7.852 7.32-13.595 11.411-11.475 8.175-27.015 17.109-43.182 25.615-30.298 15.94-62.574 30.26-73.846 35.091l-1.967.836c-53.543 22.595-117.577 52.223-172.789 72.675l-2.622.967c-13.107 4.81-33.22 12.38-53.806 22.228-20.558 9.834-41.728 22.003-56.87 36.057-15.106 14.02-24.626 30.326-20.766 48.3 3.77 17.553 20.156 35.865 54.333 54.681l1.642.896c30.463 16.514 64.987 29.079 99.807 41.004 33.785 11.57 67.821 22.529 98.96 35.933l3.004 1.304c58.487 25.633 125.106 63.529 163.927 114.781 19.38 25.585 31.787 54.437 32.867 86.734 1.06 31.791-8.857 67.124-34.246 106.174l-1.221 1.86c-18.928 28.65-40.911 55.6-62.013 82.6-21.07 26.97-41.245 53.97-56.362 82.55-15.128 28.61-25.224 58.86-26.102 92.35-.865 32.97 7.21 68.94 28.01 109.43l1 1.93c47.318 90.65 109.247 132.4 179.954 191.31l3.38 2.82c.55.46 1.09.76 1.59.96a.21.21 0 0 1-.04.06H120.039c-18.887-115.91 17.17-211.21 77.613-289.77 59.83-77.76 143.525-139.06 221.407-187.51l3.704-2.3c11.025-6.82 25.628-14.95 42.416-24.27 16.77-9.31 35.689-19.78 55.286-31.26 39.177-22.96 81.162-49.98 114.248-79.82 33.029-29.8 57.523-62.707 61.104-97.484 3.547-34.443-13.459-70.024-61.166-105.55l-2.295-1.691c-31.362-22.884-66.942-39.87-103.064-55.313-35.064-14.991-70.527-28.487-103.452-44.563l-3.178-1.565c-18.87-9.358-46.309-23.642-62.445-41.931-8.038-9.111-13.094-19.021-13.084-29.65.009-10.265 4.746-21.608 16.932-33.947l1.203-1.197c25.592-25.052 74.513-47.588 125.97-66.276 44.936-16.319 91.513-29.604 125.551-39.033l13.778-3.803c32.99-9.086 69.271-16.63 105.311-25.535 35.391-8.744 70.411-18.772 101.223-32.774l1.463-.669c11.45-5.272 27.187-12.861 38.573-23.618 5.712-5.397 10.416-11.67 12.906-18.94 2.163-6.316 2.62-13.292.727-20.95 1.056.173 2.17.258 3.315.276 2.728.044 5.827-.281 9.109-.82 6.555-1.076 14.123-3.055 21.356-4.903 7.301-1.866 14.236-3.591 19.728-4.25Z"/></g></g></g><defs><clipPath id="prefix__a"><rect width="1440" height="1600" fill="#fff"/></clipPath></defs></svg>