<svg width="114" height="131" viewBox="0 0 114 131" fill="none" xmlns="http://www.w3.org/2000/svg">
<g clip-path="url(#clip0_2017_123)">
<path d="M74.9396 86.3148C76.9986 87.6064 79.8178 84.6088 81.4672 83.6939C94.7004 76.337 111.275 87.9778 109.75 102.659C107.578 123.557 81.3109 123.713 65.4257 124.595C27.214 126.726 -12.2214 125.704 -50.4385 124.579C-59.5212 124.31 -68.6146 124.595 -77.6433 123.32C-83.6211 122.475 -90.1865 121.205 -95.027 117.351C-101.102 112.535 -101.571 104.322 -96.6549 98.3592C-93.825 94.9256 -89.4157 93.1819 -85.0388 92.9828C-82.8342 92.8805 -80.5972 93.1604 -78.495 93.8331C-76.506 94.4735 -74.6409 95.9804 -72.5064 96.0558C-69.2992 96.1688 -69.7681 93.4725 -70.3449 91.2714C-73.0184 81.0783 -69.7304 71.5042 -61.2838 65.1376C-56.7829 61.7471 -50.9614 59.6482 -45.1992 59.8204C-42.2561 59.9065 -39.3399 60.5846 -36.7041 61.9085C-34.7528 62.888 -31.3461 66.9835 -28.996 65.622C-26.6566 64.2658 -29.411 59.6267 -29.9123 57.9099C-36.4346 35.6025 -19.563 8.45157 3.68534 5.3463C29.3593 1.91812 51.4325 24.4677 49.6483 49.7296C49.4705 52.2483 49.0824 54.7777 48.4247 57.2156C47.9881 58.8409 46.4681 61.7094 47.6 63.2917C49.8909 66.483 54.3217 60.0195 55.8148 59.0401C60.8332 55.7464 67.032 57.5978 71.3442 61.1174C75.1013 64.1796 76.9986 68.9371 77.0633 73.7161C77.0957 76.0464 76.7022 78.3929 75.9152 80.5886C75.4085 81.9933 73.0152 85.1093 74.9396 86.3202V86.3148Z" fill="white" stroke="#1E1E1E" stroke-width="4" stroke-miterlimit="10"/>
</g>
<defs>
<clipPath id="clip0_2017_123">
<rect width="114" height="131" fill="white"/>
</clipPath>
</defs>
</svg>
