<svg width="725" height="283" viewBox="0 0 725 283" fill="none" xmlns="http://www.w3.org/2000/svg">
<path d="M389.674 2.40036C472.308 -2.53901 588.738 38.4477 580.159 113.022C579.201 121.429 567.91 141.066 577.845 145.36C589.042 150.178 600.496 140.36 610.267 136.993C622.446 132.8 635.864 131.227 648.884 132.598C672.962 135.138 695.963 148.404 709.451 165.621C728.012 189.31 728.199 221.487 703.42 242.01C679.18 262.09 640.048 268.078 608 271.949C570.365 276.485 482.476 281.162 444.537 280.981C390.142 280.739 319.995 273.521 265.623 271.949C211.251 270.376 160.922 271.223 109.098 265.638C75.4367 262.453 15.3139 256.969 3.99994 223.18C-3.10633 201.971 12.275 183.141 34.7626 175.278C45.8896 171.387 58.4658 169.996 70.3174 171.932C79.6444 173.444 97.7373 186.508 104.446 176.972C109.402 169.936 97.4802 158.464 96.2413 150.763C91.5661 121.51 121.487 100.26 151.432 93.8694C167.912 90.3413 185.677 89.9381 202.251 93.3049C210.549 94.9984 217.843 97.5588 224.809 101.752C232.196 106.208 242.551 114.897 249.564 104.917C252.369 100.905 252.486 95.9863 252.953 91.309C258.236 38.1049 330.346 5.92848 389.674 2.3802V2.40036Z" fill="white" stroke="#1E1E1E" stroke-width="4" stroke-miterlimit="10"/>
</svg>
