<svg width="512" height="512" viewBox="0 0 512 512" fill="none" xmlns="http://www.w3.org/2000/svg">
<path d="M167.246 277.929L130.489 213.998C122.43 200.673 102.779 200.532 95.0036 214.565L56.4091 281.047C49.1987 293.238 58.1052 308.547 72.5256 308.547H149.856C164.418 308.547 175.304 292.812 167.246 277.929Z" fill="#3156AA"/>
<path d="M114.23 282.89L111.969 278.92C109.848 275.235 105.182 267.297 105.182 267.297L74.0805 213.147C66.0222 201.099 46.937 200.106 38.8787 215.274L2.68715 278.07C-4.80563 291.253 4.10088 308.405 20.3588 308.547H97.2656H130.064H149.574C129.64 308.689 123.279 298.34 114.23 282.89Z" fill="#1972E2"/>
<path d="M114.23 282.889L111.969 278.921C109.848 275.235 105.183 267.297 105.183 267.297L85.1076 231.859L56.2674 281.189C49.0578 293.379 57.964 308.688 72.3844 308.688H97.1243H129.923H149.574C129.499 308.547 123.278 298.34 114.23 282.889Z" fill="url(#paint0_linear_303_8)"/>
<path d="M292.023 302.874V229.021H353.237V233.699C353.237 237.384 350.269 240.361 346.593 240.361H307.291V260.206H346.593V271.547H307.291V291.392H346.593C350.269 291.392 353.237 294.369 353.237 298.054V302.732L292.023 302.874Z" fill="#151617"/>
<path d="M441.172 229.021H426.752C424.065 229.021 421.662 230.155 419.966 232.281L402.577 254.253L385.188 232.423C383.492 230.297 381.088 229.163 378.402 229.163H363.982L393.246 266.018L363.982 302.874H378.402C381.088 302.874 383.492 301.74 385.188 299.614L402.577 277.784L420.107 299.755C421.804 301.74 424.207 303.016 426.893 303.016H441.313L412.049 266.16L441.172 229.021Z" fill="#151617"/>
<path d="M244.098 295.083L264.173 259.928V302.737H279.442V228.885H269.969C267.001 228.885 264.173 230.444 262.759 233.137L238.726 277.08L214.693 233.137C213.279 230.444 210.451 228.885 207.482 228.885H198.01V302.737H213.279V259.928L233.354 295.083H244.098Z" fill="#151617"/>
<path d="M481.039 303.726C459.833 304.009 442.586 287.282 442.445 266.02C442.445 254.396 445.979 244.757 452.623 238.094C459.268 231.574 468.881 228.03 480.333 228.03C493.763 228.03 504.366 232.708 512 241.78L507.194 245.891C504.225 248.442 499.842 248.584 496.591 246.174C492.349 242.914 486.977 241.355 480.898 241.355C465.912 241.355 457.006 250.427 457.006 265.736C457.006 281.187 466.195 290.685 480.898 290.685C487.118 290.685 492.349 288.984 496.591 285.865C499.701 283.455 504.083 283.597 507.194 286.148L512 290.259C504.366 299.19 494.187 303.726 481.039 303.726Z" fill="#151617"/>
<defs>
<linearGradient id="paint0_linear_303_8" x1="46.0035" y1="258.774" x2="135.406" y2="291.724" gradientUnits="userSpaceOnUse">
<stop stop-color="#264CA2" stop-opacity="0"/>
<stop offset="1" stop-color="#234588"/>
</linearGradient>
</defs>
</svg>
