<svg xmlns="http://www.w3.org/2000/svg" width="25" height="25" fill="none" viewBox="0 0 25 25"><g fill="#1E1E1E" clip-path="url(#prefix__a)"><path d="M12.361 2.858c3.207 0 3.586.014 4.847.07 1.172.052 1.805.25 2.227.413.558.216.96.478 1.378.896.422.421.68.82.895 1.378.164.422.361 1.059.413 2.226.056 1.266.07 1.646.07 4.847 0 3.206-.014 3.586-.07 4.847-.052 1.172-.249 1.805-.413 2.227a3.71 3.71 0 0 1-.895 1.378c-.422.421-.82.68-1.378.895-.422.164-1.06.36-2.227.413-1.265.056-1.645.07-4.847.07-3.206 0-3.586-.014-4.847-.07-1.171-.052-1.804-.249-2.226-.413a3.71 3.71 0 0 1-1.378-.895 3.69 3.69 0 0 1-.896-1.378c-.164-.422-.36-1.06-.412-2.227-.056-1.266-.07-1.645-.07-4.847 0-3.206.014-3.586.07-4.847.052-1.172.248-1.804.412-2.226.216-.558.479-.961.896-1.378a3.69 3.69 0 0 1 1.378-.896c.422-.164 1.06-.36 2.226-.412 1.261-.057 1.641-.07 4.847-.07Zm0-2.16c-3.257 0-3.665.014-4.945.07-1.275.056-2.152.262-2.91.558a5.857 5.857 0 0 0-2.13 1.387A5.88 5.88 0 0 0 .99 4.837C.694 5.6.488 6.472.432 7.747c-.057 1.285-.07 1.693-.07 4.95 0 3.258.013 3.666.07 4.946.056 1.275.262 2.151.557 2.91.31.793.718 1.463 1.388 2.129A5.866 5.866 0 0 0 4.5 24.065c.764.295 1.636.501 2.911.557 1.28.057 1.688.07 4.946.07s3.665-.013 4.945-.07c1.275-.056 2.151-.262 2.91-.557a5.866 5.866 0 0 0 2.124-1.383 5.864 5.864 0 0 0 1.383-2.124c.296-.764.502-1.636.558-2.91.056-1.28.07-1.688.07-4.946s-.014-3.665-.07-4.945c-.056-1.275-.262-2.152-.558-2.911a5.62 5.62 0 0 0-1.373-2.133 5.866 5.866 0 0 0-2.124-1.383c-.764-.295-1.636-.501-2.91-.558-1.285-.06-1.693-.075-4.95-.075Z"/><path d="M12.361 6.533a6.166 6.166 0 0 0-6.164 6.164 6.166 6.166 0 0 0 6.164 6.165 6.166 6.166 0 0 0 6.164-6.164 6.166 6.166 0 0 0-6.164-6.165Zm0 10.163a3.999 3.999 0 1 1 .001-7.998 3.999 3.999 0 0 1 0 7.998ZM20.208 6.29a1.44 1.44 0 1 1-2.879-.001 1.44 1.44 0 0 1 2.88 0Z"/></g><defs><clipPath id="prefix__a"><rect width="24" height="24" fill="#fff" transform="translate(.361 .697)"/></clipPath></defs></svg>