<svg width="512" height="512" viewBox="0 0 512 512" fill="none" xmlns="http://www.w3.org/2000/svg">
<path d="M448.037 293.826V219.174H460.771V228.741C464.968 221.494 473.796 217 483.781 217C500.134 217 512 225.697 512 248.165V293.826H498.976V250.05C498.976 236.134 492.174 229.321 480.887 229.321C468.152 229.321 461.061 238.018 461.061 250.484V293.826H448.037Z" fill="#7132F5"/>
<path d="M403.174 296C380.165 296 365.549 280.49 365.549 256.138C365.549 232.8 380.454 217 402.017 217C423.434 217 438.484 231.495 438.484 252.224C438.484 258.167 438.484 259.472 438.195 260.776H379.151C380.02 275.417 389.137 284.404 403.318 284.404C413.304 284.404 420.25 280.055 423.723 272.083H437.181C433.274 287.013 420.684 296 403.174 296ZM379.151 250.05H424.736C424.157 236.714 415.474 228.451 402.017 228.451C389.137 228.451 380.599 236.424 379.151 250.05Z" fill="#7132F5"/>
<path d="M250.819 296C235.769 296 224.771 287.883 224.771 273.822C224.771 259.762 234.756 253.384 246.478 251.209L264.712 247.73C270.935 246.571 274.552 244.976 274.552 239.323C274.552 232.8 269.053 228.451 258.055 228.451C249.083 228.451 241.268 232.075 240.255 240.338H226.797C227.665 225.697 240.979 217 258.2 217C279.038 217 287.576 227.437 287.576 239.758V278.026C287.576 281.505 289.169 283.244 292.062 283.244C294.523 283.244 295.97 282.664 297.272 281.795V292.376C295.246 294.116 291.773 295.275 287.576 295.275C281.499 295.275 276.289 291.362 274.986 284.983C271.513 289.912 264.278 296 250.819 296ZM238.23 273.387C238.23 280.925 244.596 284.549 253.135 284.549C265.146 284.549 274.552 277.736 274.552 267.154V255.123C273.105 256.718 268.619 258.022 263.265 259.037L251.109 261.356C242.426 262.951 238.23 266.719 238.23 273.387Z" fill="#7132F5"/>
<path d="M185.646 293.826V219.174H198.381V231.64C201.998 222.798 208.511 217.58 218.785 217.58C220.956 217.58 223.127 218.015 224.284 218.305V231.64C223.127 231.35 220.667 230.916 218.206 230.916C205.471 230.916 198.67 240.917 198.67 256.862V293.826H185.646Z" fill="#7132F5"/>
<path d="M162.823 219.174H179.609L149.509 248.745L181.201 293.826H166.006L140.681 257.732L128.236 269.618V293.826H115.212V219.174H128.236V253.384L162.823 219.174Z" fill="#7132F5"/>
<path d="M350.918 219.174H367.704L337.604 248.745L369.296 293.826H354.101L328.776 257.732L316.331 269.618V293.826H303.307V219.174H316.331V253.384L350.918 219.174Z" fill="#7132F5"/>
<path d="M49.5476 217C22.1822 217 0 239.511 0 267.278V288.825C0 292.788 3.16557 295.998 7.07328 295.998C10.9809 295.998 14.1697 292.788 14.1697 288.825V267.278C14.1697 263.303 17.3237 260.092 21.2429 260.092C25.1506 260.092 28.3162 263.303 28.3162 267.278V288.825C28.3162 292.788 31.4818 295.998 35.3895 295.998C39.3088 295.998 42.4743 292.788 42.4743 288.825V267.278C42.4743 263.303 45.6399 260.092 49.5476 260.092C53.4669 260.092 56.644 263.303 56.644 267.278V288.825C56.644 292.788 59.8095 295.998 63.7174 295.998C67.6248 295.998 70.7908 292.788 70.7908 288.825V267.278C70.7908 263.303 73.9563 260.092 77.8867 260.092C81.7947 260.092 84.9601 263.303 84.9601 267.278V288.825C84.9601 292.788 88.1256 295.998 92.0453 295.998C95.9527 295.998 99.1182 292.788 99.1182 288.825V267.278C99.1182 239.511 76.9245 217 49.5476 217Z" fill="#7132F5"/>
</svg>
