<svg width="512" height="512" viewBox="0 0 512 512" fill="none" xmlns="http://www.w3.org/2000/svg">
<path fill-rule="evenodd" clip-rule="evenodd" d="M423.875 231.857H438.415V217.316H423.875V231.857ZM346.583 256.084C349.368 248.712 356.475 243.469 364.81 243.469C373.146 243.469 380.273 248.712 383.037 256.084H346.583ZM364.81 229.932C346.583 229.932 331.797 244.718 331.797 262.945C331.797 281.172 346.583 295.959 364.81 295.959C377.324 295.959 388.198 288.996 393.789 278.756L381.604 272.837C378.204 278.592 371.958 282.442 364.81 282.442C355.779 282.442 348.181 276.298 345.969 267.942H383.652V267.963H397.455C397.701 266.324 397.824 264.645 397.824 262.945C397.824 244.718 383.058 229.932 364.81 229.932ZM401.674 294.198H416.215V279.657H401.674V294.198ZM423.875 294.198H438.415V238.246H423.875V294.198ZM478.986 282.442C468.214 282.442 459.489 273.718 459.489 262.945C459.489 252.173 468.214 243.448 478.986 243.448C489.759 243.448 498.483 252.173 498.483 262.945C498.483 273.718 489.759 282.442 478.986 282.442ZM478.986 229.932C460.759 229.932 445.973 244.718 445.973 262.945C445.973 281.172 460.759 295.959 478.986 295.959C497.213 295.959 512 281.172 512 262.945C512 244.718 497.213 229.932 478.986 229.932ZM174.981 250.78V265.812H195.318C194.253 270.113 192.164 273.964 189.153 277.036C184.607 281.684 178.319 284.224 171.438 284.224C157.143 284.224 145.51 272.591 145.51 258.276C145.51 243.981 157.143 232.328 171.438 232.328C179.098 232.328 186.143 235.604 191.017 241.257L202.65 231.734C194.929 222.682 183.48 217.275 171.438 217.275C148.849 217.275 130.478 235.666 130.478 258.255C130.478 280.845 148.849 299.236 171.438 299.236C182.415 299.236 192.512 295.283 199.905 287.726C206.111 281.377 210.227 272.53 211.006 263.683C211.395 259.361 211.436 255.06 211.19 250.739L174.981 250.78ZM249.037 282.442C238.285 282.442 229.54 273.718 229.54 262.945C229.54 252.173 238.264 243.448 249.037 243.448C259.809 243.448 268.534 252.173 268.534 262.945C268.534 273.718 259.809 282.442 249.037 282.442ZM268.534 236.362C263.066 232.348 256.328 229.993 249.037 229.993C230.81 229.993 216.044 244.78 216.044 263.007C216.044 281.234 230.83 296.02 249.037 296.02C256.328 296.02 263.066 293.645 268.534 289.651V294.218H282.051V231.795H268.534V236.362ZM311.05 217.316H297.533V231.857H289.444V244.616H297.533V277.998C297.533 281.439 297.964 284.347 298.824 286.62C299.663 288.873 300.974 290.634 302.51 292.006C304.067 293.399 305.889 294.484 308.06 295.119C310.272 295.734 312.689 295.98 315.269 295.98C317.932 295.98 320.307 295.713 322.314 295.16C324.198 294.648 326.001 293.932 327.66 293.03V282.749C324.997 283.896 322.499 284.326 319.652 284.449C316.641 284.593 314.88 283.732 313.405 282.319C311.849 280.845 311.03 278.92 311.03 275.704V244.616H327.66V231.857H311.03V217.316H311.05Z" fill="black"/>
<path fill-rule="evenodd" clip-rule="evenodd" d="M58.6138 287.87C40.8166 287.87 26.3782 273.431 26.3782 255.634C26.3782 237.837 40.8166 223.399 58.6138 223.399V197C26.2349 197 0 223.255 0 255.634C0 288.013 26.2349 314.248 58.6138 314.248C90.9721 314.248 117.228 287.993 117.228 255.634H90.8493C90.8493 273.452 76.4109 287.87 58.6138 287.87Z" fill="#2354E6"/>
<path fill-rule="evenodd" clip-rule="evenodd" d="M58.6139 255.634H90.8494V223.398H58.6139V255.634Z" fill="#17E6A1"/>
</svg>
