<svg width="129" height="176" viewBox="0 0 129 176" fill="none" xmlns="http://www.w3.org/2000/svg">
<path d="M47.711 135.925C49.6471 132.75 54.8799 135.116 52.9939 138.432C46.836 149.353 42.7457 160.436 40.7622 172.83C40.4255 174.854 37.5827 176.078 36.0692 174.502C26.2042 164.478 14.7218 157.039 1.58877 152.093C-0.364439 151.361 0.73396 148.061 2.65373 148.699C15.228 152.522 26.1785 158.616 36.0247 166.955C38.1478 155.992 41.9194 145.498 47.711 135.925Z" fill="#1E1E1E"/>
<path d="M124.784 15.9125C128.323 15.0426 129.821 20.4509 126.327 21.3328C107.038 26.188 92.1907 38.3948 83.4183 56.192C82.1891 58.6434 78.4821 57.3759 78.4101 54.8742C77.8897 34.0962 69.6918 18.2595 57.6048 2.03231C56.5935 0.695213 58.6639 -0.512545 59.7374 0.402805C73.3244 11.6697 80.6405 28.6375 82.9508 45.9432C92.5116 30.885 107.097 20.4106 124.784 15.9125Z" fill="#1E1E1E"/>
</svg>
