<svg width="60" height="47" viewBox="0 0 60 47" fill="none" xmlns="http://www.w3.org/2000/svg">
<path d="M41.7711 37.0848H40.7016C39.4181 36.8711 38.6141 36.839 37.8975 35.4373C35.7031 31.152 43.2079 26.1987 45.5164 23.1993C45.791 22.8413 46.2081 22.7469 46.0477 22.1307C31.8312 17.9825 11.6483 22.8128 7.79071 38.9229C7.12044 41.721 7.70692 46.5477 3.46426 46.3696C-2.37206 46.1256 0.717233 36.0606 2.03638 32.8172C8.83889 16.0856 29.7241 10.7281 46.0477 14.6465C44.2793 11.9393 37.3324 7.42596 37.4679 4.1523C37.5695 1.70508 40.2648 0.157298 42.5769 1.20458C44.2329 1.95442 56.4315 14.0677 57.9966 16.0661C59.2141 17.621 59.494 18.312 58.469 20.1199C57.2693 22.234 46.2919 33.8592 44.0957 35.6688C43.2668 36.3509 42.8318 36.7357 41.7711 37.0848Z" fill="#1E1E1E"/>
</svg>
