<svg width="135" height="173" viewBox="0 0 135 173" fill="none" xmlns="http://www.w3.org/2000/svg">
<g clip-path="url(#clip0_2016_119)">
<path d="M83.5879 115.111C86.3255 116.828 90.0737 112.843 92.2666 111.626C109.861 101.845 131.898 117.322 129.87 136.841C126.981 164.625 92.0588 164.832 70.9389 166.006C20.1351 168.839 -32.2954 167.48 -83.1064 165.984C-95.1821 165.627 -107.272 166.006 -119.276 164.31C-127.224 163.187 -135.953 161.498 -142.388 156.375C-150.465 149.971 -151.088 139.052 -144.553 131.124C-140.79 126.559 -134.928 124.241 -129.109 123.976C-126.177 123.84 -123.203 124.212 -120.408 125.107C-117.764 125.958 -115.284 127.961 -112.446 128.062C-108.182 128.212 -108.806 124.627 -109.573 121.701C-113.127 108.149 -108.756 95.4196 -97.5255 86.9549C-91.5414 82.4471 -83.8016 79.6566 -76.1405 79.8856C-72.2276 80.0001 -68.3504 80.9016 -64.846 82.6618C-62.2517 83.964 -57.7224 89.4092 -54.5978 87.5989C-51.4875 85.7958 -55.1496 79.628 -55.8161 77.3455C-64.4877 47.6871 -42.0563 11.589 -11.1469 7.46042C22.9874 2.90254 52.3345 32.8829 49.9624 66.4695C49.7259 69.8182 49.2099 73.1811 48.3356 76.4224C47.7551 78.5833 45.7341 82.3971 47.2391 84.5007C50.2849 88.7437 56.1758 80.1503 58.1609 78.8481C64.833 74.4691 73.0746 76.9305 78.8078 81.61C83.8029 85.6813 86.3255 92.0065 86.4115 98.3603C86.4545 101.459 85.9314 104.578 84.8851 107.498C84.2114 109.365 81.0294 113.508 83.5879 115.118V115.111Z" fill="white" stroke="#1E1E1E" stroke-width="4" stroke-miterlimit="10"/>
</g>
<defs>
<clipPath id="clip0_2016_119">
<rect width="135" height="173" fill="white"/>
</clipPath>
</defs>
</svg>
