<svg width="283" height="142" viewBox="0 0 283 142" fill="none" xmlns="http://www.w3.org/2000/svg">
<path d="M250.93 93.8603C258.766 91.5907 265.109 91.8199 272.236 97.431C277.824 101.837 282.452 109.067 280.582 116.438C276.679 131.548 253.081 132.65 240.728 134.668C223.207 137.536 205.383 138.601 187.656 139.163C148.851 140.39 109.855 138.941 71.1763 135.644C54.3061 134.21 37.9683 131.615 21.3717 128.724C-13.3962 122.655 3.61439 80.997 33.333 92.8105C41.9308 96.1151 41.3615 92.6331 38.9959 84.4641C35.1812 62.944 62.719 51.6553 80.1288 58.0205C94.589 66.2411 100.296 68.4885 97.7087 49.0162C98.9285 -2.5849 164.724 -13.9253 191.374 26.0692C207.209 48.6096 196.889 68.0228 203.291 61.2806C214.787 52.6755 234.185 54.228 241.608 67.4018C244.483 71.7265 244.542 77.2341 244.432 82.2389C244.38 84.7377 242.576 93.9194 246.028 94.8953C246.879 95.1392 247.788 94.8509 248.631 94.57C249.407 94.3112 250.176 94.0673 250.922 93.8529L250.93 93.8603Z" fill="white" stroke="#1E1E1E" stroke-width="4" stroke-miterlimit="10"/>
</svg>
