<svg width="512" height="512" viewBox="0 0 512 512" fill="none" xmlns="http://www.w3.org/2000/svg">
<path fill-rule="evenodd" clip-rule="evenodd" d="M277.325 229.991H295.617V293.085H277.325V229.991Z" fill="black"/>
<path d="M265.538 255.734C263.566 252.151 260.746 249.089 257.345 246.822C261.55 242.1 264.03 235.828 263.727 228.962C263.108 215.346 251.359 204.836 237.606 204.836H199.477V293.078H243.104C257.197 293.078 268.624 281.766 268.624 267.794C268.624 263.427 267.511 259.324 265.538 255.734ZM240.265 278.103H217.762V256.445H240.135C246.01 256.445 250.982 261.069 250.982 267.28C250.982 273.411 246.022 278.103 240.265 278.103ZM235.485 241.469H217.762V219.817H235.349C241.23 219.817 246.202 224.436 246.202 230.646C246.189 236.771 241.23 241.469 235.485 241.469Z" fill="black"/>
<path d="M512 207.451H490.957L474.52 233.55L458.09 207.451H437.04L464.001 250.265L437.04 293.085H458.09L474.52 266.986L490.957 293.085H512L485.045 250.265L512 207.451Z" fill="black"/>
<path d="M360.849 257.988V293.078H342.564V254.846C342.564 249.285 337.932 244.795 332.268 244.954C326.814 245.12 322.603 249.842 322.603 255.257V293.066H304.311V229.973H322.603V232.98C326.721 231.051 331.309 229.973 336.164 229.973C338.594 229.973 340.962 230.242 343.238 230.757C353.373 233.041 360.534 242.008 360.794 252.298C360.831 254.148 360.849 256.059 360.849 257.988Z" fill="black"/>
<path fill-rule="evenodd" clip-rule="evenodd" d="M277.325 204.836H295.617V222.953H277.325V204.836Z" fill="black"/>
<path d="M432.142 229.991H400.599C400.494 229.991 400.395 229.979 400.284 229.979C382.697 229.979 368.437 244.109 368.437 261.535C368.437 278.875 382.555 292.938 400.011 293.066C400.092 293.085 400.185 293.085 400.284 293.085C407.073 293.085 413.851 295.057 413.851 300.906C413.851 306.841 407.71 311.882 400.284 311.882C392.795 311.882 386.722 305.867 386.722 298.45H368.431C368.431 315.87 382.697 330 400.277 330C417.876 330 432.124 315.87 432.124 298.45C432.124 298.45 432.476 289.024 424.407 282.127C429.23 276.608 432.13 269.424 432.13 261.535C432.13 255.453 430.399 249.781 427.387 244.967H432.142V229.991ZM400.284 274.967C392.795 274.967 386.722 268.952 386.722 261.535C386.722 254.117 392.795 248.103 400.284 248.103C407.772 248.103 413.851 254.117 413.851 261.535C413.851 268.952 407.772 274.967 400.284 274.967Z" fill="black"/>
<path d="M169.467 183C149.901 183 130.559 187.9 113.516 197.179C104.389 202.147 95.9602 208.309 88.4716 215.505C86.7092 217.19 84.9839 218.954 83.3329 220.755C77.8107 226.782 72.9132 233.397 68.8009 240.41C67.3416 242.927 65.7214 245.383 63.9899 247.729C63.7611 248.035 63.5447 248.342 63.2974 248.642C48.1532 268.493 25.0815 279.873 0 279.873V316.55C19.5655 316.55 38.9085 311.65 55.951 302.376C65.0597 297.421 73.4883 291.247 80.9954 284.05C82.7578 282.36 84.4831 280.596 86.1403 278.801C91.6686 272.768 96.5477 266.165 100.66 259.146L100.932 258.693C102.323 256.329 103.857 254.026 105.471 251.833C105.7 251.533 105.928 251.22 106.17 250.902C121.308 231.057 144.386 219.67 169.467 219.67V183Z" fill="#2954FE"/>
<path d="M169.467 279.885C144.386 279.885 121.308 268.499 106.157 248.648C105.935 248.348 105.7 248.048 105.471 247.723C103.746 245.395 102.125 242.933 100.666 240.41C96.5538 233.403 91.6624 226.794 86.1341 220.761C84.4831 218.972 82.7578 217.208 80.9954 215.518C73.5068 208.321 65.0845 202.153 55.951 197.192C38.9085 187.918 19.5655 183.018 0 183.018V219.695C25.0815 219.695 48.1594 231.075 63.3097 250.926C63.5447 251.226 63.7673 251.539 63.9961 251.839C65.6225 254.038 67.1561 256.347 68.5289 258.687L68.8195 259.164C72.9255 266.165 77.8107 272.768 83.3329 278.807C84.9778 280.596 86.7092 282.36 88.4716 284.05C95.9726 291.247 104.401 297.421 113.516 302.376C130.559 311.65 149.901 316.55 169.467 316.55V279.885Z" fill="#2954FE"/>
</svg>
