<svg width="200" height="165" viewBox="0 0 200 165" fill="none" xmlns="http://www.w3.org/2000/svg">
<g clip-path="url(#clip0_2017_122)">
<path d="M179.665 8.02321C217.386 5.397 247.82 29.676 243.903 69.3263C243.466 73.7962 238.312 84.2368 242.847 86.52C247.958 89.0818 253.187 83.8616 257.647 82.0715C263.207 79.8419 269.332 79.0058 275.276 79.7347C286.267 81.0853 296.767 88.1385 302.924 97.2927C311.396 109.888 311.482 126.996 300.171 137.908C289.105 148.584 271.242 151.768 256.612 153.826C239.432 156.238 222.028 156.238 204.709 156.141C179.878 156.013 155.047 155.53 130.227 154.694C105.407 153.858 82.4324 154.308 58.7751 151.339C43.4091 149.645 15.9637 146.73 10.7991 128.764C7.55512 117.488 14.5765 107.476 24.8419 103.296C29.9212 101.227 35.6621 100.487 41.0722 101.516C45.3299 102.32 53.5891 109.266 56.6516 104.196C58.9138 100.455 53.4717 94.3557 52.9062 90.2609C50.772 74.7074 64.4307 63.4093 78.1 60.0114C85.6229 58.1355 93.7328 57.9211 101.298 59.7112C105.087 60.6116 108.416 61.973 111.596 64.2026C114.968 66.5715 119.695 71.1915 122.896 65.8855C124.177 63.7524 124.23 61.1369 124.443 58.65C126.855 30.362 152.582 9.89907 179.665 8.01249V8.02321Z" fill="white" stroke="#1E1E1E" stroke-width="4" stroke-miterlimit="10"/>
</g>
<defs>
<clipPath id="clip0_2017_122">
<rect width="200" height="165" fill="white"/>
</clipPath>
</defs>
</svg>
