<svg width="513" height="512" viewBox="0 0 513 512" fill="none" xmlns="http://www.w3.org/2000/svg">
<path d="M201.071 254.21C204.93 252.015 208.018 249.28 210.27 246.057C212.828 242.414 214.181 238.058 214.139 233.604C214.139 225.012 210.932 218.301 204.612 213.666C198.366 209.076 189.775 206.756 179.067 206.756H140.348V306.299H180.616C191.891 306.299 200.921 303.675 207.451 298.491C214.03 293.262 217.372 285.942 217.372 276.727C217.372 271.114 215.798 266.289 212.705 262.382C209.931 258.89 206.021 256.146 201.071 254.21ZM161.301 224.698H177.383C182.429 224.698 186.234 225.676 188.709 227.606C191.149 229.502 192.345 232.007 192.345 235.24C192.345 238.483 191.149 241.108 188.709 243.019C186.234 244.945 182.429 245.922 177.383 245.922H161.301V224.698ZM191.578 284.984C188.789 287.225 184.53 288.357 178.927 288.357H161.301V263.999H178.932C184.53 263.999 188.794 265.097 191.593 267.242C194.367 269.388 195.712 272.217 195.712 275.904C195.712 279.785 194.362 282.754 191.578 284.984ZM245.686 231.862H224.589V306.294H245.681L245.686 231.862ZM454.026 243.064C450.649 239.052 446.393 235.877 441.589 233.783C436.679 231.603 431.155 230.495 425.184 230.495C417.862 230.495 411.258 232.162 405.545 235.445C399.896 238.666 395.23 243.368 392.048 249.046C388.806 254.784 387.167 261.429 387.167 268.809C387.167 276.193 388.761 283.278 391.899 289.101C394.965 294.853 399.638 299.587 405.346 302.722C411.109 305.91 417.877 307.526 425.468 307.526C434.781 307.526 442.685 305.181 448.976 300.546C455.027 296.091 459.186 289.809 461.457 281.936H440.22C439.104 284.615 437.53 286.895 435.274 288.502C432.61 290.398 429.168 291.356 425.044 291.356C421.468 291.356 418.4 290.488 415.93 288.771C413.455 287.05 411.562 284.515 410.317 281.217C409.521 279.05 408.988 276.796 408.728 274.502H461.825L461.93 273.843C462.876 267.841 462.637 262.153 461.213 256.939C459.85 251.845 457.398 247.108 454.026 243.059V243.064ZM409.067 260.726C409.389 259.184 409.83 257.669 410.387 256.196C411.681 252.853 413.549 250.283 415.945 248.567C418.33 246.851 421.299 245.987 424.765 245.987C429.113 245.987 432.684 247.399 435.374 250.178C437.929 252.823 439.373 256.435 439.682 260.721L409.067 260.726ZM246.124 206.756H224.15V224.698H246.124V206.756ZM361.632 240.309C359.254 237.401 356.282 235.036 352.916 233.374C348.982 231.463 344.375 230.495 339.225 230.495C332.925 230.495 327.272 232.057 322.441 235.12C317.61 238.189 313.775 242.52 311.06 247.988C308.346 253.446 306.971 259.853 306.971 267.038C306.971 274.222 308.416 280.254 311.274 285.748C314.138 291.261 318.108 295.652 323.073 298.805C328.044 301.963 333.717 303.57 339.932 303.57C344.624 303.57 348.912 302.552 352.667 300.541C355.562 299.013 358.093 296.878 360.088 294.28V302.382C360.088 307.407 358.773 311.263 356.184 313.833C353.584 316.402 349.629 317.7 344.43 317.7C339.947 317.7 336.426 316.682 333.961 314.671C331.943 313.025 330.18 310.869 329.772 306.299H309.432C309.621 312.695 311.494 317.001 314.143 320.778C317.107 325.004 321.28 328.312 326.56 330.597C331.779 332.852 337.845 334 344.569 334C355.865 334 364.855 331.156 371.29 325.553C377.764 319.92 381.041 312.032 381.041 302.113V231.862H361.637L361.632 240.309ZM357.922 276.926C356.699 279.564 354.75 281.797 352.304 283.363C349.913 284.86 347.024 285.628 343.727 285.628C338.946 285.628 335.236 283.996 332.372 280.649C329.513 277.311 328.064 272.73 328.064 267.033C328.064 261.335 329.508 256.754 332.367 253.417C335.201 250.114 339.021 248.437 343.722 248.437C348.429 248.437 352.583 250.134 355.506 253.491C358.455 256.879 359.949 261.479 359.949 267.162C359.949 270.849 359.267 274.127 357.922 276.921V276.926ZM513 249.67V231.867H497.775V206.756H476.822V231.867H463.817V249.67H476.822V278.807C476.822 295.008 480.009 306.913 499.861 306.543L512.328 306.294V289.614H506.142C497.316 289.614 497.809 284.46 497.809 274.886L497.775 249.674L513 249.67ZM301.846 249.67V231.867H286.621V206.756H265.668V231.867H252.659V249.67H265.658V278.807C265.658 295.008 268.845 306.913 288.703 306.543L301.164 306.294V289.614H294.993C286.168 289.614 286.656 284.46 286.656 274.886L286.621 249.674L301.846 249.67ZM52.5916 224.698H84.2328L116.601 256.914C118.708 259.01 118.718 262.422 116.621 264.528L75.1085 306.324H42.521L52.3774 296.724L88.5559 260.711L52.8356 224.693" fill="#00E0FF"/>
<path d="M65.5908 260.626H33.9595L1.58621 228.41C1.08524 227.912 0.687279 227.319 0.4151 226.667C0.14292 226.014 0.00186889 225.314 1.84463e-05 224.607C-0.00183199 223.9 0.135555 223.199 0.404316 222.545C0.673076 221.891 1.06793 221.297 1.56629 220.796L43.0789 179H75.6713L65.8199 188.6L29.6365 224.613L65.3617 260.626" fill="#00E0FF"/>
</svg>
