<svg xmlns="http://www.w3.org/2000/svg" width="25" height="25" fill="none" viewBox="0 0 25 25"><mask id="prefix__a" width="25" height="25" x="0" y="0" maskUnits="userSpaceOnUse" style="mask-type:luminance"><path fill="#fff" d="M.361.378h24v24h-24v-24Z"/></mask><g stroke="#1E1E1E" stroke-linecap="round" stroke-linejoin="round" stroke-miterlimit="10" stroke-width="1.752" mask="url(#prefix__a)"><path d="M22.141 3.054 1.826 10.81c-1.03.394-1.013.989.038 1.323l4.564 1.306 2.399 6.86c.364 1.042 1.326 1.282 2.137.535l3.052-2.81 4.29 3.454c.87.676 1.763.344 1.982-.737l3.328-16.435c.22-1.081-.444-1.644-1.475-1.25Z"/><path d="M6.49 13.407 18.714 7.16l-7.841 8.331-1.388 5.619M10.91 15.523l7.358 5.924"/></g></svg>