<svg width="514" height="512" viewBox="0 0 514 512" fill="none" xmlns="http://www.w3.org/2000/svg">
<path d="M151.143 179H4.36073C3.4555 179 2.58732 179.36 1.94749 180.002C1.30697 180.644 0.947632 181.514 0.947632 182.422V329.575C0.947632 330.482 1.30697 331.353 1.94749 331.994C2.58732 332.636 3.4555 332.997 4.36073 332.997H151.143C152.049 332.997 152.917 332.636 153.557 331.994C154.198 331.353 154.557 330.482 154.557 329.575V182.422C154.557 181.514 154.198 180.644 153.557 180.002C152.917 179.36 152.049 179 151.143 179ZM103.354 278.242C103.354 279.15 102.994 280.02 102.354 280.662C101.714 281.304 100.846 281.665 99.9407 281.665H55.5641C54.6589 281.665 53.7907 281.304 53.1502 280.662C52.5104 280.02 52.151 279.15 52.151 278.242V233.754C52.151 232.847 52.5104 231.976 53.1502 231.335C53.7907 230.693 54.6589 230.332 55.5641 230.332H99.9407C100.846 230.332 101.714 230.693 102.354 231.335C102.994 231.976 103.354 232.847 103.354 233.754V278.242Z" fill="black"/>
<path d="M458.448 230.338H414.072C412.187 230.338 410.659 231.87 410.659 233.76V278.248C410.659 280.138 412.187 281.67 414.072 281.67H458.448C460.333 281.67 461.862 280.138 461.862 278.248V233.76C461.862 231.87 460.333 230.338 458.448 230.338Z" fill="black"/>
<path d="M407.224 179.004H362.848C360.963 179.004 359.435 180.536 359.435 182.427V226.914C359.435 228.804 360.963 230.337 362.848 230.337H407.224C409.11 230.337 410.638 228.804 410.638 226.914V182.427C410.638 180.536 409.11 179.004 407.224 179.004Z" fill="black"/>
<path d="M509.631 179.004H465.254C463.369 179.004 461.841 180.536 461.841 182.427V226.914C461.841 228.804 463.369 230.337 465.254 230.337H509.631C511.516 230.337 513.044 228.804 513.044 226.914V182.427C513.044 180.536 511.516 179.004 509.631 179.004Z" fill="black"/>
<path d="M407.224 281.668H362.848C360.963 281.668 359.435 283.199 359.435 285.089V329.578C359.435 331.468 360.963 333 362.848 333H407.224C409.11 333 410.638 331.468 410.638 329.578V285.089C410.638 283.199 409.11 281.668 407.224 281.668Z" fill="black"/>
<path d="M509.631 281.668H465.254C463.369 281.668 461.841 283.199 461.841 285.089V329.578C461.841 331.468 463.369 333 465.254 333H509.631C511.516 333 513.044 331.468 513.044 329.578V285.089C513.044 283.199 511.516 281.668 509.631 281.668Z" fill="black"/>
<path d="M330.355 179.004H285.979C284.094 179.004 282.565 180.536 282.565 182.427V226.914C282.565 228.804 284.094 230.337 285.979 230.337H330.355C332.24 230.337 333.769 228.804 333.769 226.914V182.427C333.769 180.536 332.24 179.004 330.355 179.004Z" fill="black"/>
<path d="M330.355 281.668H285.979C284.094 281.668 282.565 283.199 282.565 285.089V329.578C282.565 331.468 284.094 333 285.979 333H330.355C332.24 333 333.769 331.468 333.769 329.578V285.089C333.769 283.199 332.24 281.668 330.355 281.668Z" fill="black"/>
<path d="M282.565 233.716C282.565 232.808 282.205 231.938 281.565 231.296C280.925 230.654 280.057 230.294 279.152 230.294H231.362V182.422C231.362 181.514 231.002 180.644 230.362 180.002C229.722 179.36 228.853 179 227.948 179H183.572C182.666 179 181.798 179.36 181.158 180.002C180.518 180.644 180.159 181.514 180.159 182.422V329.498C180.159 330.405 180.518 331.276 181.158 331.917C181.798 332.559 182.666 332.92 183.572 332.92H227.948C228.853 332.92 229.722 332.559 230.362 331.917C231.002 331.276 231.362 330.405 231.362 329.498V281.626H279.152C280.057 281.626 280.925 281.265 281.565 280.624C282.205 279.982 282.565 279.111 282.565 278.204V233.716Z" fill="black"/>
</svg>
