<svg width="1429" height="212" viewBox="0 0 1429 212" fill="none" xmlns="http://www.w3.org/2000/svg">
<g clip-path="url(#clip0_2017_134)">
<path d="M607.651 140.276C338.907 117.308 263.788 86.9418 -5.68848 104.902C-8.09199 114.072 -8.08694 125.448 -7.40137 136.748C-6.7007 148.296 -5.26304 159.98 -5.23828 168.283C-4.64198 171.082 -4.39425 172.771 -4.46387 173.78C-4.49361 174.211 -4.62159 175.342 -5.68262 175.952C-5.71823 175.972 -5.75468 175.989 -5.79004 176.007C-5.73469 176.71 -5.59123 177.85 -5.26855 179.645L-5.10645 180.548L-5.68555 181.26L-21.0713 200.182L-11.8545 215.874H1433.91C1434 190.697 1434.35 165.522 1434.95 140.375C1378.25 149.41 1327.72 155.692 1270.28 159.771C1269.65 160.18 1268.95 160.371 1268.33 160.416C1267.71 160.46 1266.99 160.374 1266.31 160.057C1195.72 164.99 1124.82 166.576 1053.9 165.907C1053.34 166.129 1052.77 166.214 1052.25 166.204C1051.74 166.194 1051.19 166.09 1050.67 165.865C907.162 164.333 763.333 153.49 621.396 141.446L607.651 140.276ZM-7.4707 176.186C-7.60046 176.161 -7.57772 176.178 -7.46387 176.187C-7.46661 176.186 -7.46905 176.186 -7.4707 176.186Z" fill="#008D21" stroke="#1E1E1E" stroke-width="4"/>
<path d="M359.911 168.643C359.324 168.631 357.776 169.778 357.251 167.974C356.901 166.769 360.07 159.183 360.658 157.141C364.211 144.769 365.289 131.572 361.509 119.109C355.723 118.099 349.7 114.039 349.797 107.596C337.81 113.841 320.623 108.599 323.536 92.4122C324.5 87.0463 328.797 83.2513 333.081 80.3817C323.858 77.5782 318.547 65.6877 322.124 56.7834C325.993 47.1481 338.848 40.6507 348.631 45.3828C343.421 26.9249 365.281 8.63032 382.191 19.0199C386.394 21.6018 392.573 29.6506 392.573 34.6899V40.328C393.837 40.0675 394.739 38.9904 395.925 38.4305C406.458 33.4884 418.994 38.0144 421.852 49.7378C424.306 59.8085 419.908 68.2384 411.626 73.7638C422.229 77.9048 424.617 92.1672 418.633 101.192C413.061 109.591 403.114 110.788 394.128 107.6C394.272 113.226 387.646 116.901 382.463 116.158C379.675 133.193 380.422 151.371 387.483 167.286C387.005 170.016 385.749 168.631 384.404 168.647C377.428 152.11 376.351 133.251 379.376 115.633L374.885 113.032C372.758 116.325 368.842 118.487 364.958 118.876C366.607 126.571 367.629 134.126 366.898 142.008C366.047 151.18 363.344 160.178 359.903 168.647L359.911 168.643ZM405.113 73.0833C405.494 72.7217 407.213 72.3562 408.002 71.8935C416.642 66.8464 422.031 58.191 417.645 48.1085C413.259 38.0261 401.722 38.5005 393.607 43.8897C392.433 44.6713 388.949 48.649 388.646 45.1884C388.502 43.5592 389.159 40.6857 389.089 38.5588C388.829 30.8405 384.773 22.8072 377.02 20.2992C362.042 15.4543 347.861 30.3311 351.765 45.1651C352.06 46.2927 353.915 49.5706 352.928 50.2666C351.87 51.0131 348.888 48.7112 347.566 48.198C340.29 45.375 331.767 48.1785 327.086 54.361C320.367 63.2264 325.589 74.6892 335.306 78.3481C336.585 78.8303 340.932 79.3746 341.173 80.6306C341.515 82.4114 338.319 82.1431 337.04 82.5942C329.656 85.1799 324.757 91.1407 326.732 99.3645C328.711 107.592 344.027 109.288 349.23 104.116C350.229 103.125 350.665 101.433 351.154 100.986C352.095 100.134 353.242 100.414 353.215 101.841C353.184 103.471 352.391 105.041 352.519 107.009C353.114 116.158 365.234 118.658 371.393 112.674C372.424 111.671 373.843 108.366 374.877 108.366C375.705 108.366 377.027 110.765 377.992 111.488C382.238 114.685 391.15 113.168 391.422 107.005C391.48 105.652 390.302 103.498 391.795 102.72C392.717 102.242 395.415 104.466 396.586 104.948C402.601 107.429 410.665 106.052 414.896 100.959C421.261 93.2948 419.663 79.9306 409.787 76.194C408.55 75.7274 402.881 75.2063 405.113 73.0872V73.0833Z" fill="#1E1E1E"/>
<path d="M359.911 168.643C363.352 160.174 366.055 151.176 366.906 142.004C367.637 134.122 366.615 126.571 364.966 118.872C368.847 118.483 372.766 116.321 374.893 113.028L379.384 115.629C376.359 133.247 377.436 152.106 384.412 168.643C382.129 168.674 379.236 169.42 377.218 169.42H366.72C364.857 169.42 362.015 168.678 359.915 168.643H359.911Z" fill="#96561C"/>
<path d="M405.113 73.083C402.885 75.1982 408.55 75.7193 409.787 76.1897C419.663 79.9264 421.261 93.2906 414.896 100.955C410.665 106.048 402.601 107.425 396.586 104.944C395.419 104.462 392.717 102.234 391.795 102.716C390.306 103.49 391.484 105.644 391.422 107.001C391.15 113.164 382.238 114.68 377.992 111.484C377.031 110.761 375.709 108.362 374.877 108.362C373.843 108.362 372.424 111.667 371.393 112.67C365.234 118.654 353.114 116.154 352.519 107.005C352.391 105.037 353.18 103.47 353.215 101.837C353.243 100.414 352.096 100.13 351.155 100.982C350.665 101.425 350.229 103.116 349.23 104.112C344.031 109.283 328.711 107.584 326.732 99.3603C324.753 91.1365 329.656 85.1757 337.04 82.5899C338.319 82.1428 341.515 82.4111 341.173 80.6263C340.932 79.3704 336.581 78.826 335.306 78.3439C325.593 74.685 320.371 63.2261 327.09 54.3607C331.771 48.1821 340.294 45.3747 347.569 48.1976C348.892 48.7109 351.878 51.0128 352.931 50.2662C353.915 49.5702 352.064 46.2963 351.769 45.1648C347.865 30.3308 362.046 15.454 377.024 20.2989C384.777 22.8068 388.832 30.8401 389.093 38.5585C389.167 40.6854 388.51 43.5628 388.65 45.1881C388.953 48.6487 392.437 44.6709 393.611 43.8894C401.726 38.4963 413.173 37.8197 417.649 48.1082C422.124 58.3967 416.646 66.8461 408.006 71.8931C407.213 72.3559 405.498 72.7214 405.117 73.083H405.113Z" fill="#A5CE35"/>
<path d="M1056.88 181.185C1056.12 181.214 1054.58 182.387 1054 180.461C1053.56 178.996 1055.12 175.056 1055.48 173.223C1057.67 162.354 1058.61 153.313 1056.17 142.321C1055.72 140.273 1053.3 131.951 1052.27 130.652C1052.06 130.385 1047.06 129.746 1045.59 129.196C1039.42 126.885 1034.87 121.078 1036.14 114.31C1018.14 120.24 1001.09 105.642 1008.98 86.9336C1011.38 81.2408 1016.57 75.4464 1023.02 74.9385C1006.37 60.2557 1022.96 36.0877 1042.91 43.6174C1041.57 35.6729 1046.04 27.8765 1052.02 22.8947C1060.11 16.1692 1070.84 14.1164 1080.76 17.8368C1092.61 22.281 1099.1 36.1004 1096.67 48.2775C1115.24 44.7264 1126.21 68.5812 1111.91 80.6609C1127.44 90.7175 1118.25 115.106 1099.62 112.189C1099.69 119.465 1094.9 125.691 1088.57 128.857C1087.38 129.45 1084.32 130.136 1083.78 130.838C1083.27 131.494 1082.11 134.931 1081.74 135.993C1076.78 150.071 1075.73 165.643 1079.74 180.105C1078.8 182.988 1077.36 180.948 1076.35 180.761C1071.4 164.373 1073.77 146.444 1080.16 130.821C1078 130.897 1075.82 130.906 1073.82 129.97C1073.13 131.452 1072.84 137.068 1071.42 137.53C1066.75 139.054 1070.92 130.516 1070.44 128.582C1070.36 128.235 1066.17 125.852 1065.98 124.481C1063.15 127.232 1059.68 129.729 1055.61 129.979C1063.11 146.283 1062.32 164.402 1056.88 181.189V181.185ZM1092.86 37.277C1085.97 8.05953 1044.07 18.5098 1045.93 43.3592C1046.04 44.811 1048.3 50.7028 1045.33 49.9282C1044.87 49.8097 1042.9 47.6553 1041.78 47.0881C1028.01 40.0705 1012.58 57.3394 1022.81 69.8721C1024.17 71.544 1030.1 75.3448 1030.13 76.3479C1030.19 78.2018 1027.27 77.3172 1025.83 77.5373C1005.96 80.5424 1004.73 109.955 1025.4 112.139C1028.96 112.515 1032.86 112.168 1036.14 110.704C1037.12 110.264 1039.63 108.283 1040.16 108.38C1041.74 108.685 1039.17 114.767 1039.15 116.257C1039.07 127.943 1058.75 131.355 1064.52 120.46C1064.87 119.778 1065.89 116.198 1067.16 118.644C1068.57 121.366 1067.99 123.084 1071.13 125.243C1080.39 131.592 1095.34 124.743 1096.24 113.671C1096.33 112.503 1095.69 108.63 1095.85 108.414C1096.42 107.627 1100.91 109.26 1102.36 109.239C1105.61 109.197 1110.22 107.292 1112.56 105.011C1118.01 99.6991 1118 86.832 1110.07 83.7592C1108.77 83.2513 1105 82.8703 1104.76 81.8757C1104.4 80.3985 1108.12 79.3912 1109.34 78.5108C1122.35 69.0848 1111.63 47.0966 1096.67 51.8794C1093.58 52.8656 1091.79 56.1416 1092.01 50.3938C1092.92 50.1356 1092.8 49.2891 1092.95 48.5738C1093.76 44.6163 1093.79 41.2133 1092.86 37.2728V37.277Z" fill="#131D17"/>
<path d="M1056.88 181.185C1062.32 164.394 1063.11 146.279 1055.61 129.975C1059.68 129.725 1063.15 127.228 1065.98 124.477C1066.17 125.852 1070.36 128.231 1070.44 128.578C1070.92 130.516 1066.75 139.049 1071.42 137.526C1072.84 137.064 1073.14 131.443 1073.82 129.966C1075.82 130.902 1078 130.893 1080.16 130.817C1073.77 146.444 1071.41 164.369 1076.35 180.757C1075.41 180.584 1072.45 181.604 1071.48 181.604H1060.9C1059.97 181.604 1058.41 181.121 1056.88 181.18L1056.88 181.185Z" fill="#96561C"/>
<path d="M1092.86 37.2768V45.1028C1092.67 46.7789 1092.08 48.7598 1092.01 50.3978C1091.79 56.1456 1093.58 52.8696 1096.67 51.8834C1111.63 47.1048 1122.36 69.0931 1109.34 78.5148C1108.12 79.3952 1104.4 80.3983 1104.76 81.8797C1105 82.8743 1108.77 83.2553 1110.07 83.7632C1118 86.836 1118.01 99.7073 1112.56 105.015C1110.22 107.292 1105.61 109.201 1102.36 109.243C1100.91 109.264 1096.42 107.631 1095.85 108.418C1095.69 108.63 1096.34 112.502 1096.24 113.675C1095.34 124.747 1080.39 131.596 1071.13 125.247C1067.99 123.088 1068.57 121.37 1067.16 118.648C1065.89 116.202 1064.87 119.782 1064.52 120.464C1058.75 131.359 1039.07 127.951 1039.15 116.261C1039.16 114.767 1041.74 108.689 1040.16 108.384C1039.63 108.283 1037.12 110.268 1036.14 110.708C1032.86 112.176 1028.96 112.519 1025.4 112.143C1004.73 109.959 1005.96 80.5464 1025.83 77.5413C1027.27 77.3212 1030.19 78.21 1030.13 76.3519C1030.1 75.3446 1024.17 71.5437 1022.81 69.8761C1012.58 57.3434 1028.01 40.0703 1041.78 47.0921C1042.9 47.6593 1044.87 49.8137 1045.33 49.9322C1048.3 50.7068 1046.04 44.8192 1045.93 43.3632C1044.07 18.5138 1085.97 8.0593 1092.86 37.281V37.2768Z" fill="#1D863D"/>
<path d="M1193.81 191.079C1192.9 191.043 1190.78 192.72 1190.69 189.983C1190.62 187.566 1193.02 181.708 1193.67 178.834C1195.77 169.617 1196.59 159.376 1196.01 149.926C1195.89 148.002 1194.68 138.082 1194.04 136.924C1193.65 136.211 1193.48 136.713 1193.08 136.858C1191.21 137.54 1189.4 138.429 1187.38 138.649C1172.31 140.318 1163.08 125.212 1168.72 111.849C1159.69 113.984 1148.85 108.914 1145.5 100.085C1141.19 88.7466 1146.28 71.8409 1159.48 69.5918C1153.94 64.2001 1151.32 57.8578 1152.01 50.0189C1153.16 36.7796 1166.73 26.2075 1179.73 31.9645C1180.43 32.2726 1183.82 34.7021 1184.12 34.3808C1184.93 27.2638 1188.81 20.2744 1194.24 15.6706C1217.36 -3.90675 1251.49 16.8413 1237.38 45.8244C1241.9 44.5348 1247.47 46.3966 1251.42 48.7293C1266.12 57.4132 1266.21 79.2528 1252.79 89.1779C1274.77 101.022 1257.67 136.026 1235.18 123.729C1234.77 131.739 1227.94 137.734 1220.64 139.877C1219.84 143.759 1218.81 147.725 1218.46 151.682C1217.72 160.058 1218.62 169.622 1220.43 177.87C1221.06 180.722 1223.85 187.874 1223.78 189.974C1223.68 192.729 1221.45 191.07 1220.66 191.07C1214.37 175.018 1212.42 156.752 1217.14 140.018C1210.23 140.335 1203.8 137.157 1199.75 131.66C1199.29 132.316 1198.09 133.016 1197.75 133.605C1196.68 135.45 1198.72 142.487 1199.03 145.128C1200.34 156.013 1199.82 167.126 1197.56 177.866C1196.61 182.346 1195.12 186.695 1193.81 191.065V191.079ZM1231.23 116.695C1233.44 116.198 1233.65 118.091 1234.79 119.072C1250.78 132.826 1268.8 106.722 1254.32 94.2615C1251.52 91.8452 1247.55 91.9684 1246.18 90.9561C1243.96 89.31 1247.61 88.2845 1248.34 87.8223C1268.44 75.1288 1257.78 45.0674 1236.42 49.4863C1235.22 49.7328 1231.29 51.7134 1230.79 49.9925C1230.65 49.5392 1234.55 42.9327 1235.08 41.5507C1243.64 18.9012 1219.81 4.31062 1200.45 15.7234C1192.28 20.5385 1189.09 26.9865 1187.33 36.0533C1187.09 37.2901 1187.6 39.2663 1186.33 39.9089C1184.5 40.8332 1183.05 38.1396 1181.63 37.1141C1163.69 24.1828 1145.18 52.1844 1161.91 66.9466C1163.1 67.9941 1167.27 70.186 1167.31 71.502C1167.38 73.5047 1163.5 72.5099 1161.91 72.6904C1154.55 73.5311 1149.96 78.4034 1148.26 85.4456C1144.91 99.2483 1153.32 110.652 1167.95 108.663C1170 108.386 1172.18 106.841 1173.45 106.647C1176.73 106.15 1173.09 110.459 1172.6 111.555C1163.76 131.7 1187.03 143.266 1197.34 129.244C1198.04 128.284 1198.81 125.951 1199.31 125.498C1201.56 123.469 1201.62 126.977 1202.23 128.306C1206.9 138.425 1221.7 139.424 1228.58 130.995C1232.36 126.356 1231.95 122.386 1231.23 116.7L1231.23 116.695Z" fill="#131D17"/>
<path d="M1193.81 191.078C1195.12 186.708 1196.61 182.355 1197.56 177.879C1199.82 167.139 1200.34 156.026 1199.03 145.141C1198.72 142.5 1196.68 135.458 1197.75 133.618C1198.09 133.024 1199.29 132.324 1199.75 131.673C1203.8 137.17 1210.22 140.348 1217.14 140.031C1212.42 156.765 1214.37 175.031 1220.66 191.083C1218.78 191.083 1215.95 191.963 1214.28 191.963H1199.75C1198.28 191.963 1195.48 191.149 1193.81 191.083V191.078Z" fill="#96561C"/>
<path d="M1231.23 116.695C1231.95 122.382 1232.35 126.352 1228.57 130.991C1221.7 139.424 1206.89 138.42 1202.23 128.301C1201.62 126.972 1201.56 123.464 1199.31 125.493C1198.81 125.947 1198.04 128.279 1197.33 129.239C1187.02 143.262 1163.76 131.695 1172.6 111.55C1173.08 110.454 1176.72 106.145 1173.45 106.642C1172.17 106.836 1169.99 108.381 1167.95 108.658C1153.31 110.648 1144.91 99.248 1148.25 85.4408C1149.96 78.3986 1154.55 73.5263 1161.9 72.6857C1163.5 72.5052 1167.37 73.4999 1167.31 71.4973C1167.26 70.1857 1163.1 67.9894 1161.91 66.9419C1145.18 52.1796 1163.68 24.1825 1181.63 37.1005C1183.05 38.126 1184.5 40.8197 1186.33 39.8954C1187.59 39.2572 1187.09 37.281 1187.33 36.0398C1189.09 26.973 1192.28 20.5249 1200.45 15.7098C1219.81 4.30148 1243.64 18.8876 1235.08 41.5371C1234.55 42.9191 1230.65 49.5256 1230.79 49.979C1231.29 51.6999 1235.22 49.7193 1236.42 49.4728C1257.78 45.0538 1268.44 75.1108 1248.34 87.8088C1247.61 88.2709 1243.96 89.2964 1246.18 90.9426C1247.55 91.9505 1251.51 91.8316 1254.32 94.248C1268.79 106.708 1250.78 132.813 1234.79 119.059C1233.65 118.081 1233.44 116.189 1231.23 116.682V116.695Z" fill="#399E41"/>
</g>
<defs>
<clipPath id="clip0_2017_134">
<rect width="1429" height="212" fill="white"/>
</clipPath>
</defs>
</svg>
