<svg width="306" height="287" viewBox="0 0 306 287" fill="none" xmlns="http://www.w3.org/2000/svg">
<path d="M392.063 143.689C391.532 130.508 389.241 117.394 386.12 104.578C379.812 104.678 373.504 106.238 368.092 109.459C363.012 112.48 359.991 118.954 354.812 121.245C353.849 121.677 352.255 121.444 352.056 120.116C351.824 118.522 352.056 116.962 352.62 115.501C349.566 111.285 344.785 108.496 339.44 108.263C337.979 108.197 336.451 107.267 336.086 105.707C333.629 94.7504 325.395 85.7197 313.841 84.3916C302.918 83.1632 296.577 89.3386 288.409 94.85C287.911 96.51 285.82 97.6057 284.425 95.9788C278.084 88.6746 268.522 83.794 258.727 83.8936C245.912 84.0264 240.666 92.9243 237.744 103.881C237.445 105.01 236.615 105.607 235.719 105.74C235.321 107.201 233.694 108.33 232.1 107.3C219.55 99.5646 203.713 96.3772 190.266 103.848C183.991 107.334 179.011 112.779 175.592 119.087C172.902 124.1 172.139 129.778 169.483 134.725C169.317 135.023 169.117 135.223 168.885 135.389C168.951 136.717 168.022 138.045 166.395 137.48C159.024 134.857 152.351 139.439 149.462 146.179C147.271 151.259 148.101 157.368 145.843 162.282C145.777 163.211 145.212 164.141 144.183 164.473C135.186 167.361 125.557 166.93 118.153 173.67C114.8 176.724 112.576 180.742 112.509 185.323C112.476 189.075 114.335 192.296 114.501 195.981C114.568 197.375 113.074 198.371 111.779 198.039C110.683 197.741 109.787 197.309 108.957 196.778C98.1663 200.928 88.8036 209.228 85.8819 220.716C84.255 227.124 84.6866 234.063 87.1435 240.172C89.3016 245.484 93.2858 247.476 96.6059 251.692C97.2699 252.556 97.4027 254.017 96.2407 254.614C90.8953 257.204 86.7451 255.079 83.6906 250.896C73.1658 256.141 63.1391 263.446 58.9225 274.668C56.3992 281.408 56.2664 288.977 60.3834 295.12C64.6331 301.461 70.7753 302.856 77.6812 304.516C78.5444 304.715 79.142 305.478 79.4076 306.308C103.744 302.324 128.612 301.694 153.214 300.266C178.679 298.772 204.145 297.211 229.643 296.016C279.047 293.725 329.844 291.766 378.982 299.137C378.982 291.833 381.705 283.599 382.667 276.992C384.261 266.035 385.589 255.013 386.652 243.99C388.71 222.741 389.673 201.393 391.765 180.144C389.806 168.291 392.528 155.675 392.03 143.656L392.063 143.689Z" fill="#2B7F3B"/>
<path d="M354.314 185.357C333.962 190.337 319.021 206.274 311.451 225.365C310.721 227.191 307.534 227.788 307.135 225.365C305.044 212.914 298.603 206.208 286.883 214.076C280.641 218.226 275.229 223.306 269.95 228.585C268.854 229.648 266.464 229.316 266.198 227.589C265.036 219.488 262.579 207.868 254.677 203.419C243.157 196.978 237.479 212.582 235.089 220.949C234.557 222.775 231.968 223.207 231.005 221.48C227.419 215.139 223.734 207.37 217.957 202.721C207.93 194.62 195.347 201.925 189.205 211.586C180.074 225.995 182.332 241.899 184.258 257.968C184.457 259.761 182.232 260.624 180.871 259.894C147.803 242.198 137.212 275.399 144.117 300.798C147.172 300.632 150.193 300.466 153.248 300.3C178.713 298.806 204.178 297.245 229.677 296.05C279.08 293.759 329.878 291.8 379.016 299.171C379.016 291.867 381.738 283.633 382.701 277.026C384.295 266.069 385.623 255.047 386.685 244.024C388.279 227.722 389.209 211.354 390.503 195.052C380.211 186.884 364.972 182.768 354.314 185.357Z" fill="#206650"/>
<path d="M399.534 140.469C398.272 127.089 395.218 114.473 390.171 102.122C390.238 101.259 389.939 100.395 389.208 99.9305C388.644 99.0009 387.615 98.9345 386.718 99.3661C378.949 98.2041 371.579 99.5653 364.639 103.649C361.817 105.309 358.265 107.766 355.642 110.721C352.82 105.774 348.238 102.719 342.195 101.69C338.676 89.2397 328.317 79.2794 315.236 77.4865C305.243 76.1253 291.298 80.1426 286.119 89.605C278.914 79.379 265.799 74.3988 253.382 76.4573C242.625 78.2501 230.341 88.4761 231.669 100.163C219.683 90.269 202.418 88.6421 188.241 95.4816C176.555 101.126 161.68 117.527 165.001 131.903C151.156 125.761 138.307 145.483 140.332 159.128C128.977 157.601 115.996 162.382 109.123 171.446C105.604 176.094 102.881 185.822 105.404 192.23C90.0655 195.616 78.9763 208.067 77.0174 224.103C76.453 228.784 77.6814 238.645 81.0348 246.115C64.9654 252.025 50.4564 263.28 49.062 281.84C48.0328 295.452 59.952 313.879 74.8925 310.426C75.2577 310.891 75.789 311.223 76.453 311.256C101.952 312.949 127.749 310.659 153.247 309.331C178.713 308.002 204.178 306.575 229.677 305.38C280.64 302.989 330.874 303.819 381.705 308.169C382.037 308.169 382.369 308.168 382.668 308.135C383.365 308.202 384.029 307.969 384.593 307.338C390.536 300.333 390.271 288.248 391.499 279.449C392.993 268.825 394.255 258.134 395.251 247.443C397.409 224.601 398.638 201.626 396.513 178.75C401.725 167.395 400.63 152.388 399.501 140.469H399.534ZM391.798 180.178C389.706 201.427 388.777 222.742 386.685 244.024C385.623 255.047 384.295 266.069 382.701 277.026C381.738 283.633 379.016 291.867 379.016 299.171C329.911 291.8 279.113 293.759 229.677 296.05C204.178 297.245 178.713 298.806 153.247 300.3C128.645 301.727 103.744 302.358 79.4411 306.342C79.1755 305.512 78.5779 304.749 77.7146 304.55C70.8088 302.889 64.6666 301.495 60.4168 295.154C56.2999 289.011 56.4327 281.442 58.956 274.702C63.1725 263.48 73.1993 256.175 83.7241 250.93C86.7786 255.113 90.9287 257.238 96.2741 254.648C97.4694 254.084 97.3366 252.59 96.6393 251.726C93.3192 247.543 89.3351 245.518 87.177 240.206C84.7201 234.097 84.2885 227.124 85.9153 220.75C88.837 209.262 98.1998 200.962 108.99 196.812C109.82 197.343 110.717 197.808 111.812 198.073C113.107 198.405 114.601 197.409 114.535 196.015C114.369 192.329 112.51 189.142 112.543 185.357C112.576 180.775 114.834 176.758 118.187 173.704C125.591 166.931 135.219 167.362 144.217 164.507C145.279 164.175 145.844 163.245 145.877 162.316C148.101 157.402 147.304 151.293 149.496 146.213C152.384 139.473 159.091 134.891 166.428 137.514C168.022 138.079 168.985 136.751 168.918 135.423C169.151 135.257 169.35 135.057 169.516 134.759C172.172 129.778 172.902 124.101 175.625 119.121C179.012 112.813 183.992 107.368 190.3 103.881C203.746 96.4444 219.617 99.6317 232.133 107.334C233.76 108.33 235.354 107.235 235.752 105.774C236.649 105.641 237.446 105.077 237.778 103.915C240.733 92.9583 245.978 84.0604 258.761 83.9275C268.555 83.8279 278.15 88.7085 284.459 96.0128C285.853 97.6396 287.945 96.5108 288.443 94.8839C296.61 89.3725 302.952 83.1971 313.875 84.4256C325.429 85.7204 333.663 94.7843 336.12 105.741C336.452 107.268 337.979 108.231 339.473 108.297C344.818 108.563 349.599 111.319 352.654 115.535C352.089 117.029 351.857 118.556 352.089 120.15C352.289 121.478 353.882 121.711 354.845 121.279C359.991 118.988 363.046 112.547 368.126 109.492C373.537 106.239 379.846 104.678 386.154 104.612C389.275 117.428 391.566 130.542 392.097 143.723C392.595 155.742 389.872 168.358 391.831 180.211L391.798 180.178Z" fill="#1E1E1E"/>
<path d="M13.0366 236.147C13.2096 235.859 13.2096 235.474 12.8251 235.244C10.8646 234.033 8.71174 232.879 7.23168 231.092C5.34797 228.881 4.42533 224.729 7.51999 223.038C12.8059 220.155 16.4388 226.671 17.4383 230.803C17.5536 231.265 18.3801 231.188 18.3032 230.669C18.3032 230.611 18.3032 230.573 18.3032 230.534C18.5531 230.419 18.7454 230.15 18.63 229.785C17.1884 224.787 20.1677 218.636 26.0687 219.636C32.0082 220.654 32.6233 228.593 27.0682 230.669C26.53 230.88 26.7415 231.63 27.2989 231.534C27.3182 231.534 27.3566 231.515 27.3758 231.515C27.2412 231.668 27.0875 231.803 26.9722 231.976C26.5301 232.572 27.395 233.417 27.9909 232.995C30.3359 231.361 32.6041 230.15 35.5834 230.88C38.6589 231.649 40.7348 234.302 40.927 237.454C41.2538 242.99 36.2946 245.585 31.7391 244.585C30.9126 243.97 29.9515 243.566 28.8943 243.47C28.8174 243.432 28.7213 243.432 28.6444 243.451C28.5868 243.451 28.5099 243.451 28.433 243.451C28.1831 243.451 28.0101 243.547 27.8948 243.682L25.9918 243.201C27.0875 241.683 27.6257 239.722 27.1836 237.858C26.3187 234.109 22.1475 231.937 18.5531 233.033C18.1687 233.148 18.0341 233.475 18.0726 233.783C16.804 234.225 15.7083 235.09 14.9587 236.205L13.0366 236.147Z" fill="white"/>
<path d="M18.8025 245.72C19.629 245.989 20.5132 246.085 21.3782 245.989C23.2234 245.778 24.8765 244.682 25.9721 243.183L27.8751 243.663C27.5483 244.028 27.6444 244.72 28.2018 244.913C34.5642 247.046 34.5642 254.792 28.4902 257.445C25.6261 258.694 21.2629 258.848 19.5522 255.677C18.6103 253.908 18.5718 251.659 18.6872 249.583C18.7833 249.045 18.8409 248.507 18.8409 247.969C18.8409 247.527 18.4565 247.277 18.0913 247.277L18.8025 245.72Z" fill="white"/>
<path d="M14.9781 236.185C14.4207 237.05 14.0746 238.107 14.0362 239.261C13.9785 242.163 16.1121 244.816 18.8031 245.7L18.092 247.257C17.8036 247.257 17.5345 247.411 17.4576 247.757C16.4004 252.523 12.9406 258.694 7.03959 255.753C4.17558 254.33 3.46435 251.293 4.96363 248.564C6.07848 246.526 7.96222 245.296 9.92281 244.181C10.5571 244.008 11.2107 243.835 11.8065 243.624C12.6715 243.336 12.3255 242.029 11.4221 242.24C9.34616 242.721 7.11644 243.47 4.96363 242.932C2.81082 242.375 0.73494 240.222 1.9459 237.896C3.38751 235.128 6.92424 234.494 9.84591 235.051C10.6148 235.512 11.4029 235.935 12.1909 236.339C12.5561 236.512 12.9022 236.358 13.0559 236.108L14.9781 236.166V236.185Z" fill="white"/>
<path d="M25.5307 237.704C26.511 240.433 24.512 243.759 21.7056 244.393C18.8608 245.027 15.8815 242.625 15.6124 239.78C15.3817 237.358 17.1693 235.205 19.3414 234.282C21.8401 233.917 24.6465 235.186 25.5114 237.704H25.5307Z" fill="#FEC703"/>
<path d="M25.5303 237.703C24.6461 235.185 21.859 233.917 19.3602 234.282C17.169 235.205 15.4006 237.357 15.6312 239.779C15.8811 242.624 18.8796 245.008 21.7244 244.393C24.5308 243.758 26.5298 240.433 25.5495 237.703H25.5303ZM18.8028 245.719C16.1118 244.815 13.9781 242.182 14.0358 239.28C14.055 238.107 14.4011 237.069 14.9777 236.204C15.7273 235.07 16.823 234.224 18.0916 233.782C18.0531 233.494 18.1877 233.148 18.5721 233.033C22.1665 231.937 26.3184 234.109 27.2026 237.857C27.6447 239.722 27.1065 241.682 26.0108 243.201C24.9152 244.7 23.2814 245.796 21.4169 246.007C20.5327 246.103 19.6677 246.007 18.8412 245.738L18.8028 245.719Z" fill="#1E1E1E"/>
<path d="M31.7197 244.585C36.2944 245.585 41.2343 242.99 40.9076 237.454C40.7153 234.302 38.6586 231.649 35.564 230.88C32.5654 230.15 30.3165 231.361 27.9715 232.994C27.3756 233.398 26.5106 232.572 26.9527 231.976C27.068 231.803 27.2411 231.668 27.3564 231.514C27.3372 231.514 27.2987 231.514 27.2795 231.534C26.7221 231.63 26.5107 230.88 27.0489 230.669C32.6039 228.593 31.9887 220.635 26.0493 219.635C20.1483 218.636 17.169 224.787 18.6106 229.784C18.7259 230.15 18.5337 230.419 18.2838 230.534C18.2838 230.592 18.2838 230.63 18.2838 230.669C18.3607 231.188 17.5342 231.265 17.4189 230.803C16.4193 226.671 12.7865 220.154 7.50055 223.038C4.40588 224.729 5.32853 228.862 7.21224 231.092C8.71152 232.879 10.8451 234.052 12.8057 235.243C13.1709 235.455 13.1901 235.858 13.0171 236.147C12.8441 236.397 12.5174 236.55 12.1522 236.377C11.3641 235.974 10.576 235.551 9.80715 235.09C6.88548 234.532 3.36791 235.166 1.90708 237.934C0.696124 240.26 2.77206 242.432 4.92487 242.97C7.07768 243.509 9.30741 242.759 11.3833 242.278C12.2867 242.067 12.6327 243.374 11.7677 243.662C11.1719 243.874 10.5184 244.047 9.88406 244.22C7.92346 245.315 6.03972 246.565 4.92487 248.602C3.42559 251.332 4.13682 254.369 7.00083 255.791C12.9018 258.732 16.3809 252.562 17.4189 247.795C17.4957 247.449 17.7649 247.295 18.0532 247.295C18.4184 247.295 18.8028 247.545 18.8028 247.987C18.8028 248.525 18.7452 249.064 18.6491 249.602C18.5145 251.678 18.5529 253.927 19.514 255.695C21.2247 258.886 25.588 258.732 28.452 257.463C34.526 254.811 34.5452 247.065 28.1637 244.931C27.6063 244.739 27.491 244.047 27.8369 243.682C27.9523 243.547 28.1253 243.451 28.3751 243.451C28.4328 243.451 28.5097 243.451 28.5866 243.451C28.6634 243.451 28.7596 243.451 28.8364 243.47C29.8936 243.566 30.8355 243.97 31.6812 244.585H31.7197ZM42.6183 237.108C42.9066 240.875 40.9844 244.431 37.4285 245.854C36.1791 246.353 34.8143 246.546 33.4688 246.45C34.1993 247.545 34.6798 248.814 34.8528 250.063C35.3141 253.561 33.3343 256.714 30.355 258.463C27.2219 260.27 22.3011 260.846 19.4563 258.175C17.9763 256.771 17.4573 254.984 17.4381 253.119C15.0931 257.194 10.1723 259.674 5.63606 256.81C3.13726 255.234 2.02241 252.389 2.86816 249.563C3.50247 247.449 4.98256 245.873 6.75094 244.681C5.44388 244.7 4.15599 244.508 2.98348 243.855C1.13821 242.836 -0.3226 240.856 0.0618305 238.665C0.657697 235.07 4.29057 233.437 7.69277 233.629C6.25116 232.475 5.05942 231.072 4.44433 229.285C3.5217 226.651 4.00227 223.499 6.52029 221.923C8.82687 220.481 11.9791 220.827 14.1512 222.403C15.3237 223.23 16.1694 224.345 16.8038 225.575C17.5342 220.5 22.3972 216.425 27.9715 218.598C32.354 220.327 33.5073 226.036 31.0085 229.323C32.873 228.804 34.9296 228.823 36.6788 229.381C40.1002 230.476 42.3492 233.59 42.6183 237.127V237.108Z" fill="#1E1E1E"/>
<path d="M228.954 16.6279C229.321 17.334 230.451 16.8256 230.225 16.0913C230.14 15.7806 230.027 15.4134 229.914 15.0462C230.084 15.2439 230.253 15.4134 230.423 15.5829C230.734 15.95 231.383 15.5546 231.242 15.1027C230.79 13.8317 230.084 12.8431 229.237 12.1088C228.474 7.98502 228.502 3.2399 233.163 2.02537C237.23 0.952073 239.179 5.18879 239.631 8.80412C239.433 9.70795 239.433 10.6683 239.631 11.6286C239.715 12.0805 240.111 12.2782 240.506 12.2782L240.563 14.1706C237.71 14.2836 234.97 16.2325 233.897 19.0005C232.428 22.7853 234.914 26.5136 238.557 27.7281L237.399 30.1289C237.258 30.1289 237.117 30.1289 236.976 30.2136C236.693 30.1007 236.354 30.1289 236.157 30.4396C235.479 31.5976 235.112 32.8404 234.999 34.0267C232.795 36.7947 228.841 37.8962 225.198 37.7267C221.469 37.5573 218.08 35.0435 220.311 31.0045C221.526 28.8297 223.814 27.6434 226.017 26.5418C226.751 26.3724 227.457 26.1182 228.192 25.6945C229.095 25.1861 228.474 23.5479 227.457 23.9715C222.514 25.9769 216.47 22.3898 218.306 16.5997C219.803 11.9675 224.294 11.4874 227.768 13.408C228.079 14.5943 228.474 15.6958 228.926 16.6279H228.954Z" fill="white"/>
<path d="M237.428 30.1295L238.586 27.7287C242.088 28.8868 246.043 27.3333 247.173 23.6615C248.189 20.3851 246.834 16.7698 243.84 15.1881C243.811 14.9904 243.698 14.7644 243.416 14.6514C242.484 14.2278 241.524 14.0865 240.563 14.143L240.507 12.2506C241.015 12.2506 241.524 11.9399 241.467 11.3185C241.072 6.71465 246.636 1.5741 250.929 5.16118C253.217 7.05358 253.528 10.6407 252.2 13.2392C251.268 13.8041 250.449 14.5667 249.799 15.64C249.178 16.685 250.647 17.8713 251.466 16.9393C255.138 12.9003 263.159 14.4255 263.244 20.6393C263.272 23.492 261.549 26.3165 259.177 27.8135C256.55 29.4799 253.697 29.2257 251.07 28.0112C250.703 27.6158 250.308 27.2486 249.856 26.9096C248.924 26.2035 247.681 27.7852 248.585 28.5761C253.33 32.6151 252.426 40.4671 245.902 41.9923C240.93 43.1504 237.4 39.535 236.835 35.2136C237.682 34.1121 238.275 32.841 238.53 31.4006C238.643 30.638 237.993 30.1295 237.4 30.1295H237.428Z" fill="white"/>
<path d="M235.535 20.1023C236.354 16.9954 239.829 15.3854 242.823 16.2045C242.964 16.2328 243.077 16.2045 243.19 16.2045C247.596 19.2832 245.732 27.7284 239.574 26.062C236.976 25.3558 234.773 22.955 235.564 20.1305L235.535 20.1023Z" fill="#FEC703"/>
<path d="M233.925 18.9721C234.998 16.2041 237.71 14.2552 240.591 14.1422C241.551 14.0858 242.539 14.227 243.443 14.6506C243.697 14.7636 243.81 14.9613 243.867 15.1873C246.861 16.769 248.217 20.3843 247.2 23.6607C246.07 27.3325 242.116 28.886 238.613 27.728C234.97 26.5134 232.484 22.7569 233.953 19.0003L233.925 18.9721ZM239.574 26.0333C245.731 27.6997 247.595 19.2545 243.189 16.1759C243.048 16.2041 242.935 16.2324 242.822 16.1759C239.828 15.3568 236.382 16.995 235.535 20.0736C234.772 22.8981 236.975 25.2989 239.545 26.005L239.574 26.0333Z" fill="#1E1E1E"/>
<path d="M217.882 31.8241C218.588 29.3668 220.396 27.7287 222.571 26.5706C218.108 25.5256 214.719 20.724 216.47 15.7529C218.052 11.2902 223.362 9.34132 227.288 10.8948C226.61 6.03668 227.768 0.754908 233.445 0.0487887C237.625 -0.431372 239.913 2.7038 240.647 6.31913C242.85 2.78853 247.709 0.78316 251.493 3.21221C254.544 5.1611 255.448 9.14361 254.374 12.3918C259.261 11.2902 265.362 14.849 265.588 20.3003C265.898 26.5706 258.696 32.6432 253.019 31.0333C255.08 36.1456 252.651 42.5854 246.494 44.0259C241.128 45.2969 236.269 41.6533 235.196 36.9647C231.411 40.0151 225.282 40.8342 221.074 39.0831C218.136 37.8685 217.007 34.8463 217.854 31.8524L217.882 31.8241ZM227.796 13.4086C224.322 11.4879 219.831 11.9681 218.334 16.6002C216.498 22.3904 222.542 25.9492 227.485 23.9721C228.502 23.5484 229.124 25.1866 228.22 25.695C227.485 26.1187 226.779 26.3729 226.045 26.5424C223.842 27.6439 221.554 28.8302 220.339 31.0051C218.108 35.0441 221.497 37.5578 225.226 37.7273C228.869 37.8968 232.824 36.7952 235.027 34.0272C235.168 32.8127 235.507 31.5982 236.185 30.4402C236.382 30.1295 236.721 30.1012 237.004 30.2142C237.145 30.1295 237.258 30.1295 237.427 30.1295C238.021 30.1295 238.67 30.6379 238.557 31.4005C238.303 32.841 237.71 34.1402 236.863 35.2135C237.427 39.5067 240.958 43.1503 245.929 41.9923C252.454 40.467 253.358 32.615 248.612 28.576C247.709 27.8134 248.951 26.2034 249.883 26.9096C250.335 27.2485 250.731 27.6157 251.098 28.0111C253.725 29.2256 256.577 29.4516 259.204 27.8134C261.605 26.3164 263.328 23.4919 263.271 20.6392C263.187 14.4254 255.165 12.9002 251.493 16.9392C250.674 17.8712 249.206 16.685 249.827 15.6399C250.477 14.5948 251.296 13.804 252.228 13.2391C253.555 10.6406 253.245 7.08174 250.957 5.16109C246.664 1.60225 241.099 6.71456 241.495 11.3185C241.551 11.9116 241.043 12.2505 240.534 12.2505C240.139 12.2505 239.744 12.0528 239.659 11.6009C239.461 10.6406 239.461 9.68025 239.659 8.77642C239.207 5.16109 237.258 0.924383 233.191 1.99768C228.53 3.21221 228.502 7.95733 229.265 12.0811C230.112 12.8154 230.818 13.804 231.27 15.075C231.411 15.4987 230.762 15.8941 230.451 15.5552C230.282 15.3575 230.112 15.188 229.943 15.0185C230.056 15.3857 230.14 15.7529 230.253 16.0636C230.451 16.8262 229.321 17.3346 228.982 16.6002C228.53 15.6681 228.135 14.5666 227.824 13.3803L227.796 13.4086Z" fill="#1E1E1E"/>
<g clip-path="url(#clip0_2017_132)">
<path d="M315.727 181.162C316.314 179.493 316.675 177.806 316.561 176.138C315.86 164.802 304.353 168.234 299.709 172.954C293.112 179.626 294.325 188.82 298.704 196.118L299.273 196.516C305.111 193.028 310.154 188.119 313.888 181.446C314.343 180.631 315.177 180.707 315.727 181.162ZM198.293 173.863C193.611 167.532 190.389 160.291 189.687 152.291C188.664 140.216 193.99 125.734 205.326 120.54C205.478 120.35 205.686 120.18 205.99 120.085C207.032 119.744 208.075 119.478 209.155 119.27C209.572 119.156 209.989 119.023 210.425 118.947C210.501 118.928 210.577 118.947 210.653 118.985C224.415 116.692 239.296 122.663 244.262 136.671C250.385 153.922 238.12 166.395 222.993 172.29C216.984 174.622 210.785 176.024 204.587 176.574C211.354 183.967 220.188 189.73 228.983 193.919C248.527 203.265 277.17 208.269 297.283 197.672C289.738 187.531 291.254 171.191 304.77 166.736C309.831 165.068 316.656 165.997 318.343 171.835C320.144 178.072 316.542 184.896 312.068 189.275C309.263 193.047 305.927 196.08 302.211 198.544C315.234 207.151 328.693 211.795 344.919 212.022C346.36 212.06 346.36 214.202 344.919 214.259C329.148 214.866 312.846 209.748 300.733 199.511C277.796 213.292 241.324 205.274 220.339 192.99C213.193 188.82 206.16 183.361 200.625 176.802C170.883 177.731 141.937 159.21 133.065 129.222C132.781 128.255 134.184 127.914 134.544 128.805C145.235 155.438 169.328 174.091 198.293 173.863ZM206.065 122.701C195.09 131.496 189.934 145.315 194.407 159.476C196.075 164.727 198.767 169.466 202.16 173.731C217.477 172.707 241.513 165.618 242.518 147.23C243.618 127.307 223.638 118.474 206.71 122.682C206.463 122.739 206.255 122.739 206.065 122.701Z" fill="#1E1E1E"/>
<path d="M152.249 102.133C156.192 104.579 155.812 107.649 151.092 111.365C148.457 112.066 145.747 112.502 142.998 112.654C139.738 112.938 136.439 112.938 133.179 112.73C123.435 112.085 114.507 109.185 105.825 104.768C105.389 104.541 104.972 104.541 104.612 104.692C103.872 103.763 103.171 102.816 102.47 101.868C102.944 101.64 103.436 101.413 103.929 101.185C104.081 101.242 104.252 101.261 104.441 101.185C115.625 96.8065 143.699 89.1482 152.249 102.133Z" fill="#F49800"/>
<path d="M113.919 95.7452C115.531 94.7215 117.085 93.6221 118.564 92.4468C129.388 87.0632 150.998 80.0684 152.818 98.0768C149.083 95.5177 144.192 94.0581 140.534 93.4894C131.643 92.1245 122.544 93.205 113.919 95.7452Z" fill="#F49800"/>
<path d="M88.29 79.7465C86.9252 72.3157 85.9395 64.6763 86.5461 57.2076C87.0768 50.7056 89.0672 43.9004 94.1096 39.3888C100.536 33.664 109.862 33.7019 114.791 40.6209C106.279 41.1138 98.3558 48.5636 94.1285 55.3878C89.6359 62.667 87.5318 71.3299 88.29 79.7465Z" fill="#F49800"/>
<path d="M126.202 48.7156C142.77 69.4536 118.487 91.4807 100.668 99.158C100.611 99.1769 100.592 99.2148 100.555 99.2338C97.6353 95.1203 94.8108 90.8931 91.7778 86.8364C91.6451 86.6469 91.4745 86.4384 91.3229 86.2488C89.7306 79.0644 89.7306 71.7663 92.138 64.525C96.2704 52.0898 113.615 32.9819 126.202 48.7156Z" fill="#F49800"/>
<path d="M126.202 48.7153C113.615 32.9816 96.2706 52.0895 92.1381 64.5247C89.7307 71.766 89.7307 79.0641 91.323 86.2485C91.4747 86.4381 91.6453 86.6466 91.778 86.8362C94.811 90.8928 97.6354 95.12 100.555 99.2335C100.593 99.2145 100.612 99.1766 100.668 99.1577C118.487 91.4804 142.77 69.4533 126.202 48.7153ZM86.5461 57.2076C85.9395 64.6764 86.9252 72.3157 88.29 79.7465C87.5318 71.33 89.6359 62.667 94.1285 55.3879C98.3558 48.5636 106.279 41.1138 114.791 40.621C109.862 33.702 100.536 33.6641 94.1096 39.3888C89.0672 43.9004 87.0768 50.7057 86.5461 57.2076ZM73.2388 78.4386C73.599 79.2726 74.1298 80.0309 74.7932 80.5996C74.8311 80.5048 74.888 80.429 74.9449 80.3342C75.0586 80.1636 75.1913 80.0309 75.324 79.8792C74.5278 79.5759 73.8075 79.0641 73.2388 78.4386ZM152.817 98.0772C150.997 80.0688 129.387 87.0636 118.563 92.4472C117.084 93.6225 115.53 94.7219 113.919 95.7455C122.544 93.2054 131.643 92.1249 140.533 93.4898C144.192 94.0585 149.082 95.5181 152.817 98.0772ZM151.092 111.365C155.812 107.65 156.191 104.579 152.248 102.134C143.699 89.1488 115.625 96.8071 104.441 101.186C104.251 101.262 104.081 101.243 103.929 101.186C103.436 101.413 102.943 101.641 102.469 101.868C103.171 102.816 103.872 103.764 104.611 104.693C104.971 104.541 105.389 104.541 105.824 104.769C114.506 109.185 123.435 112.086 133.178 112.73C136.439 112.939 139.737 112.939 142.998 112.654C145.746 112.503 148.457 112.067 151.092 111.365ZM69.0685 78.9883C68.3481 77.2822 68.4619 75.6141 69.1443 74.2682C54.4722 70.458 41.8853 58.4398 38.0372 43.6919C37.7718 42.6683 39.2694 42.2891 39.6106 43.2559C44.9183 57.9848 55.439 68.3728 69.9973 73.074C70.6039 72.4295 71.4001 71.9176 72.31 71.5764C63.628 61.8709 60.6519 48.393 63.5522 35.6734C63.8366 34.4602 65.6564 34.972 65.391 36.1663C62.7371 48.9048 65.9786 60.8093 73.7127 70.8182C76.1581 69.7756 79.0394 70.4011 80.4422 72.9034C80.4801 72.9981 80.518 73.0929 80.5559 73.1687C81.4089 73.908 82.1103 74.799 82.5463 75.8795C82.9065 76.7894 83.0013 77.7751 82.9065 78.7419C84.3851 79.4812 85.8068 80.5806 87.1337 81.7749C83.3804 68.2022 80.935 50.7436 90.47 39.6732C97.8629 31.0671 111.303 30.1572 117.198 40.6779C118.487 40.8105 119.795 41.1138 121.084 41.6067C132.647 46.1183 135.453 61.4728 132.742 72.1451C131.169 78.3059 127.889 83.4999 123.643 87.8977C129.785 84.8458 136.458 82.7795 143.225 84.7699C149.784 86.7224 154.694 91.7079 155.148 98.6269C155.148 99.0818 154.959 99.3851 154.675 99.5557C156.532 101.243 157.897 103.29 158.295 105.773C159.66 114.133 148.893 115.214 142.998 115.706C131.131 116.711 119.397 114.436 108.668 109.489C112.725 113.943 117.331 117.829 123.094 120.616C124.174 121.147 123.871 122.379 123.094 122.91C123.302 123.516 122.866 124.313 122.051 124.104C109.085 120.616 97.389 113.792 87.7972 104.427C84.0438 100.769 73.4284 90.8549 73.9023 83.4999C73.4473 83.2155 73.0303 82.8933 72.6512 82.5141C71.1157 81.8507 69.8267 80.7512 69.0874 78.9883H69.0685Z" fill="#1E1E1E"/>
</g>
<defs>
<clipPath id="clip0_2017_132">
<rect width="308" height="181.297" fill="white" transform="translate(38 33)"/>
</clipPath>
</defs>
</svg>
