<svg width="410" height="207" viewBox="0 0 410 207" fill="none" xmlns="http://www.w3.org/2000/svg">
<path d="M374.075 212.184C372.855 212.397 372.006 211.76 371.688 210.938C370.627 210.938 369.672 210.195 369.565 208.869C369.221 204.571 371.024 200.46 370.918 196.11C370.812 191.627 369.433 187.091 366.913 183.351C361.74 175.712 353.862 173.51 345.454 171.706C345.056 171.812 344.631 171.839 344.18 171.706C341.952 171.096 342.164 168.417 342.058 166.666C341.607 159.637 337.602 156.507 331.316 154.252C329.857 153.722 329.353 151.6 330.546 150.698C330.387 150.565 330.255 150.433 330.148 150.247C325.533 143.35 324.366 136.003 315.639 132.528C307.071 129.133 297.734 132.21 291.341 138.363C291.103 138.602 290.837 138.735 290.546 138.841C289.962 140.751 287.628 141.6 286.01 140.088C283.039 137.329 281.766 133.271 279.007 130.22C275.771 126.639 271.553 123.774 266.964 122.209C256.752 118.735 247.123 122.05 238.211 127.09C237.415 127.541 236.646 127.488 236.036 127.143C235.187 126.984 234.364 126.374 234.046 125.578C231.791 119.636 233.436 112.872 231.606 106.692C229.431 99.3178 223.595 92.6864 215.664 93.2699C215.584 93.4556 215.478 93.6148 215.372 93.7739C214.576 94.9145 213.223 95.445 211.977 94.6758C210.571 93.8004 210.279 91.9702 209.855 90.5378C208.767 86.8242 206.406 83.7207 202.772 82.1822C201.658 81.7048 201.658 80.2193 202.348 79.344C202.109 78.8665 202.083 78.2564 202.348 77.5668C206.115 67.9114 209.43 58.2826 202.613 48.9191C196.539 40.537 185.372 37.5131 175.584 40.033C175.398 40.086 175.239 40.086 175.08 40.086C175 40.1656 174.974 40.2717 174.894 40.3513C173.992 41.3858 172.427 41.1471 171.499 40.3513C170.013 39.0781 170.066 37.5396 169.509 35.7889C168.899 33.9321 167.838 32.1549 166.538 30.696C163.833 27.6986 159.933 25.7622 155.902 25.6031C155 25.5765 154.39 24.9399 154.151 24.1972C153.116 24.2502 152.135 23.7993 151.657 22.6852C147.016 11.8893 139.482 6.31892 127.36 6.69028C116.776 7.00859 105.45 11.4649 97.5187 18.5207C97.6778 18.7594 97.8635 18.9982 97.9961 19.2634C98.9511 21.0141 97.333 23.7993 95.1844 22.924C88.3408 20.2184 83.6193 16.0538 75.6616 17.1679C67.9691 18.2289 61.7091 23.428 58.2077 30.1655C58.6321 32.1814 57.2793 34.6748 54.839 33.7199C45.4489 30.0594 37.4912 25.6826 27.2523 30.5103C18.6845 34.5422 13.2203 43.3487 12.2388 52.6061C13.5651 54.7812 9.58624 56.1075 8.10081 56.6646C4.94426 57.8317 2.1856 59.8476 0.249229 62.6063C0.381859 63.7204 -0.387383 65.0467 -1.44841 65.4711C-5.50683 67.0361 -9.77745 67.1157 -13.6502 69.3703C-17.5495 71.625 -20.7856 74.8611 -23.1729 78.6543C-28.0801 86.5324 -29.3003 96.2408 -29.6186 105.419C-27.974 106.161 -27.0987 108.283 -28.6372 109.742C-33.624 114.49 -41.7143 115.286 -47.5499 119.106C-54.9241 123.96 -60.8393 132.687 -58.7172 141.812C-58.6642 141.812 -58.5846 141.865 -58.5316 141.891C-57.1257 142.555 -56.9135 144.756 -58.0276 145.764C-60.6006 148.072 -63.094 148.098 -66.3036 149.345C-70.0437 150.777 -73.439 152.953 -76.2507 155.817C-82.9351 162.634 -85.7468 173.006 -84.1023 182.37C-83.8635 183.775 -84.8715 184.704 -85.906 184.783C-92.2191 189.531 -98.373 192.343 -102.962 199.24C-107.073 205.42 -109.355 212.715 -109.912 220.089C-109.089 221.017 -108.771 222.344 -109.593 223.617C-116.304 234.041 -118.692 247.012 -111.503 257.808C-93.3066 256.164 -74.6857 257.013 -56.436 257.013C-37.7885 257.013 -19.141 257.013 -0.493484 257.013C64.7861 257.013 130.039 257.013 195.319 257.013C227.945 257.013 260.598 257.013 293.225 257.013C309.087 257.013 324.923 257.013 340.785 257.013C357.417 257.013 374.632 255.792 391.131 257.729C391.21 257.729 391.29 257.755 391.396 257.782C391.688 257.411 391.98 257.066 392.298 256.694C392.112 256.19 392.112 255.58 392.378 255.103C394.685 250.885 398.505 247.914 400.547 243.511C402.855 238.524 403.518 232.742 401.9 227.463C398.346 215.924 385.375 210.328 374.101 212.184H374.075Z" fill="#2B7F3B"/>
<path d="M344.181 256.96C344.976 254.095 344.764 251.072 342.934 247.941C336.886 237.623 323.358 239.931 313.915 243.3C312.509 243.804 310.944 241.92 311.899 240.673C323.517 225.129 303.623 215.633 290.042 219.426C288.795 219.771 287.363 218.525 287.84 217.225C295.161 196.429 264.1 206.508 254.232 210.142C252.853 210.646 251.765 209.161 252.03 207.941C257.203 184.094 227.547 194.094 216.194 200.673C214.921 201.416 213.621 200.434 213.489 199.134C211.367 177.649 187.096 182.635 173.753 190.063C172.533 190.752 171.127 189.877 171.048 188.524C170.438 174.492 159.721 163.696 145.901 171.495C144.973 172.025 143.461 171.601 143.275 170.434C141.896 162.529 140.119 154.041 136.193 146.958C130.092 135.95 122.453 136.958 114.442 146.004C113.301 147.277 111.524 146.163 111.392 144.73C110.516 135.605 109.217 120.274 100.383 114.677C93.9908 110.645 86.6167 113.059 80.7015 116.905C65.8737 126.507 54.9981 142.051 47.0935 157.569C46.5099 158.683 44.5471 158.789 43.99 157.569C41.921 153.006 38.1013 143.828 31.7086 144.598C26.6688 145.208 22.743 149.876 20.17 153.908C15.1832 161.733 11.6287 170.513 10.1168 179.691C9.85153 181.283 7.54379 181.362 6.85413 180.115C3.75063 174.678 -2.85426 163.776 -10.4671 169.187C-15.507 172.741 -18.637 178.816 -21.0508 184.333C-25.9581 195.553 -29.7512 208.1 -30.9184 220.328C-31.0775 221.973 -32.7221 222.583 -33.9688 221.602C-42.908 214.652 -55.5607 209.877 -65.6935 217.517C-73.3328 223.273 -77.683 233.273 -76.569 242.822C-75.9324 248.18 -73.9695 252.902 -70.9986 256.828C-66.1179 256.881 -61.2637 256.934 -56.4095 256.934C-37.762 256.934 -19.1145 256.934 -0.466949 256.934C64.8126 256.934 130.066 256.934 195.345 256.934C227.972 256.934 260.625 256.934 293.251 256.934H340.812C341.926 256.934 343.066 256.934 344.207 256.934L344.181 256.96Z" fill="#206650"/>
<path d="M407.895 223.883C403.067 211.309 388.823 204.015 375.985 207.225C380.786 199.267 376.966 185.659 372.191 179.107C366.939 171.919 357.496 166.428 348.371 167.171C349.857 159.08 341.952 150.407 333.915 150.141C333.995 150.009 334.074 149.876 334.101 149.743C337.443 139.345 325.851 128.656 316.939 125.711C307.124 122.449 296.62 125.844 289.962 133.298C287.071 124.862 276.195 117.647 268.874 115.313C259.351 112.263 247.972 113.616 239.829 119.557C241.526 104.809 231.367 85.4188 215.823 88.655C215.266 86.7982 214.152 84.9944 213.17 83.7477C211.605 81.7583 209.642 80.4055 207.414 79.5832C216.963 70.9359 215.292 53.6146 207.918 44.1715C200.279 34.4101 187.334 31.3066 176.008 35.418C175.371 31.8901 172.56 28.15 170.358 26.1871C166.644 22.8449 162.108 21.2268 157.281 21.5717C157.281 21.439 157.307 21.3064 157.281 21.1472C156.75 8.33537 143.355 0.828618 131.869 0.0859002C117.466 -0.869022 105.238 6.23985 95.6618 16.3196C90.2506 10.9614 80.2239 9.74123 73.3272 11.2267C64.8921 13.0304 58.5524 18.9191 55.2367 26.585C47.1199 19.7149 32.6104 20.2719 23.8304 24.7813C13.7507 29.9538 7.83543 40.3783 7.62323 51.4395C5.79297 51.9435 3.93618 53.0576 2.87515 53.7738C0.408272 55.4979 -1.55463 57.7791 -2.98701 60.4052C-11.9262 58.177 -21.8733 65.6572 -26.9662 72.4478C-34.1016 81.9705 -35.3483 93.7214 -34.075 105.154C-42.351 106.188 -52.5634 112.873 -57.5502 118.205C-63.4389 124.491 -66.1445 132.741 -63.8368 140.91C-71.1579 141.414 -79.3278 148.258 -83.227 153.218C-89.3014 160.937 -90.9195 170.274 -88.9566 179.532C-96.7816 181.15 -103.944 188.763 -108.135 195.076C-113.068 202.476 -115.27 210.938 -114.501 219.718C-114.527 219.718 -114.554 219.771 -114.58 219.798C-125.403 230.726 -123.546 247.915 -114.421 259.003C-115.376 260.435 -114.713 262.69 -112.432 262.928C-95.7737 264.493 -78.7973 263.804 -62.0861 263.804C-46.2238 263.804 -30.388 263.804 -14.5257 263.804H83.3804C148.66 263.804 213.913 263.83 279.193 263.804C297.84 263.804 316.488 263.804 335.135 263.804C353.57 263.804 372.749 265.236 391.078 263.087C393.041 262.849 393.863 261.284 393.598 259.904C394.5 259.109 395.375 258.286 396.25 257.464C408.717 254.334 411.741 234.095 407.842 223.936L407.895 223.883ZM340.812 256.987C324.949 256.987 309.114 256.987 293.251 256.987C260.625 256.987 227.972 256.987 195.345 256.987C130.066 256.987 64.8125 256.987 -0.467079 256.987C-19.1146 256.987 -37.7621 256.987 -56.4096 256.987C-74.6858 256.987 -93.2803 256.138 -111.477 257.782C-118.665 246.986 -116.305 234.015 -109.567 223.591C-108.745 222.318 -109.063 220.965 -109.885 220.063C-109.355 212.689 -107.047 205.368 -102.936 199.214C-98.3467 192.317 -92.1927 189.505 -85.8796 184.757C-84.8186 184.651 -83.8106 183.723 -84.0759 182.343C-85.7205 173.006 -82.9087 162.635 -76.2243 155.791C-73.4126 152.927 -70.0173 150.751 -66.2772 149.319C-63.0676 148.072 -60.5742 148.072 -58.0012 145.738C-56.8871 144.73 -57.0993 142.529 -58.5052 141.865C-58.5582 141.839 -58.6378 141.812 -58.6908 141.786C-60.8394 132.661 -54.9242 123.934 -47.5236 119.08C-41.6879 115.26 -33.5976 114.464 -28.6108 109.716C-27.0458 108.231 -27.9476 106.135 -29.5922 105.393C-29.2739 96.2413 -28.0803 86.5329 -23.1465 78.6283C-20.7857 74.8351 -17.5231 71.5725 -13.6238 69.3443C-9.72452 67.1162 -5.48042 67.0366 -1.422 65.445C-0.360977 65.0206 0.434799 63.6944 0.275642 62.5803C2.18549 59.8216 4.94415 57.8057 8.12723 56.6385C9.61267 56.0815 13.565 54.7552 12.2652 52.5801C13.2467 43.3227 18.711 34.5162 27.2787 30.4843C37.5176 25.6566 45.4488 30.0599 54.8654 33.6939C57.3057 34.6488 58.6585 32.1554 58.2341 30.1394C61.762 23.4019 67.9956 18.2029 75.688 17.1419C83.6192 16.0543 88.3672 20.2189 95.2109 22.8979C97.3594 23.7468 98.9775 20.9616 98.0226 19.2374C97.8899 18.9721 97.7043 18.7334 97.5451 18.4947C105.476 11.4389 116.803 6.98256 127.386 6.66426C139.509 6.2929 147.042 11.8633 151.684 22.6592C152.161 23.7733 153.169 24.1977 154.177 24.1712C154.443 24.9139 155.053 25.5505 155.928 25.577C159.986 25.7362 163.859 27.646 166.565 30.6699C167.865 32.1289 168.952 33.8795 169.536 35.7629C170.093 37.5136 170.04 39.052 171.525 40.3253C172.453 41.121 174.018 41.3598 174.92 40.3253C175 40.2457 175.053 40.1396 175.106 40.06C175.265 40.06 175.451 40.06 175.61 40.007C185.398 37.487 196.565 40.5375 202.64 48.8931C209.43 58.2566 206.141 67.9119 202.374 77.5407C202.109 78.2304 202.136 78.8405 202.374 79.3179C201.711 80.1933 201.685 81.6787 202.799 82.1562C206.406 83.6947 208.794 86.7982 209.881 90.5118C210.306 91.9441 210.597 93.8009 212.003 94.6497C213.25 95.419 214.603 94.8885 215.398 93.7479C215.505 93.5887 215.611 93.4296 215.69 93.2439C223.621 92.6603 229.457 99.2917 231.632 106.666C233.462 112.846 231.818 119.61 234.073 125.552C234.364 126.348 235.213 126.958 236.062 127.117C236.672 127.462 237.415 127.515 238.237 127.064C247.176 122.024 256.805 118.708 266.991 122.183C271.58 123.748 275.771 126.613 279.033 130.194C281.792 133.245 283.039 137.303 286.036 140.062C287.654 141.547 289.989 140.698 290.572 138.815C290.864 138.735 291.129 138.576 291.368 138.337C297.761 132.157 307.124 129.08 315.665 132.502C324.392 135.977 325.559 143.298 330.175 150.221C330.281 150.407 330.44 150.539 330.573 150.672C329.379 151.574 329.857 153.696 331.342 154.226C337.629 156.481 341.634 159.638 342.085 166.64C342.191 168.391 341.979 171.07 344.207 171.68C344.658 171.813 345.082 171.786 345.48 171.68C353.915 173.484 361.793 175.686 366.939 183.325C369.459 187.039 370.839 191.601 370.945 196.084C371.051 200.434 369.247 204.545 369.592 208.843C369.698 210.169 370.653 210.912 371.714 210.912C372.059 211.734 372.908 212.344 374.101 212.158C385.375 210.301 398.372 215.898 401.9 227.437C403.518 232.716 402.855 238.498 400.547 243.485C398.505 247.888 394.685 250.886 392.377 255.077C392.112 255.581 392.112 256.164 392.298 256.668C392.006 257.04 391.714 257.384 391.396 257.756C391.316 257.756 391.237 257.729 391.131 257.703C374.605 255.766 357.39 256.987 340.785 256.987H340.812Z" fill="#1E1E1E"/>
<g clip-path="url(#clip0_2017_133)">
<path d="M74.2357 91.1363C84.5078 100.153 99.5778 97.2867 111.589 93.4548C109.464 95.6444 107.564 97.8663 105.986 100.024C105.02 101.344 104.215 102.761 103.474 104.242C96.9052 111.391 87.9211 117.155 77.971 114.707C65.5737 111.68 61.8062 96.0308 73.6883 90.6211C73.8815 90.8143 74.0425 90.9753 74.2357 91.1363Z" fill="white"/>
<path d="M113.264 88.9462C113.361 89.7513 113.844 90.3309 114.424 90.6529C114.327 90.7495 114.23 90.8461 114.134 90.9105C113.908 90.6529 113.522 90.4597 113.039 90.5563C102.896 92.4883 91.4322 95.7728 81.5466 90.9427C79.8721 90.1055 78.2943 89.0106 76.8774 87.7548C76.813 86.8854 76.2656 86.1448 75.2674 86.0482C70.8237 80.896 69.2136 73.7152 74.5268 68.1445C89.307 52.5592 111.3 73.4576 113.264 88.9462Z" fill="white"/>
<path d="M123.117 88.6244C133.84 80.4454 146.817 76.2593 156.638 81.9267C173.125 91.3937 168.327 109.33 156.38 122.371C156.38 122.339 156.316 122.307 156.284 122.242C146.173 110.36 135.353 99.0253 123.503 88.8498C123.374 88.721 123.246 88.6888 123.117 88.6244ZM147.267 89.1075C149.36 89.3007 150.906 90.3311 152.516 91.8767C153.643 93.036 155.575 91.5547 154.77 90.1379C153.064 87.2076 149.328 85.7586 146.044 85.9518C145.368 85.984 144.756 86.4026 144.562 87.0788C143.725 90.2667 144.24 93.4868 145.947 96.2883C146.72 97.5441 148.459 96.4493 147.879 95.1612C147.01 93.2292 146.881 91.1361 147.267 89.1075Z" fill="#FEC703"/>
<path d="M114.327 96.8677C123.665 109.168 134.001 120.761 144.177 132.417C139.733 135.026 135.032 136.893 130.427 137.634C130.975 136.99 131.136 136.088 130.524 135.09C127.722 130.421 124.18 126.042 120.413 122.113C118.577 120.213 116.645 118.378 114.617 116.671C113.554 115.77 109.625 112.292 107.404 110.778C107.532 109.748 107.146 108.943 106.47 108.428C108.37 104.435 111.107 100.506 114.327 96.8677Z" fill="#FEC703"/>
<path d="M146.045 85.9526C149.329 85.7594 153.065 87.2085 154.771 90.1387C155.576 91.5556 153.644 93.0368 152.517 91.8776C150.907 90.3319 149.361 89.3015 147.268 89.1083C146.882 91.137 147.011 93.23 147.88 95.1621C148.46 96.4501 146.721 97.5449 145.948 96.2891C144.242 93.4876 143.726 90.2675 144.564 87.0797C144.757 86.4034 145.369 85.9848 146.045 85.9526Z" fill="#1E1E1E"/>
<path d="M156.639 81.9275C146.817 76.2602 133.84 80.4463 123.118 88.6253C123.246 88.6897 123.375 88.7219 123.504 88.8507C135.354 99.0262 146.173 110.361 156.284 122.243C156.284 122.307 156.349 122.34 156.381 122.372C168.328 109.33 173.126 91.3946 156.639 81.9275ZM152.936 125.817C152.163 125.463 151.454 125.077 150.681 124.723C150.102 125.785 148.782 126.429 147.397 125.753C147.397 125.721 147.333 125.689 147.268 125.656C147.075 126.3 146.689 126.816 146.141 127.17C146.656 127.749 147.204 128.361 147.719 128.973C147.944 129.198 148.073 129.488 148.17 129.746C149.844 128.522 151.422 127.202 152.936 125.817ZM144.177 132.419C134.001 120.762 123.665 109.169 114.327 96.8688C111.107 100.507 108.37 104.436 106.47 108.429C107.146 108.944 107.532 109.749 107.403 110.78C109.625 112.293 113.554 115.771 114.616 116.672C116.645 118.379 118.577 120.214 120.413 122.114C124.18 126.043 127.722 130.422 130.524 135.091C131.136 136.089 130.975 136.991 130.427 137.635C135.032 136.894 139.733 135.027 144.177 132.419ZM116.291 94.6791C118.03 96.3857 119.704 98.1568 121.379 99.8956C120.316 98.3822 119.286 96.8365 118.32 95.2265C117.804 94.3571 117.933 93.3589 118.448 92.586C117.708 93.2623 116.999 93.9707 116.291 94.6791ZM92.9453 142.111C92.3013 142.143 91.7539 141.821 91.3997 141.338C90.4658 142.272 89.4676 143.206 88.566 144.236C90.0472 143.592 91.5285 142.884 92.9453 142.111ZM105.182 128.49C106.856 131.485 109.625 134.061 113.779 135.961C113.94 135.767 114.166 135.639 114.359 135.542C114.101 135.445 113.844 135.317 113.618 135.091C113.071 134.576 112.588 134.061 112.105 133.513C110.012 133.095 108.112 131.871 106.534 130.164C106.083 129.681 105.697 129.134 105.343 128.587C105.343 128.554 105.246 128.522 105.182 128.49ZM77.9719 114.708C87.922 117.155 96.906 111.391 103.475 104.243C104.216 102.762 105.021 101.345 105.987 100.024C107.564 97.867 109.464 95.6451 111.59 93.4555C99.5787 97.2874 84.5087 100.153 74.2366 91.137C74.0434 90.976 73.8824 90.815 73.6892 90.6218C61.807 96.0315 65.5745 111.681 77.9719 114.708ZM74.5264 68.1456C69.2132 73.7163 70.8233 80.8971 75.267 86.0493C76.2652 86.1459 76.8127 86.8865 76.8771 87.7559C78.2939 89.0117 79.8717 90.1066 81.5462 90.9438C91.4319 95.7739 102.895 92.4894 113.039 90.5574C113.522 90.4608 113.908 90.654 114.133 90.9116C114.23 90.8472 114.327 90.7506 114.423 90.654C113.844 90.332 113.361 89.7524 113.264 88.9473C111.3 73.4587 89.3066 52.5603 74.5264 68.1456ZM70.0505 65.7627C77.2313 57.1973 90.7234 57.6159 99.9329 62.285C109.754 67.2439 116.484 77.033 117.515 87.9169C128.366 78.9329 142.631 72.3317 155.125 76.7754C196.246 91.3624 148.234 157.084 114.52 139.213C111.751 138.537 109.464 137.41 107.532 135.993C107.468 136.379 107.307 136.766 106.985 137.055C100.19 143.721 91.9793 148.358 82.7698 150.741C81.0954 151.192 79.1633 149.163 80.3226 147.585C86.0221 139.986 93.2351 133.224 101.64 128.715C99.2567 123.306 99.2245 116.704 100.963 110.522C91.9471 119.12 79.4531 123.821 68.1828 114.901C59.231 107.817 59.9716 91.0726 70.4691 86.9509C65.9932 80.6395 64.6407 72.2029 70.0505 65.7627Z" fill="#1E1E1E"/>
</g>
<defs>
<clipPath id="clip0_2017_133">
<rect width="109" height="91.8047" fill="white" transform="translate(62 59)"/>
</clipPath>
</defs>
</svg>
