<svg width="301" height="99" viewBox="0 0 301 99" fill="none" xmlns="http://www.w3.org/2000/svg">
<path d="M183.046 0.898752L183.342 0.924104L183.921 0.994525C189.917 1.79598 196.145 4.67838 201.504 7.56202C204.344 9.09045 207.121 10.7231 209.658 12.2197C212.24 13.7428 214.526 15.0967 216.56 16.1872L217.983 16.9379C225.125 20.6427 232.627 23.6216 240.413 26.5364C248.617 29.6074 257.278 32.6563 265.653 36.3249L267.246 37.0038C270.968 38.55 274.757 39.8482 278.723 41.2164C283.182 42.7543 287.874 44.3827 292.472 46.4755L293.223 46.829C294.962 47.6716 296.592 48.6584 297.846 49.8824C299.331 51.3328 301.051 53.958 300.237 57.333C299.557 60.1519 297.442 61.7625 296.291 62.5104C294.95 63.3822 293.396 64.0442 291.973 64.5611C289.104 65.6032 285.58 66.4679 282.583 67.1906C279.752 67.8732 277.476 68.4129 275.91 68.9089L275.282 69.1187C258.429 75.1334 240.35 78.6722 223.198 82.5509C205.836 86.4769 189.232 90.7816 174.259 98.2774L173.99 98.4042C171.198 99.6289 167.908 98.4587 166.529 95.6986C165.106 92.849 166.259 89.3828 169.105 87.9579L170.639 87.2029C186.541 79.5025 203.772 75.1147 220.659 71.2962C238.298 67.3073 255.404 63.9643 271.412 58.2513L272.316 57.9471C274.522 57.2434 277.367 56.5795 279.885 55.9725C281.06 55.689 282.202 55.4048 283.285 55.1246C280.617 54.0824 277.86 53.1213 274.97 52.1247C271.087 50.7853 266.959 49.3755 262.812 47.6529L261.035 46.8952C253.041 43.3935 244.873 40.5231 236.379 37.3432C228.51 34.3977 220.472 31.2239 212.674 27.1786L211.117 26.3575C208.83 25.1309 206.313 23.6382 203.808 22.1604C201.258 20.6559 198.663 19.1323 196.049 17.7252C191.006 15.012 186.483 13.0716 182.796 12.4901L182.07 12.3915L181.776 12.3507C178.767 11.8606 176.639 9.08874 176.979 6.0212C177.32 2.95368 180.004 0.715903 183.046 0.898752ZM9.09681 56.4119C87.107 43.9612 166.868 48.3345 244.559 48.6247L252.194 48.6388L252.491 48.6458C255.535 48.8005 257.956 51.3214 257.956 54.4077C257.956 57.4941 255.535 60.0149 252.491 60.1696L252.194 60.1766L244.474 60.1625C165.993 59.8751 87.7442 55.5417 10.9326 67.8019L7.15557 68.4187C4.01688 68.9422 1.04891 66.8191 0.525796 63.6766C0.00275602 60.5339 2.12333 57.5624 5.26215 57.0387L9.09681 56.4119Z" fill="black"/>
</svg>
