<svg width="22" height="40" viewBox="0 0 22 40" fill="none" xmlns="http://www.w3.org/2000/svg">
<path d="M7.64987 28.675C7.68601 26.5417 7.92971 24.8558 8.38183 23.6183C8.83395 22.3808 9.75668 21.0092 11.1492 19.5025L14.7031 15.8708C16.2216 14.1675 16.9813 12.3383 16.9813 10.3833C16.9813 8.50083 16.4838 7.02583 15.4897 5.95833C14.4947 4.89167 13.0484 4.35833 11.1492 4.35833C9.30456 4.35833 7.82131 4.8425 6.70026 5.81083C5.5792 6.77917 5.01868 8.07917 5.01868 9.71083H0C0.0361358 6.80583 1.08071 4.46083 3.13289 2.67667C5.18591 0.8925 7.85744 0 11.1492 0C14.5669 0 17.2301 0.91 19.1377 2.73083C21.0462 4.55083 22 7.04833 22 10.2225C22 13.36 20.5352 16.4542 17.6057 19.5025L14.6485 22.4075C13.3282 23.86 12.6686 25.9492 12.6686 28.675H7.64987ZM7.43306 37.2025C7.43306 36.3958 7.68181 35.7183 8.17846 35.1717C8.67596 34.625 9.41296 34.3508 10.3895 34.3508C11.366 34.3508 12.108 34.625 12.6139 35.1717C13.1207 35.7183 13.3736 36.3958 13.3736 37.2025C13.3736 38.01 13.1207 38.6775 12.6139 39.2067C12.108 39.7358 11.366 40 10.3895 40C9.41296 40 8.67596 39.7358 8.17846 39.2067C7.68181 38.6775 7.43306 38.01 7.43306 37.2025Z" fill="black"/>
</svg>
