<svg width="300" height="98" viewBox="0 0 300 98" fill="none" xmlns="http://www.w3.org/2000/svg">
<path d="M117.955 0.0104464L117.661 0.0357981L117.083 0.106219C111.108 0.907672 104.9 3.79007 99.5595 6.67371C96.7287 8.20215 93.9606 9.83475 91.4321 11.3314C88.8589 12.8545 86.5802 14.2084 84.5538 15.2989L83.135 16.0496C76.0172 19.7544 68.5401 22.7333 60.7799 25.648C52.6035 28.7191 43.971 31.768 35.6237 35.4366L34.0366 36.1155C30.3264 37.6616 26.5508 38.9599 22.5976 40.3281C18.154 41.866 13.4775 43.4944 8.89434 45.5871L8.14567 45.9407C6.41251 46.7833 4.78845 47.7701 3.53866 48.9941C2.05791 50.4445 0.344105 53.0697 1.15524 56.4447C1.83298 59.2636 3.94095 60.8742 5.08788 61.6221C6.42504 62.4939 7.97405 63.1559 9.39205 63.6728C12.2511 64.7149 15.7634 65.5796 18.7505 66.3023C21.5718 66.9849 23.8404 67.5246 25.4016 68.0206L26.0269 68.2304C42.8244 74.2451 60.8425 77.7839 77.9377 81.6626C95.2414 85.5886 111.79 89.8933 126.714 97.3891L126.981 97.5158C129.764 98.7406 133.044 97.5704 134.418 94.8103C135.836 91.9607 134.687 88.4945 131.851 87.0695L130.321 86.3146C114.472 78.6142 97.2985 74.2264 80.4684 70.4079C62.8876 66.419 45.839 63.076 29.8838 57.363L28.9837 57.0588C26.7851 56.3551 23.9487 55.6912 21.4395 55.0842C20.268 54.8007 19.1303 54.5165 18.0509 54.2363C20.71 53.1941 23.4583 52.233 26.3382 51.2363C30.2082 49.897 34.3228 48.4872 38.4557 46.7646L40.2265 46.0069C48.1939 42.5052 56.3347 39.6348 64.8009 36.4549C72.6429 33.5094 80.6543 30.3356 88.4262 26.2903L89.9782 25.4692C92.2573 24.2426 94.7663 22.7499 97.263 21.2721C99.8048 19.7676 102.391 18.2439 104.997 16.8369C110.022 14.1237 114.53 12.1833 118.205 11.6018L118.928 11.5032L119.221 11.4624C122.22 10.9723 124.341 8.20043 124.002 5.1329C123.663 2.06537 120.988 -0.172403 117.955 0.0104464ZM291.325 55.5236C213.575 43.0729 134.08 47.4462 56.6482 47.7364L49.0381 47.7505L48.7423 47.7575C45.7082 47.9122 43.2956 50.4331 43.2955 53.5194C43.2955 56.6058 45.7082 59.1266 48.7423 59.2813L49.0381 59.2883L56.7323 59.2742C134.952 58.9868 212.94 54.6534 289.495 66.9135L293.26 67.5304C296.388 68.0539 299.346 65.9308 299.868 62.7883C300.389 59.6456 298.275 56.6741 295.147 56.1503L291.325 55.5236Z" fill="black"/>
</svg>
