<svg width="1333" height="384" viewBox="0 0 1333 384" fill="none" xmlns="http://www.w3.org/2000/svg">
<path d="M836.584 139.468C837.54 140.003 839.056 132.877 839.353 132.106C842.796 123.247 848.865 113.529 857.939 109.813C858.042 65.5107 918.728 49.4849 937.809 91.5119C943.457 103.949 943.755 117.82 940.083 130.825C954.944 148.058 957.686 171.458 951.612 192.87C965.552 211.658 971.677 235.753 961.857 257.827C977.494 278.562 972.191 312.24 947.448 323.028C913.79 337.698 886.25 305.85 889.477 273.356C889.772 270.384 892.224 263.352 891.922 261.444C891.29 257.472 883.627 249.36 883.868 243.948C881.776 246.494 881.756 250.166 879.781 252.911C871.312 264.667 849.976 269.242 838.775 258.6L825.952 243.812C826.348 251.421 824.711 259.286 822.385 266.532C842.047 289.542 839.967 331.966 810.103 345.206C774.959 360.787 743.839 328.633 751.734 292.969C752.113 291.251 754.583 285.256 754.587 284.824C754.594 284.254 750.518 276.856 749.822 274.491C748.2 268.989 746.782 258.512 746.483 252.724C746.076 244.771 748.978 236.026 751.703 228.675C747.341 222.283 742.582 215.186 739.713 207.965C734.682 195.306 736.947 178.868 741.887 166.48C738.54 162.467 735.51 158.295 733.316 153.514C717.645 119.329 741.818 81.5942 780.766 87.6347C799.31 90.5109 814.273 108.837 815.834 126.926C823.624 129.45 832.32 131.77 836.58 139.462L836.584 139.468ZM865.877 117.021C849.64 121.138 845.689 140.088 843.348 154.363C842.997 156.511 843.754 162.921 840.553 162.531C837.736 157.868 835.957 152.664 832.795 148.174C828.515 142.098 822.893 136.483 814.876 137.555C813.6 137.725 811.963 138.705 811.197 138.687C808.354 138.626 807.919 127.574 807.205 124.741C799.851 95.4745 765.303 84.5783 745.195 108.393C734.522 121.035 733.67 144.896 745.591 156.978C748.795 160.225 750.899 159.454 754.315 161.239C745.156 177.493 741.977 192.715 749.962 210.305C752.48 215.85 756.439 223.892 762.941 224.897L763.726 226.248C761.761 230.828 758.467 234.355 756.881 239.25C753.054 251.056 754.997 269.543 761.751 279.99C763.593 282.837 765.9 284.138 767.562 286.892C767.913 289.345 764.042 288.457 762.39 289.927C759.439 292.555 758.985 301.505 759.262 305.286C763.032 356.584 829.971 348.085 826.755 299.88C825.903 287.116 819.925 277.551 813.149 267.236C818.267 255.166 818.559 240.778 815.568 228.007C814.699 224.293 807.622 208.216 808.357 206.522C809.036 204.957 812.128 205.47 813.466 206.702C814.736 207.872 814.623 209.462 814.933 209.845C815.955 211.097 818.322 212.924 819.54 214.754C829.487 229.739 838.754 261.239 862.744 254.432C883.178 248.634 878.277 216.288 883.157 201.036C884.717 196.165 888.562 196.49 889.053 201.32C889.92 209.856 888.512 219.673 889.327 228.296C890.505 240.765 894.66 251.195 902.24 261.052C891.416 279.996 900.161 306.714 920.367 315.26C941.564 324.227 960.975 308.353 962.541 286.806C963.39 275.128 958.466 267.35 952.518 257.915C962.057 236.921 958.317 211.946 941.59 195.865C948.924 177.665 949.083 154.047 935.285 138.682C931.37 134.32 930.682 137.261 928.188 135.983C922.219 132.923 927.778 131.368 929.76 129.757C933.905 126.389 934.948 111.792 934.16 106.738C930.922 85.973 909.873 69.97 889.206 77.4244C872.749 83.3567 864.947 100.31 865.875 117.024L865.877 117.021Z" fill="#1E1E1E"/>
<path d="M865.877 117.021C864.952 100.306 872.754 83.3527 889.207 77.4209C909.879 69.9692 930.927 85.969 934.162 106.735C934.95 111.788 933.907 126.386 929.762 129.754C927.78 131.364 922.221 132.92 928.19 135.98C930.688 137.26 931.372 134.319 935.287 138.678C949.082 154.044 948.926 177.662 941.592 195.862C958.319 211.94 962.059 236.918 952.52 257.912C958.468 267.346 963.393 275.128 962.543 286.802C960.977 308.35 941.566 324.22 920.369 315.256C900.163 306.71 891.418 279.992 902.242 261.048C894.658 251.192 890.506 240.759 889.329 228.293C888.514 219.67 889.921 209.853 889.054 201.317C888.564 196.487 884.719 196.161 883.159 201.033C878.279 216.284 883.18 248.63 862.746 254.429C838.756 261.236 829.489 229.735 819.541 214.75C818.327 212.92 815.957 211.093 814.935 209.841C814.625 209.462 814.738 207.868 813.468 206.698C812.13 205.466 809.038 204.954 808.359 206.518C807.624 208.213 814.698 224.29 815.57 228.004C818.558 240.772 818.269 255.162 813.15 267.233C819.93 277.547 825.905 287.112 826.756 299.876C829.973 348.082 763.034 356.58 759.263 305.282C758.987 301.505 759.437 292.552 762.392 289.923C764.044 288.454 767.915 289.341 767.564 286.888C765.901 284.134 763.595 282.834 761.753 279.986C754.999 269.543 753.056 251.052 756.883 239.247C758.469 234.352 761.763 230.824 763.728 226.245L762.943 224.893C756.444 223.888 752.482 215.847 749.964 210.301C741.979 192.715 745.158 177.49 754.317 161.235C750.902 159.454 748.798 160.224 745.593 156.975C733.672 144.892 734.524 121.034 745.197 108.39C765.305 84.5748 799.853 95.471 807.206 124.737C807.917 127.571 808.356 138.623 811.199 138.684C811.968 138.701 813.602 137.721 814.878 137.551C822.895 136.482 828.517 142.094 832.796 148.17C835.958 152.657 837.738 157.865 840.555 162.527C843.756 162.918 842.995 156.508 843.35 154.359C845.694 140.084 849.645 121.134 865.879 117.017L865.877 117.021Z" fill="white"/>
<path d="M154.232 145.814C153.538 146.782 160.551 150.466 161.502 151.203C174.565 161.314 180.595 175.797 182.567 191.96C226.068 205.679 206.402 273.609 161.442 262.221C141.285 257.115 129.504 238.587 125.729 219.048C120.987 217.629 115.57 215.538 112.258 211.898C111.168 216.084 111.118 220.398 109.813 224.572C109.07 226.949 106.109 231.578 105.933 232.769C105.767 233.893 106.898 236.294 106.971 238.037C108.175 267.262 77.2183 286.239 51.0231 274.312C26.0731 262.954 24.4589 232.007 34.2206 209.631C23.8052 197.105 19.7038 179.75 22.1586 163.713C22.6724 160.352 23.8554 157.193 24.3118 153.851C10.7002 137.476 8.36234 116.719 16.9024 97.3651C16.7059 95.7442 12.5082 92.0393 11.3545 90.1761C1.03138 73.5345 4.24396 46.4496 19.0435 33.3844C32.0025 21.9449 51.4805 19.6867 66.6963 27.9738C70.2971 23.644 78.5756 20.8823 84.0374 19.2703C106.653 12.5939 129.749 15.6454 142.914 36.7853C196.113 44.935 200.388 124.688 154.232 145.814ZM126.897 31.1016C114.056 21.0265 94.6265 23.5303 80.5186 29.411C77.5313 30.6569 75.7062 33.1109 72.0267 33.1357C73.2146 38.1081 77.6233 41.7371 78.0969 46.8621L75.4161 47.2123C61.8882 25.4593 32.1277 25.9077 18.8433 47.8114C11.83 59.3727 11.1184 78.4781 20.9211 88.7015C23.6537 91.5526 26.3117 91.7397 29.6572 93.3184C28.0315 97.0533 25.4341 100.088 23.7448 103.818C19.7691 112.603 19.2938 122.635 21.8308 131.913C23.8871 139.431 28.6724 145.725 33.9115 151.275C28.7856 164.733 27.3782 180.668 33.676 194.094C34.728 196.337 40.1066 205.034 42.3674 205.188C42.9604 205.229 48.024 201.344 47.6755 205.575C47.6288 206.15 45.9774 206.328 45.3511 207.128C36.5971 218.312 34.2896 240.62 41.1907 253.211C56.4088 280.967 99.6445 268.954 99.0257 240.796C98.949 237.311 96.1016 232.216 96.1711 231.233C96.2249 230.484 99.0324 227.496 99.7311 226.204C104.493 217.39 104.291 208.103 100.5 198.984C98.906 195.152 91.3673 185.368 92.0494 182.046C92.3278 180.686 94.7278 180.457 95.8737 180.545C98.5869 180.747 105.246 192.585 107.303 195.31C113.763 203.876 123.052 211.033 133.797 213.048C135.087 214.662 133.37 216.244 133.483 217.777C134.352 229.509 147.383 247.158 158.116 252.14C182.658 263.532 206.131 238.563 196.759 214.988C192.981 205.481 185.193 200.359 174.969 200.567C174.383 189.635 172.857 178.631 167.035 169.183C162.693 162.14 157.34 158.088 150.16 154.217C147.576 152.822 134.777 149.013 139.369 144.531C142.482 141.493 151.651 138.429 155.943 135.65C169.042 127.178 177.498 110.061 178.036 94.6341C178.855 71.1005 164.362 43.7695 137.716 46.2774C135.803 40.5376 131.634 34.8165 126.894 31.0988L126.897 31.1016Z" fill="#1E1E1E"/>
<path d="M126.897 31.1017C131.634 34.8198 135.806 40.5373 137.719 46.2803C164.365 43.7724 178.856 71.1037 178.039 94.637C177.505 110.067 169.046 127.184 155.947 135.653C151.654 138.428 142.485 141.493 139.372 144.534C134.78 149.015 147.579 152.825 150.163 154.219C157.344 158.091 162.697 162.143 167.038 169.186C172.86 178.634 174.386 189.638 174.973 200.57C185.196 200.362 192.984 205.484 196.763 214.991C206.137 238.565 182.665 263.535 158.119 252.143C147.386 247.161 134.359 229.514 133.487 217.78C133.374 216.25 135.09 214.664 133.8 213.05C123.056 211.036 113.766 203.879 107.306 195.313C105.249 192.585 98.5904 180.75 95.8771 180.548C94.7282 180.461 92.3312 180.688 92.0528 182.049C91.3707 185.371 98.9095 195.155 100.503 198.987C104.294 208.103 104.493 217.394 99.7345 226.207C99.0359 227.499 96.228 230.484 96.1745 231.236C96.1051 232.219 98.9525 237.314 99.0291 240.799C99.648 268.957 56.4092 280.97 41.1942 253.214C34.29 240.624 36.6002 218.312 45.3545 207.131C45.9809 206.331 47.6292 206.153 47.6789 205.578C48.0306 201.347 42.967 205.231 42.3708 205.19C40.1127 205.033 34.7345 196.34 33.6795 194.096C27.3816 180.671 28.7859 164.737 33.915 151.278C28.6758 145.728 23.8874 139.434 21.8342 131.915C19.2972 122.638 19.7721 112.602 23.7483 103.821C25.4375 100.091 28.0349 97.0562 29.6607 93.3212C26.3124 91.7461 23.6572 91.5555 20.9246 88.7044C11.1219 78.481 11.8335 59.3756 18.8467 47.8143C32.1277 25.9079 61.8882 25.4595 75.4192 47.2121L78.1 46.8619C77.6264 41.7369 73.2208 38.1075 72.0298 33.1355C75.7092 33.1107 77.534 30.6536 80.5217 29.4107C94.6295 23.5301 114.059 21.0263 126.9 31.1013L126.897 31.1017ZM81.6315 121.083C84.0496 123.648 90.0426 120.893 92.9668 120.5C98.9732 119.697 104.26 120.999 109.318 117.612C120.275 110.277 118.831 88.9549 107.231 82.3237C100.598 78.5305 92.4551 79.8449 85.9461 77.282C82.9576 76.1066 82.2407 72.6841 79.8041 76.5267C77.2172 80.6078 79.9997 79.566 81.2778 81.0808C86.3449 87.0797 87.9733 106.81 83.694 113.791C82.4443 115.83 78.6616 117.933 81.6315 121.083Z" fill="white"/>
<path d="M81.6314 121.083C78.6614 117.933 82.4472 115.829 83.6938 113.791C87.97 106.811 86.3447 87.0797 81.2776 81.0808C80 79.5691 77.2171 80.6078 79.804 76.5268C82.2406 72.6841 82.9571 76.1035 85.946 77.282C92.455 79.8449 100.598 78.5305 107.231 82.3237C118.831 88.958 120.275 110.277 109.318 117.612C104.26 120.999 98.973 119.697 92.9666 120.5C90.0421 120.89 84.0494 123.648 81.6314 121.083ZM93.5766 112.279C99.2804 110.873 103.45 113.695 107.161 108.068C113.495 98.4574 104.281 87.1469 93.9563 87.0907C91.9958 87.08 94.1213 91.0707 94.3276 92.357C95.4999 99.6647 94.9334 105.133 93.5769 112.282L93.5766 112.279Z" fill="#1E1E1E"/>
<path d="M1028.97 243.191C1027.32 254.797 1016.16 276.313 1006.83 283.591C968.214 313.738 931.099 266.673 956.642 231.504C950.279 213.163 955.002 193.395 966.925 178.524C955.64 157.369 964.581 128.494 982.857 114.183C979.106 96.5095 985.439 68.856 1003.4 60.9113C1005.22 60.1072 1011.18 58.9282 1011.81 58.4262C1012.29 58.045 1015.68 51.2251 1017.03 49.5754C1028.9 35.0073 1053.63 34.5172 1068.42 44.6731C1082.4 54.2685 1087.71 71.3985 1088.7 87.632C1109.67 99.8725 1117.24 133.094 1109.57 155.014C1123.96 169.941 1127.16 190.008 1121.11 209.572C1120.36 211.999 1118.53 214.08 1118.5 216.74C1126.72 227.968 1133.53 239.35 1133.8 253.769C1134.63 297.661 1077.26 308.306 1058.66 269.076C1052.63 256.34 1051.29 244.89 1054.95 231.166L1029.04 231.013C1028.65 234.835 1029.49 239.485 1028.97 243.188L1028.97 243.191ZM1081.01 100.208C1081.47 86.8554 1080.54 72.1895 1072.77 60.864C1058.58 40.166 1023.93 40.3038 1017.38 67.2068C1014.45 68.1634 1012.08 67.1285 1008.65 68.1103C995.058 72.0037 988.673 94.2405 989.91 106.767C990.169 109.387 993.002 117.031 992.625 118.427C991.961 120.899 989.781 119.934 988.038 120.729C973.184 127.509 966.716 158.964 973.089 173.047C973.927 174.901 977.792 179.691 977.466 180.944C965.343 190.94 958.436 208.516 962.955 224.033C964.13 228.071 966.301 230.022 967.904 233.45C967.771 234.739 963.635 236.828 962.224 238.44C948.029 254.655 961.778 285.671 983.464 284.432C1006.47 283.117 1022.6 250.586 1020.96 230.009C1020.78 227.673 1018.13 221.098 1019.71 219.99C1020.99 219.099 1033.25 222.715 1036.25 222.964C1046.32 223.801 1055.49 221.982 1065.32 220.617C1065.17 224.009 1063.64 226.963 1062.94 230.455C1059.73 246.333 1060.6 261.954 1071.88 274.646C1089.01 293.916 1122.68 284.484 1125.57 258.674C1127.52 241.147 1119.52 234.597 1112.26 221.086C1108.56 214.224 1111.17 215.135 1113.3 209.201C1116.87 199.251 1117.35 189.388 1114.42 179.225C1112.08 171.125 1107.13 162.813 1100.74 157.337C1103.74 146.628 1105.6 137.695 1103.67 126.538C1101.82 115.879 1095.89 101.461 1085.74 96.4681C1084.53 99.1956 1084.72 100.833 1081.02 100.205L1081.01 100.208Z" fill="#1E1E1E"/>
<path d="M1081.01 100.208C1084.72 100.836 1084.52 99.1985 1085.73 96.471C1095.89 101.461 1101.81 115.882 1103.66 126.541C1105.59 137.695 1103.73 146.628 1100.73 157.34C1107.12 162.813 1112.07 171.125 1114.41 179.228C1117.34 189.391 1116.86 199.253 1113.29 209.204C1111.16 215.138 1108.55 214.227 1112.25 221.089C1119.51 234.6 1127.51 241.147 1125.56 258.677C1122.67 284.487 1089.01 293.919 1071.87 274.648C1060.59 261.957 1059.72 246.339 1062.93 230.458C1063.63 226.969 1065.16 224.012 1065.31 220.62C1055.48 221.985 1046.31 223.804 1036.25 222.966C1033.24 222.718 1020.98 219.101 1019.7 219.993C1018.12 221.101 1020.77 227.676 1020.95 230.012C1022.59 250.589 1006.46 283.12 983.454 284.435C961.769 285.674 948.02 254.658 962.214 238.442C963.626 236.831 967.762 234.742 967.895 233.453C966.289 230.025 964.121 228.073 962.946 224.036C958.427 208.522 965.334 190.943 977.456 180.947C977.785 179.694 973.921 174.907 973.08 173.05C966.707 158.967 973.175 127.512 988.029 120.732C989.769 119.937 991.949 120.902 992.616 118.43C992.993 117.031 990.16 109.39 989.9 106.769C988.664 94.2403 995.049 72.0066 1008.64 68.1131C1012.07 67.1314 1014.44 68.1663 1017.37 67.2097C1023.92 40.3066 1058.57 40.1689 1072.76 60.8669C1080.53 72.1924 1081.46 86.8583 1081 100.211L1081.01 100.208ZM1066.8 171.253C1068.7 169.831 1064.16 166.589 1063.16 165.328C1054.56 154.494 1059.74 126.343 1051.87 118.769C1045.73 112.87 1041.1 118.29 1038.74 124.317C1035.32 133.076 1034.96 143.591 1031.4 152.683C1030.23 155.66 1023.06 167.134 1023.43 168.557C1023.9 170.389 1024.98 170.377 1026.58 170.486C1031.24 170.814 1039.45 168.852 1044.72 168.674C1049.47 168.512 1056.73 168.586 1061.29 169.665C1062.66 169.989 1065.48 172.244 1066.81 171.25L1066.8 171.253Z" fill="white"/>
<path d="M1066.8 171.253C1065.48 172.244 1062.65 169.992 1061.28 169.669C1056.73 168.593 1049.47 168.518 1044.71 168.677C1039.45 168.855 1031.23 170.817 1026.58 170.49C1024.98 170.377 1023.89 170.393 1023.42 168.56C1023.06 167.138 1030.23 155.664 1031.4 152.686C1034.96 143.595 1035.32 133.076 1038.74 124.321C1041.1 118.294 1045.73 112.873 1051.86 118.773C1059.74 126.346 1054.56 154.497 1063.16 165.331C1064.16 166.592 1068.7 169.834 1066.8 171.256L1066.8 171.253ZM1035.7 161.125L1049.74 161.209C1049.94 161.21 1050.62 162.072 1051.3 161.839C1051.08 156.524 1050.04 151.195 1049.53 145.904C1048.97 140.034 1050.39 132.319 1045.9 127.472C1041.98 138.351 1041.65 151.224 1035.7 161.128L1035.7 161.125Z" fill="#1E1E1E"/>
<path d="M444.793 264.762C445.56 280.969 440.092 297.992 430.536 311.055C401.204 351.149 341.623 314.355 362.844 266.763C364.209 263.698 369.228 257.114 369.656 254.978C370.112 252.706 369.121 248.541 369.241 245.984C369.889 232.137 376.196 220.149 385.403 210.146C381.56 185.902 390.087 159.517 410.964 145.709L411.134 132.001C413.028 115.038 424.129 90.3125 440.758 83.4224C442.117 82.8604 444.939 82.9007 445.575 82.2238C446.926 80.7916 450.027 72.4732 452.051 69.4952C473.127 38.4498 523.916 53.9641 523.032 92.3069C547.106 105.666 548.426 136.367 540.805 160.029C560.198 178.092 561.875 207.651 549.682 230.404C556.579 243.644 557.362 255.43 555.773 270.015C555.619 271.433 554.759 272.685 554.673 273.975C554.445 277.459 558.308 283.563 558.449 288.462C559.082 310.549 545.977 337.088 521.908 339.706C483.425 343.891 468.008 298.956 480.11 268.504L469.354 265.268C460.932 267.178 453.157 266.885 444.803 264.767L444.793 264.762ZM474.246 256.614C477.889 260.337 493.984 258.374 494.809 262.895C495.096 264.463 491.123 266.389 489.728 268.862C477.204 291.043 490.288 335.142 521.151 331.03C540.067 328.508 552.623 302.569 548.41 285.292C547.71 282.426 544.726 277.949 544.753 275.676C544.78 273.404 546.49 270.683 546.895 268.337C549.26 254.631 546.892 242.247 539.103 230.779C550.216 213.366 552.591 185.402 536.917 169.982C535.308 168.401 529.615 165.07 529.638 163.292C529.652 162.314 532.404 156.892 532.992 155.008C537.803 139.598 537.837 121.859 527.921 108.381C524.077 103.161 519.83 100.757 514.613 97.2197C514.192 75.8092 499.401 57.56 476.419 63.248C463.044 66.5602 456.087 78.8669 451.856 90.9684C433.955 91.5722 425.163 112.536 421.987 127.618C420.23 135.961 420.869 143.829 420.612 152.266C419.903 153.922 415.801 154.359 413.824 155.492C399.905 163.464 389.839 191.06 394.59 206.087C395.106 207.718 397.62 211.206 397.509 212.282C397.29 214.472 393.394 215.609 392.03 216.87C384.858 223.502 378.948 235.826 378.238 245.597C378.031 248.46 379.694 258.127 379.499 258.757C379.304 259.388 373.062 266.555 371.752 269.269C355.631 302.705 391.96 335.976 419.237 309.469C431.115 297.928 438.306 277.923 435.244 261.513C434.645 258.315 432.209 255.268 433.073 251.803C437.553 249.962 440.158 253.342 443.625 254.743C448.635 256.769 457.048 257.487 462.407 256.727C464.963 256.365 470.694 253.642 471.945 253.8C473.763 254.028 473.535 255.88 474.244 256.604L474.246 256.614Z" fill="#1E1E1E"/>
<path d="M474.246 256.614C473.537 255.891 473.765 254.038 471.946 253.81C470.696 253.653 464.965 256.375 462.409 256.737C457.05 257.497 448.634 256.779 443.626 254.754C440.16 253.353 437.558 249.973 433.074 251.813C432.214 255.275 434.65 258.326 435.245 261.523C438.308 277.93 431.12 297.935 419.239 309.479C391.958 335.986 355.629 302.715 371.754 269.28C373.065 266.562 379.303 259.391 379.501 258.768C379.699 258.145 378.033 248.471 378.24 245.608C378.95 235.837 384.86 223.512 392.032 216.881C393.395 215.619 397.288 214.482 397.51 212.292C397.618 211.216 395.107 207.728 394.591 206.098C389.841 191.07 399.911 163.471 413.826 155.503C415.803 154.369 419.905 153.933 420.614 152.276C420.871 143.839 420.232 135.972 421.988 127.628C425.165 112.547 433.958 91.5793 451.858 90.9789C456.085 78.8771 463.043 66.5704 476.421 63.2586C499.403 57.5705 514.194 75.8197 514.615 97.2302C519.832 100.767 524.083 103.169 527.922 108.391C537.839 121.869 537.808 139.609 532.994 155.018C532.406 156.902 529.651 162.324 529.64 163.303C529.617 165.08 535.31 168.412 536.919 169.992C552.592 185.412 550.214 213.376 539.105 230.789C546.894 242.254 549.262 254.638 546.897 268.347C546.492 270.69 544.781 273.459 544.755 275.687C544.729 277.915 547.712 282.436 548.412 285.302C552.629 302.576 540.072 328.518 521.153 331.04C490.29 335.152 477.205 291.057 489.729 268.873C491.125 266.399 495.098 264.473 494.811 262.905C493.983 258.384 477.891 260.347 474.248 256.625L474.246 256.614ZM481.968 140.819C479.691 138.256 477.243 138.155 474.36 139.764C465.354 144.791 464.832 174.32 452.445 183.164C450.353 184.66 447.052 184.96 445.098 187.246C444.714 187.697 441.54 192.527 441.454 192.85C440.415 196.656 447.634 194.692 449.207 194.658C451.46 194.61 455.371 194.468 457.434 194.708C462.835 195.342 471.692 200.966 475.448 200.856C477.216 200.806 478.153 198.903 479.625 198.218C484.628 195.883 497.378 198.904 498.177 198.328C498.394 198.171 499.209 195.622 498.995 195.035C498.254 193.013 491.817 189.841 490.367 188.195C483.505 180.389 490.649 150.598 481.967 140.826L481.968 140.819Z" fill="white"/>
<path d="M481.968 140.819C490.647 150.591 483.506 180.386 490.368 188.188C491.817 189.838 498.255 193.006 498.995 195.028C499.21 195.615 498.395 198.164 498.178 198.321C497.379 198.898 484.626 195.875 479.625 198.211C478.157 198.897 477.217 200.799 475.449 200.85C471.693 200.959 462.836 195.335 457.435 194.702C455.372 194.461 451.46 194.603 449.207 194.651C447.635 194.685 440.42 196.647 441.455 192.843C441.541 192.52 444.715 187.69 445.098 187.239C447.052 184.953 450.354 184.653 452.445 183.157C464.833 174.313 465.354 144.788 474.361 139.757C477.243 138.149 479.692 138.25 481.968 140.812L481.968 140.819ZM462.076 186.942L472.984 190.71L480.654 187.889C476.913 182.099 478.633 175.885 478.361 169.719C478.109 164.008 477.54 158.285 477.494 152.569C475.756 153.375 475.009 156.648 474.417 158.441C472.484 164.307 471.405 170.582 468.759 176.241L462.073 186.945L462.076 186.942Z" fill="#1E1E1E"/>
<path d="M1259.07 185.491C1258.89 185.633 1258.02 188.453 1257.06 189.636C1250.77 197.376 1236.84 201.578 1227.24 201.676C1230.47 209.433 1230.39 220.512 1229.04 228.832C1228.57 231.742 1226 237.751 1226.09 239.756C1226.22 242.353 1228.95 246.408 1229.42 249.431C1231.56 263.197 1224.35 278.196 1212.93 285.768C1181.03 306.92 1143.24 286.34 1146.46 247.766C1146.66 245.421 1148.22 240.883 1147.94 239.027C1147.61 236.782 1142.52 229.93 1141.28 226.741C1135.33 211.454 1138.05 194.755 1141.35 179.288C1125.28 161.517 1121.49 136.963 1130.22 114.8C1122.27 102.968 1112.72 91.4536 1111.14 76.68C1107.71 44.6023 1138.66 17.429 1169.74 28.6924C1173.57 23.5437 1179.28 20.4726 1185.1 18.1012C1199.08 12.4016 1216.11 10.1212 1230.07 17.2139C1231.68 18.0293 1234.48 20.7467 1235.65 20.9043C1238.02 21.2274 1243.09 20.2244 1246.15 20.3495C1281.86 21.7737 1308.89 56.0922 1302.91 91.215C1302.55 93.3423 1300.27 99.4412 1300.34 100.553C1300.39 101.391 1303.84 107.064 1304.55 108.989C1314.32 135.832 1302.03 168.465 1275.73 180.321C1272.58 181.74 1259.76 184.945 1259.07 185.49L1259.07 185.491ZM1212.3 192.363C1212.88 191.8 1225.67 193.46 1228.46 193.219C1239.02 192.303 1246.73 187.096 1251.44 177.748C1280.56 175.92 1304.4 147.6 1298.07 118.524C1296.64 111.94 1293.59 107.485 1290.11 101.953C1306.37 63.3827 1275.23 23.3411 1233.55 30.8796C1231.92 31.1774 1229.89 32.5349 1228.44 32.2845C1226.39 31.9333 1227.6 28.4293 1225.47 26.6308C1215.77 18.4104 1200.05 21.6362 1189.3 25.9782C1185.84 27.3757 1176.25 32.265 1176.11 36.388C1176.04 38.5165 1178.02 41.4346 1174.48 41.6952C1173.35 41.7774 1168.1 37.6086 1165.71 36.7738C1149.59 31.1515 1131.01 41.0041 1123.88 55.8539C1112.79 78.9765 1126.94 95.4292 1141.01 112.525C1134.18 125.755 1132.52 140.181 1137.26 154.465C1139.92 162.47 1145.35 172.078 1153.72 174.77C1145.41 195.67 1142.26 218.438 1158.11 236.831C1154.73 247.304 1153 256.593 1157.75 267.004C1171.08 296.196 1218.75 286.99 1220.72 255.33C1221.19 247.898 1217.43 244.323 1217.15 239.066C1216.98 235.893 1219.92 228.774 1220.48 224.868C1221.52 217.652 1221.2 204.778 1216.51 198.937C1215.4 197.551 1209.73 194.849 1212.3 192.363Z" fill="#1E1E1E"/>
<path d="M1212.3 192.364C1209.73 194.849 1215.4 197.551 1216.51 198.937C1221.2 204.778 1221.52 217.655 1220.48 224.868C1219.92 228.774 1216.97 235.893 1217.15 239.066C1217.43 244.323 1221.19 247.895 1220.72 255.33C1218.75 286.99 1171.08 296.196 1157.75 267.004C1152.99 256.59 1154.73 247.305 1158.11 236.831C1142.26 218.438 1145.41 195.673 1153.72 174.77C1145.35 172.075 1139.92 162.47 1137.26 154.465C1132.52 140.181 1134.18 125.755 1141.01 112.525C1126.94 95.4293 1112.79 78.9766 1123.88 55.854C1131.01 41.0009 1149.59 31.1516 1165.71 36.7739C1168.1 37.6087 1173.35 41.7775 1174.47 41.6954C1178.02 41.4347 1176.04 38.5166 1176.11 36.3881C1176.25 32.2685 1185.84 27.3791 1189.3 25.9783C1200.05 21.6391 1215.77 18.4139 1225.47 26.6309C1227.6 28.4294 1226.39 31.9334 1228.43 32.2846C1229.89 32.535 1231.92 31.1775 1233.55 30.8797C1275.23 23.3417 1306.36 63.38 1290.11 101.953C1293.6 107.485 1296.64 111.943 1298.07 118.524C1304.4 147.6 1280.56 175.92 1251.44 177.748C1246.73 187.096 1239.02 192.303 1228.46 193.219C1225.67 193.46 1212.88 191.803 1212.3 192.364ZM1192.51 79.4005C1188.41 81.0325 1194.97 88.934 1196.24 91.6986C1201.04 102.135 1199.44 111.221 1195.96 121.762C1195.36 123.576 1192.22 129.079 1193.09 130.341C1195.92 134.439 1208.33 130.471 1212.86 130.159C1216.78 129.891 1226.99 131.716 1229.56 130.046C1230.83 129.215 1235.08 119.152 1236.47 116.772C1237.55 114.934 1241.46 108.734 1242.82 107.819C1244.43 106.734 1251.49 105.02 1247.64 102.458C1245.56 101.076 1243.39 100.859 1240.92 98.7057C1237.91 96.0811 1230.79 85.6873 1229.52 82.0043C1228.75 79.7589 1229.26 78.5143 1229.03 76.3478C1227.4 73.0438 1211.13 79.3592 1207.45 79.8543C1204.18 80.2952 1194.46 78.6221 1192.5 79.401L1192.51 79.4005Z" fill="white"/>
<path d="M1192.51 79.4003C1194.47 78.6213 1204.19 80.2911 1207.45 79.8536C1211.13 79.3584 1227.41 73.0426 1229.04 76.3471C1229.26 78.5135 1228.76 79.7581 1229.53 82.0036C1230.79 85.6865 1237.91 96.0775 1240.93 98.705C1243.4 100.857 1245.56 101.075 1247.64 102.458C1251.49 105.016 1244.43 106.73 1242.82 107.818C1241.46 108.737 1237.56 114.933 1236.48 116.771C1235.08 119.148 1230.83 129.211 1229.56 130.045C1226.99 131.715 1216.79 129.893 1212.87 130.158C1208.33 130.47 1195.92 134.439 1193.09 130.34C1192.22 129.079 1195.36 123.575 1195.96 121.761C1199.45 111.223 1201.04 102.137 1196.25 91.6978C1194.98 88.9332 1188.41 81.0284 1192.51 79.3998L1192.51 79.4003ZM1220.85 85.3112C1215.78 87.2882 1210.64 89.2461 1205.16 89.6955C1210.01 99.6593 1207.75 111.225 1205.81 121.644L1223.78 121.646C1226.83 116.039 1229.08 109.7 1233.77 105.239C1229.2 98.7685 1224.08 92.655 1220.85 85.3112Z" fill="#1E1E1E"/>
<path d="M702.686 134.933C742.332 135.749 759.323 185.882 746.375 218.139C747.647 220.662 749.733 222.73 751.092 225.205C763.344 247.472 762.743 286.371 742.895 304.327C740.292 306.684 731.95 310.782 731.022 311.915C730.094 313.048 727.261 325.408 726.044 328.485C720.608 342.221 706.59 361.151 690.945 363.588C687.51 364.123 681.223 363.007 678.713 363.869C677.938 364.133 676.353 366.886 675.108 367.912C664.952 376.282 648.535 376.949 636.887 371.6C630.975 377.929 621.878 382.264 613.182 383.136C567.995 387.669 550.525 337.929 574.575 304.901C561.384 286.496 560.028 260.26 573.755 241.75C562.051 222.164 557.665 197.662 569.584 177.095C549.173 146.511 561.871 99.6904 602.844 98.2062C615.09 97.7648 624.84 102.137 633.516 110.573C658.494 102.106 691.727 108.509 702.686 134.929V134.933ZM587.175 240.746C588.618 242.856 581.127 247.726 579.959 249.102C568.805 262.258 573.751 292.923 586.431 304.421C574.495 319.454 567.828 337.724 577.213 356.024C588.691 378.402 618.768 379.921 634.267 361.071C647.597 366.886 665.595 368.607 673.861 354.095C700.646 360.557 717.205 333.605 721.863 311.095C722.388 308.561 721.22 303.003 724.605 302.019C729.232 300.677 729.364 302.864 734.56 298.769C752.02 285.005 754.307 253.318 745.572 234.208C742.948 228.466 738.954 224.166 735.947 218.764C738.158 212.723 740.932 207.301 741.491 200.731C743.813 173.421 727.376 142.719 696.986 144.498C694.229 133.063 680.625 120.713 669.363 117.873C661.476 115.885 646.046 115.179 638.709 118.777C636.564 119.83 629.97 126.024 628.566 126.031C623.672 126.052 628.966 120.713 627.878 118.377C625.761 113.841 614.447 108.766 609.619 108.113C577.971 103.83 561.662 134.651 572.976 162.145C574.996 167.053 578.308 170.981 580.275 175.656C568.211 194.398 569.643 215.612 580.592 234.472C582.41 237.607 583.153 240.207 587.179 240.749L587.175 240.746Z" fill="#1E1E1E"/>
<path d="M587.176 240.746C583.151 240.204 582.407 237.604 580.589 234.468C569.64 215.608 568.208 194.395 580.273 175.653C578.309 170.977 574.993 167.05 572.973 162.142C561.659 134.651 577.972 103.83 609.616 108.109C614.444 108.762 625.758 113.834 627.875 118.373C628.967 120.709 623.673 126.048 628.564 126.027C629.968 126.02 636.562 119.826 638.706 118.773C646.044 115.175 661.473 115.881 669.36 117.869C680.622 120.706 694.227 133.059 696.983 144.495C727.373 142.715 743.81 173.418 741.489 200.728C740.929 207.297 738.155 212.723 735.945 218.761C738.951 224.166 742.945 228.462 745.569 234.204C754.304 253.315 752.017 285.001 734.558 298.766C729.365 302.86 729.229 300.674 724.603 302.015C721.217 302.999 722.385 308.557 721.86 311.091C717.202 333.601 700.643 360.553 673.858 354.091C665.592 368.603 647.594 366.883 634.264 361.068C618.765 379.917 588.688 378.402 577.211 356.021C567.826 337.72 574.492 319.454 586.429 304.417C573.749 292.923 568.802 262.258 579.956 249.098C581.124 247.718 588.615 242.849 587.172 240.742L587.176 240.746ZM678.849 286.496C680.949 273.284 682.638 260.545 690.695 249.432C686.423 236.655 683.212 224.284 683.664 210.613C681.929 202.838 660.521 197.53 654.991 188.545C652.943 185.222 652.624 178.732 646.617 183.001C645.349 185.114 648.765 198.514 649.047 202.135C649.85 212.535 649.134 223.133 645.905 233.033C644.584 237.075 638.696 247.486 638.581 250.106C638.477 252.567 641.73 258.17 642.603 261.413C645.112 270.785 644.779 280.722 642.45 290.058C641.768 292.794 639.255 296.784 640.114 299.349C640.608 300.698 642.199 300.771 643.381 300.364L650.945 288.129C660.17 286.562 669.517 286.569 678.846 286.496H678.849Z" fill="white"/>
<path d="M678.849 286.496C669.52 286.569 660.173 286.565 650.948 288.13L643.385 300.365C642.203 300.775 640.611 300.702 640.117 299.35C639.259 296.788 641.772 292.794 642.453 290.059C644.782 280.726 645.116 270.785 642.606 261.414C641.737 258.167 638.48 252.564 638.584 250.107C638.696 247.486 644.587 237.079 645.908 233.033C649.137 223.13 649.853 212.532 649.05 202.136C648.772 198.514 645.352 185.111 646.621 183.001C652.624 178.736 652.947 185.222 654.994 188.545C660.524 197.53 681.932 202.841 683.667 210.614C683.212 224.281 686.423 236.655 690.699 249.432C682.642 260.541 680.949 273.281 678.853 286.496H678.849ZM671.268 277.518C671.526 266.569 676.166 257.594 680.751 248.018C677.414 239.276 675.62 230.218 674.786 220.892C674.529 218.003 675.735 214.374 673.66 212.285C670.695 209.3 661.605 206.55 658.105 203.172C659.485 220.485 655.717 235.97 648.369 251.438C653.016 259.61 653.531 269.05 653.927 278.255L671.272 277.518H671.268Z" fill="#1E1E1E"/>
<path d="M335.568 268.981C319.167 299.261 278.071 305.417 251.188 284.929C249.784 283.856 247.319 280.69 246.326 280.297C244.707 279.654 236.343 280.422 233.654 279.985C227.063 278.917 215.235 269.855 210.832 264.739C200.337 252.546 198.762 239.09 201.842 223.528C185.719 207.275 181.576 180.851 195.517 161.736C197.079 159.593 203.091 154.534 203.541 153.311C204.929 149.533 203.157 144.168 203.125 140.083C202.967 120.115 208.62 100.475 225.319 88.3513C229.722 59.2737 250.863 27.1129 284.279 41.5387C300.056 25.9471 330.115 30.9843 343.527 47.501C346.098 50.6672 349.334 58.903 351.416 60.6328C353.259 62.1643 357.986 63.4666 360.684 65.0994C381.7 77.8228 388.277 109.808 381.35 132.037C400.786 151.837 393.507 187.232 374.979 205.235C382.153 234.827 367.758 265.66 335.574 268.985L335.568 268.981ZM352.539 70.8214C351.998 73.3953 349.429 75.1732 347.389 73.0062C345.431 70.9273 342.224 61.368 339.871 57.8164C327.658 39.3797 304.738 35.7608 287.805 50.2473C285.724 52.0274 283.24 57.2979 280.994 54.6203C278.576 51.7379 278.758 48.95 273.588 47.6219C255.547 42.9939 238.669 65.8164 236.187 81.4119C235.601 85.1088 237.148 89.7994 236.8 93.5887C231.709 96.9745 227.649 97.666 223.322 102.651C213.784 113.632 211.301 130.074 213.027 144.083C213.379 146.925 215.921 155.314 215.142 157.061C214.702 158.05 209.22 160.804 207.622 162.182C194.372 173.613 192.556 192.247 200.88 207.134C204.008 212.728 208.512 216.432 213.267 220.529C213.498 224.027 211.267 227.013 210.486 230.235C206.405 247.089 221.492 268.57 238.45 271.244C241.481 271.724 247.708 270.369 249.946 271.089C251.421 271.565 255.199 276.38 256.921 277.817C282.028 298.786 317.508 286.703 331.575 259.43C358.6 259.223 371.988 235.073 366.634 209.894C366.256 208.117 363.774 201.786 363.922 201.366C364.295 200.326 366.09 200.334 366.637 199.857C366.815 199.701 366.41 198.787 367.041 198.385C367.816 197.889 369.129 197.944 369.93 197.412C383.189 188.656 387.736 157.768 379.738 144.38C377.86 141.235 376.607 140.203 372.979 141.615L371.624 140.253C371.784 134.788 374.014 129.788 374.732 124.436C376.78 109.209 373.352 91.0274 363.487 78.9752C362.117 77.3002 354.443 69.6004 352.542 70.8252L352.539 70.8214Z" fill="#1E1E1E"/>
<path d="M352.539 70.8215C354.441 69.5933 362.114 77.2965 363.484 78.9715C373.35 91.0236 376.778 109.205 374.73 124.432C374.011 129.784 371.781 134.784 371.622 140.249L372.977 141.611C376.604 140.199 377.858 141.231 379.736 144.376C387.734 157.764 383.186 188.652 369.927 197.408C369.127 197.937 367.814 197.882 367.038 198.381C366.407 198.786 366.816 199.701 366.634 199.853C366.088 200.33 364.297 200.319 363.92 201.362C363.768 201.782 366.251 208.113 366.631 209.891C371.985 235.069 358.598 259.22 331.572 259.426C317.505 286.699 282.028 298.783 256.918 277.814C255.196 276.376 251.419 271.561 249.944 271.085C247.709 270.365 241.482 271.717 238.448 271.24C221.49 268.566 206.402 247.086 210.484 230.231C211.264 227.012 213.492 224.026 213.265 220.525C208.513 216.429 204.006 212.724 200.877 207.131C192.554 192.243 194.37 173.609 207.619 162.179C209.217 160.8 214.704 158.044 215.14 157.058C215.915 155.313 213.373 146.924 213.025 144.08C211.298 130.07 213.781 113.628 223.32 102.647C227.646 97.6656 231.707 96.9707 236.798 93.5849C237.146 89.7923 235.595 85.1012 236.184 81.4081C238.666 65.8126 255.541 42.9896 273.586 47.6181C278.756 48.9463 278.574 51.7341 280.992 54.6165C283.24 57.2947 285.721 52.0237 287.803 50.2436C304.735 35.7604 327.652 39.3754 339.869 57.8126C342.221 61.3675 345.431 70.9274 347.386 73.0025C349.427 75.1661 351.996 73.3882 352.537 70.8176L352.539 70.8215ZM329.433 172.97C306.114 163.402 329.936 129.706 313.257 117.233C308.267 113.499 305.315 114.629 300.429 112.994C298.909 112.483 297.261 109.955 294.858 111.09C292.725 112.101 294.716 114.403 294.752 115.338C294.807 116.651 282.621 129.254 280.641 131.275C275.647 136.377 270.433 141.375 264.975 145.98C271.424 161.277 274.677 179.7 264.548 194.319C262.49 197.291 258.403 198.927 259.296 202.705C267.066 204.305 273.746 209.314 277.934 215.98C278.79 217.345 280.685 222.535 281.029 222.671C284.753 224.139 284.482 219.797 285.5 218.712C287.91 216.155 298.866 219.841 302.086 220.894C304.003 219.914 302.784 212.957 303.003 210.732C304.016 200.592 307.003 191.358 312.958 183.08C314.066 181.538 318.831 175.947 320.179 175.173C323.941 173.021 328.294 179.034 329.429 172.969L329.433 172.97Z" fill="white"/>
<path d="M329.433 172.97C328.301 179.035 323.947 173.025 320.182 175.174C318.835 175.944 314.069 181.539 312.961 183.08C307.006 191.358 304.02 200.592 303.007 210.732C302.784 212.957 304.006 219.914 302.089 220.894C298.872 219.841 287.916 216.156 285.504 218.713C284.482 219.797 284.753 224.139 281.032 222.671C280.688 222.535 278.796 217.346 277.937 215.981C273.753 209.315 267.073 204.306 259.3 202.705C258.406 198.928 262.493 197.291 264.552 194.319C274.68 179.7 271.427 161.277 264.978 145.98C270.437 141.376 275.654 136.378 280.645 131.276C282.621 129.254 294.807 116.651 294.755 115.338C294.716 114.403 292.728 112.098 294.862 111.091C297.261 109.955 298.908 112.487 300.432 112.994C305.318 114.629 308.27 113.499 313.26 117.233C329.939 129.706 306.117 163.402 329.436 172.97L329.433 172.97ZM272.863 198.73C276.577 198.837 282.57 208.807 283.861 209.278C285.152 209.749 291.519 207.58 293.815 208.647C295.101 208.049 295.746 199.653 296.309 197.475C299.015 187.016 304.773 177.033 312.834 169.861C304.479 157.993 315.083 139.23 309.994 127.849C308.559 124.641 303.022 121.322 299.837 122.805C299.383 123.016 295.05 129.397 293.839 130.772C288.294 137.06 282.066 142.73 276.078 148.586C275.334 150.243 278.111 155.921 278.663 158.276C280.789 167.312 280.686 177.934 277.932 186.778C276.633 190.949 274.268 194.627 272.859 198.729L272.863 198.73Z" fill="#1E1E1E"/>
</svg>
