<svg width="1349" height="1600" viewBox="0 0 1349 1600" fill="none" xmlns="http://www.w3.org/2000/svg">
<mask id="mask0_263_114" style="mask-type:luminance" maskUnits="userSpaceOnUse" x="928" y="1267" width="92" height="29">
<path d="M1020 1267.83H928V1295.82H1020V1267.83Z" fill="white"/>
</mask>
<g mask="url(#mask0_263_114)">
<path d="M1000.04 1268.03C1001.32 1267.66 1002.8 1267.7 1003.29 1269.18C1004.75 1273.62 997.025 1280.2 994.513 1283.5C993.06 1285.41 987.686 1297.25 985.682 1290.65C983.775 1284.38 994.497 1269.61 1000.04 1268.03Z" fill="#008D36"/>
<path d="M955.79 1270.33C957.922 1269.75 959.868 1271.67 961.449 1272.94C964.175 1275.13 972.707 1284.97 972.19 1288.31C971.88 1290.33 968.319 1294.37 966.486 1291.98C964.715 1285.89 956.198 1278.98 954.051 1274.08C953.34 1272.46 954.086 1270.8 955.787 1270.33H955.79Z" fill="#008D36"/>
<path d="M947.46 1292.75C946.575 1293.77 926.687 1283.96 928.07 1278.43C928.672 1276.03 935.782 1279.52 937.122 1280.19C941.899 1282.57 949.223 1286.56 947.464 1292.75H947.46Z" fill="#008D36"/>
<path d="M1019.67 1285.77C1021.81 1289.78 1012.84 1297.39 1010.32 1295.53C1005.69 1292.09 1018.58 1284.62 1019.67 1285.77Z" fill="#008D36"/>
</g>
<mask id="mask1_263_114" style="mask-type:luminance" maskUnits="userSpaceOnUse" x="1020" y="1564" width="112" height="36">
<path d="M1132 1564.98H1020V1599.05H1132V1564.98Z" fill="white"/>
</mask>
<g mask="url(#mask1_263_114)">
<path d="M1107.7 1565.22C1109.26 1564.77 1111.06 1564.81 1111.65 1566.62C1113.43 1572.02 1104.03 1580.03 1100.97 1584.05C1099.2 1586.37 1092.66 1600.79 1090.22 1592.77C1087.9 1585.12 1100.95 1567.14 1107.7 1565.22Z" fill="#008D36"/>
<path d="M1053.83 1568.02C1056.43 1567.31 1058.8 1569.65 1060.72 1571.19C1064.04 1573.85 1074.43 1585.83 1073.8 1589.91C1073.42 1592.37 1069.08 1597.29 1066.85 1594.38C1064.7 1586.96 1054.33 1578.55 1051.71 1572.58C1050.85 1570.61 1051.76 1568.59 1053.83 1568.02Z" fill="#008D36"/>
<path d="M1043.69 1595.32C1042.61 1596.55 1018.4 1584.61 1020.09 1577.88C1020.82 1574.95 1029.47 1579.22 1031.11 1580.02C1036.92 1582.92 1045.84 1587.78 1043.7 1595.32H1043.69Z" fill="#008D36"/>
<path d="M1131.6 1586.81C1134.21 1591.69 1123.28 1600.96 1120.22 1598.69C1114.58 1594.52 1130.27 1585.42 1131.6 1586.81Z" fill="#008D36"/>
</g>
<mask id="mask2_263_114" style="mask-type:luminance" maskUnits="userSpaceOnUse" x="0" y="1369" width="64" height="21">
<path d="M64 1369.86H0V1389.33H64V1369.86Z" fill="white"/>
</mask>
<g mask="url(#mask2_263_114)">
<path d="M50.1161 1369.99C51.0049 1369.74 52.0315 1369.76 52.3719 1370.79C53.3904 1373.88 48.017 1378.46 46.2691 1380.76C45.2587 1382.08 41.5197 1390.32 40.1257 1385.73C38.7993 1381.37 46.2583 1371.09 50.1161 1369.99Z" fill="#008D36"/>
<path d="M19.3322 1371.59C20.8153 1371.19 22.1688 1372.52 23.2684 1373.41C25.1649 1374.93 31.1002 1381.77 30.7409 1384.1C30.5248 1385.51 28.0474 1388.32 26.7723 1386.65C25.5404 1382.42 19.6159 1377.61 18.1219 1374.2C17.6275 1373.07 18.1462 1371.92 19.3295 1371.59H19.3322Z" fill="#008D36"/>
<path d="M13.5378 1387.19C12.9218 1387.9 -0.912886 1381.07 0.0488706 1377.23C0.467613 1375.56 5.41417 1377.99 6.34621 1378.45C9.66913 1380.11 14.7643 1382.89 13.5405 1387.19H13.5378Z" fill="#008D36"/>
<path d="M63.773 1382.33C65.2616 1385.12 59.0183 1390.42 57.2677 1389.12C54.0474 1386.73 63.0139 1381.54 63.773 1382.33Z" fill="#008D36"/>
</g>
<path d="M72.0707 983.252C72.5494 982.453 72.5494 981.389 71.4857 980.75C66.0609 977.398 60.1043 974.204 56.0091 969.255C50.797 963.135 48.2441 951.64 56.8068 946.957C71.4325 938.974 81.4844 957.015 84.25 968.457C84.5691 969.734 86.8559 969.521 86.6432 968.084C86.6432 967.925 86.6432 967.818 86.6432 967.712C87.3346 967.393 87.8665 966.647 87.5474 965.637C83.5586 951.8 91.8021 934.77 108.13 937.537C124.564 940.358 126.266 962.337 110.895 968.084C109.406 968.67 109.991 970.745 111.534 970.48C111.587 970.48 111.693 970.426 111.746 970.426C111.374 970.852 110.949 971.224 110.629 971.704C109.406 973.354 111.799 975.695 113.448 974.524C119.937 970 126.213 966.647 134.456 968.67C142.966 970.799 148.71 978.143 149.241 986.87C150.146 1002.2 136.424 1009.38 123.819 1006.61C121.532 1004.91 118.873 1003.79 115.948 1003.53C115.735 1003.42 115.469 1003.42 115.256 1003.47C115.097 1003.47 114.884 1003.47 114.671 1003.47C113.98 1003.47 113.501 1003.74 113.182 1004.11L107.917 1002.78C110.948 998.578 112.438 993.15 111.215 987.988C108.821 977.61 97.2801 971.596 87.3346 974.63C86.2709 974.95 85.8986 975.854 86.005 976.706C82.4948 977.929 79.4633 980.325 77.3891 983.411L72.0707 983.252Z" fill="white"/>
<path d="M88.0244 1009.75C90.3114 1010.5 92.7578 1010.76 95.1511 1010.5C100.257 1009.91 104.831 1006.88 107.863 1002.73L113.128 1004.06C112.224 1005.07 112.49 1006.99 114.032 1007.52C131.636 1013.43 131.636 1034.87 114.83 1042.22C106.905 1045.68 94.8321 1046.1 90.0987 1037.32C87.4927 1032.42 87.3862 1026.2 87.7053 1020.45C87.9713 1018.96 88.1307 1017.47 88.1307 1015.98C88.1307 1014.76 87.0671 1014.06 86.0566 1014.06L88.0244 1009.75Z" fill="white"/>
<path d="M77.4422 983.358C75.8998 985.753 74.9424 988.68 74.836 991.873C74.6765 999.909 80.58 1007.25 88.0258 1009.7L86.058 1014.01C85.2603 1014.01 84.5156 1014.44 84.3029 1015.39C81.3777 1028.59 71.8046 1045.68 55.477 1037.53C47.5525 1033.6 45.5846 1025.19 49.733 1017.63C52.8177 1011.99 58.0298 1008.58 63.4547 1005.5C65.2097 1005.02 67.0181 1004.54 68.6668 1003.95C71.0601 1003.16 70.1027 999.536 67.603 1000.12C61.8591 1001.45 55.6896 1003.53 49.733 1002.04C43.7763 1000.49 38.0325 994.534 41.3831 988.095C45.372 980.431 55.1578 978.675 63.2419 980.218C65.3693 981.496 67.5498 982.666 69.7304 983.784C70.7409 984.262 71.6983 983.837 72.1237 983.146L77.4422 983.305V983.358Z" fill="white"/>
<path d="M106.641 987.562C109.353 995.119 103.822 1004.33 96.0577 1006.08C88.1864 1007.84 79.9428 1001.19 79.1982 993.31C78.56 986.605 83.5061 980.644 89.516 978.089C96.4299 977.079 104.194 980.591 106.588 987.562H106.641Z" fill="#FEC703"/>
<path d="M106.64 987.56C104.194 980.589 96.4824 977.077 89.5684 978.087C83.5053 980.642 78.6124 986.603 79.2506 993.308C79.942 1001.18 88.2387 1007.78 96.11 1006.08C103.874 1004.32 109.406 995.117 106.693 987.56H106.64ZM88.026 1009.75C80.5802 1007.25 74.6766 999.96 74.8362 991.924C74.8894 988.678 75.8468 985.804 77.4423 983.409C79.5165 980.27 82.548 977.928 86.0582 976.704C85.9518 975.906 86.3241 974.947 87.3878 974.628C97.3333 971.595 108.821 977.609 111.267 987.986C112.49 993.149 111.001 998.576 107.97 1002.78C104.938 1006.93 100.418 1009.97 95.2592 1010.55C92.8127 1010.82 90.4192 1010.55 88.1323 1009.81L88.026 1009.75Z" fill="#1E1E1E"/>
<path d="M123.766 1006.61C136.424 1009.38 150.092 1002.2 149.188 986.87C148.656 978.142 142.965 970.798 134.403 968.67C126.106 966.647 119.883 970 113.395 974.523C111.746 975.641 109.353 973.352 110.576 971.702C110.895 971.224 111.374 970.852 111.693 970.426C111.64 970.426 111.533 970.426 111.48 970.479C109.938 970.745 109.353 968.669 110.842 968.084C126.212 962.337 124.51 940.305 108.076 937.537C91.7488 934.769 83.5052 951.799 87.494 965.636C87.8131 966.647 87.2814 967.393 86.59 967.712C86.59 967.871 86.59 967.978 86.59 968.084C86.8027 969.521 84.5157 969.734 84.1966 968.456C81.431 957.015 71.3792 938.974 56.7534 946.957C48.1907 951.64 50.7436 963.082 55.9557 969.255C60.1041 974.204 66.0076 977.45 71.4324 980.75C72.4429 981.335 72.496 982.453 72.0173 983.251C71.5387 983.943 70.6346 984.368 69.6241 983.89C67.4436 982.772 65.263 981.602 63.1356 980.324C55.0516 978.781 45.3188 980.537 41.2767 988.201C37.9261 994.64 43.6701 1000.65 49.6267 1002.14C55.5834 1003.63 61.7529 1001.56 67.4968 1000.23C69.9965 999.642 70.9537 1003.26 68.5604 1004.06C66.9117 1004.64 65.1035 1005.12 63.3484 1005.6C57.9236 1008.64 52.7114 1012.09 49.6267 1017.74C45.4784 1025.29 47.4463 1033.7 55.3707 1037.64C71.6984 1045.78 81.3247 1028.7 84.1966 1015.5C84.4094 1014.54 85.154 1014.12 85.9518 1014.12C86.9623 1014.12 88.0259 1014.81 88.0259 1016.03C88.0259 1017.52 87.8664 1019.01 87.6005 1020.5C87.2282 1026.25 87.3345 1032.48 89.9937 1037.37C94.7271 1046.21 106.8 1045.78 114.724 1042.27C131.531 1034.93 131.584 1013.48 113.927 1007.57C112.384 1007.04 112.065 1005.12 113.023 1004.11C113.342 1003.74 113.82 1003.47 114.512 1003.47C114.671 1003.47 114.884 1003.47 115.097 1003.47C115.31 1003.47 115.575 1003.47 115.788 1003.53C118.713 1003.79 121.319 1004.91 123.66 1006.61H123.766ZM153.922 985.912C154.719 996.343 149.401 1006.19 139.562 1010.13C136.105 1011.51 132.329 1012.04 128.606 1011.78C130.627 1014.81 131.956 1018.32 132.435 1021.78C133.711 1031.47 128.233 1040.19 119.99 1045.04C111.321 1050.04 97.7055 1051.64 89.8342 1044.24C85.739 1040.35 84.303 1035.4 84.2499 1030.24C77.7614 1041.52 64.1461 1048.39 51.5945 1040.46C44.6806 1036.1 41.5958 1028.22 43.936 1020.4C45.691 1014.54 49.7864 1010.18 54.6793 1006.88C51.0628 1006.93 47.4993 1006.4 44.2551 1004.59C39.1494 1001.77 35.1074 996.29 36.1711 990.223C37.8198 980.271 47.8717 975.747 57.2853 976.279C53.2965 973.086 49.999 969.202 48.2971 964.253C45.7443 956.961 47.074 948.234 54.0411 943.87C60.4233 939.879 69.1454 940.836 75.1552 945.201C78.3995 947.489 80.7396 950.575 82.4947 953.981C84.5157 939.932 97.9713 928.649 113.395 934.663C125.521 939.453 128.712 955.258 121.798 964.359C126.957 962.922 132.648 962.975 137.487 964.519C146.954 967.552 153.177 976.173 153.922 985.965V985.912Z" fill="#1E1E1E"/>
<path d="M1136.55 1390.45C1137.53 1392.32 1140.53 1390.97 1139.93 1389.02C1139.7 1388.19 1139.4 1387.22 1139.1 1386.24C1139.55 1386.77 1140 1387.22 1140.45 1387.67C1141.28 1388.64 1143 1387.59 1142.63 1386.39C1141.43 1383.02 1139.55 1380.39 1137.3 1378.44C1135.28 1367.48 1135.35 1354.88 1147.73 1351.65C1158.53 1348.8 1163.7 1360.05 1164.9 1369.66C1164.38 1372.06 1164.38 1374.61 1164.9 1377.16C1165.13 1378.36 1166.17 1378.89 1167.22 1378.89L1167.38 1383.92C1159.8 1384.22 1152.53 1389.39 1149.68 1396.75C1145.78 1406.8 1152.38 1416.71 1162.05 1419.94L1158.98 1426.31C1158.6 1426.31 1158.23 1426.31 1157.85 1426.54C1157.1 1426.24 1156.2 1426.31 1155.68 1427.14C1153.88 1430.21 1152.9 1433.52 1152.6 1436.67C1146.75 1444.02 1136.25 1446.95 1126.58 1446.5C1116.68 1446.05 1107.68 1439.37 1113.6 1428.64C1116.83 1422.86 1122.9 1419.71 1128.75 1416.79C1130.7 1416.33 1132.58 1415.66 1134.53 1414.53C1136.93 1413.18 1135.28 1408.83 1132.58 1409.96C1119.45 1415.28 1103.4 1405.75 1108.28 1390.37C1112.25 1378.06 1124.18 1376.79 1133.4 1381.89C1134.23 1385.04 1135.28 1387.97 1136.48 1390.45H1136.55Z" fill="white"/>
<path d="M1159.05 1426.31L1162.12 1419.94C1171.42 1423.01 1181.92 1418.89 1184.92 1409.13C1187.62 1400.43 1184.02 1390.82 1176.07 1386.62C1176 1386.09 1175.7 1385.49 1174.95 1385.19C1172.47 1384.07 1169.92 1383.69 1167.37 1383.84L1167.22 1378.81C1168.57 1378.81 1169.92 1377.99 1169.77 1376.34C1168.72 1364.1 1183.5 1350.45 1194.9 1359.98C1200.97 1365.01 1201.8 1374.54 1198.27 1381.44C1195.8 1382.94 1193.62 1384.97 1191.9 1387.82C1190.25 1390.59 1194.15 1393.75 1196.32 1391.27C1206.07 1380.54 1227.37 1384.59 1227.59 1401.1C1227.67 1408.68 1223.09 1416.18 1216.79 1420.16C1209.82 1424.59 1202.25 1423.91 1195.27 1420.69C1194.3 1419.64 1193.25 1418.66 1192.05 1417.76C1189.57 1415.88 1186.27 1420.09 1188.67 1422.19C1201.27 1432.92 1198.87 1453.78 1181.55 1457.83C1168.35 1460.9 1158.97 1451.31 1157.47 1439.82C1159.72 1436.9 1161.3 1433.52 1161.97 1429.69C1162.27 1427.66 1160.55 1426.31 1158.97 1426.31H1159.05Z" fill="white"/>
<path d="M1154.1 1399.6C1156.28 1391.35 1165.5 1387.07 1173.45 1389.24C1173.82 1389.32 1174.12 1389.24 1174.42 1389.24C1186.12 1397.42 1181.17 1419.86 1164.83 1415.43C1157.93 1413.56 1152.08 1407.18 1154.18 1399.68L1154.1 1399.6Z" fill="#FEC703"/>
<path d="M1149.75 1396.67C1152.6 1389.32 1159.8 1384.14 1167.45 1383.84C1170 1383.69 1172.62 1384.06 1175.02 1385.19C1175.7 1385.49 1176 1386.02 1176.15 1386.62C1184.1 1390.82 1187.7 1400.42 1185 1409.13C1182 1418.88 1171.5 1423.01 1162.2 1419.94C1152.52 1416.71 1145.93 1406.73 1149.82 1396.75L1149.75 1396.67ZM1164.75 1415.43C1181.1 1419.86 1186.05 1397.42 1174.35 1389.24C1173.97 1389.32 1173.67 1389.39 1173.37 1389.24C1165.42 1387.07 1156.27 1391.42 1154.02 1399.6C1152 1407.1 1157.85 1413.48 1164.67 1415.36L1164.75 1415.43Z" fill="#1E1E1E"/>
<path d="M1107.15 1430.81C1109.03 1424.29 1113.83 1419.94 1119.6 1416.86C1107.75 1414.08 1098.75 1401.33 1103.4 1388.12C1107.6 1376.26 1121.7 1371.08 1132.13 1375.21C1130.33 1362.31 1133.4 1348.27 1148.48 1346.4C1159.57 1345.12 1165.65 1353.45 1167.6 1363.06C1173.45 1353.68 1186.35 1348.35 1196.4 1354.8C1204.5 1359.98 1206.9 1370.56 1204.05 1379.19C1217.02 1376.26 1233.22 1385.72 1233.82 1400.2C1234.64 1416.86 1215.52 1433 1200.45 1428.71C1205.92 1442.3 1199.47 1459.41 1183.12 1463.23C1168.87 1466.62 1155.97 1456.93 1153.12 1444.47C1143.08 1452.58 1126.8 1454.76 1115.63 1450.11C1107.83 1446.87 1104.83 1438.85 1107.08 1430.89L1107.15 1430.81ZM1133.48 1381.89C1124.25 1376.79 1112.33 1378.06 1108.35 1390.37C1103.48 1405.75 1119.53 1415.21 1132.65 1409.96C1135.35 1408.83 1137 1413.18 1134.6 1414.53C1132.65 1415.66 1130.78 1416.33 1128.83 1416.79C1122.98 1419.71 1116.9 1422.86 1113.68 1428.64C1107.75 1439.37 1116.75 1446.05 1126.65 1446.5C1136.33 1446.95 1146.83 1444.02 1152.67 1436.67C1153.05 1433.45 1153.95 1430.21 1155.75 1427.14C1156.27 1426.31 1157.17 1426.24 1157.92 1426.54C1158.3 1426.31 1158.6 1426.31 1159.05 1426.31C1160.62 1426.31 1162.35 1427.66 1162.05 1429.69C1161.37 1433.52 1159.8 1436.97 1157.55 1439.82C1159.05 1451.23 1168.42 1460.91 1181.62 1457.83C1198.95 1453.78 1201.35 1432.92 1188.75 1422.19C1186.35 1420.16 1189.65 1415.88 1192.12 1417.76C1193.32 1418.66 1194.37 1419.64 1195.35 1420.69C1202.32 1423.91 1209.9 1424.51 1216.87 1420.16C1223.24 1416.18 1227.82 1408.68 1227.67 1401.1C1227.44 1384.59 1206.15 1380.54 1196.4 1391.27C1194.22 1393.75 1190.32 1390.6 1191.97 1387.82C1193.7 1385.04 1195.87 1382.94 1198.35 1381.44C1201.87 1374.54 1201.05 1365.08 1194.97 1359.98C1183.57 1350.52 1168.8 1364.11 1169.85 1376.34C1170 1377.91 1168.65 1378.81 1167.3 1378.81C1166.25 1378.81 1165.2 1378.29 1164.97 1377.09C1164.45 1374.54 1164.45 1371.99 1164.97 1369.58C1163.77 1359.98 1158.6 1348.72 1147.8 1351.57C1135.43 1354.8 1135.35 1367.41 1137.38 1378.36C1139.63 1380.32 1141.5 1382.94 1142.7 1386.32C1143.08 1387.44 1141.35 1388.49 1140.53 1387.59C1140.08 1387.07 1139.63 1386.62 1139.18 1386.17C1139.48 1387.14 1139.7 1388.12 1140 1388.94C1140.53 1390.97 1137.53 1392.32 1136.63 1390.37C1135.43 1387.89 1134.38 1384.97 1133.55 1381.82L1133.48 1381.89Z" fill="#1E1E1E"/>
<path d="M1311.31 545.147C1305.46 542.462 1301.9 534.775 1307.58 529.829C1313.57 524.572 1322.02 530.252 1320.38 537.742C1320.35 537.912 1320.38 538.053 1320.41 538.194C1320.38 538.421 1320.41 538.675 1320.49 538.901C1316.56 539.127 1312.95 541.615 1311.34 545.176C1311.34 545.176 1311.34 545.147 1311.31 545.147Z" fill="white"/>
<path d="M1332.38 546.531C1331.39 542.178 1327.75 538.9 1323.4 537.882C1324.02 535.142 1324.95 532.88 1327.55 531.297C1330.52 529.489 1334.16 529.912 1336.73 532.23C1342.07 537.007 1338.9 544.977 1332.44 546.531C1332.44 546.531 1332.43 546.531 1332.41 546.531H1332.38Z" fill="white"/>
<path d="M1332.66 549.272C1332.66 548.792 1332.66 548.34 1332.63 547.859C1332.63 547.859 1332.66 547.859 1332.69 547.859C1332.8 548.227 1333.12 548.509 1333.62 548.509C1340.52 548.227 1345.91 555.179 1342.1 561.538C1338.37 567.813 1329.9 566.71 1326.53 560.973C1326.56 560.266 1326.53 559.588 1326.45 558.91C1329.95 557.016 1332.55 553.258 1332.66 549.272Z" fill="white"/>
<path d="M1309.62 560.267C1310.8 559.617 1311.9 558.712 1312.83 557.611C1312.98 557.526 1313.12 557.47 1313.26 557.413C1313.65 557.272 1313.74 556.904 1313.6 556.621C1315.66 558.825 1318.57 560.239 1321.62 560.239C1322.61 560.239 1323.57 560.041 1324.5 559.758C1324.92 564.704 1321.68 570.47 1316.28 570.696C1310.32 570.979 1307.1 564.478 1309.62 560.267Z" fill="white"/>
<path d="M1310.94 546.418C1310.69 547.21 1310.52 548.029 1310.49 548.906C1310.41 551.11 1311.11 553.257 1312.33 555.067C1312.33 555.067 1312.33 555.067 1312.3 555.067C1311.73 555.999 1311 556.791 1310.21 557.441C1309.95 557.582 1309.76 557.78 1309.53 557.949C1304.9 561.114 1297.95 560.013 1296.34 553.597C1294.56 546.701 1301.79 542.151 1307.44 544.807C1307.86 545.09 1308.32 545.373 1308.77 545.599C1309.02 545.797 1309.3 545.966 1309.53 546.192C1309.76 546.39 1310.01 546.333 1310.15 546.192C1310.35 546.277 1310.58 546.362 1310.8 546.418C1310.86 546.418 1310.89 546.418 1310.94 546.418Z" fill="white"/>
<path d="M1322.92 539.691C1327.04 540.737 1330.52 544.27 1330.6 548.707C1330.69 553.512 1326.42 558.034 1321.62 558.119C1316.82 558.203 1312.33 553.738 1312.52 548.905C1312.72 543.761 1317.55 540.257 1322.38 540.172C1322.75 540.172 1322.89 539.946 1322.92 539.691Z" fill="#FEC703"/>
<path d="M1332.66 549.272C1332.52 553.286 1329.95 557.016 1326.45 558.91C1326.53 559.589 1326.56 560.295 1326.53 560.973C1329.89 566.71 1338.37 567.813 1342.1 561.539C1345.88 555.151 1340.49 548.226 1333.62 548.51C1333.11 548.51 1332.8 548.226 1332.69 547.859C1332.69 547.859 1332.66 547.859 1332.63 547.859C1332.66 548.34 1332.69 548.792 1332.66 549.272ZM1327.55 531.298C1324.95 532.88 1324.02 535.141 1323.4 537.883C1327.75 538.929 1331.39 542.179 1332.38 546.531C1332.38 546.531 1332.39 546.531 1332.41 546.531C1338.9 544.976 1342.04 537.006 1336.7 532.23C1334.13 529.941 1330.49 529.489 1327.52 531.298H1327.55ZM1312.52 548.905C1312.33 553.738 1316.82 558.204 1321.62 558.119C1326.42 558.034 1330.69 553.512 1330.6 548.707C1330.52 544.27 1327.04 540.737 1322.92 539.691C1322.89 539.946 1322.72 540.171 1322.38 540.171C1317.58 540.256 1312.75 543.733 1312.52 548.905ZM1307.44 544.807C1301.79 542.179 1294.59 546.701 1296.34 553.597C1297.95 559.984 1304.9 561.115 1309.53 557.949C1309.76 557.779 1309.95 557.581 1310.21 557.44C1311 556.79 1311.73 555.999 1312.3 555.066C1312.3 555.066 1312.3 555.066 1312.33 555.066C1311.11 553.258 1310.41 551.109 1310.49 548.905C1310.49 548.029 1310.69 547.209 1310.94 546.418C1310.89 546.418 1310.86 546.418 1310.8 546.418C1310.58 546.361 1310.38 546.276 1310.15 546.192C1310.01 546.361 1309.76 546.418 1309.53 546.192C1309.28 545.966 1309.02 545.768 1308.77 545.598C1308.29 545.373 1307.84 545.09 1307.44 544.807ZM1309.62 560.266C1307.1 564.478 1310.32 570.978 1316.28 570.696C1321.7 570.441 1324.92 564.704 1324.5 559.758C1323.57 560.041 1322.58 560.21 1321.62 560.238C1318.57 560.238 1315.66 558.825 1313.6 556.621C1313.74 556.903 1313.65 557.271 1313.26 557.412C1313.12 557.468 1312.98 557.553 1312.83 557.609C1311.9 558.74 1310.8 559.617 1309.62 560.266ZM1307.61 529.828C1301.9 534.774 1305.49 542.461 1311.34 545.147C1311.34 545.147 1311.34 545.147 1311.37 545.175C1312.98 541.613 1316.59 539.126 1320.52 538.9C1320.4 538.674 1320.38 538.419 1320.43 538.193C1320.38 538.052 1320.35 537.911 1320.4 537.741C1322.07 530.252 1313.63 524.571 1307.61 529.828ZM1313.23 572.249C1308.2 570.696 1305.97 565.354 1307.33 561.228C1301.82 562.811 1295.44 560.154 1294.17 553.343C1292.89 546.559 1299.19 541.302 1304.93 542.292C1301.59 537.713 1302.05 530.761 1307.58 527.256C1313.71 523.356 1321.42 527.567 1322.16 533.983C1324.58 528.33 1332.8 526.239 1337.83 530.393C1343.57 535.113 1342.12 543.479 1336.36 546.673C1343.76 548.113 1348.06 556.762 1343.2 563.432C1338.74 569.593 1330.18 568.745 1326.25 563.178C1324.98 569.113 1319.73 574.257 1313.2 572.249H1313.23Z" fill="#1E1E1E"/>
<path d="M1157.95 609.435C1158.32 610.141 1159.45 609.633 1159.23 608.898C1159.14 608.587 1159.03 608.219 1158.91 607.852C1159.08 608.05 1159.25 608.219 1159.42 608.389C1159.73 608.756 1160.38 608.361 1160.24 607.909C1159.79 606.637 1159.08 605.648 1158.24 604.913C1157.47 600.786 1157.5 596.039 1162.16 594.823C1166.23 593.749 1168.18 597.989 1168.63 601.606C1168.43 602.511 1168.43 603.471 1168.63 604.433C1168.72 604.885 1169.11 605.082 1169.51 605.082L1169.56 606.976C1166.71 607.089 1163.97 609.04 1162.9 611.809C1161.43 615.596 1163.91 619.327 1167.56 620.542L1166.4 622.944C1166.26 622.944 1166.12 622.944 1165.98 623.029C1165.69 622.916 1165.35 622.944 1165.16 623.256C1164.48 624.414 1164.11 625.657 1164 626.845C1161.8 629.614 1157.84 630.716 1154.2 630.547C1150.47 630.377 1147.08 627.862 1149.31 623.821C1150.53 621.645 1152.81 620.457 1155.02 619.355C1155.75 619.185 1156.46 618.931 1157.19 618.508C1158.1 617.998 1157.47 616.359 1156.46 616.783C1151.51 618.79 1145.47 615.2 1147.31 609.407C1148.8 604.772 1153.29 604.291 1156.77 606.213C1157.08 607.4 1157.47 608.502 1157.93 609.435H1157.95Z" fill="white"/>
<path d="M1166.43 622.944L1167.59 620.542C1171.09 621.701 1175.04 620.147 1176.17 616.472C1177.19 613.194 1175.83 609.576 1172.84 607.994C1172.81 607.796 1172.7 607.57 1172.41 607.457C1171.48 607.032 1170.52 606.891 1169.56 606.948L1169.51 605.054C1170.01 605.054 1170.52 604.743 1170.47 604.122C1170.07 599.515 1175.63 594.372 1179.93 597.961C1182.22 599.854 1182.53 603.443 1181.2 606.044C1180.27 606.609 1179.45 607.372 1178.8 608.446C1178.18 609.492 1179.65 610.679 1180.46 609.746C1184.14 605.705 1192.16 607.231 1192.24 613.448C1192.27 616.303 1190.55 619.129 1188.18 620.627C1185.55 622.294 1182.7 622.04 1180.07 620.825C1179.7 620.429 1179.31 620.062 1178.85 619.722C1177.92 619.016 1176.68 620.599 1177.58 621.39C1182.33 625.432 1181.43 633.289 1174.9 634.815C1169.93 635.974 1166.4 632.356 1165.83 628.032C1166.68 626.93 1167.27 625.658 1167.53 624.216C1167.64 623.453 1166.99 622.944 1166.4 622.944H1166.43Z" fill="white"/>
<path d="M1164.56 612.883C1165.38 609.774 1168.86 608.163 1171.85 608.982C1171.99 609.01 1172.11 608.982 1172.22 608.982C1176.62 612.063 1174.76 620.514 1168.6 618.846C1166 618.139 1163.8 615.737 1164.59 612.911L1164.56 612.883Z" fill="#FEC703"/>
<path d="M1162.92 611.78C1164 609.011 1166.71 607.06 1169.59 606.947C1170.55 606.891 1171.54 607.032 1172.44 607.456C1172.7 607.569 1172.81 607.767 1172.87 607.993C1175.86 609.576 1177.22 613.193 1176.2 616.472C1175.07 620.146 1171.12 621.7 1167.61 620.542C1163.97 619.326 1161.48 615.568 1162.95 611.808L1162.92 611.78ZM1168.57 618.846C1174.73 620.514 1176.6 612.062 1172.19 608.983C1172.05 609.011 1171.93 609.039 1171.82 608.983C1168.83 608.163 1165.38 609.802 1164.53 612.882C1163.77 615.709 1165.98 618.111 1168.55 618.818L1168.57 618.846Z" fill="#1E1E1E"/>
<path d="M1146.88 624.641C1147.59 622.182 1149.4 620.542 1151.57 619.383C1147.11 618.338 1143.72 613.534 1145.47 608.56C1147.05 604.094 1152.36 602.144 1156.29 603.699C1155.61 598.837 1156.77 593.552 1162.44 592.846C1166.63 592.365 1168.91 595.502 1169.65 599.12C1171.85 595.587 1176.71 593.58 1180.49 596.011C1183.54 597.961 1184.45 601.946 1183.37 605.197C1188.26 604.094 1194.36 607.655 1194.59 613.11C1194.9 619.383 1187.7 625.46 1182.02 623.849C1184.08 628.964 1181.65 635.408 1175.49 636.85C1170.13 638.122 1165.27 634.476 1164.2 629.784C1160.41 632.837 1154.28 633.656 1150.07 631.904C1147.14 630.688 1146.01 627.665 1146.85 624.669L1146.88 624.641ZM1156.8 606.213C1153.32 604.292 1148.83 604.772 1147.33 609.407C1145.5 615.201 1151.54 618.762 1156.49 616.784C1157.5 616.36 1158.12 617.999 1157.22 618.508C1156.49 618.931 1155.78 619.186 1155.04 619.355C1152.84 620.458 1150.55 621.645 1149.34 623.821C1147.11 627.863 1150.5 630.378 1154.23 630.547C1157.87 630.718 1161.82 629.615 1164.03 626.845C1164.17 625.629 1164.51 624.415 1165.18 623.256C1165.38 622.945 1165.72 622.917 1166 623.03C1166.15 622.945 1166.26 622.945 1166.43 622.945C1167.02 622.945 1167.67 623.454 1167.56 624.216C1167.3 625.658 1166.71 626.958 1165.86 628.032C1166.43 632.328 1169.96 635.974 1174.93 634.815C1181.45 633.289 1182.36 625.432 1177.61 621.391C1176.71 620.627 1177.95 619.016 1178.88 619.723C1179.34 620.062 1179.73 620.429 1180.1 620.825C1182.72 622.04 1185.58 622.266 1188.2 620.627C1190.6 619.129 1192.33 616.304 1192.27 613.449C1192.19 607.231 1184.17 605.705 1180.49 609.746C1179.67 610.679 1178.21 609.492 1178.83 608.447C1179.48 607.401 1180.3 606.609 1181.23 606.044C1182.56 603.443 1182.24 599.883 1179.96 597.961C1175.66 594.4 1170.1 599.515 1170.49 604.122C1170.55 604.715 1170.04 605.054 1169.53 605.054C1169.14 605.054 1168.74 604.857 1168.66 604.405C1168.46 603.443 1168.46 602.483 1168.66 601.578C1168.21 597.961 1166.26 593.721 1162.19 594.795C1157.53 596.011 1157.5 600.759 1158.26 604.885C1159.11 605.62 1159.82 606.609 1160.27 607.881C1160.41 608.305 1159.76 608.701 1159.45 608.362C1159.28 608.163 1159.11 607.994 1158.94 607.824C1159.06 608.191 1159.14 608.56 1159.25 608.87C1159.45 609.633 1158.32 610.142 1157.98 609.407C1157.53 608.475 1157.13 607.372 1156.82 606.185L1156.8 606.213Z" fill="#1E1E1E"/>
<path d="M23.9546 436.901C24.3218 437.608 25.4516 437.099 25.2257 436.364C25.1409 436.053 25.0279 435.686 24.915 435.319C25.0844 435.516 25.2539 435.686 25.4234 435.856C25.7341 436.223 26.3837 435.827 26.2425 435.375C25.7905 434.103 25.0844 433.114 24.2371 432.379C23.4745 428.253 23.5027 423.505 28.1631 422.29C32.2304 421.216 34.1792 425.455 34.6312 429.073C34.4334 429.977 34.4334 430.938 34.6312 431.899C34.7159 432.351 35.1113 432.549 35.5067 432.549L35.5632 434.443C32.7105 434.555 29.9708 436.506 28.8975 439.275C27.4288 443.063 29.9143 446.793 33.5578 448.008L32.3998 450.411C32.2586 450.411 32.1174 450.411 31.9761 450.496C31.6937 450.382 31.3548 450.411 31.157 450.722C30.4792 451.88 30.112 453.124 29.999 454.311C27.7959 457.081 23.8417 458.183 20.1981 458.013C16.4698 457.844 13.0804 455.328 15.3117 451.287C16.5263 449.111 18.8141 447.924 21.0172 446.821C21.7516 446.652 22.4577 446.397 23.192 445.974C24.0959 445.465 23.4745 443.826 22.4577 444.25C17.5148 446.256 11.4705 442.667 13.3064 436.873C14.8033 432.238 19.2942 431.758 22.7684 433.679C23.079 434.866 23.4745 435.969 23.9264 436.901H23.9546Z" fill="white"/>
<path d="M32.4281 450.411L33.5861 448.009C37.0885 449.167 41.0428 447.613 42.1726 443.939C43.1894 440.66 41.8336 437.043 38.8397 435.46C38.8114 435.262 38.6984 435.036 38.416 434.923C37.4839 434.499 36.5236 434.358 35.5633 434.415L35.5068 432.521C36.0152 432.521 36.5236 432.21 36.4671 431.588C36.0717 426.982 41.6359 421.838 45.9291 425.427C48.2169 427.321 48.5276 430.91 47.2001 433.51C46.268 434.075 45.4489 434.838 44.7993 435.912C44.1779 436.958 45.6466 438.145 46.4657 437.213C50.1376 433.171 58.1591 434.697 58.2438 440.915C58.2721 443.769 56.5491 446.596 54.1766 448.094C51.5498 449.761 48.6971 449.507 46.0703 448.291C45.7031 447.896 45.3077 447.528 44.8558 447.189C43.9237 446.483 42.681 448.065 43.5848 448.857C48.3299 452.898 47.4261 460.755 40.9015 462.281C35.9305 463.44 32.3999 459.822 31.835 455.498C32.6823 454.396 33.2755 453.124 33.5297 451.683C33.6426 450.92 32.993 450.411 32.3999 450.411H32.4281Z" fill="white"/>
<path d="M30.5354 440.377C31.3545 437.268 34.8286 435.658 37.8225 436.477C37.9638 436.505 38.0767 436.477 38.1897 436.477C42.5959 439.558 40.7317 448.008 34.5744 446.341C31.9759 445.634 29.7728 443.232 30.5636 440.406L30.5354 440.377Z" fill="#FEC703"/>
<path d="M28.9243 439.247C29.9976 436.477 32.7091 434.527 35.59 434.414C36.5504 434.357 37.5389 434.499 38.4428 434.922C38.697 435.035 38.8099 435.233 38.8664 435.459C41.8604 437.042 43.2161 440.66 42.1993 443.938C41.0695 447.612 37.1153 449.167 33.6129 448.008C29.9693 446.793 27.4838 443.034 28.9525 439.275L28.9243 439.247ZM34.5732 446.312C40.7306 447.98 42.5947 439.529 38.1885 436.449C38.0473 436.477 37.9343 436.505 37.8214 436.449C34.8274 435.629 31.3816 437.268 30.5342 440.349C29.7716 443.175 31.9747 445.577 34.545 446.284L34.5732 446.312Z" fill="#1E1E1E"/>
<path d="M12.8821 452.107C13.5882 449.648 15.3959 448.009 17.5707 446.85C13.1081 445.804 9.71868 441 11.4699 436.025C13.0516 431.56 18.3616 429.61 22.2876 431.164C21.6097 426.303 22.7678 421.018 28.445 420.312C32.6252 419.831 34.913 422.968 35.6474 426.586C37.8505 423.053 42.7086 421.046 46.4934 423.477C49.5438 425.427 50.4477 429.412 49.3744 432.662C54.2607 431.56 60.3615 435.121 60.5875 440.576C60.8982 446.85 53.6958 452.926 48.0186 451.315C50.0805 456.431 47.6514 462.875 41.4941 464.316C36.1276 465.588 31.2695 461.942 30.1962 457.251C26.4114 460.303 20.2822 461.122 16.0738 459.37C13.1363 458.155 12.0065 455.131 12.8539 452.135L12.8821 452.107ZM22.796 433.68C19.3219 431.758 14.831 432.238 13.334 436.873C11.4981 442.667 17.5425 446.228 22.4853 444.25C23.5021 443.826 24.1235 445.465 23.2197 445.974C22.4853 446.398 21.7792 446.652 21.0448 446.822C18.8418 447.924 16.5539 449.111 15.3394 451.287C13.1081 455.329 16.4975 457.844 20.2258 458.014C23.8693 458.183 27.8236 457.081 30.0267 454.311C30.1679 453.096 30.5068 451.881 31.1847 450.722C31.3824 450.411 31.7214 450.383 32.0038 450.496C32.145 450.411 32.258 450.411 32.4275 450.411C33.0206 450.411 33.6702 450.92 33.5573 451.683C33.3031 453.124 32.7099 454.424 31.8626 455.498C32.4275 459.794 35.9581 463.44 40.9292 462.281C47.4537 460.755 48.3575 452.898 43.6124 448.857C42.7086 448.093 43.9513 446.482 44.8834 447.189C45.3353 447.528 45.7308 447.896 46.0979 448.291C48.7247 449.507 51.5774 449.733 54.2042 448.093C56.605 446.596 58.3279 443.769 58.2714 440.915C58.1867 434.697 50.1652 433.171 46.4934 437.212C45.6743 438.145 44.2056 436.958 44.8269 435.912C45.4766 434.867 46.2957 434.075 47.2277 433.51C48.5552 430.91 48.2445 427.349 45.9567 425.427C41.6635 421.866 36.0993 426.981 36.4947 431.588C36.5512 432.182 36.0428 432.521 35.5344 432.521C35.139 432.521 34.7435 432.323 34.6588 431.871C34.4611 430.91 34.4611 429.949 34.6588 429.045C34.2069 425.427 32.258 421.188 28.1908 422.262C23.5304 423.477 23.5022 428.225 24.2648 432.351C25.1121 433.086 25.8182 434.075 26.2701 435.347C26.4114 435.771 25.7617 436.167 25.451 435.828C25.2816 435.63 25.1121 435.46 24.9426 435.291C25.0556 435.658 25.1403 436.025 25.2533 436.336C25.451 437.099 24.3212 437.608 23.9823 436.873C23.5304 435.941 23.135 434.838 22.8243 433.651L22.796 433.68Z" fill="#1E1E1E"/>
<path d="M1057.95 486.358C1058.32 487.065 1059.45 486.556 1059.23 485.821C1059.14 485.51 1059.03 485.143 1058.91 484.776C1059.08 484.973 1059.25 485.143 1059.42 485.313C1059.73 485.68 1060.38 485.284 1060.24 484.832C1059.79 483.56 1059.08 482.571 1058.24 481.836C1057.47 477.71 1057.5 472.962 1062.16 471.747C1066.23 470.673 1068.18 474.912 1068.63 478.53C1068.43 479.434 1068.43 480.395 1068.63 481.356C1068.72 481.808 1069.11 482.006 1069.51 482.006L1069.56 483.899C1066.71 484.013 1063.97 485.963 1062.9 488.732C1061.43 492.52 1063.91 496.25 1067.56 497.465L1066.4 499.868C1066.26 499.868 1066.12 499.868 1065.98 499.953C1065.69 499.84 1065.35 499.868 1065.16 500.179C1064.48 501.337 1064.11 502.581 1064 503.768C1061.8 506.538 1057.84 507.64 1054.2 507.47C1050.47 507.301 1047.08 504.785 1049.31 500.744C1050.53 498.568 1052.81 497.381 1055.02 496.278C1055.75 496.109 1056.46 495.855 1057.19 495.431C1058.1 494.922 1057.47 493.283 1056.46 493.707C1051.51 495.713 1045.47 492.124 1047.31 486.33C1048.8 481.695 1053.29 481.215 1056.77 483.136C1057.08 484.323 1057.47 485.426 1057.93 486.358H1057.95Z" fill="white"/>
<path d="M1066.43 499.867L1067.59 497.465C1071.09 498.624 1075.04 497.069 1076.17 493.395C1077.19 490.117 1075.83 486.499 1072.84 484.916C1072.81 484.718 1072.7 484.492 1072.42 484.379C1071.48 483.955 1070.52 483.814 1069.56 483.871L1069.51 481.977C1070.02 481.977 1070.52 481.666 1070.47 481.044C1070.07 476.438 1075.64 471.294 1079.93 474.883C1082.22 476.777 1082.53 480.366 1081.2 482.938C1080.27 483.503 1079.45 484.266 1078.8 485.34C1078.18 486.386 1079.65 487.573 1080.47 486.64C1084.14 482.599 1092.16 484.125 1092.24 490.343C1092.27 493.197 1090.55 496.023 1088.18 497.521C1085.55 499.189 1082.7 498.934 1080.07 497.719C1079.7 497.324 1079.31 496.956 1078.86 496.617C1077.92 495.91 1076.68 497.493 1077.58 498.284C1082.33 502.326 1081.43 510.183 1074.9 511.709C1069.93 512.868 1066.4 509.25 1065.83 504.926C1066.68 503.824 1067.28 502.552 1067.53 501.111C1067.64 500.348 1066.99 499.839 1066.4 499.839L1066.43 499.867Z" fill="white"/>
<path d="M1064.54 489.806C1065.35 486.697 1068.83 485.086 1071.82 485.906C1071.96 485.934 1072.08 485.906 1072.19 485.906C1076.6 488.986 1074.73 497.437 1068.57 495.769C1065.98 495.063 1063.77 492.661 1064.56 489.834L1064.54 489.806Z" fill="#FEC703"/>
<path d="M1062.93 488.703C1064 485.933 1066.71 483.983 1069.59 483.87C1070.55 483.814 1071.54 483.955 1072.44 484.379C1072.7 484.492 1072.81 484.69 1072.87 484.916C1075.86 486.499 1077.22 490.116 1076.2 493.395C1075.07 497.069 1071.12 498.623 1067.61 497.465C1063.97 496.249 1061.48 492.49 1062.95 488.731L1062.93 488.703ZM1068.57 495.769C1074.73 497.436 1076.6 488.986 1072.19 485.905C1072.05 485.933 1071.94 485.962 1071.82 485.905C1068.83 485.086 1065.38 486.725 1064.54 489.805C1063.77 492.632 1065.98 495.034 1068.55 495.74L1068.57 495.769Z" fill="#1E1E1E"/>
<path d="M1046.88 501.563C1047.59 499.104 1049.4 497.465 1051.57 496.306C1047.11 495.261 1043.72 490.456 1045.47 485.482C1047.05 481.016 1052.36 479.066 1056.29 480.621C1055.61 475.76 1056.77 470.475 1062.44 469.768C1066.63 469.288 1068.91 472.425 1069.65 476.042C1071.85 472.509 1076.71 470.503 1080.49 472.933C1083.54 474.884 1084.45 478.869 1083.37 482.119C1088.26 481.016 1094.36 484.578 1094.59 490.032C1094.9 496.306 1087.7 502.383 1082.02 500.772C1084.08 505.887 1081.65 512.331 1075.49 513.773C1070.13 515.044 1065.27 511.399 1064.2 506.707C1060.41 509.759 1054.28 510.579 1050.07 508.827C1047.14 507.611 1046.01 504.587 1046.85 501.592L1046.88 501.563ZM1056.8 483.136C1053.32 481.214 1048.83 481.695 1047.33 486.33C1045.5 492.124 1051.54 495.685 1056.49 493.706C1057.5 493.282 1058.12 494.922 1057.22 495.43C1056.49 495.854 1055.78 496.109 1055.04 496.278C1052.84 497.38 1050.55 498.567 1049.34 500.744C1047.11 504.785 1050.5 507.301 1054.23 507.47C1057.87 507.64 1061.82 506.537 1064.03 503.768C1064.17 502.552 1064.51 501.337 1065.18 500.178C1065.38 499.867 1065.72 499.839 1066 499.952C1066.15 499.867 1066.26 499.867 1066.43 499.867C1067.02 499.867 1067.67 500.376 1067.56 501.139C1067.3 502.581 1066.71 503.881 1065.86 504.955C1066.43 509.251 1069.96 512.897 1074.93 511.738C1081.45 510.212 1082.36 502.355 1077.61 498.313C1076.71 497.55 1077.95 495.939 1078.88 496.646C1079.34 496.985 1079.73 497.352 1080.1 497.748C1082.72 498.963 1085.58 499.189 1088.2 497.55C1090.61 496.052 1092.33 493.226 1092.27 490.371C1092.19 484.154 1084.17 482.627 1080.49 486.669C1079.67 487.602 1078.21 486.415 1078.83 485.369C1079.48 484.323 1080.3 483.532 1081.23 482.967C1082.56 480.366 1082.24 476.805 1079.96 474.912C1075.66 471.351 1070.1 476.466 1070.49 481.073C1070.55 481.666 1070.04 482.006 1069.53 482.006C1069.14 482.006 1068.74 481.808 1068.66 481.356C1068.46 480.395 1068.46 479.434 1068.66 478.529C1068.21 474.912 1066.26 470.672 1062.19 471.746C1057.53 472.962 1057.5 477.71 1058.26 481.836C1059.11 482.571 1059.82 483.56 1060.27 484.832C1060.41 485.256 1059.76 485.651 1059.45 485.312C1059.28 485.115 1059.11 484.945 1058.94 484.775C1059.06 485.143 1059.14 485.51 1059.25 485.821C1059.45 486.584 1058.32 487.093 1057.98 486.358C1057.53 485.425 1057.13 484.323 1056.82 483.136H1056.8Z" fill="#1E1E1E"/>
<path d="M657.156 636.46C657.411 636.035 657.411 635.47 656.846 635.132C653.965 633.351 650.801 631.655 648.626 629.027C645.858 625.777 644.503 619.672 649.05 617.185C656.817 612.945 662.156 622.526 663.624 628.603C663.794 629.281 665.008 629.168 664.895 628.405C664.895 628.321 664.895 628.264 664.895 628.208C665.263 628.037 665.545 627.642 665.376 627.105C663.257 619.756 667.635 610.713 676.306 612.183C685.034 613.68 685.938 625.353 677.775 628.405C676.984 628.716 677.295 629.819 678.114 629.676C678.142 629.676 678.199 629.648 678.227 629.648C678.029 629.875 677.803 630.073 677.634 630.327C676.984 631.203 678.255 632.446 679.131 631.825C682.577 629.422 685.91 627.642 690.287 628.716C694.807 629.847 697.857 633.747 698.139 638.382C698.62 646.521 691.332 650.336 684.638 648.866C683.424 647.963 682.012 647.369 680.458 647.227C680.345 647.171 680.204 647.171 680.091 647.199C680.006 647.199 679.893 647.199 679.78 647.199C679.413 647.199 679.159 647.34 678.99 647.539L676.193 646.832C677.803 644.6 678.594 641.717 677.944 638.975C676.673 633.464 670.544 630.27 665.263 631.881C664.698 632.051 664.5 632.531 664.556 632.984C662.692 633.634 661.082 634.906 659.981 636.545L657.156 636.46Z" fill="white"/>
<path d="M665.63 650.535C666.844 650.931 668.143 651.072 669.414 650.931C672.126 650.62 674.555 649.009 676.165 646.804L678.961 647.511C678.481 648.048 678.622 649.065 679.441 649.348C688.79 652.485 688.79 663.875 679.865 667.775C675.656 669.611 669.245 669.838 666.731 665.147C665.347 662.546 665.291 659.24 665.46 656.187C665.601 655.396 665.686 654.604 665.686 653.814C665.686 653.163 665.121 652.796 664.584 652.796L665.63 650.507V650.535Z" fill="white"/>
<path d="M659.981 636.546C659.162 637.818 658.653 639.372 658.597 641.068C658.512 645.335 661.647 649.236 665.601 650.536L664.556 652.825C664.133 652.825 663.737 653.051 663.624 653.559C662.071 660.569 656.987 669.641 648.316 665.317C644.107 663.226 643.062 658.76 645.265 654.746C646.903 651.75 649.671 649.942 652.552 648.302C653.484 648.048 654.445 647.794 655.32 647.483C656.591 647.059 656.083 645.137 654.755 645.448C651.705 646.155 648.429 647.257 645.265 646.466C642.102 645.646 639.051 642.481 640.831 639.06C642.949 634.991 648.146 634.058 652.439 634.878C653.569 635.556 654.727 636.178 655.885 636.772C656.422 637.026 656.93 636.8 657.156 636.433L659.981 636.517V636.546Z" fill="white"/>
<path d="M675.487 638.75C676.928 642.763 673.99 647.653 669.866 648.585C665.686 649.518 661.308 645.985 660.913 641.802C660.574 638.241 663.201 635.076 666.392 633.719C670.064 633.182 674.188 635.047 675.459 638.75H675.487Z" fill="#FEC703"/>
<path d="M675.487 638.75C674.188 635.048 670.092 633.182 666.42 633.719C663.2 635.076 660.602 638.241 660.941 641.802C661.308 645.985 665.714 649.49 669.894 648.585C674.018 647.653 676.956 642.763 675.515 638.75H675.487ZM665.629 650.536C661.675 649.207 658.54 645.335 658.625 641.068C658.653 639.344 659.161 637.818 660.009 636.546C661.11 634.878 662.72 633.634 664.584 632.985C664.528 632.56 664.726 632.052 665.29 631.882C670.572 630.271 676.673 633.465 677.972 638.976C678.622 641.717 677.831 644.6 676.221 646.833C674.611 649.038 672.21 650.649 669.471 650.959C668.171 651.101 666.9 650.959 665.686 650.564L665.629 650.536Z" fill="#1E1E1E"/>
<path d="M684.61 648.867C691.332 650.337 698.591 646.522 698.111 638.383C697.829 633.748 694.806 629.847 690.259 628.717C685.853 627.643 682.548 629.423 679.102 631.826C678.227 632.419 676.956 631.203 677.605 630.328C677.775 630.073 678.029 629.875 678.198 629.649C678.17 629.649 678.114 629.649 678.085 629.677C677.266 629.819 676.956 628.717 677.746 628.405C685.909 625.354 685.005 613.653 676.278 612.183C667.607 610.713 663.229 619.757 665.347 627.106C665.517 627.643 665.234 628.038 664.867 628.208C664.867 628.292 664.867 628.349 664.867 628.405C664.98 629.169 663.765 629.282 663.596 628.604C662.127 622.527 656.789 612.946 649.022 617.185C644.474 619.673 645.83 625.749 648.598 629.028C650.801 631.655 653.936 633.38 656.817 635.133C657.354 635.443 657.382 636.036 657.128 636.46C656.874 636.828 656.393 637.054 655.857 636.8C654.699 636.206 653.541 635.584 652.411 634.906C648.118 634.086 642.949 635.02 640.802 639.089C639.023 642.508 642.073 645.702 645.237 646.494C648.4 647.285 651.677 646.183 654.727 645.476C656.055 645.165 656.563 647.087 655.292 647.511C654.416 647.822 653.456 648.077 652.524 648.331C649.643 649.942 646.875 651.779 645.237 654.775C643.034 658.787 644.079 663.253 648.287 665.345C656.958 669.669 662.071 660.597 663.596 653.587C663.709 653.079 664.104 652.853 664.528 652.853C665.065 652.853 665.629 653.22 665.629 653.87C665.629 654.662 665.545 655.452 665.404 656.244C665.206 659.297 665.262 662.603 666.675 665.203C669.188 669.895 675.6 669.669 679.808 667.832C688.734 663.932 688.762 652.542 679.385 649.405C678.566 649.122 678.396 648.105 678.905 647.567C679.074 647.369 679.328 647.228 679.695 647.228C679.78 647.228 679.893 647.228 680.006 647.228C680.119 647.228 680.26 647.228 680.373 647.257C681.927 647.398 683.311 647.992 684.553 648.896L684.61 648.867ZM700.625 637.902C701.048 643.441 698.224 648.67 692.999 650.761C691.163 651.496 689.157 651.779 687.18 651.637C688.254 653.248 688.96 655.114 689.214 656.95C689.892 662.094 686.983 666.729 682.605 669.301C678.001 671.958 670.77 672.806 666.59 668.878C664.415 666.814 663.652 664.186 663.624 661.444C660.178 667.436 652.948 671.082 646.282 666.87C642.61 664.553 640.972 660.37 642.215 656.216C643.147 653.107 645.322 650.789 647.92 649.037C645.999 649.065 644.107 648.783 642.384 647.822C639.673 646.324 637.526 643.413 638.091 640.191C638.966 634.906 644.305 632.504 649.304 632.786C647.186 631.091 645.434 629.028 644.531 626.399C643.175 622.527 643.881 617.892 647.581 615.574C650.97 613.455 655.603 613.963 658.794 616.281C660.517 617.497 661.76 619.136 662.692 620.945C663.765 613.483 670.911 607.491 679.102 610.685C685.542 613.229 687.237 621.623 683.565 626.455C686.305 625.693 689.327 625.721 691.897 626.54C696.925 628.151 700.229 632.73 700.625 637.93V637.902Z" fill="#1E1E1E"/>
<path d="M859.156 629.485C859.41 629.061 859.41 628.496 858.845 628.157C855.964 626.376 852.801 624.68 850.626 622.052C847.858 618.802 846.502 612.697 851.05 610.21C858.817 605.971 864.156 615.552 865.625 621.628C865.794 622.306 867.009 622.193 866.896 621.43C866.896 621.345 866.896 621.289 866.896 621.232C867.263 621.063 867.545 620.667 867.375 620.131C865.257 612.782 869.636 603.738 878.307 605.207C887.034 606.705 887.937 618.377 879.774 621.43C878.984 621.742 879.294 622.843 880.113 622.702C880.142 622.702 880.199 622.674 880.227 622.674C880.03 622.9 879.803 623.097 879.633 623.352C878.984 624.228 880.255 625.472 881.13 624.849C884.576 622.448 887.909 620.667 892.287 621.741C896.806 622.871 899.857 626.772 900.139 631.407C900.619 639.547 893.332 643.362 886.638 641.892C885.423 640.988 884.011 640.394 882.458 640.253C882.345 640.196 882.204 640.196 882.091 640.225C882.006 640.225 881.894 640.225 881.781 640.225C881.414 640.225 881.16 640.366 880.99 640.564L878.193 639.857C879.803 637.624 880.594 634.742 879.944 632C878.673 626.49 872.545 623.296 867.263 624.907C866.698 625.076 866.5 625.557 866.557 626.008C864.693 626.659 863.082 627.93 861.98 629.569L859.156 629.485Z" fill="white"/>
<path d="M867.629 643.56C868.844 643.956 870.143 644.097 871.414 643.956C874.125 643.644 876.554 642.034 878.164 639.829L880.961 640.537C880.48 641.073 880.622 642.091 881.441 642.373C890.79 645.511 890.79 656.9 881.864 660.8C877.656 662.637 871.244 662.863 868.731 658.201C867.347 655.6 867.29 652.293 867.46 649.241C867.601 648.449 867.685 647.658 867.685 646.867C867.685 646.217 867.121 645.85 866.584 645.85L867.629 643.56Z" fill="white"/>
<path d="M862.009 629.541C861.189 630.813 860.681 632.367 860.624 634.063C860.54 638.331 863.675 642.231 867.629 643.531L866.584 645.821C866.16 645.821 865.765 646.047 865.652 646.555C864.099 653.564 859.015 662.636 850.343 658.312C846.135 656.221 845.09 651.755 847.293 647.742C848.931 644.747 851.699 642.938 854.58 641.299C855.512 641.044 856.473 640.789 857.348 640.479C858.619 640.055 858.111 638.133 856.783 638.444C853.733 639.15 850.456 640.253 847.293 639.462C844.13 638.642 841.079 635.476 842.859 632.057C844.977 627.986 850.174 627.054 854.467 627.873C855.597 628.552 856.755 629.174 857.913 629.768C858.45 630.022 858.958 629.796 859.184 629.428L862.009 629.513V629.541Z" fill="white"/>
<path d="M877.515 631.775C878.956 635.787 876.018 640.677 871.895 641.61C867.715 642.543 863.337 639.009 862.941 634.827C862.602 631.266 865.229 628.101 868.421 626.744C872.092 626.206 876.216 628.073 877.487 631.775H877.515Z" fill="#FEC703"/>
<path d="M877.515 631.774C876.216 628.07 872.12 626.205 868.449 626.743C865.229 628.099 862.63 631.264 862.969 634.826C863.336 639.008 867.742 642.513 871.923 641.609C876.046 640.676 878.984 635.786 877.543 631.774H877.515ZM867.629 643.559C863.675 642.23 860.54 638.359 860.625 634.091C860.653 632.367 861.161 630.84 862.009 629.568C863.11 627.901 864.72 626.658 866.584 626.008C866.528 625.584 866.726 625.076 867.291 624.905C872.572 623.294 878.673 626.488 879.972 631.999C880.622 634.741 879.831 637.623 878.221 639.857C876.611 642.061 874.211 643.672 871.471 643.982C870.172 644.123 868.9 643.982 867.686 643.587L867.629 643.559Z" fill="#1E1E1E"/>
<path d="M886.61 641.892C893.332 643.361 900.591 639.546 900.111 631.407C899.829 626.772 896.806 622.871 892.259 621.741C887.853 620.667 884.548 622.447 881.102 624.85C880.227 625.443 878.956 624.228 879.605 623.352C879.775 623.098 880.029 622.899 880.198 622.673C880.17 622.673 880.114 622.673 880.085 622.702C879.266 622.843 878.956 621.741 879.747 621.431C887.909 618.378 887.005 606.677 878.278 605.207C869.607 603.737 865.229 612.782 867.347 620.13C867.516 620.667 867.234 621.062 866.867 621.232C866.867 621.317 866.867 621.374 866.867 621.431C866.98 622.193 865.765 622.306 865.596 621.628C864.127 615.552 858.789 605.971 851.022 610.21C846.474 612.697 847.83 618.774 850.598 622.052C852.801 624.681 855.936 626.405 858.817 628.157C859.354 628.467 859.382 629.061 859.128 629.485C858.874 629.852 858.393 630.078 857.857 629.824C856.699 629.23 855.541 628.609 854.411 627.931C850.118 627.111 844.949 628.044 842.802 632.113C841.023 635.533 844.073 638.726 847.237 639.518C850.4 640.309 853.677 639.207 856.727 638.5C858.055 638.19 858.563 640.111 857.292 640.535C856.416 640.847 855.456 641.101 854.524 641.355C851.643 642.966 848.875 644.803 847.237 647.799C845.034 651.813 846.079 656.277 850.287 658.369C858.958 662.693 864.071 653.621 865.596 646.612C865.709 646.103 866.104 645.877 866.528 645.877C867.065 645.877 867.629 646.244 867.629 646.894C867.629 647.686 867.545 648.477 867.404 649.269C867.206 652.321 867.262 655.628 868.675 658.228C871.188 662.919 877.6 662.693 881.808 660.828C890.734 656.928 890.762 645.538 881.385 642.401C880.566 642.118 880.396 641.101 880.905 640.563C881.074 640.365 881.328 640.224 881.695 640.224C881.78 640.224 881.893 640.224 882.006 640.224C882.119 640.224 882.26 640.224 882.373 640.253C883.927 640.394 885.311 640.988 886.554 641.892H886.61ZM902.625 630.898C903.048 636.437 900.224 641.666 894.999 643.757C893.163 644.492 891.157 644.775 889.18 644.633C890.254 646.244 890.96 648.11 891.214 649.946C891.892 655.091 888.983 659.725 884.605 662.297C880.001 664.954 872.77 665.802 868.59 661.874C866.415 659.811 865.652 657.182 865.624 654.44C862.178 660.432 854.948 664.078 848.282 659.867C844.61 657.549 842.972 653.367 844.215 649.212C845.147 646.103 847.322 643.786 849.92 642.033C847.999 642.061 846.107 641.779 844.384 640.818C841.673 639.32 839.526 636.409 840.091 633.187C840.966 627.903 846.305 625.5 851.304 625.782C849.186 624.087 847.434 622.024 846.531 619.395C845.175 615.523 845.881 610.888 849.581 608.571C852.971 606.451 857.603 606.959 860.794 609.277C862.517 610.493 863.76 612.132 864.692 613.941C865.765 606.479 872.911 600.487 881.102 603.681C887.542 606.225 889.237 614.619 885.565 619.451C888.305 618.689 891.327 618.717 893.897 619.536C898.925 621.147 902.229 625.726 902.625 630.926V630.898Z" fill="#1E1E1E"/>
<mask id="mask3_263_114" style="mask-type:luminance" maskUnits="userSpaceOnUse" x="88" y="1247" width="81" height="70">
<path d="M169 1247.78H88V1316.04H169V1247.78Z" fill="white"/>
</mask>
<g mask="url(#mask3_263_114)">
<path d="M97.0927 1271.68C104.726 1278.38 115.925 1276.25 124.85 1273.4C123.271 1275.03 121.859 1276.68 120.687 1278.28C119.969 1279.27 119.371 1280.32 118.82 1281.42C113.939 1286.74 107.263 1291.02 99.8684 1289.2C90.6557 1286.95 87.856 1275.31 96.6859 1271.29C96.8295 1271.44 96.9491 1271.56 97.0927 1271.68Z" fill="white"/>
<path d="M126.095 1270.05C126.167 1270.65 126.526 1271.08 126.957 1271.32C126.885 1271.39 126.813 1271.46 126.742 1271.51C126.574 1271.32 126.287 1271.17 125.928 1271.24C118.39 1272.68 109.872 1275.12 102.525 1271.53C101.281 1270.91 100.108 1270.09 99.0556 1269.16C99.0077 1268.51 98.6009 1267.96 97.8591 1267.89C94.5569 1264.06 93.3604 1258.72 97.3087 1254.58C108.292 1242.99 124.636 1258.53 126.095 1270.05Z" fill="white"/>
<path d="M133.417 1269.81C141.385 1263.73 151.029 1260.61 158.327 1264.83C170.579 1271.87 167.013 1285.2 158.136 1294.9C158.136 1294.88 158.088 1294.85 158.064 1294.81C150.55 1285.97 142.51 1277.54 133.704 1269.98C133.608 1269.88 133.513 1269.86 133.417 1269.81ZM151.364 1270.17C152.919 1270.31 154.068 1271.08 155.264 1272.23C156.102 1273.09 157.538 1271.99 156.939 1270.93C155.671 1268.75 152.895 1267.68 150.455 1267.82C149.952 1267.84 149.497 1268.16 149.354 1268.66C148.732 1271.03 149.114 1273.42 150.383 1275.51C150.957 1276.44 152.249 1275.63 151.818 1274.67C151.172 1273.23 151.077 1271.68 151.364 1270.17Z" fill="#FEC703"/>
<path d="M126.885 1275.94C133.825 1285.08 141.506 1293.7 149.067 1302.37C145.765 1304.31 142.271 1305.7 138.85 1306.25C139.256 1305.77 139.376 1305.1 138.921 1304.36C136.84 1300.89 134.207 1297.63 131.408 1294.71C130.044 1293.3 128.608 1291.93 127.1 1290.66C126.311 1289.99 123.391 1287.41 121.74 1286.28C121.836 1285.52 121.549 1284.92 121.046 1284.53C122.458 1281.56 124.492 1278.64 126.885 1275.94Z" fill="#FEC703"/>
<path d="M150.455 1267.82C152.896 1267.68 155.672 1268.76 156.94 1270.93C157.538 1271.99 156.103 1273.09 155.265 1272.23C154.069 1271.08 152.92 1270.31 151.365 1270.17C151.077 1271.68 151.173 1273.23 151.819 1274.67C152.25 1275.63 150.958 1276.44 150.383 1275.51C149.115 1273.42 148.732 1271.03 149.355 1268.66C149.498 1268.16 149.953 1267.85 150.455 1267.82Z" fill="#1E1E1E"/>
<path d="M158.328 1264.83C151.029 1260.61 141.386 1263.73 133.418 1269.81C133.513 1269.86 133.609 1269.88 133.705 1269.98C142.511 1277.54 150.551 1285.97 158.065 1294.81C158.065 1294.85 158.112 1294.88 158.136 1294.9C167.014 1285.21 170.579 1271.87 158.328 1264.83ZM155.576 1297.46C155.002 1297.2 154.475 1296.91 153.901 1296.65C153.47 1297.44 152.489 1297.92 151.46 1297.42C151.46 1297.39 151.412 1297.37 151.364 1297.34C151.221 1297.82 150.934 1298.21 150.527 1298.47C150.91 1298.9 151.317 1299.36 151.699 1299.81C151.867 1299.98 151.963 1300.19 152.034 1300.39C153.279 1299.48 154.451 1298.49 155.576 1297.46ZM149.067 1302.37C141.506 1293.7 133.824 1285.09 126.885 1275.94C124.492 1278.64 122.458 1281.57 121.046 1284.53C121.549 1284.92 121.836 1285.52 121.74 1286.28C123.391 1287.41 126.311 1289.99 127.1 1290.66C128.608 1291.93 130.044 1293.3 131.407 1294.71C134.207 1297.63 136.839 1300.89 138.921 1304.36C139.376 1305.1 139.256 1305.77 138.849 1306.25C142.271 1305.7 145.765 1304.31 149.067 1302.37ZM128.345 1274.31C129.637 1275.58 130.881 1276.9 132.125 1278.19C131.336 1277.06 130.57 1275.91 129.852 1274.72C129.469 1274.07 129.565 1273.33 129.948 1272.75C129.397 1273.26 128.871 1273.78 128.345 1274.31ZM110.996 1309.58C110.517 1309.6 110.111 1309.36 109.847 1309.01C109.153 1309.7 108.412 1310.39 107.742 1311.16C108.842 1310.68 109.943 1310.15 110.996 1309.58ZM120.089 1299.45C121.333 1301.68 123.391 1303.59 126.478 1305.01C126.598 1304.86 126.765 1304.77 126.909 1304.7C126.717 1304.62 126.526 1304.53 126.358 1304.36C125.952 1303.98 125.593 1303.59 125.234 1303.19C123.678 1302.88 122.267 1301.97 121.094 1300.7C120.759 1300.34 120.472 1299.93 120.209 1299.52C120.209 1299.5 120.137 1299.48 120.089 1299.45ZM99.8689 1289.2C107.263 1291.02 113.939 1286.74 118.821 1281.42C119.371 1280.32 119.969 1279.27 120.687 1278.29C121.86 1276.68 123.272 1275.03 124.851 1273.4C115.925 1276.25 104.727 1278.38 97.0932 1271.68C96.9496 1271.56 96.8299 1271.44 96.6864 1271.29C87.8565 1275.32 90.6562 1286.95 99.8689 1289.2ZM97.3085 1254.58C93.3602 1258.72 94.5567 1264.06 97.8589 1267.89C98.6007 1267.97 99.0075 1268.52 99.0553 1269.16C100.108 1270.1 101.281 1270.91 102.525 1271.53C109.871 1275.12 118.39 1272.68 125.928 1271.25C126.287 1271.17 126.574 1271.32 126.741 1271.51C126.813 1271.46 126.885 1271.39 126.957 1271.32C126.526 1271.08 126.167 1270.65 126.095 1270.05C124.636 1258.53 108.292 1242.99 97.3085 1254.58ZM93.9824 1252.81C99.3186 1246.44 109.345 1246.75 116.189 1250.22C123.487 1253.91 128.488 1261.19 129.254 1269.28C137.318 1262.6 147.919 1257.69 157.203 1261C187.761 1271.84 152.082 1320.71 127.028 1307.43C124.971 1306.92 123.272 1306.08 121.836 1305.03C121.788 1305.32 121.668 1305.61 121.429 1305.82C116.38 1310.78 110.278 1314.23 103.434 1316C102.19 1316.33 100.754 1314.82 101.616 1313.65C105.851 1308 111.211 1302.97 117.457 1299.62C115.686 1295.6 115.662 1290.69 116.954 1286.09C110.254 1292.48 100.97 1295.98 92.5945 1289.35C85.9422 1284.08 86.4926 1271.63 94.2935 1268.56C90.9673 1263.87 89.9623 1257.6 93.9824 1252.81Z" fill="#1E1E1E"/>
</g>
<mask id="mask4_263_114" style="mask-type:luminance" maskUnits="userSpaceOnUse" x="1229" y="752" width="120" height="120">
<path d="M1287.75 752.47L1229 809.714L1289.47 871.847L1348.22 814.603L1287.75 752.47Z" fill="white"/>
</mask>
<g mask="url(#mask4_263_114)">
<path d="M1306.82 785.955C1318.52 780.999 1325.27 792.767 1322.13 802.87C1320.24 808.916 1315.71 813.731 1311.56 818.291C1310.69 819.228 1312.06 820.656 1312.94 819.709C1314.04 818.504 1315.17 817.244 1316.28 815.939C1318.13 814.61 1320.13 813.53 1322.34 812.928C1325.5 812.078 1332.79 811.035 1330.5 818.948C1330.13 820.219 1328.76 821.375 1327.88 822.231C1323.47 826.551 1317.69 829.138 1311.54 827.691C1311.33 827.643 1311.14 827.674 1310.96 827.762C1308.92 825.896 1307.1 824.044 1305.74 822.671C1302.49 819.378 1300.05 814.313 1296.81 810.839C1296.4 801.253 1299.61 789.019 1306.82 785.955Z" fill="#F088B6"/>
<path d="M1285.35 817.639C1286.92 822.456 1291.85 826.945 1295.13 829.493C1297.81 831.561 1300.72 833.224 1303.79 834.596C1304.95 840.705 1307.1 854.692 1298.4 853.482C1290.68 852.399 1291.22 838.244 1292.64 832.789C1292.81 832.126 1292.07 831.845 1291.65 832.189C1291.3 831.576 1290.39 831.326 1289.97 832.133C1286.59 838.701 1280.89 844.347 1273.05 844.525C1265.01 844.723 1257.4 838.618 1257.58 830.203C1257.88 816.293 1273.81 815.544 1285.35 817.639Z" fill="#F088B6"/>
<path d="M1287.07 803.218C1287.15 802.293 1286.81 801.364 1285.99 800.777C1286.07 801.162 1286.17 801.558 1286.25 801.932C1286.62 802.32 1286.9 802.765 1287.07 803.218ZM1294.98 825.249C1294.98 825.249 1295.03 825.182 1295.05 825.137C1295.01 825.091 1294.93 825.078 1294.88 825.032C1294.68 824.872 1294.5 824.711 1294.31 824.54C1292.47 823.104 1290.88 821.582 1289.45 819.815C1289.84 820.61 1290.57 821.443 1291.61 822.292C1292.57 823.433 1293.64 824.486 1294.75 825.471C1294.83 825.393 1294.89 825.315 1294.98 825.249ZM1279.99 808.957C1281.3 810.509 1283.39 811.463 1285.64 811.211C1285.73 811.054 1285.81 810.909 1285.9 810.752C1283.17 810.986 1281.9 810.529 1279.99 808.957ZM1278.78 803.886C1278.38 805.382 1278.66 806.875 1279.4 808.115C1279.39 808.036 1279.4 807.98 1279.41 807.923C1279.31 807.73 1279.21 807.537 1279.14 807.321C1278.91 806.72 1278.85 806.065 1278.91 805.4C1278.86 805.005 1278.89 804.554 1279.01 804.081C1278.94 804.012 1278.85 803.966 1278.78 803.886ZM1307.44 833.2C1310.35 834.389 1313.36 835.31 1316.42 836.117C1314.94 835.601 1313.55 835.019 1312.2 834.346C1312.03 834.445 1311.82 834.476 1311.58 834.417C1310.82 834.204 1310.11 833.822 1309.45 833.374C1308.94 833.209 1308.44 833.021 1307.95 832.811C1307.82 832.979 1307.65 833.124 1307.44 833.2ZM1273.05 844.524C1280.89 844.347 1286.59 838.701 1289.97 832.133C1290.39 831.326 1291.3 831.575 1291.65 832.189C1292.07 831.845 1292.81 832.126 1292.64 832.789C1291.22 838.243 1290.68 852.398 1298.4 853.482C1307.1 854.692 1304.95 840.704 1303.79 834.595C1300.72 833.224 1297.81 831.56 1295.13 829.493C1291.85 826.945 1286.92 822.456 1285.35 817.639C1273.81 815.545 1257.88 816.292 1257.58 830.202C1257.4 838.618 1265.01 844.722 1273.05 844.524ZM1322.13 802.871C1325.27 792.768 1318.52 780.999 1306.82 785.955C1299.61 789.019 1296.4 801.254 1296.81 810.84C1300.05 814.314 1302.49 819.379 1305.74 822.672C1307.09 824.055 1308.92 825.896 1310.96 827.762C1311.14 827.674 1311.33 827.643 1311.54 827.691C1317.69 829.138 1323.47 826.551 1327.88 822.232C1328.76 821.375 1330.13 820.219 1330.5 818.95C1332.79 811.036 1325.5 812.078 1322.34 812.928C1320.13 813.53 1318.13 814.61 1316.28 815.94C1315.17 817.245 1314.04 818.505 1312.94 819.709C1312.06 820.657 1310.69 819.228 1311.56 818.291C1315.71 813.731 1320.24 808.916 1322.13 802.871ZM1312.67 782.557C1319.14 782.801 1323.85 788.608 1324.73 794.656C1325.66 801.055 1323.05 806.832 1319.4 811.941C1322.2 810.556 1325.26 809.864 1328.22 810.455C1331.65 811.167 1333.98 813.952 1333.29 817.497C1331.86 824.993 1321.42 831.14 1313.69 830.112C1316.74 832.601 1320.04 834.756 1322.92 835.267C1322.92 835.267 1322.95 835.257 1322.96 835.245C1323.54 834.881 1324.27 835.195 1324.61 835.73C1324.67 835.832 1324.73 835.946 1324.81 836.048C1325.34 836.913 1324.57 837.908 1323.66 837.952C1323.51 837.961 1323.34 837.948 1323.17 837.934C1323.54 838.447 1323.26 839.368 1322.5 839.301C1316.96 838.799 1311.39 837.608 1306.18 835.587C1307.15 839.719 1307.7 844.171 1306.62 848.231C1305.69 851.784 1302.91 856.431 1298.68 856.341C1294.46 856.251 1292.13 851.255 1290.97 847.843C1289.61 843.841 1289.44 839.619 1290.43 835.581C1286.38 842.467 1279.26 847.405 1270.9 846.595C1264.02 845.928 1257.8 841.478 1255.98 834.626C1251.26 816.802 1270.96 813.464 1284.95 815.975C1284.8 814.968 1284.79 813.953 1285.02 812.951C1279.19 813.686 1274.49 807.836 1276.73 802.223C1269.19 796.029 1260.95 788.89 1261.32 778.67C1261.35 777.701 1262.82 777.72 1262.83 778.691C1262.88 789.107 1270.94 794.371 1277.36 800.967C1277.45 800.833 1277.5 800.698 1277.59 800.564C1278.47 799.266 1279.6 798.379 1280.87 797.854C1274.84 788.589 1272.18 777.303 1273.76 766.277C1273.86 765.488 1275.18 765.697 1275.12 766.464C1274.3 777.715 1276.56 788.002 1282.1 797.442C1287.34 796.213 1293.61 800.371 1291.05 806.69C1290.91 807.026 1290.73 807.34 1290.54 807.654C1291.92 807.537 1293.39 807.929 1294.73 808.916C1294.91 809.054 1295.08 809.226 1295.26 809.364C1294.97 797.195 1300.97 782.109 1312.67 782.557Z" fill="#1E1E1E"/>
</g>
</svg>
