<svg width="3455" height="834" viewBox="0 0 3455 834" fill="none" xmlns="http://www.w3.org/2000/svg">
<path d="M2337.75 137.423C2340.24 138.987 2343.65 135.358 2345.65 134.251C2361.67 125.346 2381.73 139.436 2379.88 157.207C2377.25 182.501 2345.46 182.69 2326.23 183.758C2279.98 186.338 2232.25 185.1 2185.99 183.738C2175 183.413 2163.99 183.758 2153.06 182.214C2145.82 181.191 2137.88 179.654 2132.02 174.99C2124.67 169.16 2124.1 159.219 2130.05 152.002C2133.47 147.846 2138.81 145.735 2144.11 145.494C2146.78 145.371 2149.49 145.709 2152.03 146.524C2154.44 147.299 2156.69 149.123 2159.28 149.214C2163.16 149.351 2162.59 146.087 2161.89 143.423C2158.66 131.085 2162.64 119.497 2172.86 111.791C2178.31 107.687 2185.36 105.146 2192.33 105.355C2195.89 105.459 2199.42 106.28 2202.61 107.882C2204.98 109.068 2209.1 114.025 2211.94 112.377C2214.77 110.735 2211.44 105.12 2210.83 103.042C2202.94 76.0413 2223.36 43.1778 2251.5 39.4192C2282.58 35.2697 2309.29 62.5637 2307.13 93.1407C2306.92 96.1893 2306.45 99.2509 2305.65 102.202C2305.12 104.169 2303.28 107.641 2304.65 109.556C2307.43 113.419 2312.79 105.596 2314.6 104.41C2320.67 100.423 2328.18 102.664 2333.39 106.924C2337.94 110.631 2340.24 116.389 2340.32 122.174C2340.36 124.995 2339.88 127.835 2338.93 130.492C2338.31 132.193 2335.42 135.964 2337.75 137.43V137.423Z" fill="white" stroke="#1E1E1E" stroke-width="4" stroke-miterlimit="10"/>
<path d="M1809.97 74.8579C1814.41 73.5727 1818 73.7024 1822.03 76.88C1825.2 79.3751 1827.82 83.4695 1826.76 87.6434C1824.55 96.2006 1811.19 96.8244 1804.19 97.9673C1794.27 99.5917 1784.18 100.195 1774.14 100.513C1752.16 101.208 1730.08 100.387 1708.18 98.5199C1698.62 97.7078 1689.37 96.2383 1679.97 94.6014C1660.28 91.1643 1669.91 67.5734 1686.74 74.2634C1691.61 76.1348 1691.29 74.1629 1689.95 69.5369C1687.79 57.35 1703.39 50.9572 1713.24 54.5618C1721.43 59.2172 1724.67 60.4899 1723.2 49.4627C1723.89 20.241 1761.15 13.8189 1776.24 36.4678C1785.21 49.2324 1779.37 60.2261 1782.99 56.4081C1789.5 51.535 1800.49 52.4141 1804.69 59.8745C1806.32 62.3236 1806.35 65.4425 1806.29 68.2767C1806.26 69.6918 1805.24 74.8914 1807.19 75.444C1807.68 75.5822 1808.19 75.4189 1808.67 75.2598C1809.11 75.1133 1809.54 74.9751 1809.97 74.8537L1809.97 74.8579Z" fill="white" stroke="#1E1E1E" stroke-width="4" stroke-miterlimit="10"/>
<path d="M1073.15 20.0992C1096.75 18.7536 1115.79 31.1939 1113.34 51.5104C1113.06 53.8007 1109.84 59.1503 1112.68 60.3202C1115.87 61.6329 1119.15 58.9581 1121.94 58.0408C1125.41 56.8984 1129.25 56.47 1132.96 56.8435C1139.84 57.5355 1146.41 61.1495 1150.26 65.8401C1155.56 72.2937 1155.62 81.0596 1148.54 86.6508C1141.62 92.1213 1130.44 93.7525 1121.29 94.8071C1110.54 96.0429 1099.65 96.0429 1088.82 95.9935C1073.28 95.9275 1057.75 95.6804 1042.22 95.252C1026.69 94.8236 1012.32 95.0543 997.515 93.5329C987.902 92.665 970.731 91.1711 967.5 81.9658C965.47 76.1878 969.863 71.0579 976.286 68.9158C979.463 67.8558 983.055 67.4768 986.44 68.0041C989.104 68.416 994.271 71.9751 996.187 69.3772C997.602 67.4603 994.197 64.3352 993.844 62.237C992.508 54.2675 1001.05 48.4785 1009.61 46.7374C1014.31 45.7763 1019.39 45.6664 1024.12 46.5837C1026.49 47.045 1028.57 47.7426 1030.56 48.885C1032.67 50.0988 1035.63 52.466 1037.63 49.7473C1038.43 48.6543 1038.47 47.3141 1038.6 46.0399C1040.11 31.5454 1056.2 21.0604 1073.15 20.0937V20.0992Z" fill="white" stroke="#1E1E1E" stroke-width="4" stroke-miterlimit="10"/>
<path d="M1990.5 251C2043.24 251 2086 208.243 2086 155.5C2086 102.757 2043.24 60 1990.5 60C1937.76 60 1895 102.757 1895 155.5C1895 208.243 1937.76 251 1990.5 251Z" fill="#FEFE03" stroke="#1E1E1E" stroke-width="4"/>
<mask id="mask0_269_276" style="mask-type:luminance" maskUnits="userSpaceOnUse" x="967" y="0" width="1518" height="322">
<path d="M2485 0H967V322H2485V0Z" fill="white"/>
</mask>
<g mask="url(#mask0_269_276)">
<path d="M2162 368.617L2160.1 368.717C2159.44 368.752 2158.78 368.786 2158.11 368.82V368.821C2106.52 371.539 2054.11 371.047 2001.71 370.104C1949.3 369.159 1896.91 367.763 1845.28 368.661H1845.23C1735.58 368.118 1506.45 369.561 1389.41 370.148L1367.56 370.254C1352.29 370.325 1309.73 370.325 1270.99 370.308C1251.63 370.299 1233.21 370.285 1219.64 370.273C1212.86 370.268 1207.28 370.263 1203.4 370.26C1201.46 370.258 1199.94 370.256 1198.91 370.255C1198.4 370.254 1198.01 370.254 1197.74 370.254C1197.71 370.254 1197.69 370.254 1197.66 370.254C1195.15 371.066 1192.43 370.926 1190.06 370.254H1124.54C1122.9 371.022 1121.06 371.003 1119.83 371V370.999C1068.89 370.953 1017.95 370.973 967 370.961H965V325.354L966.616 325.037L967.946 324.766C995.925 318.814 1027.05 297.171 1055.96 271.396C1085.26 245.275 1112 215.182 1130.48 193.695C1167.66 150.495 1222.88 107.425 1274.94 71.871L1276.75 70.6435C1285.78 64.5239 1294.93 58.6646 1304.34 52.9901L1307.41 51.1493C1339.17 32.1527 1373.99 13.9947 1412.07 7.26752L1413.62 7.00189C1429.67 4.34573 1445.39 4.46649 1460.73 6.57611L1462.94 6.89349C1485.78 10.3224 1507.81 18.0957 1528.91 27.5614L1530.68 28.3632C1548.92 36.7295 1566.33 47.5114 1583.28 57.4696L1586.71 59.4921C1622.1 80.4502 1656.25 103.277 1691.07 124.78L1695.9 127.753C1797.24 190.078 1902.92 246.966 2011.08 299.146L2018.36 302.65C2035.37 310.812 2052.46 318.849 2069.61 326.762L2076.96 330.145C2084.32 333.52 2091.69 336.873 2099.08 340.205C2102.18 341.602 2106.75 342.951 2111.52 344.632C2115.93 346.184 2120.58 348.045 2123.44 350.473C2127.87 352.265 2132.32 354.034 2136.78 355.769L2141.35 357.53L2141.37 357.538C2141.46 357.574 2141.55 357.609 2141.66 357.649C2141.76 357.688 2141.88 357.732 2141.99 357.777C2143.01 358.17 2144.25 358.737 2145.57 359.358L2145.61 359.383C2149.19 361.072 2153.41 363.188 2156.84 364.186L2156.9 364.203C2158.18 364.573 2159.2 364.738 2159.94 364.716L2162 364.655V368.617Z" fill="#F6C23E" stroke="#1E1E1E" stroke-width="4"/>
<path d="M1461.76 10.166C1483.93 13.3209 1505.37 20.6868 1526.04 29.8184L1528.06 30.7188C1544.37 38.0281 1559.98 47.3611 1575.35 56.459L1581.92 60.3369C1617.2 81.0505 1651.04 103.637 1685.75 125.168L1689.11 127.248C1789.88 189.451 1894.99 246.225 2002.59 298.297L2007.71 300.772C2024.63 308.93 2041.62 316.963 2058.67 324.873L2065.98 328.256C2073.3 331.629 2080.63 334.981 2087.98 338.311L2095.33 341.634C2098.53 343.079 2103.35 344.514 2107.9 346.114C2112.5 347.734 2116.81 349.518 2119.19 351.666L2119.26 351.726L2119.34 351.758C2123.86 353.586 2128.4 355.391 2132.96 357.161L2137.52 358.919C2138.84 359.494 2140.16 360.069 2141.48 360.641L2141.49 360.646L2141.57 360.679C2145.29 362.283 2149.02 363.872 2152.75 365.443C2102.24 368.013 2050.91 367.529 1999.52 366.604C1947.41 365.666 1895.22 364.276 1843.8 365.17C1729.06 364.602 1482.87 366.218 1373.18 366.731C1411.94 358.057 1459.9 346.409 1504.02 330.568C1549.13 314.37 1590.32 293.762 1613.53 267.408L1614.62 266.149C1624.94 254.06 1629.06 243.037 1628.82 232.819C1628.58 222.609 1624 213.29 1617.09 204.599C1610.18 195.909 1600.91 187.81 1591.24 180.035C1582.15 172.732 1572.74 165.73 1564.51 158.755L1562.88 157.359C1540.6 138.091 1520.68 116.55 1504.32 92.9502L1502.75 90.6592C1485.71 65.5812 1472.72 37.9531 1461.76 10.166ZM2141.55 360.668L2141.54 360.667C2141.54 360.666 2141.54 360.664 2141.53 360.663V360.661C2141.54 360.663 2141.54 360.666 2141.55 360.668Z" fill="#E7A933" stroke="black"/>
<path d="M2755.51 471.619L2753.63 471.729C2753.03 471.763 2752.44 471.796 2751.84 471.831V471.832C2705.58 474.535 2658.58 474.047 2611.61 473.108C2564.61 472.169 2517.65 470.781 2471.38 471.674H2471.33C2366.47 471.097 2139.75 472.769 2043.1 473.257V473.258C2029.41 473.329 1991.25 473.329 1956.53 473.312C1939.17 473.303 1922.66 473.288 1910.49 473.277C1904.41 473.272 1899.41 473.267 1895.93 473.264C1894.19 473.262 1892.83 473.261 1891.91 473.26L1890.86 473.258C1888.55 474.069 1886.07 473.926 1883.91 473.258H1825.32C1823.79 474.025 1822.09 474.003 1821.01 474V473.999C1775.34 473.953 1729.67 473.972 1684 473.961H1682V355.839L1683.58 355.497C1734.9 344.365 1778.49 313.96 1819.96 282.545L1959.87 176.561L1963.11 174.125C1970.68 168.475 1978.36 163.046 1986.24 157.777L1988.99 155.946C2017.46 137.054 2048.72 118.967 2082.93 112.263L2084.33 111.997C2098.76 109.347 2112.89 109.468 2126.68 111.571C2147.92 114.809 2168.36 122.748 2187.9 132.472L2189.49 133.271C2205.86 141.6 2221.48 152.333 2236.67 162.23L2239.75 164.241C2271.48 185.085 2302.11 207.796 2333.31 229.172L2337.64 232.128C2428.48 294.103 2523.22 350.672 2620.17 402.559L2626.7 406.045C2641.95 414.16 2657.26 422.152 2672.64 430.021C2681.42 434.515 2690.23 438.971 2699.06 443.389C2701.82 444.77 2705.88 446.097 2710.18 447.779C2714.12 449.318 2718.33 451.179 2720.92 453.611C2724.88 455.387 2728.86 457.14 2732.84 458.858L2736.94 460.61L2736.95 460.615L2736.96 460.619L2737.21 460.729C2737.3 460.767 2737.41 460.811 2737.51 460.857C2738.44 461.254 2739.56 461.823 2740.74 462.44C2740.75 462.444 2740.75 462.448 2740.76 462.452C2740.77 462.455 2740.77 462.458 2740.78 462.462C2743.99 464.149 2747.75 466.231 2750.79 467.214L2750.85 467.235C2751.98 467.599 2752.85 467.748 2753.45 467.729L2755.51 467.661V471.619Z" fill="#F6C23E" stroke="#1E1E1E" stroke-width="4"/>
<path d="M2751.72 469.835C2659.37 475.232 2563.99 467.887 2471.34 469.674C2366.47 469.097 2139.73 470.769 2043.09 471.258C2114.29 453.711 2223.2 423.529 2264.48 369.828C2301.46 321.727 2248.92 291.519 2217.9 261.741C2197.16 241.827 2178.67 219.483 2163.64 194.944C2148.11 169.583 2136.32 141.627 2126.38 113.552C2147.34 116.746 2167.57 124.592 2187.01 134.266C2203.83 142.634 2219.84 153.65 2235.58 163.91C2268.4 185.292 2299.87 208.689 2332.18 230.826C2424.41 294.006 2520.68 351.586 2619.23 404.326C2636.64 413.647 2654.14 422.807 2671.73 431.805C2680.52 436.302 2689.33 440.761 2698.16 445.181C2703.9 448.049 2715.33 450.847 2719.78 455.298C2725.22 457.735 2730.67 460.13 2736.16 462.455C2737.37 463.043 2738.59 463.631 2739.81 464.216C2739.81 464.216 2739.82 464.22 2739.82 464.223C2743.29 465.88 2746.76 467.521 2750.24 469.143C2750.73 469.374 2751.23 469.605 2751.72 469.835Z" fill="#E7A933"/>
</g>
<mask id="mask1_269_276" style="mask-type:luminance" maskUnits="userSpaceOnUse" x="1877" y="574" width="7" height="7">
<path d="M1883.5 580.721H1877.5V574.479H1883.5V580.721Z" fill="white"/>
</mask>
<g mask="url(#mask1_269_276)">
<path d="M1878.33 575.032C1876.91 576.434 1877.23 580.884 1879.95 580.717C1881.21 580.639 1883.45 578.91 1883.5 577.568C1883.56 575.896 1880.03 573.349 1878.33 575.032H1878.33Z" fill="#080705"/>
</g>
<path d="M0 320L3455 320" stroke="#1E1E1E" stroke-width="4"/>
<path d="M1132.09 665.981C1136.93 664.869 1146.53 665.235 1147.09 671.486C1148.27 684.662 1122.03 682.642 1125.28 671.726C1125.84 669.832 1130.1 666.44 1132.09 665.986V665.981Z" fill="#EBB62B"/>
<path d="M1187.44 623.209C1200.25 621.127 1209.04 635.377 1193.34 637.496C1177.51 639.63 1174.88 625.254 1187.44 623.209Z" fill="#EBB62B"/>
<path d="M1593.15 664.49C1598.22 663.629 1607.5 663.123 1608.12 669.964C1608.93 678.824 1598.66 679.879 1591.92 678.783C1582.57 677.269 1582.42 666.306 1593.15 664.49Z" fill="#EBB62B"/>
<path d="M1386.16 769.266C1400.88 766.751 1405.71 782.901 1391.09 783.673C1377.89 784.372 1374.39 771.275 1386.16 769.266Z" fill="#EBB62B"/>
<mask id="mask2_269_276" style="mask-type:luminance" maskUnits="userSpaceOnUse" x="1833" y="680" width="511" height="154">
<path d="M2343.23 680H1833V833.512H2343.23V680Z" fill="white"/>
</mask>
<g mask="url(#mask2_269_276)">
<path d="M2291.01 785.969C2297.45 785.52 2305.74 785.787 2304.94 794.173C2304.42 799.62 2297.46 800.869 2292.82 801.408C2265.81 804.551 2266.77 787.654 2291.01 785.969Z" fill="#EBB62B"/>
<path d="M1985.75 692.88C1999.62 690.032 2020.63 703.122 2001.43 708.552C1983.98 713.494 1968.26 696.472 1985.75 692.88Z" fill="#EBB62B"/>
<path d="M2238.79 741.615C2252.14 739.771 2260.43 754.62 2241.8 757.179C2224.2 759.596 2223.28 743.759 2238.79 741.615Z" fill="#EBB62B"/>
<path d="M2327.23 680.397C2342.53 677.288 2349.55 693.323 2336.07 694.906C2332.64 695.309 2325.23 695.405 2322.38 693.805C2314.3 689.254 2320.48 681.77 2327.23 680.397Z" fill="#EBB62B"/>
</g>
<path d="M2353.96 469.158C2367.3 467.314 2375.59 482.163 2356.96 484.722C2339.37 487.139 2338.44 471.303 2353.96 469.158Z" fill="#EBB62B"/>
<path d="M1727.98 788.195C1742.94 786.011 1746.15 802.812 1732.12 804.86C1712.37 807.748 1713.02 790.38 1727.98 788.195Z" fill="#EBB62B"/>
<path d="M1782.57 437.17C1795.61 435.266 1798.41 449.91 1786.18 451.696C1768.96 454.213 1769.53 439.074 1782.57 437.17Z" fill="#EBB62B"/>
<mask id="mask3_269_276" style="mask-type:luminance" maskUnits="userSpaceOnUse" x="1763" y="208" width="37" height="37">
<path d="M1763 208H1800V245H1763V208Z" fill="white"/>
</mask>
<g mask="url(#mask3_269_276)">
<path d="M1788.1 222.39C1788.12 222.355 1788.07 222.208 1788.1 222.192C1788.15 222.159 1788.36 222.236 1788.47 222.169C1788.55 222.123 1789.48 220.987 1789.65 220.798C1791.58 218.669 1792.77 216.606 1793.24 213.8C1793.51 212.226 1793.32 210.763 1791.91 209.791C1790.76 208.998 1790.05 209.251 1788.84 209.673C1784.14 211.306 1784.16 215.661 1783.82 219.937C1783.75 220.819 1783.51 221.69 1783.62 222.591C1783.79 222.57 1784.28 222.491 1784.37 222.491H1785.86C1785.9 222.491 1786.08 222.386 1786.25 222.382C1786.6 222.377 1787.94 222.646 1788.1 222.39Z" fill="#B7CFD4"/>
<path d="M1764.71 214.243C1764.7 214.272 1764.52 214.26 1764.47 214.628C1763.68 219.691 1770.8 223.639 1774.78 224.952C1776.39 225.485 1778.13 225.941 1779.83 225.857C1780.04 225.643 1778.84 223.472 1778.64 223.111C1778.29 222.487 1777.7 221.473 1777.26 220.896C1777.11 220.691 1776.75 220.476 1776.72 220.442C1776.66 220.347 1776.54 219.906 1776.41 219.758C1775.67 218.867 1775.01 218.012 1774.14 217.188C1773.06 216.156 1772.11 214.874 1770.87 213.877C1769.48 212.746 1766.65 211.161 1765.16 212.898C1765.06 213.017 1764.67 213.635 1764.65 213.751C1764.61 213.95 1764.75 214.146 1764.71 214.243Z" fill="#B7CFD4"/>
<path d="M1784.6 223.697C1784.61 223.71 1784.68 223.744 1784.7 223.786L1783.44 223.969C1782.69 224.184 1782.49 224.234 1781.89 224.537C1781.4 224.784 1781.11 224.732 1780.74 225.233C1780.87 225.301 1780.67 225.456 1780.65 225.635C1780.59 226.257 1780.78 226.989 1780.56 227.582C1780.73 228.54 1781.41 229.964 1782 230.743L1782.81 231.466C1783.07 231.766 1783.36 231.863 1783.71 232.008C1784.2 232.214 1784.89 232.422 1785.41 232.549C1787.48 233.057 1789.64 232.164 1790.44 230.201C1790.88 229.118 1791.14 228.039 1790.89 226.858C1790.6 225.805 1789.55 224.483 1788.62 224.09C1788.51 224.041 1788.42 223.973 1788.4 223.969C1788.24 223.934 1788.01 223.955 1787.88 224.056L1787.92 223.879C1787.81 223.864 1787.68 223.896 1787.56 223.879C1786.58 223.714 1785.73 223.738 1784.78 223.607C1784.74 223.602 1784.69 223.611 1784.65 223.608C1784.6 223.626 1784.6 223.655 1784.6 223.697H1784.6Z" fill="#302312"/>
<path d="M1778.04 228.881C1776.13 230.191 1774.37 231.456 1773.22 233.498C1772.9 234.055 1772.39 235.213 1772.64 235.832C1773.12 237.055 1776.13 237.255 1777.2 236.922C1778.64 236.473 1779.86 234.831 1780.34 233.483C1780.41 233.282 1780.6 232.797 1780.56 232.615C1780.49 232.315 1779.57 231.422 1779.35 231C1779.24 230.778 1779.18 230.436 1779.1 230.218C1778.9 229.693 1778.64 229.181 1778.57 228.61C1778.53 228.569 1778.12 228.828 1778.04 228.881H1778.04Z" fill="#35372D"/>
<path d="M1763.14 214.604C1763.35 213.73 1764 212.483 1764.66 211.867C1767.35 209.335 1771.16 211.307 1773.46 213.316C1774.27 214.03 1775.37 215.088 1776.09 215.892C1776.59 216.445 1777.23 217.282 1777.69 217.885C1778.75 219.28 1779.83 220.867 1780.5 222.489C1780.57 222.54 1781.98 221.97 1782.01 221.727C1782.06 218.652 1781.91 215.134 1783.37 212.35C1783.95 211.24 1785.18 209.784 1786.25 209.131C1787.31 208.485 1789.53 207.867 1790.75 208.025C1792.31 208.228 1794.19 209.651 1794.73 211.143C1794.76 211.24 1794.77 211.417 1794.81 211.545C1794.86 211.718 1795.05 212.361 1795.05 212.471V214.322C1795.05 215.777 1793.67 218.731 1792.84 219.908C1792.17 220.855 1791.3 221.635 1790.57 222.53C1791.49 223.144 1792.42 224.013 1792.65 225.149C1794.15 224.823 1795.64 224.163 1797.11 223.803C1797.42 223.728 1797.78 223.623 1798.09 223.619C1798.98 223.607 1799.45 224.199 1799.21 225.068C1798.89 226.209 1796.65 226.356 1795.63 226.656C1795.01 226.837 1793.31 227.123 1793.42 227.945C1793.51 228.547 1793.11 228.989 1793.06 229.535C1793.79 229.636 1794.52 229.546 1795.25 229.576C1796.12 229.612 1797.24 229.678 1798.11 229.841C1798.37 229.891 1798.99 230.029 1799.21 230.14C1799.82 230.458 1800.16 231.423 1799.93 232.071C1799.67 232.264 1799.62 232.37 1799.29 232.474C1799.16 232.513 1799.02 232.552 1798.89 232.554C1798.2 232.565 1797.18 232.128 1796.37 232.072C1795.57 232.017 1794.76 232.021 1793.96 232.061C1793.55 232.081 1793.14 232.111 1792.74 232.148C1792.5 232.17 1791.91 232.121 1791.75 232.332C1791.51 232.64 1791.23 232.876 1790.96 233.146C1790.74 233.353 1790.43 233.661 1790.54 233.995C1790.99 235.35 1791.9 237.454 1792.56 238.726C1792.97 239.517 1794.13 240.768 1794.01 241.603C1793.9 242.353 1792.98 242.658 1792.33 242.415C1791.79 242.212 1791.13 241 1790.83 240.466C1789.8 238.678 1789.06 236.661 1788.32 234.738C1788.27 234.611 1787.23 234.97 1787.1 235.004C1786.59 235.132 1786.06 235.252 1785.53 235.204C1785.2 235.173 1783.83 234.387 1783.78 234.97C1783.67 236.303 1783.55 237.637 1783.58 238.976C1783.61 240.334 1783.78 241.682 1784.01 243.019C1784.02 243.07 1784.01 243.129 1784.01 243.18C1784.1 243.704 1784.19 244.096 1783.82 244.552C1783.48 244.963 1782.91 245.084 1782.41 244.951C1782.36 244.936 1782.17 244.68 1782.01 244.709C1781.94 244.568 1781.82 244.359 1781.77 244.226C1781.74 244.123 1781.64 243.835 1781.61 243.744C1781.59 243.654 1781.54 243.52 1781.53 243.502C1781.52 243.431 1781.55 243.334 1781.53 243.261C1781.46 242.857 1781.42 242.386 1781.37 241.973C1781.32 241.552 1781.25 241.086 1781.21 240.685C1781.12 239.436 1781.07 238.146 1781.21 236.902C1779.89 238.266 1778.96 240.29 1778.33 242.092C1778.12 242.715 1777.93 243.8 1777.71 244.285C1777.58 244.584 1777.15 244.746 1777.06 244.951C1776.68 244.941 1776.3 244.998 1775.94 244.87C1775.52 244.721 1775.27 244.048 1775.34 243.648C1775.39 243.41 1775.51 243.196 1775.62 242.979C1776.02 242.17 1776.11 241.271 1776.46 240.446C1776.54 240.242 1776.99 239.531 1776.89 239.397C1776.84 239.324 1776.01 239.431 1775.88 239.432C1775.49 239.433 1775.1 239.421 1774.71 239.387C1773.95 239.32 1773.18 239.177 1772.48 238.87C1770.77 238.122 1770.01 236.41 1770.35 234.585C1770.76 232.418 1772.29 230.519 1773.85 229.053C1774.54 228.408 1775.31 227.808 1776.09 227.284C1775.97 227.367 1774.97 226.988 1774.82 226.947C1771.21 226.007 1767.25 224.229 1764.98 221.127C1763.69 219.366 1762.61 216.813 1763.14 214.607V214.604ZM1791.74 217.051C1792.22 216.062 1792.56 214.984 1792.67 213.889C1792.79 212.761 1792.52 211.908 1791.72 211.093C1791.42 210.79 1791.09 210.508 1790.68 210.395C1789.73 210.133 1788.48 210.617 1787.67 211.095C1786.82 211.596 1786.09 212.317 1785.6 213.183C1784.92 214.378 1784.64 215.758 1784.5 217.112C1784.43 217.8 1784.39 218.492 1784.36 219.184C1784.34 219.902 1784.27 220.653 1784.42 221.362C1784.47 221.358 1784.52 221.337 1784.58 221.319C1785.35 221.079 1786.34 221.138 1787.12 221.177C1787.43 221.192 1787.75 221.219 1788.05 221.177C1788.9 221.059 1789.65 220.076 1790.17 219.467C1790.79 218.734 1791.32 217.92 1791.74 217.052V217.051ZM1781.98 229.816C1783.53 232.231 1787.33 233.169 1789.41 230.864C1790.87 229.241 1790.78 226.864 1789.32 225.29C1788.45 224.363 1787.2 224.154 1785.97 224.124C1785.61 224.115 1785.25 224.131 1784.9 224.171C1783.57 224.318 1780.99 224.82 1781.03 226.589C1781.05 227.719 1781.37 228.865 1781.98 229.816ZM1773.22 233.498C1772.9 234.055 1772.39 235.213 1772.64 235.832C1773.12 237.055 1776.13 237.255 1777.2 236.921C1778.64 236.472 1779.86 234.83 1780.34 233.483C1780.41 233.282 1780.6 232.796 1780.56 232.615C1780.49 232.315 1779.57 231.422 1779.35 231C1779.24 230.778 1779.18 230.436 1779.1 230.218C1778.9 229.693 1778.64 229.181 1778.57 228.61C1778.53 228.569 1778.12 228.828 1778.04 228.881C1776.13 230.191 1774.37 231.456 1773.22 233.498ZM1765.7 217.295C1766.85 221.235 1772.92 224.137 1776.65 224.787C1777.05 224.857 1778.34 225.082 1778.62 224.91C1778.71 224.858 1778.8 224.724 1778.82 224.62C1778.88 224.167 1777.61 221.935 1777.29 221.445C1777.16 221.238 1776.85 221.018 1776.81 220.721C1776.82 220.722 1776.82 220.723 1776.82 220.723C1776.82 220.723 1776.82 220.723 1776.81 220.721C1774.89 218.419 1771.27 213.39 1768.13 213.084C1765.68 212.846 1765.14 215.375 1765.7 217.295Z" fill="#040507"/>
</g>
<mask id="mask4_269_276" style="mask-type:luminance" maskUnits="userSpaceOnUse" x="1048" y="164" width="110" height="145">
<path d="M1157.38 164H1048V308.232H1157.38V164Z" fill="white"/>
</mask>
<g mask="url(#mask4_269_276)">
<path d="M1121.62 239.733C1121.08 239.787 1120.47 239.693 1119.93 239.733C1120.2 236.534 1120.26 233.334 1120.34 230.131C1120.45 225.913 1120.44 221.714 1120.44 217.502C1120.43 214.357 1120.45 211.211 1120.44 208.066C1121.48 207.501 1124.25 205.754 1124.25 204.453C1124.25 204.032 1123.78 203.832 1123.39 203.909C1122.63 204.059 1121.35 205.24 1120.54 205.533C1120.46 205.423 1120.73 203.186 1120.75 202.816C1121.17 194.209 1121.38 178.678 1115.86 171.65C1115.25 170.875 1114.65 170.289 1113.77 169.837C1114.19 169.027 1116.03 167.064 1115.05 166.196C1113.87 165.148 1112.74 167.49 1112.28 168.25C1106.48 162.642 1096.5 162.489 1090.81 168.353C1087.54 171.726 1085.5 176.748 1084.19 181.192C1083.37 180.801 1080.48 178.174 1080.02 180.062C1079.91 180.521 1080.34 180.972 1080.65 181.285C1081.43 182.064 1082.58 182.583 1083.44 183.277L1083.56 183.603C1083.33 184.391 1083.14 185.194 1082.99 186.001C1081.19 195.609 1080.89 205.586 1081.21 215.342C1081.26 217.008 1081.32 218.657 1081.41 220.323C1078.12 220.045 1076.15 217.626 1075.04 214.727C1074.71 213.845 1074.11 212.131 1074.02 211.233C1073.92 210.178 1074.2 209.008 1074.23 207.951C1074.39 201.705 1074.28 192.74 1068.13 189.186C1062.91 186.166 1057.52 188.824 1054.56 193.517C1054.46 193.538 1053.32 192.262 1053.06 192.136C1052.77 191.995 1051.97 191.856 1051.74 192.142C1051.24 192.771 1051.75 193.548 1052.14 194.082C1052.36 194.374 1053.58 195.431 1053.57 195.604C1053.55 195.776 1053.15 196.387 1053.05 196.632C1051.23 201.053 1050.9 205.76 1051.11 210.519C1051.18 211.97 1051.5 213.424 1051.53 214.88C1050.52 214.799 1049.54 214.39 1048.55 214.722C1048 214.904 1047.92 215.148 1048.06 215.731C1048.38 217.127 1051.74 216.787 1051.99 217.134C1052.89 223.163 1054.92 228.495 1058.92 233.106C1060.73 235.185 1062.9 237.311 1065.39 238.502C1065.11 239.552 1061.56 241.077 1063.14 242.243C1064.65 243.357 1066.31 240.427 1067.5 239.833C1068.7 240.109 1069.79 240.673 1070.98 240.979C1074.41 241.864 1078.42 241.838 1081.82 240.863L1082.23 255.035C1081.38 254.552 1077.88 251.773 1078.02 254.268C1078.05 254.821 1078.41 255.098 1078.8 255.443C1079.88 256.406 1081.24 257.047 1082.42 257.876C1082.51 260.814 1082.47 263.758 1082.54 266.696C1082.58 268.488 1082.72 270.339 1082.75 272.131C1082.78 273.822 1082.64 275.549 1082.85 277.218C1081.81 276.852 1080.89 276.074 1079.84 275.659C1079.08 275.36 1077.52 274.812 1077.72 276.235C1077.86 277.237 1080.34 278.375 1081.2 278.922C1081.8 279.3 1082.34 279.763 1082.96 280.058C1082.91 281.906 1083.15 283.749 1083.26 285.589C1083.52 289.872 1083.58 294.819 1084.44 298.994C1086.33 308.156 1096.07 308.517 1103.76 308.136C1110.51 307.8 1115.53 305.723 1117.21 298.684C1118.5 293.253 1118.18 287.238 1118.28 281.682L1118.51 278.313C1119.29 277.472 1123.63 274.825 1123.81 273.969C1123.87 273.661 1123.37 272.999 1123.08 272.877C1122.56 272.659 1121.61 273.428 1121.09 273.606L1118.69 275.163C1119.01 271.445 1119.33 267.668 1119.21 263.913C1119.21 263.715 1119.13 263.544 1119.11 263.354C1124.56 263.395 1130.29 262.417 1135.27 260.155C1137.05 259.344 1138.61 258.334 1140.21 257.22C1140.99 257.783 1142.04 259.392 1142.99 259.546C1143.64 259.651 1144.05 259.622 1144.07 258.886C1144.09 258.105 1143.5 257.488 1143.03 256.937C1142.87 256.753 1142.11 256.117 1142.21 255.96C1144.22 254.669 1145.82 252.539 1147.17 250.589C1150.67 245.518 1152.86 239.848 1153.46 233.674C1154.32 233.17 1157.4 231.908 1157.38 230.763C1157.34 228.564 1153.87 231.155 1153.72 231.001C1153.77 230.647 1153.89 230.279 1153.92 229.922C1154.49 224.081 1154.2 215.543 1150.99 210.47C1150.66 209.946 1150.23 209.501 1149.91 208.973C1150.36 208.308 1150.82 207.647 1151.13 206.904C1151.38 206.334 1151.68 205.96 1151.11 205.466C1150.45 204.89 1149.8 205.637 1149.35 206.147C1149.15 206.376 1148.47 207.513 1148.33 207.48C1148.23 207.458 1147.08 206.417 1146.81 206.228C1143.17 203.674 1139.41 204.142 1136.11 206.973C1129.69 212.469 1131.66 224.58 1129.74 232.235C1128.8 235.942 1125.56 239.332 1121.62 239.732L1121.62 239.733Z" fill="#FAFAFA"/>
<path d="M1121.62 239.733C1125.56 239.334 1128.8 235.943 1129.73 232.237C1131.66 224.582 1129.69 212.47 1136.11 206.974C1139.41 204.143 1143.17 203.675 1146.81 206.229C1147.07 206.418 1148.23 207.459 1148.33 207.481C1148.47 207.514 1149.15 206.378 1149.35 206.148C1149.8 205.638 1150.45 204.891 1151.11 205.468C1151.68 205.961 1151.38 206.335 1151.13 206.905C1150.82 207.649 1150.36 208.309 1149.91 208.974C1150.23 209.502 1150.65 209.948 1150.98 210.472C1154.19 215.544 1154.49 224.082 1153.92 229.924C1153.88 230.28 1153.77 230.649 1153.72 231.003C1153.87 231.157 1157.34 228.565 1157.38 230.764C1157.4 231.909 1154.32 233.171 1153.46 233.675C1152.86 239.849 1150.67 245.519 1147.16 250.591C1145.82 252.541 1144.22 254.67 1142.21 255.961C1142.11 256.118 1142.87 256.754 1143.03 256.938C1143.5 257.489 1144.09 258.106 1144.07 258.887C1144.05 259.623 1143.64 259.652 1142.99 259.547C1142.03 259.394 1140.99 257.784 1140.21 257.221C1138.61 258.335 1137.05 259.345 1135.26 260.156C1130.29 262.419 1124.56 263.397 1119.1 263.355C1119.13 263.545 1119.21 263.717 1119.21 263.914C1119.33 267.67 1119.01 271.446 1118.69 275.165L1121.09 273.607C1121.61 273.428 1122.56 272.66 1123.08 272.878C1123.37 273 1123.87 273.662 1123.81 273.97C1123.63 274.826 1119.28 277.474 1118.5 278.315L1118.28 281.683C1118.17 287.24 1118.5 293.255 1117.21 298.686C1115.53 305.725 1110.51 307.802 1103.75 308.137C1096.07 308.518 1086.33 308.157 1084.44 298.996C1083.58 294.821 1083.52 289.873 1083.26 285.591C1083.15 283.75 1082.91 281.907 1082.96 280.06C1082.33 279.764 1081.79 279.302 1081.2 278.923C1080.34 278.376 1077.86 277.238 1077.72 276.236C1077.52 274.813 1079.08 275.362 1079.84 275.661C1080.89 276.076 1081.8 276.853 1082.85 277.219C1082.64 275.551 1082.78 273.823 1082.75 272.132C1082.72 270.34 1082.58 268.49 1082.54 266.697C1082.47 263.759 1082.51 260.815 1082.42 257.877C1081.24 257.049 1079.88 256.407 1078.8 255.444C1078.41 255.098 1078.05 254.823 1078.02 254.269C1077.88 251.774 1081.38 254.553 1082.23 255.037L1081.82 240.864C1078.42 241.839 1074.41 241.865 1070.97 240.98C1069.79 240.674 1068.7 240.11 1067.5 239.835C1066.31 240.428 1064.64 243.359 1063.14 242.245C1061.56 241.078 1065.1 239.554 1065.39 238.504C1062.89 237.312 1060.73 235.186 1058.92 233.108C1054.92 228.496 1052.89 223.165 1051.99 217.135C1051.74 216.789 1048.38 217.128 1048.06 215.732C1047.92 215.15 1048 214.906 1048.55 214.724C1049.54 214.391 1050.52 214.8 1051.53 214.881C1051.5 213.425 1051.18 211.971 1051.11 210.52C1050.89 205.761 1051.23 201.054 1053.05 196.633C1053.15 196.388 1053.55 195.774 1053.56 195.605C1053.58 195.436 1052.36 194.375 1052.14 194.083C1051.75 193.549 1051.24 192.773 1051.74 192.143C1051.97 191.857 1052.77 191.996 1053.06 192.138C1053.32 192.264 1054.45 193.54 1054.55 193.518C1057.52 188.825 1062.91 186.167 1068.13 189.188C1074.28 192.741 1074.39 201.707 1074.23 207.953C1074.2 209.009 1073.92 210.18 1074.02 211.234C1074.1 212.132 1074.7 213.846 1075.04 214.728C1076.15 217.627 1078.12 220.047 1081.41 220.324C1081.32 218.658 1081.26 217.009 1081.21 215.344C1080.89 205.588 1081.19 195.611 1082.99 186.002C1083.14 185.196 1083.33 184.392 1083.56 183.605L1083.43 183.278C1082.58 182.584 1081.43 182.065 1080.65 181.286C1080.34 180.973 1079.91 180.522 1080.02 180.064C1080.48 178.176 1083.37 180.803 1084.18 181.194C1085.49 176.749 1087.54 171.727 1090.81 168.355C1096.5 162.49 1106.48 162.643 1112.27 168.251C1112.74 167.492 1113.87 165.15 1115.05 166.197C1116.03 167.065 1114.19 169.029 1113.76 169.839C1114.65 170.29 1115.25 170.876 1115.86 171.651C1121.38 178.679 1121.17 194.211 1120.75 202.817C1120.73 203.187 1120.46 205.424 1120.54 205.534C1121.35 205.242 1122.63 204.061 1123.39 203.91C1123.78 203.833 1124.25 204.034 1124.25 204.454C1124.25 205.756 1121.47 207.502 1120.43 208.068C1120.45 211.212 1120.43 214.358 1120.43 217.503C1120.44 221.715 1120.44 225.914 1120.34 230.133C1120.26 233.335 1120.2 236.535 1119.92 239.734C1120.47 239.695 1121.08 239.789 1121.62 239.734L1121.62 239.733ZM1110.67 170.932C1110.66 170.911 1110.23 170.738 1110.2 170.737C1110.07 170.728 1109.99 170.898 1109.86 170.878C1109.44 170.818 1107.17 169.171 1106.46 168.83C1103.9 167.605 1101.22 167.439 1098.46 168.097C1093.13 169.37 1090.34 174.593 1088.52 179.319C1088.15 180.287 1087.17 182.737 1087.08 183.637C1087.02 184.205 1088.17 184.86 1088.28 185.482C1088.34 185.843 1087.99 186.14 1088.09 186.535C1087.48 186.593 1086.99 186.205 1086.45 186.021C1086.21 187.967 1085.79 189.894 1085.53 191.838C1084.26 201.614 1084.45 210.579 1084.81 220.37C1084.83 221.084 1084.77 221.805 1084.81 222.519C1084.14 222.853 1083.95 223.314 1083.11 223.404C1077.16 224.042 1073.23 219.774 1071.71 214.468C1069.87 208.044 1072.93 198.639 1068.06 193.36C1064.23 189.208 1059.19 191.835 1056.88 196.034C1057.28 196.599 1058.56 197.258 1058.34 198.015C1058.04 199.092 1056.67 198.331 1056.15 197.83C1053.95 203.485 1054.42 209.747 1055.35 215.629C1055.83 216.088 1057.65 216.924 1057.69 217.609C1057.75 218.68 1055.98 217.674 1055.74 217.858C1056.32 220.22 1056.89 222.573 1057.87 224.807C1059.49 228.465 1062.13 231.881 1065.24 234.389C1065.69 234.755 1067.88 236.347 1068.31 236.351C1069.04 236.36 1069.75 235.349 1070.42 236.19C1070.83 236.703 1070.64 237.227 1070.67 237.272C1070.74 237.361 1071.73 237.597 1071.94 237.646C1074.93 238.35 1078.94 238.413 1081.84 237.342C1082.65 237.043 1082.56 236.706 1083.06 236.402C1083.99 235.844 1084.61 236.454 1084.7 237.417C1084.92 239.726 1084.64 242.538 1084.69 244.923C1084.74 246.925 1084.95 248.973 1085.01 250.974C1085.07 252.918 1084.83 254.941 1085.21 256.831C1085.93 257.229 1088.08 258.662 1088.1 259.501C1088.1 259.755 1087.93 260.02 1087.73 260.172C1086.86 260.843 1085.89 259.77 1085.11 259.503C1085.28 266.008 1085.3 272.514 1085.83 278.995C1086.37 279.501 1087.91 280.542 1087.99 281.273C1088.06 281.889 1087.76 282.215 1087.14 282.128C1086.98 282.106 1086.05 281.663 1086.03 281.79C1086.03 283.41 1086.3 285.016 1086.45 286.617C1086.76 290.152 1087.04 298.183 1088.82 300.976C1091.77 305.576 1102.39 305.434 1107.09 304.388C1114.48 302.746 1114.66 297.34 1115 290.931C1115.11 288.716 1115.22 286.475 1115.31 284.259C1115.36 282.977 1115.37 281.685 1115.41 280.403C1114.83 280.701 1113.45 281.777 1112.93 280.976C1112.21 279.855 1114.83 277.943 1115.59 277.356C1116.24 272.742 1115.76 268.018 1116.13 263.407C1116.21 262.388 1116.38 258.34 1118.18 259.609C1118.35 259.731 1118.49 260.055 1118.56 260.07C1120.06 260.419 1123.29 260.073 1124.89 259.848C1129.57 259.192 1134.14 257.368 1138.21 255.034C1137.86 254.524 1136.21 253.133 1136.37 252.542C1136.42 252.381 1136.88 251.919 1136.94 251.638C1138.28 251.776 1139.22 252.808 1140 253.801C1142.52 251.776 1144.53 249.07 1146.13 246.272C1147.8 243.368 1148.94 240.342 1149.66 237.064C1149.69 236.902 1150.13 234.958 1149.97 235.01C1149.32 235.626 1147.54 235.495 1147.78 234.366C1147.92 233.678 1149.84 232.997 1150.38 232.546C1150.72 230.553 1150.71 228.549 1150.73 226.532C1150.76 224.091 1150.78 221.699 1150.41 219.259C1150.04 216.742 1149.32 214.241 1147.91 212.108C1147.78 212.108 1146.99 214.101 1146.18 214.034C1144.63 213.904 1146.04 211.213 1146.43 210.517C1145.16 209.163 1143.8 207.803 1141.75 207.892C1140.74 207.936 1139.8 208.372 1138.99 208.94C1131.1 214.521 1135.98 229.84 1130.49 237.506C1127.94 241.061 1123.86 243.005 1119.46 242.717C1118.96 242.684 1116.99 242.404 1116.75 242.034L1117.26 209.797C1117.08 209.664 1116.9 209.928 1116.68 209.95C1116.21 209.999 1115.58 209.444 1115.6 208.974C1115.63 208.402 1116.8 207.787 1117.26 207.519C1117.12 199.684 1117.67 191.682 1116.42 183.931C1115.96 181.072 1115.11 177.668 1113.71 175.131C1113.26 174.309 1112.62 173.598 1112.22 172.772L1111.2 174.466C1110.62 175.102 1109.76 175.347 1109.5 174.314C1109.24 173.313 1110.85 171.175 1110.67 170.932H1110.67Z" fill="#1E1E1E"/>
<path d="M1110.67 170.933C1110.85 171.176 1109.24 173.312 1109.5 174.314C1109.76 175.347 1110.62 175.102 1111.2 174.466L1112.22 172.773C1112.63 173.599 1113.26 174.309 1113.72 175.132C1115.12 177.669 1115.96 181.072 1116.42 183.931C1117.67 191.682 1117.12 199.684 1117.26 207.52C1116.8 207.787 1115.63 208.403 1115.6 208.975C1115.58 209.444 1116.21 209.998 1116.68 209.951C1116.9 209.929 1117.08 209.665 1117.26 209.798L1116.75 242.034C1116.99 242.404 1118.97 242.684 1119.46 242.717C1123.87 243.006 1127.94 241.062 1130.49 237.507C1135.98 229.84 1131.1 214.522 1139 208.94C1139.8 208.373 1140.74 207.936 1141.75 207.892C1143.8 207.803 1145.16 209.163 1146.43 210.517C1146.05 211.214 1144.63 213.904 1146.18 214.034C1146.99 214.102 1147.78 212.109 1147.91 212.109C1149.33 214.241 1150.04 216.742 1150.41 219.259C1150.78 221.699 1150.76 224.091 1150.73 226.532C1150.71 228.549 1150.72 230.553 1150.38 232.547C1149.84 232.998 1147.92 233.678 1147.78 234.366C1147.54 235.495 1149.32 235.626 1149.97 235.01C1150.13 234.959 1149.7 236.903 1149.66 237.064C1148.94 240.342 1147.8 243.368 1146.13 246.273C1144.53 249.071 1142.53 251.776 1140.01 253.802C1139.22 252.809 1138.28 251.776 1136.94 251.638C1136.88 251.92 1136.42 252.382 1136.38 252.543C1136.21 253.134 1137.86 254.525 1138.21 255.034C1134.14 257.369 1129.58 259.193 1124.89 259.848C1123.29 260.073 1120.07 260.419 1118.56 260.071C1118.49 260.055 1118.35 259.732 1118.18 259.61C1116.38 258.341 1116.21 262.388 1116.13 263.407C1115.76 268.018 1116.24 272.743 1115.6 277.356C1114.84 277.943 1112.21 279.855 1112.94 280.976C1113.45 281.778 1114.83 280.702 1115.41 280.404C1115.37 281.686 1115.36 282.977 1115.31 284.259C1115.22 286.475 1115.11 288.717 1115 290.932C1114.66 297.34 1114.48 302.746 1107.09 304.388C1102.39 305.434 1091.77 305.576 1088.83 300.977C1087.04 298.183 1086.76 290.152 1086.45 286.617C1086.3 285.016 1086.03 283.411 1086.04 281.79C1086.05 281.663 1086.98 282.107 1087.14 282.129C1087.76 282.215 1088.06 281.889 1087.99 281.273C1087.91 280.543 1086.37 279.502 1085.83 278.996C1085.3 272.514 1085.28 266.008 1085.11 259.503C1085.9 259.771 1086.87 260.843 1087.73 260.172C1087.93 260.02 1088.1 259.756 1088.1 259.501C1088.08 258.663 1085.93 257.229 1085.21 256.831C1084.83 254.941 1085.07 252.919 1085.01 250.974C1084.95 248.973 1084.74 246.925 1084.69 244.923C1084.64 242.538 1084.92 239.727 1084.7 237.418C1084.61 236.455 1084 235.844 1083.06 236.403C1082.56 236.706 1082.66 237.043 1081.85 237.342C1078.94 238.414 1074.93 238.35 1071.94 237.646C1071.74 237.597 1070.74 237.362 1070.67 237.273C1070.64 237.227 1070.83 236.703 1070.42 236.191C1069.75 235.35 1069.04 236.36 1068.32 236.352C1067.88 236.347 1065.69 234.755 1065.24 234.389C1062.13 231.881 1059.49 228.465 1057.88 224.807C1056.89 222.573 1056.32 220.221 1055.74 217.858C1055.98 217.675 1057.75 218.68 1057.69 217.609C1057.65 216.925 1055.83 216.088 1055.35 215.63C1054.42 209.748 1053.95 203.485 1056.15 197.83C1056.67 198.331 1058.04 199.091 1058.34 198.015C1058.56 197.259 1057.28 196.599 1056.89 196.034C1059.19 191.834 1064.23 189.208 1068.06 193.361C1072.94 198.639 1069.87 208.045 1071.71 214.468C1073.23 219.774 1077.16 224.042 1083.11 223.404C1083.95 223.315 1084.14 222.853 1084.81 222.519C1084.77 221.804 1084.83 221.084 1084.81 220.37C1084.45 210.579 1084.26 201.614 1085.54 191.838C1085.79 189.894 1086.21 187.967 1086.45 186.021C1086.99 186.205 1087.49 186.593 1088.09 186.535C1087.99 186.141 1088.34 185.844 1088.28 185.483C1088.17 184.861 1087.02 184.206 1087.08 183.637C1087.17 182.737 1088.15 180.287 1088.53 179.32C1090.34 174.593 1093.13 169.371 1098.46 168.098C1101.22 167.44 1103.9 167.605 1106.46 168.83C1107.17 169.172 1109.45 170.818 1109.86 170.878C1109.99 170.898 1110.07 170.728 1110.2 170.737C1110.23 170.738 1110.66 170.912 1110.67 170.933ZM1098.95 172.032C1099.02 171.921 1099 171.473 1098.92 171.335C1096.03 172.627 1094.75 176.246 1093.97 179.117C1093.45 181.051 1092.63 184.558 1092.61 186.498C1092.61 186.737 1093.36 187.896 1093.6 187.96C1094.15 188.103 1094.11 186.877 1094.18 186.512C1094.81 183.265 1095.63 179.723 1096.69 176.595C1097.04 175.573 1097.95 172.942 1098.61 172.253C1098.71 172.154 1098.93 172.065 1098.95 172.032ZM1106.16 180.885C1106.51 183.038 1107.31 185.079 1107.67 187.231C1108.13 189.891 1108.22 192.622 1108.32 195.313C1108.55 201.367 1108.63 207.735 1108.53 213.806C1108.52 214.402 1108.13 215.34 1109.19 215.297C1109.67 215.277 1109.75 215.038 1109.89 214.651C1110.18 213.842 1110.33 212.134 1110.38 211.238C1110.67 205.432 1110.61 198.112 1110.17 192.335C1109.93 189.107 1109.6 186.024 1108.3 183.014C1107.86 182.003 1107.38 181.024 1106.16 180.885ZM1100.79 193.539C1100.31 193.684 1100.01 194.59 1100.3 195.015L1103.7 199.117C1104.72 200.1 1105.88 199.034 1105.39 197.832C1105.08 197.059 1102.62 194.353 1101.9 193.826C1101.59 193.595 1101.2 193.418 1100.79 193.539ZM1063.41 194.664C1063.18 194.7 1062.48 195.408 1062.31 195.625C1060.56 197.875 1059.98 204.875 1060.05 207.747C1060.08 209.104 1060.22 211.683 1060.75 212.897C1061.03 213.551 1061.97 214.315 1062.11 213.293C1062.25 212.27 1061.74 210.077 1061.69 208.876C1061.6 206.519 1061.78 203.52 1062.12 201.182C1062.44 198.983 1063.09 197.116 1063.94 195.083C1064.01 194.801 1063.65 194.626 1063.41 194.664ZM1093.46 197.079C1093.4 197.042 1093.46 196.873 1093.38 196.907C1093.31 196.935 1092.43 197.728 1092.36 197.837C1092.14 198.174 1092.07 198.638 1092.01 199.029C1091.29 203.206 1091.27 208.022 1091.17 212.265C1091.03 218.321 1091.02 224.807 1091.48 230.849C1091.54 231.673 1091.83 235.108 1092.29 235.581C1092.55 235.846 1093.06 235.794 1093.27 235.522C1093.82 234.837 1093.36 232.304 1093.32 231.368C1092.9 220.859 1093.42 210.345 1093.53 199.83L1093.74 197.167C1093.73 197.073 1093.57 197.143 1093.46 197.08L1093.46 197.079ZM1121.56 251.038C1121.62 251.115 1120.84 252.157 1122.14 252.359C1124.02 252.651 1127.85 251.239 1129.55 250.329C1140.45 244.486 1143.4 235.333 1143.24 223.451C1143.22 221.441 1143.22 216.269 1141.95 214.786C1141.72 214.518 1140.99 213.971 1140.72 214.359C1140.62 214.502 1140.95 216.304 1140.98 216.678C1141.09 218.206 1141.15 219.97 1141.19 221.499C1141.26 224.286 1141.13 227.086 1141.18 229.874C1140.48 228.954 1138.85 226.715 1137.62 226.609C1136.8 226.538 1136.92 227.324 1137.19 227.858C1137.41 228.284 1138.47 229.277 1138.87 229.883C1139.27 230.511 1139.72 231.726 1140.16 232.184C1140.33 232.36 1140.67 232.472 1140.68 232.502C1140.8 232.955 1139.69 236.159 1139.44 236.807C1138.07 240.478 1136.27 242.933 1133.22 245.379C1129.77 248.153 1125.75 250.14 1121.37 250.928C1121.32 251.108 1121.53 250.993 1121.56 251.038ZM1095.62 221.526C1095.92 221.902 1096.62 221.778 1097.01 221.596C1097.43 221.405 1098.22 220.375 1098.56 219.961C1098.93 219.508 1099.87 218.396 1099.98 217.886C1100.08 217.412 1099.83 216.566 1099.28 216.666C1098.38 216.83 1097.19 218.23 1096.62 218.94C1096.17 219.49 1095.04 220.808 1095.62 221.526ZM1064.43 221.974C1064.29 222.016 1063.97 222.687 1063.96 222.849C1063.85 223.73 1065.16 226.373 1065.66 227.196C1066.8 229.08 1068.15 230.21 1070.15 231.125C1070.71 231.382 1072.06 232.012 1072.61 231.907C1073.07 231.819 1073.69 231.241 1073.25 230.793C1070.23 229.455 1068.05 227.933 1066.42 224.995C1066.02 224.285 1065.58 222.861 1065.17 222.34C1065.05 222.18 1064.62 221.919 1064.43 221.975V221.974ZM1109.83 229.188C1109.12 228.531 1108.5 229.248 1108.42 230.03C1108.18 232.423 1108.32 235.092 1108.22 237.53C1107.96 243.861 1107.64 250.189 1107.49 256.521C1107.48 257.342 1107.18 260.486 1108.8 259.576C1109.29 259.306 1109.33 258.65 1109.42 258.14C1110.39 252.744 1110.2 246.233 1110.27 240.705C1110.31 237.271 1110.52 233.774 1110.17 230.338C1110.14 230.019 1110.06 229.397 1109.83 229.188ZM1102.23 239.035C1101.83 239.157 1101.83 239.733 1101.88 240.066C1101.98 240.877 1104.37 244.772 1105.04 245.222C1106.3 246.06 1106.78 244.901 1106.51 243.758C1106.32 243.016 1104.21 240.16 1103.6 239.576C1103.24 239.235 1102.75 238.875 1102.23 239.035ZM1094.66 271.982C1094.56 269.196 1094.52 266.399 1094.46 263.608C1094.37 258.949 1094.45 254.182 1094.15 249.543C1094.09 248.713 1093.98 246.528 1093.73 245.848C1093.57 245.401 1093.14 245.229 1092.71 245.434C1092.4 245.582 1092.32 246.521 1092.3 246.867C1092.07 250.137 1092.31 253.917 1092.3 257.25C1092.28 267.112 1092.45 277.287 1093.23 287.13C1093.32 288.347 1093.4 290.389 1093.68 291.504C1093.9 292.415 1095.15 292.711 1095.28 291.55C1095.18 288.748 1094.94 285.925 1094.86 283.13C1094.78 280.173 1094.88 277.2 1094.77 274.242C1095.32 274.488 1095.92 273.865 1096.35 273.521C1096.78 273.182 1099.03 271.278 1099.14 270.961C1099.28 270.506 1099.01 269.687 1098.51 269.617C1097.65 269.498 1095.41 271.453 1094.66 271.982H1094.66ZM1106.27 299.301C1106.44 299.484 1107.18 299.261 1107.38 298.926C1107.75 298.305 1108.02 295.141 1108.12 294.217C1108.63 289.319 1108.88 284.255 1109.04 279.327C1109.11 277.257 1109.32 274.717 1108.68 272.701C1108.45 271.99 1108.09 271.634 1107.41 272.15C1107.35 273.174 1107.16 274.198 1107.09 275.219C1106.77 279.632 1106.78 284.053 1106.58 288.471C1106.47 290.874 1105.66 296.916 1106.24 298.866C1106.28 298.992 1106.25 299.282 1106.27 299.301H1106.27Z" fill="#008D36"/>
<path d="M1121.56 251.037C1121.53 250.992 1121.32 251.108 1121.37 250.929C1125.75 250.14 1129.77 248.154 1133.22 245.379C1136.27 242.934 1138.07 240.479 1139.44 236.808C1139.69 236.16 1140.8 232.955 1140.68 232.503C1140.67 232.472 1140.33 232.361 1140.16 232.184C1139.72 231.726 1139.27 230.512 1138.87 229.883C1138.48 229.277 1137.41 228.284 1137.19 227.859C1136.92 227.324 1136.81 226.539 1137.62 226.609C1138.85 226.716 1140.48 228.955 1141.19 229.874C1141.13 227.087 1141.26 224.287 1141.19 221.5C1141.15 219.971 1141.09 218.206 1140.98 216.678C1140.95 216.304 1140.62 214.502 1140.72 214.36C1140.99 213.972 1141.72 214.519 1141.95 214.786C1143.22 216.27 1143.22 221.442 1143.24 223.451C1143.4 235.333 1140.45 244.487 1129.55 250.33C1127.85 251.24 1124.02 252.651 1122.14 252.36C1120.84 252.158 1121.62 251.115 1121.56 251.037Z" fill="#1E1E1E"/>
<path d="M1094.66 271.982C1095.41 271.453 1097.65 269.497 1098.51 269.617C1099.01 269.687 1099.28 270.505 1099.13 270.96C1099.03 271.278 1096.78 273.181 1096.35 273.52C1095.92 273.865 1095.32 274.488 1094.76 274.242C1094.88 277.199 1094.78 280.173 1094.86 283.13C1094.94 285.925 1095.18 288.747 1095.28 291.55C1095.15 292.711 1093.9 292.415 1093.68 291.503C1093.4 290.388 1093.32 288.347 1093.22 287.13C1092.45 277.287 1092.28 267.112 1092.3 257.249C1092.31 253.916 1092.07 250.136 1092.29 246.867C1092.32 246.52 1092.4 245.582 1092.71 245.434C1093.14 245.229 1093.57 245.401 1093.73 245.847C1093.98 246.527 1094.09 248.713 1094.15 249.543C1094.45 254.182 1094.36 258.949 1094.46 263.608C1094.52 266.399 1094.56 269.195 1094.66 271.982Z" fill="#1E1E1E"/>
<path d="M1093.46 197.079C1093.57 197.142 1093.73 197.072 1093.74 197.166L1093.53 199.829C1093.42 210.344 1092.9 220.857 1093.32 231.367C1093.36 232.303 1093.82 234.836 1093.27 235.521C1093.06 235.793 1092.55 235.845 1092.29 235.58C1091.83 235.108 1091.54 231.672 1091.48 230.848C1091.02 224.806 1091.03 218.319 1091.17 212.264C1091.27 208.021 1091.29 203.205 1092.01 199.028C1092.07 198.636 1092.14 198.173 1092.36 197.836C1092.43 197.727 1093.31 196.935 1093.38 196.906C1093.46 196.872 1093.4 197.042 1093.46 197.079Z" fill="#1E1E1E"/>
<path d="M1109.83 229.188C1110.06 229.397 1110.14 230.019 1110.17 230.338C1110.52 233.774 1110.31 237.27 1110.27 240.705C1110.2 246.233 1110.39 252.744 1109.42 258.14C1109.33 258.651 1109.29 259.306 1108.8 259.576C1107.18 260.485 1107.48 257.342 1107.5 256.521C1107.64 250.189 1107.96 243.862 1108.22 237.53C1108.32 235.092 1108.18 232.423 1108.43 230.03C1108.5 229.247 1109.12 228.531 1109.83 229.188Z" fill="#1E1E1E"/>
<path d="M1106.17 180.885C1107.38 181.025 1107.86 182.003 1108.3 183.015C1109.6 186.024 1109.93 189.107 1110.17 192.336C1110.61 198.113 1110.67 205.433 1110.38 211.238C1110.34 212.134 1110.18 213.843 1109.89 214.652C1109.75 215.038 1109.67 215.278 1109.19 215.297C1108.13 215.341 1108.52 214.403 1108.53 213.806C1108.63 207.736 1108.55 201.367 1108.32 195.314C1108.22 192.623 1108.13 189.891 1107.68 187.232C1107.31 185.08 1106.51 183.039 1106.17 180.886V180.885Z" fill="#1E1E1E"/>
<path d="M1106.27 299.301C1106.25 299.281 1106.28 298.991 1106.24 298.865C1105.66 296.916 1106.47 290.873 1106.58 288.47C1106.78 284.053 1106.77 279.631 1107.09 275.218C1107.16 274.197 1107.35 273.173 1107.41 272.149C1108.09 271.633 1108.45 271.989 1108.68 272.701C1109.32 274.716 1109.11 277.257 1109.04 279.326C1108.88 284.254 1108.63 289.319 1108.12 294.216C1108.02 295.14 1107.75 298.305 1107.38 298.925C1107.18 299.26 1106.44 299.483 1106.27 299.3L1106.27 299.301Z" fill="#1E1E1E"/>
<path d="M1063.41 194.663C1063.65 194.626 1064.01 194.801 1063.94 195.082C1063.09 197.115 1062.44 198.982 1062.12 201.182C1061.78 203.52 1061.6 206.519 1061.69 208.875C1061.74 210.076 1062.25 212.272 1062.11 213.292C1061.97 214.312 1061.03 213.55 1060.75 212.896C1060.22 211.683 1060.08 209.104 1060.05 207.746C1059.98 204.874 1060.56 197.875 1062.31 195.625C1062.48 195.408 1063.18 194.699 1063.41 194.663Z" fill="#1E1E1E"/>
<path d="M1098.95 172.031C1098.93 172.065 1098.71 172.154 1098.61 172.252C1097.95 172.941 1097.04 175.572 1096.69 176.595C1095.63 179.723 1094.81 183.265 1094.18 186.512C1094.11 186.876 1094.15 188.103 1093.6 187.96C1093.36 187.895 1092.61 186.737 1092.61 186.497C1092.63 184.558 1093.45 181.05 1093.97 179.117C1094.75 176.246 1096.03 172.627 1098.93 171.335C1099 171.473 1099.02 171.921 1098.95 172.031Z" fill="#1E1E1E"/>
<path d="M1064.43 221.975C1064.62 221.919 1065.05 222.179 1065.17 222.339C1065.58 222.86 1066.03 224.284 1066.42 224.995C1068.05 227.932 1070.23 229.454 1073.25 230.793C1073.69 231.241 1073.07 231.819 1072.61 231.907C1072.06 232.012 1070.71 231.382 1070.15 231.124C1068.15 230.21 1066.8 229.079 1065.66 227.195C1065.16 226.373 1063.85 223.73 1063.96 222.848C1063.98 222.686 1064.29 222.015 1064.43 221.974V221.975Z" fill="#1E1E1E"/>
<path d="M1102.23 239.034C1102.75 238.874 1103.25 239.235 1103.6 239.575C1104.21 240.159 1106.32 243.015 1106.51 243.757C1106.78 244.9 1106.3 246.059 1105.04 245.221C1104.37 244.771 1101.98 240.877 1101.88 240.065C1101.84 239.732 1101.83 239.156 1102.23 239.034Z" fill="#1E1E1E"/>
<path d="M1100.79 193.538C1101.2 193.417 1101.59 193.595 1101.9 193.826C1102.62 194.352 1105.08 197.058 1105.39 197.831C1105.89 199.034 1104.72 200.1 1103.7 199.117L1100.3 195.015C1100.01 194.59 1100.31 193.684 1100.79 193.538Z" fill="#1E1E1E"/>
<path d="M1095.62 221.526C1095.04 220.809 1096.17 219.489 1096.62 218.939C1097.19 218.229 1098.39 216.829 1099.28 216.665C1099.83 216.565 1100.08 217.411 1099.98 217.885C1099.87 218.395 1098.93 219.507 1098.56 219.96C1098.22 220.374 1097.43 221.404 1097.01 221.595C1096.62 221.777 1095.92 221.901 1095.62 221.525V221.526Z" fill="#1E1E1E"/>
</g>
<mask id="mask5_269_276" style="mask-type:luminance" maskUnits="userSpaceOnUse" x="2210" y="203" width="109" height="144">
<path d="M2318.62 203H2210V346.232H2318.62V203Z" fill="white"/>
</mask>
<g mask="url(#mask5_269_276)">
<path d="M2283.11 278.208C2282.58 278.262 2281.97 278.169 2281.43 278.208C2281.7 275.032 2281.76 271.853 2281.84 268.673C2281.94 264.484 2281.94 260.314 2281.93 256.131C2281.93 253.008 2281.95 249.884 2281.93 246.761C2282.97 246.199 2285.72 244.465 2285.72 243.172C2285.72 242.755 2285.26 242.556 2284.87 242.632C2284.11 242.781 2282.84 243.954 2282.04 244.245C2281.96 244.135 2282.23 241.914 2282.25 241.547C2282.66 232.999 2282.87 217.576 2277.39 210.597C2276.79 209.827 2276.19 209.245 2275.31 208.797C2275.74 207.992 2277.56 206.042 2276.59 205.181C2275.41 204.14 2274.29 206.466 2273.83 207.221C2268.08 201.651 2258.16 201.499 2252.51 207.323C2249.27 210.672 2247.24 215.66 2245.94 220.073C2245.13 219.685 2242.26 217.076 2241.8 218.951C2241.69 219.406 2242.12 219.854 2242.43 220.165C2243.2 220.939 2244.34 221.454 2245.19 222.143L2245.31 222.467C2245.08 223.249 2244.89 224.047 2244.74 224.848C2242.96 234.39 2242.66 244.298 2242.98 253.986C2243.03 255.64 2243.09 257.278 2243.18 258.932C2239.91 258.657 2237.96 256.254 2236.86 253.375C2236.52 252.499 2235.93 250.797 2235.84 249.905C2235.74 248.858 2236.02 247.696 2236.05 246.647C2236.21 240.444 2236.1 231.541 2229.99 228.012C2224.8 225.012 2219.46 227.652 2216.51 232.312C2216.41 232.333 2215.29 231.066 2215.03 230.941C2214.74 230.801 2213.95 230.663 2213.72 230.947C2213.22 231.572 2213.72 232.343 2214.12 232.873C2214.33 233.163 2215.54 234.214 2215.53 234.384C2215.51 234.555 2215.12 235.162 2215.02 235.406C2213.21 239.796 2212.88 244.471 2213.09 249.196C2213.16 250.637 2213.47 252.081 2213.5 253.527C2212.51 253.447 2211.53 253.041 2210.54 253.371C2210 253.551 2209.93 253.794 2210.06 254.372C2210.38 255.759 2213.72 255.421 2213.97 255.766C2214.86 261.753 2216.87 267.048 2220.85 271.627C2222.64 273.691 2224.79 275.803 2227.27 276.986C2226.99 278.028 2223.47 279.542 2225.03 280.701C2226.53 281.807 2228.18 278.897 2229.37 278.307C2230.55 278.581 2231.64 279.141 2232.82 279.445C2236.23 280.324 2240.21 280.298 2243.59 279.33L2244 293.404C2243.15 292.924 2239.68 290.165 2239.81 292.642C2239.84 293.192 2240.2 293.466 2240.58 293.809C2241.66 294.765 2243.01 295.402 2244.19 296.225C2244.27 299.143 2244.24 302.066 2244.3 304.984C2244.34 306.764 2244.48 308.602 2244.51 310.381C2244.54 312.06 2244.4 313.776 2244.61 315.433C2243.57 315.07 2242.66 314.297 2241.62 313.885C2240.87 313.588 2239.31 313.044 2239.52 314.457C2239.66 315.452 2242.11 316.582 2242.97 317.125C2243.56 317.501 2244.1 317.96 2244.72 318.254C2244.67 320.089 2244.91 321.919 2245.02 323.746C2245.28 328 2245.33 332.912 2246.19 337.059C2248.07 346.156 2257.74 346.515 2265.37 346.136C2272.08 345.803 2277.07 343.741 2278.73 336.75C2280.01 331.357 2279.69 325.384 2279.79 319.866L2280.02 316.521C2280.79 315.685 2285.11 313.056 2285.28 312.207C2285.34 311.901 2284.85 311.243 2284.56 311.122C2284.05 310.906 2283.1 311.669 2282.58 311.846L2280.21 313.392C2280.52 309.7 2280.84 305.95 2280.72 302.22C2280.71 302.024 2280.64 301.854 2280.61 301.665C2286.03 301.706 2291.72 300.735 2296.66 298.488C2298.43 297.683 2299.99 296.68 2301.57 295.573C2302.34 296.132 2303.38 297.73 2304.33 297.883C2304.98 297.988 2305.38 297.959 2305.41 297.228C2305.43 296.453 2304.84 295.84 2304.37 295.292C2304.22 295.11 2303.46 294.478 2303.56 294.322C2305.55 293.04 2307.14 290.925 2308.48 288.989C2311.96 283.953 2314.13 278.322 2314.73 272.191C2315.59 271.69 2318.64 270.437 2318.62 269.3C2318.58 267.116 2315.14 269.69 2314.98 269.537C2315.04 269.185 2315.15 268.82 2315.19 268.465C2315.75 262.664 2315.46 254.185 2312.27 249.148C2311.94 248.628 2311.53 248.185 2311.21 247.661C2311.65 247.001 2312.11 246.345 2312.42 245.607C2312.66 245.04 2312.96 244.669 2312.4 244.179C2311.74 243.606 2311.09 244.349 2310.65 244.855C2310.45 245.082 2309.78 246.211 2309.64 246.178C2309.54 246.156 2308.39 245.122 2308.12 244.935C2304.51 242.399 2300.78 242.863 2297.5 245.675C2291.13 251.132 2293.08 263.16 2291.17 270.762C2290.24 274.443 2287.02 277.81 2283.11 278.207V278.208Z" fill="#FAFAFA"/>
<path d="M2283.11 278.208C2287.02 277.811 2290.24 274.444 2291.17 270.763C2293.08 263.162 2291.13 251.134 2297.49 245.676C2300.78 242.865 2304.51 242.4 2308.12 244.937C2308.39 245.124 2309.54 246.158 2309.63 246.18C2309.78 246.212 2310.45 245.084 2310.65 244.856C2311.09 244.35 2311.74 243.608 2312.4 244.18C2312.96 244.67 2312.66 245.042 2312.42 245.608C2312.1 246.346 2311.65 247.002 2311.21 247.662C2311.53 248.186 2311.94 248.629 2312.27 249.15C2315.46 254.187 2315.75 262.666 2315.19 268.466C2315.15 268.821 2315.04 269.187 2314.98 269.538C2315.14 269.692 2318.58 267.118 2318.62 269.301C2318.64 270.438 2315.59 271.691 2314.73 272.192C2314.13 278.324 2311.96 283.954 2308.48 288.99C2307.14 290.927 2305.55 293.041 2303.56 294.324C2303.46 294.479 2304.22 295.111 2304.37 295.294C2304.84 295.841 2305.43 296.454 2305.4 297.229C2305.38 297.96 2304.98 297.989 2304.33 297.885C2303.38 297.732 2302.34 296.134 2301.57 295.575C2299.98 296.681 2298.43 297.684 2296.66 298.489C2291.72 300.736 2286.03 301.708 2280.61 301.666C2280.64 301.855 2280.71 302.025 2280.72 302.221C2280.83 305.951 2280.51 309.701 2280.2 313.394L2282.58 311.847C2283.1 311.67 2284.05 310.907 2284.56 311.123C2284.85 311.244 2285.34 311.902 2285.28 312.208C2285.11 313.058 2280.79 315.687 2280.02 316.522L2279.79 319.867C2279.69 325.386 2280.01 331.359 2278.73 336.752C2277.06 343.742 2272.08 345.805 2265.37 346.138C2257.74 346.516 2248.06 346.157 2246.19 337.06C2245.33 332.914 2245.27 328.001 2245.02 323.748C2244.9 321.92 2244.67 320.089 2244.72 318.255C2244.1 317.961 2243.56 317.502 2242.97 317.126C2242.11 316.583 2239.66 315.453 2239.51 314.458C2239.31 313.045 2240.87 313.59 2241.62 313.887C2242.66 314.299 2243.57 315.071 2244.61 315.434C2244.4 313.777 2244.54 312.061 2244.51 310.382C2244.48 308.603 2244.34 306.765 2244.3 304.985C2244.24 302.068 2244.27 299.144 2244.18 296.227C2243.01 295.404 2241.66 294.767 2240.58 293.81C2240.2 293.467 2239.84 293.193 2239.81 292.643C2239.68 290.166 2243.15 292.925 2244 293.406L2243.59 279.332C2240.21 280.299 2236.23 280.325 2232.82 279.446C2231.64 279.142 2230.55 278.582 2229.37 278.309C2228.18 278.898 2226.53 281.809 2225.03 280.702C2223.47 279.544 2226.99 278.03 2227.27 276.987C2224.79 275.804 2222.64 273.692 2220.85 271.629C2216.87 267.049 2214.86 261.755 2213.97 255.767C2213.71 255.423 2210.38 255.76 2210.06 254.373C2209.92 253.795 2210 253.553 2210.54 253.372C2211.53 253.042 2212.5 253.448 2213.5 253.528C2213.47 252.083 2213.16 250.639 2213.09 249.197C2212.87 244.472 2213.21 239.797 2215.01 235.407C2215.11 235.164 2215.51 234.554 2215.53 234.386C2215.54 234.218 2214.33 233.165 2214.11 232.875C2213.72 232.344 2213.22 231.573 2213.72 230.948C2213.94 230.664 2214.74 230.802 2215.03 230.943C2215.28 231.068 2216.41 232.335 2216.51 232.313C2219.46 227.652 2224.8 225.014 2229.99 228.013C2236.09 231.542 2236.21 240.445 2236.05 246.648C2236.02 247.697 2235.74 248.86 2235.84 249.907C2235.92 250.799 2236.52 252.501 2236.86 253.377C2237.96 256.255 2239.91 258.658 2243.18 258.934C2243.09 257.279 2243.03 255.642 2242.98 253.988C2242.66 244.3 2242.96 234.391 2244.74 224.849C2244.89 224.049 2245.08 223.251 2245.31 222.469L2245.19 222.144C2244.34 221.455 2243.2 220.94 2242.43 220.166C2242.12 219.855 2241.69 219.408 2241.8 218.952C2242.26 217.078 2245.13 219.687 2245.93 220.074C2247.23 215.661 2249.26 210.674 2252.51 207.325C2258.16 201.5 2268.08 201.652 2273.83 207.222C2274.29 206.468 2275.41 204.142 2276.58 205.182C2277.56 206.044 2275.73 207.994 2275.31 208.798C2276.19 209.247 2276.79 209.829 2277.39 210.598C2282.87 217.578 2282.66 233.001 2282.25 241.548C2282.23 241.915 2281.96 244.137 2282.04 244.246C2282.84 243.956 2284.11 242.783 2284.87 242.634C2285.26 242.557 2285.72 242.756 2285.72 243.174C2285.72 244.466 2282.96 246.201 2281.93 246.762C2281.95 249.885 2281.93 253.009 2281.93 256.132C2281.94 260.315 2281.94 264.485 2281.84 268.674C2281.76 271.855 2281.7 275.032 2281.43 278.209C2281.97 278.17 2282.58 278.263 2283.11 278.209V278.208ZM2272.24 209.884C2272.23 209.863 2271.8 209.691 2271.77 209.69C2271.64 209.681 2271.56 209.85 2271.43 209.83C2271.02 209.77 2268.76 208.136 2268.06 207.796C2265.51 206.58 2262.85 206.416 2260.11 207.069C2254.82 208.333 2252.04 213.519 2250.24 218.213C2249.88 219.174 2248.9 221.607 2248.81 222.501C2248.75 223.065 2249.9 223.716 2250 224.333C2250.06 224.691 2249.71 224.987 2249.81 225.378C2249.21 225.436 2248.72 225.051 2248.18 224.868C2247.94 226.801 2247.53 228.714 2247.28 230.645C2246.01 240.353 2246.2 249.256 2246.55 258.979C2246.58 259.688 2246.52 260.404 2246.55 261.113C2245.89 261.445 2245.7 261.903 2244.86 261.992C2238.96 262.626 2235.05 258.387 2233.54 253.118C2231.72 246.739 2234.76 237.399 2229.92 232.157C2226.12 228.033 2221.11 230.642 2218.82 234.812C2219.21 235.373 2220.48 236.028 2220.27 236.779C2219.97 237.848 2218.61 237.093 2218.09 236.596C2215.91 242.211 2216.38 248.43 2217.29 254.271C2217.78 254.727 2219.59 255.557 2219.62 256.237C2219.68 257.3 2217.93 256.302 2217.68 256.484C2218.26 258.831 2218.83 261.166 2219.81 263.385C2221.41 267.018 2224.03 270.41 2227.12 272.901C2227.57 273.264 2229.75 274.845 2230.17 274.85C2230.89 274.858 2231.6 273.855 2232.27 274.69C2232.68 275.199 2232.48 275.719 2232.51 275.764C2232.58 275.853 2233.57 276.086 2233.78 276.135C2236.75 276.834 2240.72 276.897 2243.61 275.833C2244.42 275.536 2244.32 275.202 2244.82 274.9C2245.75 274.346 2246.36 274.952 2246.45 275.908C2246.66 278.201 2246.39 280.993 2246.44 283.362C2246.48 285.35 2246.69 287.384 2246.75 289.371C2246.81 291.302 2246.57 293.311 2246.96 295.187C2247.67 295.583 2249.8 297.006 2249.82 297.838C2249.82 298.091 2249.65 298.354 2249.45 298.505C2248.6 299.171 2247.63 298.106 2246.85 297.841C2247.02 304.301 2247.04 310.762 2247.56 317.198C2248.1 317.701 2249.63 318.734 2249.71 319.459C2249.79 320.072 2249.48 320.395 2248.87 320.309C2248.71 320.287 2247.79 319.847 2247.77 319.973C2247.76 321.582 2248.04 323.177 2248.18 324.767C2248.49 328.277 2248.77 336.252 2250.54 339.027C2253.46 343.594 2264.01 343.453 2268.68 342.414C2276.01 340.784 2276.2 335.415 2276.53 329.051C2276.65 326.852 2276.75 324.626 2276.84 322.425C2276.89 321.152 2276.91 319.87 2276.94 318.596C2276.37 318.892 2275 319.961 2274.48 319.165C2273.77 318.052 2276.37 316.153 2277.13 315.57C2277.77 310.988 2277.29 306.297 2277.65 301.718C2277.73 300.706 2277.9 296.686 2279.69 297.947C2279.86 298.067 2280 298.389 2280.07 298.404C2281.57 298.75 2284.77 298.407 2286.36 298.183C2291.01 297.532 2295.54 295.721 2299.58 293.403C2299.23 292.897 2297.6 291.515 2297.76 290.929C2297.81 290.768 2298.27 290.31 2298.32 290.03C2299.65 290.167 2300.59 291.192 2301.37 292.179C2303.87 290.167 2305.86 287.48 2307.45 284.702C2309.11 281.817 2310.24 278.813 2310.95 275.557C2310.99 275.397 2311.42 273.466 2311.26 273.517C2310.62 274.129 2308.85 273.999 2309.08 272.878C2309.23 272.195 2311.13 271.519 2311.67 271.071C2312.01 269.091 2311.99 267.101 2312.02 265.098C2312.05 262.674 2312.07 260.299 2311.7 257.876C2311.33 255.376 2310.62 252.893 2309.22 250.775C2309.09 250.775 2308.3 252.754 2307.5 252.687C2305.96 252.558 2307.36 249.886 2307.75 249.194C2306.48 247.85 2305.13 246.499 2303.1 246.588C2302.1 246.631 2301.16 247.065 2300.36 247.628C2292.52 253.171 2297.37 268.383 2291.91 275.997C2289.38 279.527 2285.34 281.458 2280.96 281.171C2280.47 281.139 2278.51 280.86 2278.28 280.493L2278.78 248.48C2278.6 248.348 2278.42 248.61 2278.21 248.632C2277.74 248.68 2277.11 248.129 2277.13 247.663C2277.16 247.094 2278.32 246.483 2278.78 246.217C2278.64 238.436 2279.18 230.49 2277.94 222.793C2277.49 219.954 2276.65 216.574 2275.26 214.054C2274.81 213.238 2274.18 212.532 2273.78 211.711L2272.76 213.393C2272.19 214.025 2271.33 214.268 2271.07 213.242C2270.82 212.248 2272.41 210.125 2272.24 209.884Z" fill="#1E1E1E"/>
<path d="M2272.24 209.884C2272.41 210.126 2270.82 212.248 2271.07 213.242C2271.33 214.268 2272.19 214.025 2272.76 213.393L2273.78 211.712C2274.18 212.532 2274.81 213.238 2275.26 214.055C2276.65 216.574 2277.49 219.954 2277.94 222.793C2279.18 230.49 2278.64 238.436 2278.78 246.218C2278.32 246.483 2277.17 247.095 2277.13 247.663C2277.11 248.129 2277.74 248.679 2278.21 248.632C2278.42 248.61 2278.6 248.348 2278.78 248.48L2278.28 280.493C2278.51 280.861 2280.47 281.139 2280.97 281.171C2285.34 281.458 2289.38 279.528 2291.91 275.997C2297.37 268.384 2292.52 253.171 2300.37 247.629C2301.16 247.065 2302.1 246.631 2303.1 246.588C2305.14 246.499 2306.48 247.85 2307.75 249.195C2307.37 249.886 2305.97 252.558 2307.5 252.687C2308.3 252.754 2309.09 250.775 2309.22 250.775C2310.62 252.893 2311.33 255.376 2311.71 257.876C2312.07 260.299 2312.05 262.675 2312.02 265.099C2312 267.101 2312.01 269.092 2311.67 271.071C2311.13 271.519 2309.23 272.195 2309.09 272.878C2308.85 273.999 2310.62 274.129 2311.26 273.518C2311.42 273.467 2310.99 275.397 2310.96 275.558C2310.24 278.813 2309.11 281.817 2307.45 284.702C2305.86 287.481 2303.87 290.167 2301.37 292.179C2300.59 291.193 2299.66 290.167 2298.32 290.031C2298.27 290.31 2297.81 290.769 2297.76 290.929C2297.6 291.515 2299.24 292.897 2299.58 293.403C2295.54 295.721 2291.01 297.533 2286.36 298.183C2284.77 298.407 2281.57 298.751 2280.07 298.404C2280 298.389 2279.86 298.068 2279.69 297.947C2277.9 296.686 2277.74 300.706 2277.66 301.718C2277.29 306.297 2277.77 310.988 2277.13 315.57C2276.37 316.153 2273.77 318.052 2274.49 319.165C2275 319.961 2276.37 318.892 2276.94 318.597C2276.91 319.87 2276.89 321.152 2276.84 322.425C2276.76 324.626 2276.65 326.852 2276.53 329.052C2276.2 335.416 2276.02 340.784 2268.68 342.415C2264.01 343.454 2253.47 343.594 2250.54 339.027C2248.77 336.252 2248.49 328.277 2248.18 324.767C2248.04 323.177 2247.77 321.583 2247.77 319.973C2247.79 319.847 2248.71 320.288 2248.87 320.31C2249.48 320.395 2249.79 320.072 2249.72 319.46C2249.63 318.735 2248.11 317.701 2247.57 317.198C2247.04 310.762 2247.02 304.301 2246.85 297.841C2247.63 298.106 2248.6 299.172 2249.46 298.505C2249.65 298.354 2249.82 298.092 2249.82 297.839C2249.81 297.007 2247.67 295.583 2246.96 295.188C2246.57 293.311 2246.82 291.302 2246.76 289.371C2246.69 287.384 2246.49 285.35 2246.44 283.362C2246.39 280.994 2246.67 278.201 2246.45 275.909C2246.36 274.952 2245.75 274.346 2244.82 274.901C2244.32 275.202 2244.42 275.537 2243.61 275.834C2240.73 276.898 2236.75 276.835 2233.78 276.136C2233.57 276.087 2232.58 275.853 2232.51 275.765C2232.48 275.719 2232.68 275.198 2232.27 274.69C2231.6 273.855 2230.89 274.858 2230.18 274.85C2229.75 274.845 2227.57 273.265 2227.12 272.901C2224.04 270.41 2221.41 267.018 2219.81 263.386C2218.83 261.167 2218.26 258.831 2217.68 256.484C2217.93 256.302 2219.68 257.301 2219.62 256.238C2219.59 255.558 2217.78 254.727 2217.3 254.272C2216.38 248.431 2215.91 242.211 2218.09 236.596C2218.61 237.093 2219.97 237.848 2220.27 236.779C2220.48 236.028 2219.21 235.373 2218.82 234.812C2221.11 230.641 2226.12 228.033 2229.93 232.157C2234.76 237.399 2231.72 246.739 2233.54 253.118C2235.05 258.388 2238.96 262.626 2244.87 261.993C2245.7 261.903 2245.89 261.445 2246.55 261.113C2246.52 260.404 2246.58 259.688 2246.55 258.979C2246.2 249.256 2246.01 240.353 2247.28 230.645C2247.53 228.714 2247.94 226.801 2248.18 224.869C2248.72 225.051 2249.21 225.436 2249.81 225.379C2249.71 224.987 2250.06 224.692 2250 224.334C2249.9 223.716 2248.75 223.065 2248.81 222.501C2248.9 221.607 2249.88 219.174 2250.25 218.213C2252.05 213.52 2254.82 208.333 2260.11 207.069C2262.85 206.416 2265.51 206.58 2268.06 207.797C2268.76 208.136 2271.02 209.771 2271.43 209.83C2271.57 209.85 2271.64 209.681 2271.77 209.69C2271.8 209.692 2272.23 209.864 2272.24 209.884ZM2260.6 210.976C2260.66 210.866 2260.65 210.421 2260.57 210.284C2257.7 211.567 2256.43 215.161 2255.65 218.012C2255.13 219.932 2254.32 223.416 2254.3 225.341C2254.3 225.58 2255.04 226.73 2255.29 226.794C2255.83 226.936 2255.79 225.718 2255.86 225.356C2256.48 222.131 2257.3 218.614 2258.35 215.508C2258.7 214.492 2259.6 211.879 2260.26 211.195C2260.36 211.097 2260.58 211.009 2260.6 210.976ZM2267.76 219.768C2268.1 221.906 2268.89 223.933 2269.26 226.07C2269.71 228.711 2269.81 231.424 2269.9 234.096C2270.13 240.108 2270.21 246.432 2270.11 252.46C2270.1 253.053 2269.71 253.983 2270.77 253.941C2271.25 253.922 2271.32 253.684 2271.46 253.3C2271.75 252.497 2271.9 250.8 2271.95 249.91C2272.24 244.145 2272.18 236.876 2271.74 231.139C2271.5 227.933 2271.17 224.871 2269.88 221.882C2269.44 220.878 2268.97 219.906 2267.76 219.768ZM2262.43 232.334C2261.95 232.478 2261.65 233.378 2261.94 233.8L2265.31 237.874C2266.33 238.85 2267.48 237.791 2267 236.597C2266.68 235.83 2264.24 233.142 2263.53 232.62C2263.22 232.39 2262.83 232.213 2262.43 232.334ZM2225.31 233.451C2225.07 233.487 2224.38 234.19 2224.21 234.406C2222.47 236.64 2221.9 243.591 2221.96 246.443C2221.99 247.791 2222.14 250.353 2222.66 251.557C2222.95 252.208 2223.87 252.966 2224.01 251.951C2224.15 250.936 2223.64 248.757 2223.6 247.564C2223.51 245.224 2223.68 242.246 2224.02 239.924C2224.34 237.74 2224.98 235.886 2225.83 233.867C2225.9 233.588 2225.55 233.414 2225.31 233.451ZM2255.15 235.85C2255.08 235.813 2255.15 235.645 2255.06 235.679C2255 235.707 2254.12 236.494 2254.05 236.602C2253.83 236.937 2253.77 237.398 2253.7 237.786C2252.99 241.934 2252.97 246.717 2252.87 250.931C2252.73 256.944 2252.72 263.386 2253.18 269.385C2253.24 270.204 2253.52 273.615 2253.99 274.084C2254.25 274.348 2254.74 274.296 2254.96 274.026C2255.5 273.345 2255.05 270.83 2255.01 269.901C2254.59 259.464 2255.11 249.023 2255.21 238.582L2255.42 235.937C2255.41 235.844 2255.25 235.913 2255.15 235.85ZM2283.05 289.434C2283.11 289.511 2282.33 290.546 2283.63 290.747C2285.49 291.036 2289.3 289.634 2290.98 288.731C2301.81 282.928 2304.73 273.839 2304.58 262.038C2304.56 260.043 2304.56 254.907 2303.3 253.434C2303.07 253.168 2302.35 252.625 2302.07 253.01C2301.97 253.152 2302.31 254.941 2302.34 255.312C2302.44 256.83 2302.51 258.582 2302.54 260.101C2302.61 262.868 2302.48 265.649 2302.54 268.417C2301.84 267.504 2300.22 265.28 2299 265.175C2298.19 265.105 2298.3 265.885 2298.58 266.416C2298.79 266.838 2299.85 267.824 2300.24 268.426C2300.64 269.05 2301.08 270.256 2301.52 270.711C2301.69 270.886 2302.03 270.997 2302.04 271.027C2302.16 271.477 2301.05 274.659 2300.81 275.303C2299.44 278.948 2297.66 281.386 2294.63 283.815C2291.2 286.57 2287.21 288.543 2282.86 289.326C2282.82 289.504 2283.02 289.389 2283.05 289.434ZM2257.29 260.127C2257.59 260.5 2258.28 260.378 2258.67 260.197C2259.08 260.007 2259.88 258.984 2260.21 258.573C2260.58 258.123 2261.51 257.019 2261.62 256.513C2261.72 256.042 2261.47 255.202 2260.92 255.301C2260.04 255.463 2258.85 256.854 2258.28 257.559C2257.84 258.106 2256.71 259.415 2257.29 260.127ZM2226.32 260.572C2226.18 260.613 2225.86 261.28 2225.85 261.441C2225.74 262.316 2227.04 264.941 2227.53 265.758C2228.67 267.629 2230.01 268.751 2232 269.659C2232.55 269.914 2233.89 270.541 2234.44 270.436C2234.89 270.349 2235.51 269.775 2235.08 269.33C2232.07 268.001 2229.91 266.49 2228.29 263.572C2227.9 262.867 2227.46 261.452 2227.05 260.935C2226.93 260.776 2226.51 260.517 2226.32 260.573V260.572ZM2271.4 267.736C2270.69 267.084 2270.08 267.795 2270.01 268.572C2269.77 270.949 2269.9 273.599 2269.81 276.02C2269.55 282.308 2269.22 288.592 2269.08 294.88C2269.06 295.695 2268.77 298.817 2270.38 297.914C2270.86 297.645 2270.91 296.994 2271 296.487C2271.96 291.128 2271.76 284.662 2271.84 279.173C2271.88 275.763 2272.08 272.29 2271.74 268.878C2271.71 268.561 2271.63 267.944 2271.4 267.736ZM2263.85 277.514C2263.46 277.636 2263.46 278.208 2263.5 278.539C2263.61 279.344 2265.98 283.212 2266.65 283.658C2267.9 284.491 2268.38 283.34 2268.1 282.205C2267.92 281.468 2265.82 278.631 2265.22 278.051C2264.86 277.714 2264.37 277.356 2263.85 277.515V277.514ZM2256.34 310.234C2256.24 307.466 2256.2 304.689 2256.14 301.917C2256.04 297.291 2256.13 292.557 2255.83 287.95C2255.77 287.126 2255.66 284.956 2255.42 284.28C2255.26 283.836 2254.83 283.666 2254.4 283.87C2254.09 284.017 2254.01 284.948 2253.99 285.293C2253.76 288.54 2254.01 292.293 2254 295.603C2253.97 305.397 2254.14 315.502 2254.91 325.276C2255.01 326.485 2255.09 328.512 2255.36 329.62C2255.58 330.525 2256.82 330.819 2256.95 329.666C2256.85 326.883 2256.62 324.08 2256.54 321.304C2256.45 318.368 2256.55 315.415 2256.44 312.478C2256.99 312.722 2257.59 312.104 2258.02 311.761C2258.45 311.425 2260.68 309.534 2260.78 309.219C2260.93 308.767 2260.65 307.954 2260.16 307.885C2259.31 307.766 2257.08 309.708 2256.34 310.234ZM2267.86 337.363C2268.03 337.545 2268.77 337.323 2268.97 336.99C2269.34 336.374 2269.6 333.232 2269.7 332.314C2270.21 327.45 2270.46 322.421 2270.62 317.527C2270.69 315.472 2270.9 312.949 2270.26 310.948C2270.03 310.241 2269.67 309.888 2269 310.4C2268.93 311.417 2268.75 312.434 2268.68 313.448C2268.36 317.83 2268.37 322.22 2268.17 326.608C2268.06 328.994 2267.26 334.995 2267.84 336.931C2267.88 337.056 2267.85 337.344 2267.86 337.363Z" fill="#008D36"/>
<path d="M2283.05 289.434C2283.02 289.389 2282.81 289.504 2282.86 289.326C2287.21 288.543 2291.2 286.57 2294.63 283.815C2297.66 281.387 2299.44 278.949 2300.81 275.303C2301.05 274.659 2302.16 271.477 2302.04 271.028C2302.03 270.997 2301.69 270.887 2301.52 270.712C2301.08 270.257 2300.64 269.051 2300.24 268.427C2299.85 267.825 2298.79 266.839 2298.57 266.416C2298.3 265.885 2298.19 265.105 2299 265.175C2300.22 265.281 2301.84 267.505 2302.54 268.417C2302.48 265.65 2302.61 262.869 2302.54 260.101C2302.51 258.583 2302.44 256.83 2302.33 255.313C2302.31 254.942 2301.97 253.152 2302.07 253.011C2302.35 252.625 2303.07 253.168 2303.3 253.434C2304.56 254.907 2304.56 260.044 2304.58 262.039C2304.73 273.839 2301.81 282.929 2290.98 288.732C2289.3 289.635 2285.49 291.037 2283.63 290.747C2282.33 290.546 2283.11 289.512 2283.05 289.435V289.434Z" fill="#1E1E1E"/>
<path d="M2256.34 310.233C2257.08 309.708 2259.31 307.766 2260.16 307.885C2260.65 307.954 2260.93 308.767 2260.78 309.219C2260.68 309.534 2258.45 311.424 2258.02 311.761C2257.58 312.103 2256.99 312.722 2256.44 312.478C2256.55 315.414 2256.45 318.367 2256.54 321.304C2256.62 324.079 2256.85 326.882 2256.95 329.665C2256.82 330.819 2255.58 330.524 2255.36 329.62C2255.09 328.512 2255.01 326.484 2254.91 325.276C2254.14 315.502 2253.97 305.397 2254 295.603C2254.01 292.293 2253.76 288.539 2253.99 285.293C2254.01 284.948 2254.09 284.016 2254.4 283.869C2254.83 283.666 2255.26 283.837 2255.42 284.28C2255.66 284.955 2255.77 287.125 2255.83 287.95C2256.13 292.557 2256.04 297.291 2256.14 301.917C2256.19 304.689 2256.24 307.466 2256.34 310.233Z" fill="#1E1E1E"/>
<path d="M2255.15 235.85C2255.25 235.913 2255.41 235.843 2255.42 235.936L2255.21 238.581C2255.11 249.023 2254.59 259.463 2255.01 269.9C2255.05 270.83 2255.5 273.345 2254.96 274.025C2254.74 274.295 2254.25 274.347 2253.99 274.084C2253.52 273.615 2253.24 270.203 2253.18 269.385C2252.72 263.384 2252.73 256.943 2252.88 250.93C2252.97 246.716 2253 241.933 2253.7 237.785C2253.77 237.396 2253.83 236.936 2254.05 236.601C2254.12 236.494 2255 235.706 2255.06 235.678C2255.15 235.644 2255.08 235.813 2255.15 235.849V235.85Z" fill="#1E1E1E"/>
<path d="M2271.4 267.736C2271.63 267.943 2271.71 268.561 2271.74 268.878C2272.08 272.291 2271.88 275.762 2271.84 279.173C2271.76 284.662 2271.96 291.128 2271 296.488C2270.91 296.995 2270.86 297.645 2270.38 297.914C2268.77 298.816 2269.06 295.695 2269.08 294.88C2269.22 288.592 2269.55 282.308 2269.81 276.02C2269.9 273.599 2269.77 270.949 2270.01 268.572C2270.08 267.795 2270.69 267.084 2271.4 267.736Z" fill="#1E1E1E"/>
<path d="M2267.76 219.768C2268.97 219.907 2269.44 220.879 2269.88 221.883C2271.17 224.872 2271.5 227.933 2271.74 231.139C2272.18 236.876 2272.24 244.145 2271.95 249.911C2271.9 250.8 2271.75 252.497 2271.46 253.3C2271.32 253.684 2271.25 253.922 2270.77 253.942C2269.71 253.984 2270.1 253.053 2270.11 252.461C2270.21 246.432 2270.13 240.108 2269.9 234.097C2269.81 231.424 2269.71 228.711 2269.26 226.07C2268.89 223.934 2268.1 221.905 2267.76 219.768Z" fill="#1E1E1E"/>
<path d="M2267.86 337.363C2267.85 337.343 2267.88 337.055 2267.84 336.93C2267.26 334.994 2268.07 328.994 2268.17 326.607C2268.37 322.22 2268.36 317.829 2268.68 313.447C2268.75 312.434 2268.94 311.416 2269 310.4C2269.67 309.887 2270.03 310.241 2270.26 310.947C2270.9 312.949 2270.69 315.472 2270.62 317.526C2270.46 322.42 2270.21 327.45 2269.7 332.314C2269.6 333.231 2269.34 336.373 2268.97 336.99C2268.77 337.323 2268.03 337.544 2267.86 337.362V337.363Z" fill="#1E1E1E"/>
<path d="M2225.31 233.451C2225.55 233.414 2225.9 233.588 2225.83 233.867C2224.98 235.886 2224.34 237.74 2224.02 239.924C2223.68 242.246 2223.5 245.224 2223.6 247.564C2223.64 248.757 2224.15 250.937 2224.01 251.951C2223.87 252.964 2222.94 252.207 2222.66 251.557C2222.14 250.352 2221.99 247.791 2221.96 246.443C2221.9 243.591 2222.47 236.64 2224.21 234.406C2224.38 234.19 2225.07 233.487 2225.3 233.451H2225.31Z" fill="#1E1E1E"/>
<path d="M2260.6 210.976C2260.58 211.009 2260.36 211.097 2260.26 211.195C2259.6 211.879 2258.7 214.492 2258.35 215.508C2257.3 218.614 2256.48 222.131 2255.86 225.356C2255.79 225.718 2255.83 226.936 2255.29 226.794C2255.04 226.73 2254.3 225.579 2254.3 225.341C2254.32 223.416 2255.13 219.932 2255.65 218.012C2256.43 215.161 2257.7 211.567 2260.57 210.284C2260.65 210.421 2260.66 210.866 2260.6 210.976Z" fill="#1E1E1E"/>
<path d="M2226.32 260.572C2226.51 260.517 2226.93 260.776 2227.05 260.934C2227.46 261.452 2227.9 262.866 2228.29 263.572C2229.91 266.489 2232.07 268 2235.08 269.329C2235.51 269.774 2234.89 270.348 2234.44 270.435C2233.89 270.54 2232.55 269.914 2232 269.659C2230.01 268.751 2228.67 267.628 2227.53 265.757C2227.04 264.94 2225.74 262.315 2225.85 261.44C2225.86 261.279 2226.18 260.612 2226.32 260.572Z" fill="#1E1E1E"/>
<path d="M2263.85 277.514C2264.37 277.356 2264.86 277.713 2265.22 278.051C2265.82 278.631 2267.92 281.468 2268.1 282.205C2268.38 283.34 2267.9 284.49 2266.65 283.658C2265.97 283.212 2263.61 279.344 2263.5 278.538C2263.46 278.207 2263.46 277.635 2263.85 277.514Z" fill="#1E1E1E"/>
<path d="M2262.43 232.333C2262.83 232.213 2263.22 232.389 2263.53 232.619C2264.24 233.142 2266.68 235.829 2267 236.597C2267.48 237.791 2266.33 238.849 2265.31 237.873L2261.94 233.799C2261.65 233.378 2261.95 232.478 2262.43 232.333Z" fill="#1E1E1E"/>
<path d="M2257.29 260.127C2256.71 259.415 2257.84 258.105 2258.28 257.558C2258.85 256.853 2260.04 255.463 2260.93 255.3C2261.47 255.201 2261.72 256.041 2261.62 256.512C2261.51 257.018 2260.58 258.122 2260.21 258.572C2259.88 258.983 2259.09 260.006 2258.67 260.196C2258.28 260.377 2257.59 260.5 2257.29 260.126V260.127Z" fill="#1E1E1E"/>
</g>
<mask id="mask6_269_276" style="mask-type:luminance" maskUnits="userSpaceOnUse" x="1040" y="726" width="92" height="42">
<path d="M1132 726H1040V767.849H1132V726Z" fill="white"/>
</mask>
<g mask="url(#mask6_269_276)">
<path d="M1047.94 738.807C1053.11 732.92 1061.01 727.417 1068.9 726.26C1081.8 724.369 1095.23 733.015 1099.31 745.27C1103.93 742.039 1107.45 740.093 1113.26 741.343C1120.13 742.819 1126.54 747.955 1130.26 753.776C1131.83 759.174 1134.2 761.151 1127.66 764.273C1116.05 769.811 1102.64 768.748 1091.82 762.281C1091.42 761.731 1090.84 759.739 1090.25 759.601C1089.87 759.511 1083.87 761.218 1082.64 761.439C1071.21 763.496 1053.41 763.826 1043.17 757.696C1040.39 756.03 1039.58 755.195 1040.19 751.647C1040.76 748.372 1045.65 741.403 1047.94 738.81V738.807ZM1091.14 741.187C1087.09 735.147 1077.94 730.306 1070.6 731.023C1061.1 731.948 1051.16 740.876 1046.64 748.908C1046.03 749.988 1044.26 752.637 1045.29 753.549C1048.34 756.27 1057.47 757.646 1061.54 757.856C1063.06 758.482 1065.26 758.196 1066.98 758.196C1067.21 758.196 1067.44 758.196 1067.67 758.196C1069.06 758.191 1070.96 758.485 1072.09 757.856C1077.37 757.653 1085.73 756.426 1090.81 754.982C1092.77 754.427 1094.32 750.859 1095.54 749.185C1094.55 746.095 1093.36 743.523 1091.14 741.187ZM1103.72 748.331C1103.61 748.442 1103.49 748.552 1103.38 748.671C1102.86 748.923 1102.46 749.326 1102.02 749.692C1100.29 751.133 1095.46 756.552 1095.58 758.725C1095.67 760.386 1100.62 761.571 1102.02 761.939C1102.74 762.126 1103.09 762.153 1103.72 762.279C1104 762.334 1104.31 762.557 1104.75 762.619C1105.07 762.667 1105.44 762.584 1105.77 762.619C1106.31 762.677 1106.83 762.924 1107.47 762.96C1112.18 763.227 1116.88 762.65 1121.41 761.427C1122.14 761.233 1126.66 759.756 1126.83 759.523C1127.5 758.597 1123.76 753.622 1122.95 752.75C1121.14 750.796 1119.44 749.525 1116.99 748.671C1112.83 745.102 1107.95 744.312 1103.72 748.331Z" fill="#232315"/>
<path d="M1091.14 741.187C1090.71 740.736 1089.89 739.923 1089.44 739.486C1085.91 736.081 1081.52 732.949 1076.51 732.341C1074.76 731.394 1072.62 731.709 1070.73 731.664L1076.51 732.341C1078.87 733.626 1077.67 738.562 1077.03 740.854C1075.14 747.596 1066.65 753.954 1060.52 756.84C1060.43 757.401 1060.98 757.155 1061.37 757.177C1062.1 757.219 1062.85 757.146 1063.58 757.177V757.857C1062.9 757.854 1062.21 757.891 1061.54 757.857C1057.47 757.648 1048.34 756.27 1045.29 753.551C1044.26 752.637 1046.03 749.99 1046.64 748.91C1051.16 740.877 1061.1 731.95 1070.6 731.025C1077.94 730.308 1087.08 735.149 1091.14 741.189L1091.14 741.187Z" fill="#E5B055"/>
<path d="M1115.75 748.738C1117.34 752.328 1110.25 757.209 1107.65 758.887C1106.21 759.812 1104.71 760.768 1103.05 761.258C1104.02 761.483 1105.59 761.825 1106.47 762.096C1106.92 762.237 1107.28 762.516 1107.47 762.96C1106.83 762.924 1106.31 762.677 1105.77 762.62C1105.53 762.221 1104.86 762.08 1104.75 762.62C1104.31 762.557 1104 762.334 1103.73 762.279L1102.02 761.939C1100.62 761.571 1095.67 760.386 1095.58 758.725C1095.46 756.552 1100.29 751.135 1102.02 749.692C1102.46 749.328 1102.86 748.923 1103.39 748.671C1103.49 748.552 1103.61 748.442 1103.73 748.331C1107.95 744.312 1112.83 745.104 1116.99 748.671C1116.32 748.438 1115.69 748.035 1114.95 747.994C1114.87 748.54 1115.51 748.209 1115.75 748.738Z" fill="#E5B055"/>
<path d="M1116.99 748.671C1119.44 749.525 1121.14 750.796 1122.95 752.75C1123.76 753.622 1127.5 758.597 1126.83 759.523C1126.66 759.756 1122.14 761.233 1121.41 761.427C1116.88 762.65 1112.18 763.227 1107.47 762.96C1107.28 762.516 1106.92 762.237 1106.47 762.095C1105.59 761.825 1104.02 761.483 1103.05 761.258C1104.71 760.768 1106.21 759.812 1107.65 758.887C1110.25 757.209 1117.34 752.328 1115.75 748.738C1115.51 748.21 1114.87 748.542 1114.96 747.994C1115.69 748.035 1116.33 748.438 1116.99 748.671H1116.99Z" fill="#D39332"/>
<path d="M1091.14 741.187C1090.71 740.736 1089.89 739.923 1089.44 739.485C1089.28 740.259 1089.77 740.535 1090.09 741.039C1091.79 743.649 1095.2 747.657 1093.39 750.762C1091.84 753.433 1090.46 753.83 1087.54 754.424C1080.9 755.771 1070.19 757.449 1063.58 757.175V757.855C1062.91 757.852 1062.22 757.889 1061.54 757.855C1063.06 758.482 1065.26 758.196 1066.98 758.196C1067.21 758.196 1067.44 758.196 1067.66 758.196C1069.06 758.191 1070.95 758.485 1072.09 757.855C1077.36 757.653 1085.73 756.426 1090.81 754.982C1092.77 754.427 1094.32 750.859 1095.54 749.185C1094.55 746.095 1093.36 743.523 1091.14 741.187Z" fill="#E5B055"/>
<path d="M1103.72 762.279C1103.09 762.153 1102.74 762.125 1102.02 761.938L1103.72 762.279Z" fill="#D39332"/>
<path d="M1105.77 762.619C1105.44 762.583 1105.07 762.667 1104.75 762.619C1104.86 762.08 1105.53 762.221 1105.77 762.619Z" fill="#E5B055"/>
<path d="M1076.51 732.343C1081.52 732.948 1085.91 736.082 1089.44 739.487C1089.28 740.261 1089.77 740.536 1090.09 741.04C1091.79 743.65 1095.21 747.659 1093.4 750.764C1091.84 753.435 1090.46 753.831 1087.54 754.425C1080.9 755.773 1070.2 757.45 1063.59 757.176C1062.85 757.146 1062.11 757.219 1061.37 757.176C1060.99 757.154 1060.43 757.401 1060.53 756.839C1066.66 753.954 1075.14 747.596 1077.03 740.853C1077.67 738.561 1078.88 733.625 1076.51 732.341L1076.51 732.343Z" fill="#D39332"/>
<path d="M1076.51 732.343L1070.73 731.666C1072.62 731.71 1074.77 731.395 1076.51 732.343Z" fill="#E7A933"/>
</g>
<mask id="mask7_269_276" style="mask-type:luminance" maskUnits="userSpaceOnUse" x="2220" y="382" width="37" height="37">
<path d="M2257 382H2220V419H2257V382Z" fill="white"/>
</mask>
<g mask="url(#mask7_269_276)">
<path d="M2231.9 396.39C2231.88 396.355 2231.93 396.208 2231.9 396.192C2231.85 396.159 2231.64 396.236 2231.53 396.169C2231.45 396.123 2230.52 394.987 2230.35 394.798C2228.42 392.669 2227.23 390.606 2226.76 387.8C2226.49 386.226 2226.68 384.763 2228.09 383.791C2229.24 382.998 2229.95 383.251 2231.16 383.673C2235.86 385.306 2235.83 389.661 2236.18 393.937C2236.25 394.819 2236.49 395.69 2236.38 396.591C2236.21 396.57 2235.72 396.491 2235.63 396.491H2234.14C2234.1 396.491 2233.92 396.386 2233.75 396.382C2233.4 396.377 2232.06 396.646 2231.9 396.39Z" fill="#B7CFD4"/>
<path d="M2255.29 388.243C2255.3 388.272 2255.48 388.26 2255.53 388.628C2256.32 393.691 2249.2 397.639 2245.22 398.952C2243.61 399.485 2241.87 399.941 2240.17 399.857C2239.96 399.643 2241.16 397.472 2241.36 397.111C2241.71 396.487 2242.3 395.473 2242.74 394.896C2242.89 394.691 2243.25 394.476 2243.28 394.442C2243.34 394.347 2243.46 393.906 2243.59 393.758C2244.33 392.867 2244.99 392.012 2245.86 391.188C2246.94 390.156 2247.89 388.874 2249.12 387.877C2250.52 386.746 2253.35 385.161 2254.84 386.898C2254.94 387.017 2255.33 387.635 2255.35 387.751C2255.39 387.95 2255.25 388.146 2255.29 388.243Z" fill="#B7CFD4"/>
<path d="M2235.4 397.697C2235.39 397.71 2235.32 397.744 2235.3 397.786L2236.56 397.969C2237.31 398.184 2237.51 398.234 2238.11 398.537C2238.6 398.784 2238.89 398.732 2239.26 399.233C2239.13 399.301 2239.33 399.456 2239.35 399.635C2239.4 400.257 2239.22 400.989 2239.44 401.582C2239.27 402.54 2238.59 403.964 2238 404.743L2237.19 405.466C2236.93 405.766 2236.64 405.863 2236.29 406.008C2235.8 406.214 2235.11 406.422 2234.59 406.549C2232.52 407.057 2230.36 406.164 2229.56 404.201C2229.12 403.118 2228.86 402.039 2229.11 400.858C2229.4 399.805 2230.44 398.483 2231.38 398.09C2231.49 398.041 2231.58 397.973 2231.6 397.969C2231.76 397.934 2231.99 397.955 2232.12 398.056L2232.08 397.879C2232.19 397.864 2232.32 397.896 2232.43 397.879C2233.42 397.714 2234.27 397.738 2235.22 397.607C2235.26 397.602 2235.31 397.611 2235.35 397.608C2235.4 397.626 2235.4 397.655 2235.4 397.697Z" fill="#302312"/>
<path d="M2241.96 402.881C2243.87 404.191 2245.63 405.456 2246.78 407.498C2247.1 408.055 2247.61 409.213 2247.36 409.832C2246.88 411.055 2243.87 411.255 2242.8 410.922C2241.36 410.473 2240.14 408.831 2239.66 407.483C2239.59 407.282 2239.4 406.797 2239.44 406.615C2239.51 406.315 2240.43 405.422 2240.65 405C2240.76 404.778 2240.82 404.436 2240.9 404.218C2241.1 403.693 2241.36 403.181 2241.43 402.61C2241.47 402.569 2241.88 402.828 2241.96 402.881Z" fill="#35372D"/>
<path d="M2256.86 388.604C2256.65 387.73 2256 386.483 2255.34 385.867C2252.65 383.335 2248.84 385.307 2246.54 387.316C2245.73 388.03 2244.62 389.088 2243.91 389.892C2243.41 390.445 2242.77 391.282 2242.31 391.885C2241.25 393.28 2240.17 394.867 2239.5 396.489C2239.43 396.54 2238.02 395.97 2237.99 395.727C2237.94 392.652 2238.09 389.134 2236.63 386.35C2236.05 385.24 2234.82 383.784 2233.75 383.131C2232.69 382.485 2230.47 381.867 2229.25 382.025C2227.69 382.228 2225.81 383.651 2225.27 385.143C2225.24 385.24 2225.23 385.417 2225.19 385.545C2225.14 385.718 2224.95 386.361 2224.95 386.471V388.322C2224.95 389.777 2226.33 392.731 2227.16 393.908C2227.83 394.855 2228.7 395.635 2229.43 396.53C2228.51 397.144 2227.58 398.013 2227.35 399.149C2225.85 398.823 2224.36 398.163 2222.89 397.803C2222.58 397.728 2222.22 397.623 2221.91 397.619C2221.02 397.607 2220.54 398.199 2220.79 399.068C2221.11 400.209 2223.34 400.356 2224.37 400.656C2224.99 400.837 2226.69 401.123 2226.58 401.945C2226.49 402.547 2226.89 402.989 2226.94 403.535C2226.21 403.636 2225.48 403.546 2224.75 403.576C2223.88 403.612 2222.76 403.678 2221.89 403.841C2221.63 403.891 2221.01 404.029 2220.79 404.14C2220.18 404.458 2219.84 405.423 2220.07 406.071C2220.33 406.264 2220.37 406.37 2220.71 406.474C2220.84 406.513 2220.98 406.552 2221.11 406.554C2221.8 406.565 2222.82 406.128 2223.63 406.072C2224.43 406.017 2225.24 406.021 2226.04 406.061C2226.45 406.081 2226.85 406.111 2227.26 406.148C2227.5 406.17 2228.09 406.121 2228.25 406.332C2228.49 406.64 2228.76 406.876 2229.04 407.146C2229.25 407.353 2229.57 407.661 2229.46 407.995C2229.01 409.35 2228.1 411.454 2227.44 412.726C2227.03 413.517 2225.87 414.768 2225.99 415.603C2226.1 416.353 2227.02 416.658 2227.67 416.415C2228.21 416.212 2228.87 415 2229.17 414.466C2230.2 412.678 2230.94 410.661 2231.68 408.738C2231.72 408.611 2232.77 408.97 2232.9 409.004C2233.41 409.132 2233.94 409.252 2234.46 409.204C2234.8 409.173 2236.17 408.387 2236.22 408.97C2236.33 410.303 2236.45 411.637 2236.42 412.976C2236.39 414.334 2236.22 415.682 2235.99 417.019C2235.98 417.07 2235.99 417.129 2235.99 417.18C2235.9 417.704 2235.81 418.096 2236.18 418.552C2236.52 418.963 2237.09 419.084 2237.59 418.951C2237.64 418.936 2237.83 418.68 2237.99 418.709C2238.06 418.568 2238.18 418.359 2238.23 418.226C2238.26 418.123 2238.36 417.835 2238.39 417.744C2238.41 417.654 2238.46 417.52 2238.47 417.502C2238.48 417.431 2238.45 417.334 2238.47 417.261C2238.54 416.857 2238.58 416.386 2238.63 415.973C2238.68 415.552 2238.75 415.086 2238.79 414.685C2238.88 413.436 2238.92 412.146 2238.79 410.902C2240.11 412.266 2241.04 414.29 2241.67 416.092C2241.88 416.715 2242.07 417.8 2242.29 418.285C2242.42 418.584 2242.84 418.746 2242.94 418.951C2243.32 418.941 2243.7 418.998 2244.06 418.87C2244.48 418.721 2244.73 418.048 2244.66 417.648C2244.61 417.41 2244.49 417.196 2244.38 416.979C2243.98 416.17 2243.89 415.271 2243.54 414.446C2243.46 414.242 2243.01 413.531 2243.11 413.397C2243.16 413.324 2243.99 413.431 2244.12 413.432C2244.51 413.433 2244.9 413.421 2245.29 413.387C2246.05 413.32 2246.81 413.177 2247.52 412.87C2249.23 412.122 2249.99 410.41 2249.65 408.585C2249.24 406.418 2247.71 404.519 2246.15 403.053C2245.46 402.408 2244.69 401.808 2243.91 401.284C2244.03 401.367 2245.03 400.988 2245.18 400.947C2248.79 400.007 2252.75 398.229 2255.02 395.127C2256.31 393.366 2257.39 390.813 2256.86 388.607V388.604ZM2228.26 391.051C2227.78 390.062 2227.44 388.984 2227.33 387.889C2227.21 386.761 2227.48 385.908 2228.28 385.093C2228.58 384.79 2228.91 384.508 2229.32 384.395C2230.27 384.133 2231.52 384.617 2232.33 385.095C2233.18 385.596 2233.91 386.317 2234.4 387.183C2235.08 388.378 2235.36 389.758 2235.5 391.112C2235.57 391.8 2235.61 392.492 2235.63 393.184C2235.66 393.902 2235.73 394.653 2235.58 395.362C2235.53 395.358 2235.48 395.337 2235.42 395.319C2234.65 395.079 2233.66 395.138 2232.88 395.177C2232.57 395.192 2232.25 395.219 2231.95 395.177C2231.1 395.059 2230.35 394.076 2229.83 393.467C2229.21 392.734 2228.68 391.92 2228.26 391.052V391.051ZM2238.02 403.816C2236.46 406.231 2232.67 407.169 2230.59 404.864C2229.13 403.241 2229.22 400.864 2230.68 399.29C2231.55 398.363 2232.8 398.154 2234.03 398.124C2234.38 398.115 2234.74 398.131 2235.1 398.171C2236.42 398.318 2239.01 398.82 2238.97 400.589C2238.95 401.719 2238.63 402.865 2238.02 403.816ZM2246.78 407.498C2247.1 408.055 2247.61 409.213 2247.36 409.832C2246.88 411.055 2243.87 411.255 2242.8 410.921C2241.36 410.472 2240.14 408.83 2239.66 407.483C2239.59 407.282 2239.4 406.796 2239.44 406.615C2239.51 406.315 2240.43 405.422 2240.65 405C2240.76 404.778 2240.82 404.436 2240.9 404.218C2241.1 403.693 2241.36 403.181 2241.43 402.61C2241.47 402.569 2241.88 402.828 2241.96 402.881C2243.87 404.191 2245.63 405.456 2246.78 407.498ZM2254.3 391.295C2253.15 395.235 2247.08 398.137 2243.35 398.787C2242.95 398.857 2241.66 399.082 2241.38 398.91C2241.29 398.858 2241.2 398.724 2241.18 398.62C2241.12 398.167 2242.39 395.935 2242.7 395.445C2242.84 395.238 2243.15 395.018 2243.18 394.721C2243.18 394.722 2243.18 394.723 2243.18 394.723C2243.18 394.723 2243.18 394.723 2243.18 394.721C2245.11 392.419 2248.73 387.39 2251.87 387.084C2254.32 386.846 2254.86 389.375 2254.3 391.295Z" fill="#040507"/>
</g>
</svg>
