<svg width="880" height="124" viewBox="0 0 880 124" fill="none" xmlns="http://www.w3.org/2000/svg">
<rect width="880" height="124" rx="16" fill="url(#paint0_linear_6372_78941)" fill-opacity="0.07"/>
<rect x="0.5" y="0.5" width="879" height="123" rx="15.5" stroke="#37404C" stroke-opacity="0.2"/>
<rect x="10.5" y="10.5" width="859" height="103" rx="11.5" fill="#CCE6FF" fill-opacity="0.05"/>
<rect x="10.5" y="10.5" width="859" height="103" rx="11.5" stroke="#556375" stroke-dasharray="6 6"/>
<mask id="mask0_6372_78941" style="mask-type:alpha" maskUnits="userSpaceOnUse" x="14" y="22" width="852" height="84">
<rect x="14" y="22" width="852" height="84" fill="url(#paint1_linear_6372_78941)"/>
</mask>
<g mask="url(#mask0_6372_78941)">
<path d="M14 45H88" stroke="url(#paint2_linear_6372_78941)" stroke-linecap="round"/>
<rect x="92.25" y="37.25" width="15.5" height="15.5" rx="7.75" stroke="white" stroke-opacity="0.8" stroke-width="0.5"/>
<path d="M100.878 41.4545V48H99.4943V42.7681H99.456L97.957 43.7077V42.4805L99.5774 41.4545H100.878Z" fill="white"/>
<path d="M112 45L195 45" stroke="white" stroke-opacity="0.2" stroke-linecap="round"/>
<path d="M199 45C199 40.0294 203.029 36 208 36H236C240.971 36 245 40.0294 245 45C245 49.9706 240.971 54 236 54H208C203.029 54 199 49.9706 199 45Z" fill="white" fill-opacity="0.07"/>
<path d="M205.942 49V41.7273H208.4C208.968 41.7273 209.434 41.8243 209.799 42.0185C210.163 42.2102 210.433 42.4742 210.608 42.8104C210.784 43.1465 210.871 43.5289 210.871 43.9574C210.871 44.3859 210.784 44.7659 210.608 45.0973C210.433 45.4287 210.165 45.6892 209.802 45.8786C209.44 46.0656 208.977 46.1591 208.414 46.1591H206.425V45.3636H208.385C208.774 45.3636 209.086 45.3068 209.323 45.1932C209.562 45.0795 209.735 44.9186 209.841 44.7102C209.95 44.4995 210.005 44.2486 210.005 43.9574C210.005 43.6662 209.95 43.4117 209.841 43.1939C209.732 42.9761 209.558 42.808 209.319 42.6896C209.08 42.5689 208.764 42.5085 208.371 42.5085H206.823V49H205.942ZM209.366 45.733L211.155 49H210.133L208.371 45.733H209.366ZM214.453 49.1136C213.928 49.1136 213.474 48.9976 213.093 48.7656C212.715 48.5312 212.422 48.2045 212.216 47.7855C212.013 47.3641 211.911 46.8741 211.911 46.3153C211.911 45.7566 212.013 45.2642 212.216 44.8381C212.422 44.4096 212.709 44.0758 213.076 43.8366C213.445 43.5952 213.876 43.4744 214.368 43.4744C214.652 43.4744 214.933 43.5218 215.21 43.6165C215.487 43.7112 215.739 43.8651 215.966 44.0781C216.193 44.2888 216.375 44.5682 216.509 44.9162C216.644 45.2642 216.712 45.6927 216.712 46.2017V46.5568H212.507V45.8324H215.86C215.86 45.5246 215.798 45.25 215.675 45.0085C215.554 44.767 215.381 44.5765 215.157 44.4368C214.934 44.2971 214.671 44.2273 214.368 44.2273C214.034 44.2273 213.746 44.3101 213.502 44.4759C213.26 44.6392 213.074 44.8523 212.944 45.1151C212.814 45.3778 212.749 45.6596 212.749 45.9602V46.4432C212.749 46.8551 212.82 47.2043 212.962 47.4908C213.106 47.7749 213.306 47.9915 213.562 48.1406C213.818 48.2874 214.115 48.3608 214.453 48.3608C214.674 48.3608 214.872 48.33 215.05 48.2685C215.23 48.2045 215.385 48.1098 215.515 47.9844C215.645 47.8565 215.746 47.6979 215.817 47.5085L216.627 47.7358C216.541 48.0104 216.398 48.2519 216.197 48.4602C215.996 48.6662 215.747 48.8272 215.451 48.9432C215.155 49.0568 214.823 49.1136 214.453 49.1136ZM222.281 43.5455L220.264 49H219.412L217.395 43.5455H218.304L219.809 47.892H219.866L221.372 43.5455H222.281ZM223.387 49V43.5455H224.225V49H223.387ZM223.813 42.6364C223.65 42.6364 223.509 42.5807 223.391 42.4695C223.275 42.3582 223.217 42.2244 223.217 42.0682C223.217 41.9119 223.275 41.7782 223.391 41.6669C223.509 41.5556 223.65 41.5 223.813 41.5C223.977 41.5 224.116 41.5556 224.232 41.6669C224.351 41.7782 224.41 41.9119 224.41 42.0682C224.41 42.2244 224.351 42.3582 224.232 42.4695C224.116 42.5807 223.977 42.6364 223.813 42.6364ZM228.047 49.1136C227.522 49.1136 227.068 48.9976 226.687 48.7656C226.308 48.5312 226.016 48.2045 225.81 47.7855C225.606 47.3641 225.505 46.8741 225.505 46.3153C225.505 45.7566 225.606 45.2642 225.81 44.8381C226.016 44.4096 226.302 44.0758 226.669 43.8366C227.039 43.5952 227.469 43.4744 227.962 43.4744C228.246 43.4744 228.527 43.5218 228.804 43.6165C229.081 43.7112 229.333 43.8651 229.56 44.0781C229.787 44.2888 229.968 44.5682 230.103 44.9162C230.238 45.2642 230.306 45.6927 230.306 46.2017V46.5568H226.101V45.8324H229.453C229.453 45.5246 229.392 45.25 229.269 45.0085C229.148 44.767 228.975 44.5765 228.75 44.4368C228.528 44.2971 228.265 44.2273 227.962 44.2273C227.628 44.2273 227.339 44.3101 227.095 44.4759C226.854 44.6392 226.668 44.8523 226.538 45.1151C226.408 45.3778 226.343 45.6596 226.343 45.9602V46.4432C226.343 46.8551 226.414 47.2043 226.556 47.4908C226.7 47.7749 226.9 47.9915 227.156 48.1406C227.411 48.2874 227.709 48.3608 228.047 48.3608C228.267 48.3608 228.466 48.33 228.644 48.2685C228.824 48.2045 228.979 48.1098 229.109 47.9844C229.239 47.8565 229.34 47.6979 229.411 47.5085L230.22 47.7358C230.135 48.0104 229.992 48.2519 229.791 48.4602C229.59 48.6662 229.341 48.8272 229.045 48.9432C228.749 49.0568 228.416 49.1136 228.047 49.1136ZM232.816 49L231.154 43.5455H232.035L233.214 47.7216H233.271L234.436 43.5455H235.331L236.481 47.7074H236.538L237.717 43.5455H238.598L236.936 49H236.112L234.919 44.8097H234.833L233.64 49H232.816Z" fill="white" fill-opacity="0.6"/>
<path d="M249 45L332 45" stroke="white" stroke-opacity="0.2" stroke-linecap="round"/>
<rect x="336.25" y="37.25" width="15.5" height="15.5" rx="7.75" stroke="white" stroke-opacity="0.8" stroke-width="0.5"/>
<path d="M341.531 48V47.0028L343.86 44.8455C344.059 44.6538 344.225 44.4812 344.359 44.3278C344.495 44.1744 344.599 44.0241 344.669 43.8771C344.739 43.728 344.775 43.5671 344.775 43.3945C344.775 43.2028 344.731 43.0376 344.643 42.8991C344.556 42.7585 344.437 42.6509 344.286 42.5763C344.134 42.4996 343.963 42.4613 343.771 42.4613C343.571 42.4613 343.396 42.5018 343.247 42.5827C343.098 42.6637 342.983 42.7798 342.902 42.9311C342.821 43.0824 342.78 43.2624 342.78 43.4712H341.467C341.467 43.043 341.564 42.6712 341.757 42.3558C341.951 42.0405 342.223 41.7965 342.572 41.6239C342.922 41.4513 343.325 41.3651 343.781 41.3651C344.249 41.3651 344.657 41.4482 345.005 41.6143C345.354 41.7784 345.626 42.0064 345.82 42.2983C346.013 42.5902 346.11 42.9247 346.11 43.3018C346.11 43.549 346.061 43.793 345.963 44.0337C345.868 44.2745 345.696 44.5419 345.449 44.8359C345.202 45.1278 344.853 45.4783 344.404 45.8874L343.448 46.8239V46.8686H346.197V48H341.531Z" fill="white"/>
<path d="M356 45L432.5 45" stroke="white" stroke-opacity="0.2" stroke-linecap="round"/>
<path d="M436.5 45C436.5 40.0294 440.529 36 445.5 36H486.5C491.471 36 495.5 40.0294 495.5 45C495.5 49.9706 491.471 54 486.5 54H445.5C440.529 54 436.5 49.9706 436.5 45Z" fill="white" fill-opacity="0.07"/>
<path d="M444.03 41.7273L446.189 47.8494H446.274L448.433 41.7273H449.356L446.686 49H445.777L443.106 41.7273H444.03ZM451.473 49.1278C451.127 49.1278 450.813 49.0627 450.532 48.9325C450.25 48.8 450.026 48.6094 449.861 48.3608C449.695 48.1098 449.612 47.8068 449.612 47.4517C449.612 47.1392 449.674 46.8859 449.797 46.6918C449.92 46.4953 450.084 46.3414 450.29 46.2301C450.496 46.1188 450.723 46.036 450.972 45.9815C451.223 45.9247 451.475 45.8797 451.728 45.8466C452.06 45.804 452.329 45.772 452.535 45.7507C452.743 45.727 452.894 45.688 452.989 45.6335C453.086 45.5791 453.135 45.4844 453.135 45.3494V45.321C453.135 44.9706 453.039 44.6984 452.847 44.5043C452.658 44.3101 452.37 44.2131 451.984 44.2131C451.584 44.2131 451.27 44.3007 451.043 44.4759C450.816 44.651 450.656 44.8381 450.564 45.0369L449.768 44.7528C449.91 44.4214 450.1 44.1634 450.336 43.9787C450.575 43.7917 450.836 43.6615 451.118 43.5881C451.402 43.5123 451.681 43.4744 451.956 43.4744C452.131 43.4744 452.332 43.4957 452.559 43.5384C452.789 43.5786 453.01 43.6626 453.223 43.7905C453.439 43.9183 453.618 44.1113 453.76 44.3693C453.902 44.6274 453.973 44.973 453.973 45.4062V49H453.135V48.2614H453.092C453.035 48.3797 452.941 48.5064 452.808 48.6413C452.675 48.7763 452.499 48.8911 452.279 48.9858C452.059 49.0805 451.79 49.1278 451.473 49.1278ZM451.601 48.375C451.932 48.375 452.211 48.3099 452.439 48.1797C452.668 48.0495 452.841 47.8814 452.957 47.6754C453.075 47.4695 453.135 47.2528 453.135 47.0256V46.2585C453.099 46.3011 453.021 46.3402 452.9 46.3757C452.782 46.4089 452.645 46.4384 452.488 46.4645C452.334 46.4882 452.184 46.5095 452.037 46.5284C451.893 46.545 451.776 46.5592 451.686 46.571C451.468 46.5994 451.264 46.6456 451.075 46.7095C450.888 46.7711 450.736 46.8646 450.62 46.9901C450.507 47.1132 450.45 47.2812 450.45 47.4943C450.45 47.7855 450.558 48.0057 450.773 48.1548C450.991 48.3016 451.267 48.375 451.601 48.375ZM456.34 41.7273V49H455.502V41.7273H456.34ZM457.875 49V43.5455H458.714V49H457.875ZM458.302 42.6364C458.138 42.6364 457.997 42.5807 457.879 42.4695C457.763 42.3582 457.705 42.2244 457.705 42.0682C457.705 41.9119 457.763 41.7782 457.879 41.6669C457.997 41.5556 458.138 41.5 458.302 41.5C458.465 41.5 458.605 41.5556 458.721 41.6669C458.839 41.7782 458.898 41.9119 458.898 42.0682C458.898 42.2244 458.839 42.3582 458.721 42.4695C458.605 42.5807 458.465 42.6364 458.302 42.6364ZM462.308 49.1136C461.854 49.1136 461.452 48.9988 461.104 48.7692C460.756 48.5372 460.484 48.2105 460.288 47.7891C460.091 47.3653 459.993 46.8646 459.993 46.2869C459.993 45.714 460.091 45.2169 460.288 44.7955C460.484 44.3741 460.757 44.0485 461.108 43.8189C461.458 43.5893 461.863 43.4744 462.322 43.4744C462.677 43.4744 462.958 43.5336 463.164 43.652C463.372 43.768 463.531 43.9006 463.64 44.0497C463.751 44.1965 463.838 44.3172 463.899 44.4119H463.97V41.7273H464.808V49H463.998V48.1619H463.899C463.838 48.2614 463.75 48.3868 463.636 48.5384C463.523 48.6875 463.36 48.8213 463.15 48.9396C462.939 49.0556 462.659 49.1136 462.308 49.1136ZM462.422 48.3608C462.758 48.3608 463.042 48.2732 463.274 48.098C463.506 47.9205 463.682 47.6754 463.803 47.3629C463.924 47.0481 463.984 46.6847 463.984 46.2727C463.984 45.8655 463.925 45.5092 463.807 45.2038C463.688 44.8961 463.513 44.657 463.281 44.4865C463.049 44.3137 462.763 44.2273 462.422 44.2273C462.067 44.2273 461.771 44.3184 461.534 44.5007C461.3 44.6806 461.123 44.9257 461.005 45.2358C460.889 45.5436 460.831 45.8892 460.831 46.2727C460.831 46.661 460.89 47.0137 461.008 47.331C461.129 47.6458 461.307 47.8968 461.541 48.0838C461.778 48.2685 462.071 48.3608 462.422 48.3608ZM468.065 49.1278C467.719 49.1278 467.405 49.0627 467.123 48.9325C466.842 48.8 466.618 48.6094 466.452 48.3608C466.287 48.1098 466.204 47.8068 466.204 47.4517C466.204 47.1392 466.265 46.8859 466.388 46.6918C466.512 46.4953 466.676 46.3414 466.882 46.2301C467.088 46.1188 467.315 46.036 467.564 45.9815C467.815 45.9247 468.067 45.8797 468.32 45.8466C468.652 45.804 468.92 45.772 469.126 45.7507C469.335 45.727 469.486 45.688 469.581 45.6335C469.678 45.5791 469.726 45.4844 469.726 45.3494V45.321C469.726 44.9706 469.631 44.6984 469.439 44.5043C469.249 44.3101 468.962 44.2131 468.576 44.2131C468.176 44.2131 467.862 44.3007 467.635 44.4759C467.408 44.651 467.248 44.8381 467.155 45.0369L466.36 44.7528C466.502 44.4214 466.691 44.1634 466.928 43.9787C467.167 43.7917 467.428 43.6615 467.709 43.5881C467.994 43.5123 468.273 43.4744 468.547 43.4744C468.723 43.4744 468.924 43.4957 469.151 43.5384C469.381 43.5786 469.602 43.6626 469.815 43.7905C470.031 43.9183 470.209 44.1113 470.351 44.3693C470.494 44.6274 470.565 44.973 470.565 45.4062V49H469.726V48.2614H469.684C469.627 48.3797 469.532 48.5064 469.4 48.6413C469.267 48.7763 469.091 48.8911 468.871 48.9858C468.65 49.0805 468.382 49.1278 468.065 49.1278ZM468.192 48.375C468.524 48.375 468.803 48.3099 469.03 48.1797C469.26 48.0495 469.433 47.8814 469.549 47.6754C469.667 47.4695 469.726 47.2528 469.726 47.0256V46.2585C469.691 46.3011 469.613 46.3402 469.492 46.3757C469.374 46.4089 469.236 46.4384 469.08 46.4645C468.926 46.4882 468.776 46.5095 468.629 46.5284C468.485 46.545 468.368 46.5592 468.278 46.571C468.06 46.5994 467.856 46.6456 467.667 46.7095C467.48 46.7711 467.328 46.8646 467.212 46.9901C467.099 47.1132 467.042 47.2812 467.042 47.4943C467.042 47.7855 467.15 48.0057 467.365 48.1548C467.583 48.3016 467.859 48.375 468.192 48.375ZM474.466 43.5455V44.2557H471.64V43.5455H474.466ZM472.464 42.2386H473.302V47.4375C473.302 47.6742 473.336 47.8518 473.405 47.9702C473.476 48.0862 473.566 48.1643 473.674 48.2045C473.786 48.2424 473.903 48.2614 474.026 48.2614C474.118 48.2614 474.194 48.2566 474.253 48.2472C474.312 48.2353 474.36 48.2259 474.395 48.2188L474.566 48.9716C474.509 48.9929 474.43 49.0142 474.328 49.0355C474.226 49.0592 474.097 49.071 473.941 49.071C473.704 49.071 473.472 49.0201 473.245 48.9183C473.02 48.8165 472.833 48.6615 472.684 48.4531C472.537 48.2448 472.464 47.982 472.464 47.6648V42.2386ZM475.727 49V43.5455H476.565V49H475.727ZM476.153 42.6364C475.99 42.6364 475.849 42.5807 475.731 42.4695C475.615 42.3582 475.557 42.2244 475.557 42.0682C475.557 41.9119 475.615 41.7782 475.731 41.6669C475.849 41.5556 475.99 41.5 476.153 41.5C476.316 41.5 476.456 41.5556 476.572 41.6669C476.691 41.7782 476.75 41.9119 476.75 42.0682C476.75 42.2244 476.691 42.3582 476.572 42.4695C476.456 42.5807 476.316 42.6364 476.153 42.6364ZM480.316 49.1136C479.824 49.1136 479.391 48.9964 479.02 48.7621C478.65 48.5277 478.362 48.1998 478.153 47.7784C477.947 47.357 477.844 46.8646 477.844 46.3011C477.844 45.733 477.947 45.237 478.153 44.8132C478.362 44.3894 478.65 44.0604 479.02 43.826C479.391 43.5916 479.824 43.4744 480.316 43.4744C480.808 43.4744 481.239 43.5916 481.609 43.826C481.98 44.0604 482.269 44.3894 482.475 44.8132C482.683 45.237 482.788 45.733 482.788 46.3011C482.788 46.8646 482.683 47.357 482.475 47.7784C482.269 48.1998 481.98 48.5277 481.609 48.7621C481.239 48.9964 480.808 49.1136 480.316 49.1136ZM480.316 48.3608C480.69 48.3608 480.998 48.2649 481.239 48.0732C481.481 47.8814 481.659 47.6293 481.775 47.3168C481.891 47.0043 481.949 46.6657 481.949 46.3011C481.949 45.9366 481.891 45.5968 481.775 45.282C481.659 44.9671 481.481 44.7126 481.239 44.5185C480.998 44.3243 480.69 44.2273 480.316 44.2273C479.942 44.2273 479.634 44.3243 479.393 44.5185C479.151 44.7126 478.972 44.9671 478.856 45.282C478.74 45.5968 478.682 45.9366 478.682 46.3011C478.682 46.6657 478.74 47.0043 478.856 47.3168C478.972 47.6293 479.151 47.8814 479.393 48.0732C479.634 48.2649 479.942 48.3608 480.316 48.3608ZM484.905 45.7188V49H484.067V43.5455H484.877V44.3977H484.948C485.075 44.1207 485.27 43.8982 485.53 43.7301C485.79 43.5597 486.127 43.4744 486.538 43.4744C486.908 43.4744 487.231 43.5502 487.508 43.7017C487.785 43.8509 488 44.0781 488.154 44.3835C488.308 44.6866 488.385 45.0701 488.385 45.5341V49H487.547V45.5909C487.547 45.1624 487.436 44.8286 487.213 44.5895C486.991 44.348 486.685 44.2273 486.297 44.2273C486.029 44.2273 485.79 44.2853 485.58 44.4013C485.371 44.5173 485.207 44.6866 485.086 44.9091C484.965 45.1316 484.905 45.4015 484.905 45.7188Z" fill="white" fill-opacity="0.6"/>
<path d="M499.5 45L576 45" stroke="white" stroke-opacity="0.2" stroke-linecap="round"/>
<rect x="580.25" y="37.25" width="15.5" height="15.5" rx="7.75" stroke="white" stroke-opacity="0.8" stroke-width="0.5"/>
<path d="M587.95 48.0895C587.473 48.0895 587.048 48.0075 586.675 47.8434C586.304 47.6772 586.011 47.4492 585.796 47.1594C585.583 46.8675 585.473 46.5309 585.467 46.1495H586.86C586.869 46.3093 586.921 46.4499 587.017 46.5714C587.115 46.6907 587.245 46.7834 587.407 46.8494C587.569 46.9155 587.751 46.9485 587.953 46.9485C588.164 46.9485 588.35 46.9112 588.512 46.8366C588.674 46.7621 588.801 46.6587 588.893 46.5266C588.984 46.3945 589.03 46.2422 589.03 46.0696C589.03 45.8949 588.981 45.7404 588.883 45.6062C588.787 45.4698 588.649 45.3633 588.468 45.2866C588.289 45.2099 588.076 45.1715 587.828 45.1715H587.218V44.1552H587.828C588.037 44.1552 588.222 44.119 588.381 44.0465C588.543 43.9741 588.669 43.8739 588.759 43.7461C588.848 43.6161 588.893 43.4648 588.893 43.2923C588.893 43.1282 588.853 42.9844 588.775 42.8608C588.698 42.7351 588.589 42.6371 588.449 42.5668C588.31 42.4964 588.148 42.4613 587.963 42.4613C587.775 42.4613 587.604 42.4954 587.448 42.5636C587.293 42.6296 587.168 42.7244 587.074 42.848C586.98 42.9716 586.93 43.1165 586.924 43.2827H585.598C585.604 42.9055 585.712 42.5732 585.92 42.2855C586.129 41.9979 586.411 41.7731 586.764 41.6112C587.12 41.4471 587.522 41.3651 587.969 41.3651C588.421 41.3651 588.816 41.4471 589.155 41.6112C589.494 41.7752 589.757 41.9968 589.944 42.2759C590.134 42.5529 590.228 42.864 590.225 43.2092C590.228 43.5756 590.114 43.8814 589.884 44.1264C589.656 44.3714 589.358 44.527 588.992 44.593V44.6442C589.473 44.706 589.84 44.8732 590.091 45.146C590.345 45.4165 590.471 45.7553 590.468 46.1623C590.471 46.5352 590.363 46.8665 590.146 47.1562C589.93 47.446 589.633 47.674 589.254 47.8402C588.875 48.0064 588.44 48.0895 587.95 48.0895Z" fill="white"/>
<path d="M600 45H760" stroke="white" stroke-opacity="0.2" stroke-linecap="round"/>
<rect x="764.25" y="37.25" width="15.5" height="15.5" rx="7.75" stroke="white" stroke-opacity="0.8" stroke-width="0.5"/>
<path d="M768.931 46.8494V45.7596L771.664 41.4545H772.604V42.9631H772.048L770.325 45.6893V45.7404H774.208V46.8494H768.931ZM772.073 48V46.517L772.099 46.0344V41.4545H773.396V48H772.073Z" fill="white"/>
<path d="M784 45H866" stroke="url(#paint3_linear_6372_78941)" stroke-linecap="round"/>
<path d="M64.0898 79C64.0898 72.9249 69.0147 68 75.0898 68H128.09C134.165 68 139.09 72.9249 139.09 79C139.09 85.0751 134.165 90 128.09 90H75.0898C69.0147 90 64.0898 85.0751 64.0898 79Z" fill="#3C5D51" fill-opacity="0.6"/>
<path d="M73.2085 84V73.8182H76.8377C77.6299 73.8182 78.2861 73.9624 78.8065 74.2507C79.3268 74.5391 79.7163 74.9335 79.9748 75.4339C80.2333 75.9311 80.3626 76.4912 80.3626 77.1143C80.3626 77.7408 80.2317 78.3042 79.9698 78.8047C79.7113 79.3018 79.3202 79.6963 78.7965 79.9879C78.2762 80.2763 77.6216 80.4205 76.8327 80.4205H74.337V79.1179H76.6935C77.194 79.1179 77.6 79.0317 77.9116 78.8594C78.2231 78.6837 78.4518 78.4451 78.5977 78.1435C78.7435 77.8419 78.8164 77.4988 78.8164 77.1143C78.8164 76.7299 78.7435 76.3885 78.5977 76.0902C78.4518 75.7919 78.2215 75.5582 77.9066 75.3892C77.5951 75.2202 77.1841 75.1357 76.6737 75.1357H74.7447V84H73.2085ZM83.5307 73.8182V84H82.0442V73.8182H83.5307ZM88.8217 84.1541C88.0694 84.1541 87.4214 83.9934 86.8778 83.6719C86.3376 83.3471 85.92 82.8913 85.625 82.3047C85.3333 81.7147 85.1875 81.0237 85.1875 80.2315C85.1875 79.4493 85.3333 78.7599 85.625 78.1634C85.92 77.5668 86.331 77.1011 86.858 76.7663C87.3883 76.4316 88.008 76.2642 88.7173 76.2642C89.1482 76.2642 89.5658 76.3355 89.9702 76.478C90.3745 76.6205 90.7375 76.8442 91.0589 77.1491C91.3804 77.4541 91.634 77.8501 91.8196 78.3374C92.0052 78.8213 92.098 79.4096 92.098 80.1023V80.6293H86.0277V79.5156H90.6413C90.6413 79.1245 90.5618 78.7782 90.4027 78.4766C90.2436 78.1716 90.0199 77.9313 89.7315 77.7557C89.4465 77.58 89.1117 77.4922 88.7273 77.4922C88.3097 77.4922 87.9451 77.5949 87.6335 77.8004C87.3253 78.0026 87.0866 78.2678 86.9176 78.5959C86.7519 78.9207 86.669 79.2737 86.669 79.6548V80.5249C86.669 81.0353 86.7585 81.4695 86.9375 81.8274C87.1198 82.1854 87.3733 82.4588 87.6982 82.6477C88.023 82.8333 88.4025 82.9261 88.8366 82.9261C89.1184 82.9261 89.3752 82.8864 89.6072 82.8068C89.8393 82.724 90.0398 82.6013 90.2088 82.4389C90.3778 82.2765 90.5071 82.076 90.5966 81.8374L92.0036 82.0909C91.8909 82.5052 91.6887 82.8681 91.397 83.1797C91.1087 83.4879 90.7457 83.7282 90.3082 83.9006C89.8741 84.0696 89.3786 84.1541 88.8217 84.1541ZM96.606 84.1491C95.9895 84.1491 95.4393 83.9917 94.9554 83.6768C94.4748 83.3587 94.097 82.9062 93.8219 82.3196C93.5501 81.7296 93.4142 81.022 93.4142 80.1967C93.4142 79.3714 93.5518 78.6655 93.8269 78.0788C94.1053 77.4922 94.4864 77.0431 94.9703 76.7315C95.4542 76.42 96.0028 76.2642 96.6159 76.2642C97.0899 76.2642 97.4711 76.3438 97.7594 76.5028C98.0511 76.6586 98.2765 76.8409 98.4355 77.0497C98.598 77.2585 98.7239 77.4425 98.8134 77.6016H98.9029V73.8182H100.389V84H98.9377V82.8118H98.8134C98.7239 82.9742 98.5946 83.1598 98.4256 83.3686C98.2599 83.5774 98.0312 83.7597 97.7395 83.9155C97.4479 84.0713 97.07 84.1491 96.606 84.1491ZM96.9341 82.8814C97.3617 82.8814 97.723 82.7687 98.0179 82.5433C98.3162 82.3146 98.5416 81.9981 98.6941 81.5938C98.8498 81.1894 98.9277 80.7187 98.9277 80.1818C98.9277 79.6515 98.8515 79.1875 98.699 78.7898C98.5466 78.392 98.3229 78.0821 98.0279 77.8601C97.7329 77.638 97.3683 77.527 96.9341 77.527C96.4867 77.527 96.1138 77.643 95.8155 77.875C95.5172 78.107 95.2918 78.4235 95.1394 78.8246C94.9902 79.2256 94.9157 79.678 94.9157 80.1818C94.9157 80.6922 94.9919 81.1513 95.1444 81.5589C95.2968 81.9666 95.5222 82.2898 95.8205 82.5284C96.1221 82.7637 96.4933 82.8814 96.9341 82.8814ZM105.713 87.0227C105.106 87.0227 104.584 86.9432 104.147 86.7841C103.712 86.625 103.358 86.4145 103.083 86.1527C102.808 85.8909 102.602 85.6042 102.466 85.2926L103.744 84.7656C103.833 84.9115 103.953 85.0656 104.102 85.228C104.254 85.3937 104.46 85.5346 104.718 85.6506C104.98 85.7666 105.317 85.8246 105.728 85.8246C106.291 85.8246 106.757 85.687 107.125 85.4119C107.493 85.1402 107.676 84.706 107.676 84.1094V82.608H107.582C107.493 82.7704 107.363 82.951 107.194 83.1499C107.029 83.3487 106.8 83.5211 106.508 83.6669C106.217 83.8127 105.837 83.8857 105.37 83.8857C104.766 83.8857 104.223 83.7448 103.739 83.4631C103.258 83.178 102.877 82.7588 102.596 82.2053C102.317 81.6484 102.178 80.964 102.178 80.152C102.178 79.34 102.315 78.6439 102.591 78.0639C102.869 77.4839 103.25 77.0398 103.734 76.7315C104.218 76.42 104.766 76.2642 105.38 76.2642C105.854 76.2642 106.236 76.3438 106.528 76.5028C106.82 76.6586 107.047 76.8409 107.209 77.0497C107.375 77.2585 107.502 77.4425 107.592 77.6016H107.701V76.3636H109.158V84.169C109.158 84.8253 109.006 85.3639 108.701 85.7848C108.396 86.2057 107.983 86.5173 107.463 86.7195C106.946 86.9216 106.362 87.0227 105.713 87.0227ZM105.698 82.6527C106.125 82.6527 106.487 82.5533 106.782 82.3544C107.08 82.1522 107.305 81.8639 107.458 81.4893C107.614 81.1115 107.691 80.6591 107.691 80.1321C107.691 79.6184 107.615 79.166 107.463 78.7749C107.31 78.3838 107.087 78.0788 106.792 77.8601C106.497 77.638 106.132 77.527 105.698 77.527C105.25 77.527 104.877 77.643 104.579 77.875C104.281 78.1037 104.056 78.4152 103.903 78.8097C103.754 79.2041 103.679 79.6449 103.679 80.1321C103.679 80.6326 103.756 81.0717 103.908 81.4496C104.06 81.8274 104.286 82.1224 104.584 82.3345C104.886 82.5466 105.257 82.6527 105.698 82.6527ZM111.152 84V76.3636H112.638V84H111.152ZM111.902 75.1854C111.644 75.1854 111.422 75.0992 111.236 74.9268C111.054 74.7512 110.963 74.5424 110.963 74.3004C110.963 74.0552 111.054 73.8464 111.236 73.674C111.422 73.4983 111.644 73.4105 111.902 73.4105C112.161 73.4105 112.381 73.4983 112.564 73.674C112.749 73.8464 112.842 74.0552 112.842 74.3004C112.842 74.5424 112.749 74.7512 112.564 74.9268C112.381 75.0992 112.161 75.1854 111.902 75.1854ZM116.124 79.4659V84H114.638V76.3636H116.065V77.6065H116.159C116.335 77.2022 116.61 76.8774 116.985 76.6321C117.362 76.3868 117.838 76.2642 118.411 76.2642C118.932 76.2642 119.387 76.3736 119.779 76.5923C120.17 76.8078 120.473 77.1293 120.688 77.5568C120.904 77.9844 121.012 78.513 121.012 79.1428V84H119.525V79.3217C119.525 78.7682 119.381 78.3357 119.093 78.0241C118.804 77.7093 118.408 77.5518 117.904 77.5518C117.56 77.5518 117.253 77.6264 116.985 77.7756C116.719 77.9247 116.509 78.1435 116.353 78.4318C116.201 78.7169 116.124 79.0616 116.124 79.4659ZM126.207 87.0227C125.6 87.0227 125.078 86.9432 124.641 86.7841C124.207 86.625 123.852 86.4145 123.577 86.1527C123.302 85.8909 123.096 85.6042 122.96 85.2926L124.238 84.7656C124.328 84.9115 124.447 85.0656 124.596 85.228C124.749 85.3937 124.954 85.5346 125.213 85.6506C125.474 85.7666 125.811 85.8246 126.222 85.8246C126.785 85.8246 127.251 85.687 127.619 85.4119C127.987 85.1402 128.171 84.706 128.171 84.1094V82.608H128.076C127.987 82.7704 127.857 82.951 127.688 83.1499C127.523 83.3487 127.294 83.5211 127.002 83.6669C126.711 83.8127 126.331 83.8857 125.864 83.8857C125.261 83.8857 124.717 83.7448 124.233 83.4631C123.753 83.178 123.371 82.7588 123.09 82.2053C122.811 81.6484 122.672 80.964 122.672 80.152C122.672 79.34 122.81 78.6439 123.085 78.0639C123.363 77.4839 123.744 77.0398 124.228 76.7315C124.712 76.42 125.261 76.2642 125.874 76.2642C126.348 76.2642 126.731 76.3438 127.022 76.5028C127.314 76.6586 127.541 76.8409 127.703 77.0497C127.869 77.2585 127.997 77.4425 128.086 77.6016H128.195V76.3636H129.652V84.169C129.652 84.8253 129.5 85.3639 129.195 85.7848C128.89 86.2057 128.477 86.5173 127.957 86.7195C127.44 86.9216 126.856 87.0227 126.207 87.0227ZM126.192 82.6527C126.619 82.6527 126.981 82.5533 127.276 82.3544C127.574 82.1522 127.799 81.8639 127.952 81.4893C128.108 81.1115 128.186 80.6591 128.186 80.1321C128.186 79.6184 128.109 79.166 127.957 78.7749C127.804 78.3838 127.581 78.0788 127.286 77.8601C126.991 77.638 126.626 77.527 126.192 77.527C125.744 77.527 125.372 77.643 125.073 77.875C124.775 78.1037 124.55 78.4152 124.397 78.8097C124.248 79.2041 124.173 79.6449 124.173 80.1321C124.173 80.6326 124.25 81.0717 124.402 81.4496C124.555 81.8274 124.78 82.1224 125.078 82.3345C125.38 82.5466 125.751 82.6527 126.192 82.6527Z" fill="#7BDFB1"/>
<rect x="282.441" y="68" width="126" height="22" rx="11" fill="#7ACAFF" fill-opacity="0.15"/>
<path d="M291.56 84V73.8182H295.189C295.981 73.8182 296.638 73.9624 297.158 74.2507C297.678 74.5391 298.068 74.9335 298.326 75.4339C298.585 75.9311 298.714 76.4912 298.714 77.1143C298.714 77.7408 298.583 78.3042 298.321 78.8047C298.063 79.3018 297.672 79.6963 297.148 79.9879C296.628 80.2763 295.973 80.4205 295.184 80.4205H292.689V79.1179H295.045C295.546 79.1179 295.952 79.0317 296.263 78.8594C296.575 78.6837 296.803 78.4451 296.949 78.1435C297.095 77.8419 297.168 77.4988 297.168 77.1143C297.168 76.7299 297.095 76.3885 296.949 76.0902C296.803 75.7919 296.573 75.5582 296.258 75.3892C295.947 75.2202 295.536 75.1357 295.025 75.1357H293.096V84H291.56ZM300.396 84V76.3636H301.833V77.5767H301.912C302.051 77.1657 302.297 76.8426 302.648 76.6072C303.003 76.3686 303.404 76.2493 303.851 76.2493C303.944 76.2493 304.053 76.2526 304.179 76.2592C304.308 76.2659 304.41 76.2741 304.482 76.2841V77.706C304.423 77.6894 304.317 77.6712 304.164 77.6513C304.012 77.6281 303.859 77.6165 303.707 77.6165C303.356 77.6165 303.042 77.6911 302.767 77.8402C302.495 77.986 302.28 78.1899 302.121 78.4517C301.962 78.7102 301.882 79.0052 301.882 79.3366V84H300.396ZM308.787 84.1541C308.034 84.1541 307.386 83.9934 306.843 83.6719C306.302 83.3471 305.885 82.8913 305.59 82.3047C305.298 81.7147 305.152 81.0237 305.152 80.2315C305.152 79.4493 305.298 78.7599 305.59 78.1634C305.885 77.5668 306.296 77.1011 306.823 76.7663C307.353 76.4316 307.973 76.2642 308.682 76.2642C309.113 76.2642 309.531 76.3355 309.935 76.478C310.339 76.6205 310.702 76.8442 311.024 77.1491C311.345 77.4541 311.599 77.8501 311.784 78.3374C311.97 78.8213 312.063 79.4096 312.063 80.1023V80.6293H305.993V79.5156H310.606C310.606 79.1245 310.527 78.7782 310.368 78.4766C310.208 78.1716 309.985 77.9313 309.696 77.7557C309.411 77.58 309.077 77.4922 308.692 77.4922C308.275 77.4922 307.91 77.5949 307.598 77.8004C307.29 78.0026 307.051 78.2678 306.882 78.5959C306.717 78.9207 306.634 79.2737 306.634 79.6548V80.5249C306.634 81.0353 306.723 81.4695 306.902 81.8274C307.085 82.1854 307.338 82.4588 307.663 82.6477C307.988 82.8333 308.367 82.9261 308.801 82.9261C309.083 82.9261 309.34 82.8864 309.572 82.8068C309.804 82.724 310.005 82.6013 310.174 82.4389C310.343 82.2765 310.472 82.076 310.561 81.8374L311.968 82.0909C311.856 82.5052 311.654 82.8681 311.362 83.1797C311.074 83.4879 310.711 83.7282 310.273 83.9006C309.839 84.0696 309.343 84.1541 308.787 84.1541ZM317.346 76.3636V77.5568H313.031V76.3636H317.346ZM314.214 84V75.4787C314.214 75.0014 314.319 74.6053 314.528 74.2905C314.736 73.9723 315.013 73.7353 315.358 73.5795C315.702 73.4205 316.077 73.3409 316.481 73.3409C316.78 73.3409 317.035 73.3658 317.247 73.4155C317.459 73.4619 317.617 73.505 317.719 73.5447L317.371 74.7479C317.302 74.728 317.212 74.7048 317.103 74.6783C316.993 74.6484 316.861 74.6335 316.705 74.6335C316.344 74.6335 316.085 74.723 315.93 74.902C315.777 75.081 315.701 75.3395 315.701 75.6776V84H314.214ZM321.871 84.1541C321.118 84.1541 320.47 83.9934 319.927 83.6719C319.386 83.3471 318.969 82.8913 318.674 82.3047C318.382 81.7147 318.236 81.0237 318.236 80.2315C318.236 79.4493 318.382 78.7599 318.674 78.1634C318.969 77.5668 319.38 77.1011 319.907 76.7663C320.437 76.4316 321.057 76.2642 321.766 76.2642C322.197 76.2642 322.615 76.3355 323.019 76.478C323.423 76.6205 323.786 76.8442 324.108 77.1491C324.429 77.4541 324.683 77.8501 324.868 78.3374C325.054 78.8213 325.147 79.4096 325.147 80.1023V80.6293H319.077V79.5156H323.69C323.69 79.1245 323.611 78.7782 323.452 78.4766C323.292 78.1716 323.069 77.9313 322.78 77.7557C322.495 77.58 322.161 77.4922 321.776 77.4922C321.358 77.4922 320.994 77.5949 320.682 77.8004C320.374 78.0026 320.135 78.2678 319.966 78.5959C319.801 78.9207 319.718 79.2737 319.718 79.6548V80.5249C319.718 81.0353 319.807 81.4695 319.986 81.8274C320.169 82.1854 320.422 82.4588 320.747 82.6477C321.072 82.8333 321.451 82.9261 321.885 82.9261C322.167 82.9261 322.424 82.8864 322.656 82.8068C322.888 82.724 323.089 82.6013 323.258 82.4389C323.427 82.2765 323.556 82.076 323.645 81.8374L325.052 82.0909C324.94 82.5052 324.738 82.8681 324.446 83.1797C324.157 83.4879 323.795 83.7282 323.357 83.9006C322.923 84.0696 322.427 84.1541 321.871 84.1541ZM326.796 84V76.3636H328.233V77.5767H328.312C328.452 77.1657 328.697 76.8426 329.048 76.6072C329.403 76.3686 329.804 76.2493 330.251 76.2493C330.344 76.2493 330.454 76.2526 330.58 76.2592C330.709 76.2659 330.81 76.2741 330.883 76.2841V77.706C330.823 77.6894 330.717 77.6712 330.565 77.6513C330.412 77.6281 330.26 77.6165 330.107 77.6165C329.756 77.6165 329.443 77.6911 329.168 77.8402C328.896 77.986 328.68 78.1899 328.521 78.4517C328.362 78.7102 328.283 79.0052 328.283 79.3366V84H326.796ZM332.169 84V76.3636H333.606V77.5767H333.686C333.825 77.1657 334.07 76.8426 334.421 76.6072C334.776 76.3686 335.177 76.2493 335.624 76.2493C335.717 76.2493 335.827 76.2526 335.953 76.2592C336.082 76.2659 336.183 76.2741 336.256 76.2841V77.706C336.196 77.6894 336.09 77.6712 335.938 77.6513C335.785 77.6281 335.633 77.6165 335.48 77.6165C335.129 77.6165 334.816 77.6911 334.541 77.8402C334.269 77.986 334.053 78.1899 333.894 78.4517C333.735 78.7102 333.656 79.0052 333.656 79.3366V84H332.169ZM340.56 84.1541C339.808 84.1541 339.16 83.9934 338.616 83.6719C338.076 83.3471 337.658 82.8913 337.363 82.3047C337.072 81.7147 336.926 81.0237 336.926 80.2315C336.926 79.4493 337.072 78.7599 337.363 78.1634C337.658 77.5668 338.069 77.1011 338.596 76.7663C339.127 76.4316 339.746 76.2642 340.456 76.2642C340.886 76.2642 341.304 76.3355 341.708 76.478C342.113 76.6205 342.476 76.8442 342.797 77.1491C343.119 77.4541 343.372 77.8501 343.558 78.3374C343.743 78.8213 343.836 79.4096 343.836 80.1023V80.6293H337.766V79.5156H342.38C342.38 79.1245 342.3 78.7782 342.141 78.4766C341.982 78.1716 341.758 77.9313 341.47 77.7557C341.185 77.58 340.85 77.4922 340.466 77.4922C340.048 77.4922 339.683 77.5949 339.372 77.8004C339.064 78.0026 338.825 78.2678 338.656 78.5959C338.49 78.9207 338.407 79.2737 338.407 79.6548V80.5249C338.407 81.0353 338.497 81.4695 338.676 81.8274C338.858 82.1854 339.112 82.4588 339.436 82.6477C339.761 82.8333 340.141 82.9261 340.575 82.9261C340.857 82.9261 341.114 82.8864 341.346 82.8068C341.578 82.724 341.778 82.6013 341.947 82.4389C342.116 82.2765 342.245 82.076 342.335 81.8374L343.742 82.0909C343.629 82.5052 343.427 82.8681 343.135 83.1797C342.847 83.4879 342.484 83.7282 342.047 83.9006C341.612 84.0696 341.117 84.1541 340.56 84.1541ZM348.344 84.1491C347.728 84.1491 347.178 83.9917 346.694 83.6768C346.213 83.3587 345.835 82.9062 345.56 82.3196C345.288 81.7296 345.153 81.022 345.153 80.1967C345.153 79.3714 345.29 78.6655 345.565 78.0788C345.844 77.4922 346.225 77.0431 346.709 76.7315C347.193 76.42 347.741 76.2642 348.354 76.2642C348.828 76.2642 349.209 76.3438 349.498 76.5028C349.789 76.6586 350.015 76.8409 350.174 77.0497C350.336 77.2585 350.462 77.4425 350.552 77.6016H350.641V73.8182H352.128V84H350.676V82.8118H350.552C350.462 82.9742 350.333 83.1598 350.164 83.3686C349.998 83.5774 349.769 83.7597 349.478 83.9155C349.186 84.0713 348.808 84.1491 348.344 84.1491ZM348.672 82.8814C349.1 82.8814 349.461 82.7687 349.756 82.5433C350.055 82.3146 350.28 81.9981 350.432 81.5938C350.588 81.1894 350.666 80.7187 350.666 80.1818C350.666 79.6515 350.59 79.1875 350.437 78.7898C350.285 78.392 350.061 78.0821 349.766 77.8601C349.471 77.638 349.107 77.527 348.672 77.527C348.225 77.527 347.852 77.643 347.554 77.875C347.256 78.107 347.03 78.4235 346.878 78.8246C346.729 79.2256 346.654 79.678 346.654 80.1818C346.654 80.6922 346.73 81.1513 346.883 81.5589C347.035 81.9666 347.26 82.2898 347.559 82.5284C347.86 82.7637 348.232 82.8814 348.672 82.8814ZM358.074 84V73.8182H361.703C362.492 73.8182 363.146 73.9541 363.667 74.2259C364.19 74.4976 364.581 74.8738 364.84 75.3544C365.099 75.8317 365.228 76.3835 365.228 77.0099C365.228 77.633 365.097 78.1816 364.835 78.6555C364.577 79.1262 364.185 79.4924 363.662 79.7543C363.141 80.0161 362.487 80.147 361.698 80.147H358.949V78.8246H361.559C362.056 78.8246 362.46 78.7533 362.772 78.6108C363.087 78.4683 363.317 78.2611 363.463 77.9893C363.609 77.7176 363.682 77.3911 363.682 77.0099C363.682 76.6255 363.607 76.2924 363.458 76.0107C363.312 75.7289 363.082 75.5135 362.767 75.3643C362.455 75.2119 362.046 75.1357 361.539 75.1357H359.61V84H358.074ZM363.1 79.4062L365.616 84H363.866L361.4 79.4062H363.1ZM370.099 84.1541C369.383 84.1541 368.758 83.9901 368.224 83.6619C367.691 83.3338 367.277 82.8748 366.982 82.2848C366.687 81.6948 366.539 81.0054 366.539 80.2166C366.539 79.4245 366.687 78.7318 366.982 78.1385C367.277 77.5452 367.691 77.0845 368.224 76.7564C368.758 76.4283 369.383 76.2642 370.099 76.2642C370.815 76.2642 371.439 76.4283 371.973 76.7564C372.507 77.0845 372.921 77.5452 373.216 78.1385C373.511 78.7318 373.658 79.4245 373.658 80.2166C373.658 81.0054 373.511 81.6948 373.216 82.2848C372.921 82.8748 372.507 83.3338 371.973 83.6619C371.439 83.9901 370.815 84.1541 370.099 84.1541ZM370.104 82.9062C370.568 82.9062 370.952 82.7836 371.257 82.5384C371.562 82.2931 371.787 81.9666 371.933 81.5589C372.082 81.1513 372.157 80.7022 372.157 80.2116C372.157 79.7244 372.082 79.277 371.933 78.8693C371.787 78.4583 371.562 78.1286 371.257 77.88C370.952 77.6314 370.568 77.5071 370.104 77.5071C369.636 77.5071 369.249 77.6314 368.94 77.88C368.635 78.1286 368.408 78.4583 368.259 78.8693C368.113 79.277 368.04 79.7244 368.04 80.2116C368.04 80.7022 368.113 81.1513 368.259 81.5589C368.408 81.9666 368.635 82.2931 368.94 82.5384C369.249 82.7836 369.636 82.9062 370.104 82.9062ZM380.155 80.8331V76.3636H381.646V84H380.185V82.6776H380.105C379.93 83.0852 379.648 83.425 379.26 83.6967C378.876 83.9652 378.397 84.0994 377.823 84.0994C377.333 84.0994 376.899 83.9917 376.521 83.7763C376.146 83.5575 375.851 83.2344 375.636 82.8068C375.424 82.3793 375.318 81.8506 375.318 81.2209V76.3636H376.804V81.0419C376.804 81.5623 376.948 81.9766 377.237 82.2848C377.525 82.593 377.9 82.7472 378.36 82.7472C378.639 82.7472 378.915 82.6776 379.191 82.5384C379.469 82.3991 379.699 82.1887 379.882 81.907C380.067 81.6252 380.158 81.2673 380.155 80.8331ZM385.13 79.4659V84H383.644V76.3636H385.071V77.6065H385.165C385.341 77.2022 385.616 76.8774 385.99 76.6321C386.368 76.3868 386.844 76.2642 387.417 76.2642C387.938 76.2642 388.393 76.3736 388.784 76.5923C389.176 76.8078 389.479 77.1293 389.694 77.5568C389.91 77.9844 390.017 78.513 390.017 79.1428V84H388.531V79.3217C388.531 78.7682 388.387 78.3357 388.098 78.0241C387.81 77.7093 387.414 77.5518 386.91 77.5518C386.565 77.5518 386.259 77.6264 385.99 77.7756C385.725 77.9247 385.515 78.1435 385.359 78.4318C385.207 78.7169 385.13 79.0616 385.13 79.4659ZM394.87 84.1491C394.253 84.1491 393.703 83.9917 393.219 83.6768C392.739 83.3587 392.361 82.9062 392.086 82.3196C391.814 81.7296 391.678 81.022 391.678 80.1967C391.678 79.3714 391.815 78.6655 392.091 78.0788C392.369 77.4922 392.75 77.0431 393.234 76.7315C393.718 76.42 394.266 76.2642 394.88 76.2642C395.354 76.2642 395.735 76.3438 396.023 76.5028C396.315 76.6586 396.54 76.8409 396.699 77.0497C396.862 77.2585 396.988 77.4425 397.077 77.6016H397.167V73.8182H398.653V84H397.201V82.8118H397.077C396.988 82.9742 396.858 83.1598 396.689 83.3686C396.524 83.5774 396.295 83.7597 396.003 83.9155C395.712 84.0713 395.334 84.1491 394.87 84.1491ZM395.198 82.8814C395.625 82.8814 395.987 82.7687 396.282 82.5433C396.58 82.3146 396.805 81.9981 396.958 81.5938C397.114 81.1894 397.191 80.7187 397.191 80.1818C397.191 79.6515 397.115 79.1875 396.963 78.7898C396.81 78.392 396.587 78.0821 396.292 77.8601C395.997 77.638 395.632 77.527 395.198 77.527C394.75 77.527 394.377 77.643 394.079 77.875C393.781 78.107 393.556 78.4235 393.403 78.8246C393.254 79.2256 393.179 79.678 393.179 80.1818C393.179 80.6922 393.256 81.1513 393.408 81.5589C393.56 81.9666 393.786 82.2898 394.084 82.5284C394.386 82.7637 394.757 82.8814 395.198 82.8814Z" fill="#7ACAFF"/>
<path d="M538.793 79C538.793 72.9249 543.718 68 549.793 68H631.793C637.868 68 642.793 72.9249 642.793 79V79C642.793 85.0751 637.868 90 631.793 90H549.793C543.718 90 538.793 85.0751 538.793 79V79Z" fill="#E4A361" fill-opacity="0.15"/>
<path d="M547.912 84V73.8182H554.225V75.1406H549.448V78.2429H553.773V79.5604H549.448V84H547.912ZM564.571 77.1293H563.02C562.961 76.7978 562.85 76.5062 562.687 76.2543C562.525 76.0024 562.326 75.7886 562.091 75.6129C561.855 75.4373 561.592 75.3047 561.3 75.2152C561.012 75.1257 560.705 75.081 560.38 75.081C559.794 75.081 559.268 75.2285 558.804 75.5234C558.344 75.8184 557.979 76.2509 557.711 76.821C557.445 77.3911 557.313 78.0871 557.313 78.9091C557.313 79.7377 557.445 80.437 557.711 81.0071C557.979 81.5772 558.345 82.008 558.809 82.2997C559.273 82.5914 559.795 82.7372 560.375 82.7372C560.697 82.7372 561.002 82.6941 561.29 82.608C561.582 82.5185 561.845 82.3875 562.081 82.2152C562.316 82.0429 562.515 81.8324 562.677 81.5838C562.843 81.3319 562.957 81.0436 563.02 80.7188L564.571 80.7237C564.489 81.2242 564.328 81.6849 564.089 82.1058C563.854 82.5234 563.551 82.8847 563.179 83.1896C562.811 83.4912 562.391 83.7249 561.917 83.8906C561.443 84.0563 560.926 84.1392 560.365 84.1392C559.484 84.1392 558.698 83.9304 558.009 83.5128C557.319 83.0919 556.776 82.4903 556.378 81.7081C555.984 80.9259 555.787 79.9929 555.787 78.9091C555.787 77.822 555.985 76.889 556.383 76.1101C556.781 75.3279 557.324 74.728 558.014 74.3104C558.703 73.8894 559.487 73.679 560.365 73.679C560.906 73.679 561.409 73.7569 561.877 73.9126C562.347 74.0651 562.77 74.2905 563.145 74.5888C563.519 74.8838 563.829 75.245 564.074 75.6726C564.319 76.0968 564.485 76.5824 564.571 77.1293ZM566.41 84V73.8182H572.724V75.1406H567.946V78.2429H572.271V79.5604H567.946V84H566.41ZM580.166 76.4929C580.113 76.0223 579.894 75.6577 579.51 75.3991C579.125 75.1373 578.641 75.0064 578.058 75.0064C577.64 75.0064 577.279 75.0727 576.974 75.2053C576.669 75.3345 576.432 75.5135 576.263 75.7422C576.098 75.9676 576.015 76.2244 576.015 76.5128C576.015 76.7547 576.071 76.9635 576.184 77.1392C576.3 77.3149 576.451 77.4624 576.636 77.5817C576.825 77.6977 577.027 77.7955 577.243 77.875C577.458 77.9512 577.665 78.0142 577.864 78.0639L578.858 78.3224C579.183 78.402 579.516 78.5097 579.858 78.6456C580.199 78.7815 580.516 78.9605 580.807 79.1825C581.099 79.4046 581.334 79.6797 581.513 80.0078C581.696 80.3359 581.787 80.7287 581.787 81.1861C581.787 81.7628 581.638 82.2749 581.339 82.7223C581.044 83.1697 580.615 83.5227 580.052 83.7812C579.492 84.0398 578.814 84.169 578.018 84.169C577.256 84.169 576.596 84.0481 576.04 83.8061C575.483 83.5642 575.047 83.2211 574.732 82.777C574.417 82.3295 574.243 81.7992 574.21 81.1861H575.751C575.781 81.554 575.9 81.8606 576.109 82.1058C576.321 82.3478 576.591 82.5284 576.92 82.6477C577.251 82.7637 577.614 82.8217 578.008 82.8217C578.443 82.8217 578.829 82.7538 579.167 82.6179C579.508 82.4787 579.777 82.2865 579.972 82.0412C580.168 81.7926 580.265 81.5026 580.265 81.1712C580.265 80.8696 580.179 80.6226 580.007 80.4304C579.838 80.2382 579.608 80.0791 579.316 79.9531C579.028 79.8272 578.701 79.7161 578.336 79.62L577.133 79.2919C576.318 79.0698 575.672 78.7434 575.194 78.3125C574.72 77.8816 574.483 77.3116 574.483 76.6023C574.483 76.0156 574.643 75.5036 574.961 75.0661C575.279 74.6286 575.71 74.2888 576.253 74.0469C576.797 73.8016 577.41 73.679 578.093 73.679C578.782 73.679 579.39 73.8 579.917 74.0419C580.448 74.2839 580.865 74.617 581.17 75.0412C581.475 75.4621 581.634 75.946 581.648 76.4929H580.166ZM587.328 84V73.8182H590.957C591.746 73.8182 592.4 73.9541 592.921 74.2259C593.444 74.4976 593.835 74.8738 594.094 75.3544C594.352 75.8317 594.482 76.3835 594.482 77.0099C594.482 77.633 594.351 78.1816 594.089 78.6555C593.83 79.1262 593.439 79.4924 592.916 79.7543C592.395 80.0161 591.741 80.147 590.952 80.147H588.203V78.8246H590.813C591.31 78.8246 591.714 78.7533 592.026 78.6108C592.341 78.4683 592.571 78.2611 592.717 77.9893C592.863 77.7176 592.936 77.3911 592.936 77.0099C592.936 76.6255 592.861 76.2924 592.712 76.0107C592.566 75.7289 592.336 75.5135 592.021 75.3643C591.709 75.2119 591.3 75.1357 590.793 75.1357H588.864V84H587.328ZM592.354 79.4062L594.869 84H593.119L590.654 79.4062H592.354ZM599.353 84.1541C598.637 84.1541 598.012 83.9901 597.478 83.6619C596.945 83.3338 596.53 82.8748 596.235 82.2848C595.94 81.6948 595.793 81.0054 595.793 80.2166C595.793 79.4245 595.94 78.7318 596.235 78.1385C596.53 77.5452 596.945 77.0845 597.478 76.7564C598.012 76.4283 598.637 76.2642 599.353 76.2642C600.069 76.2642 600.693 76.4283 601.227 76.7564C601.761 77.0845 602.175 77.5452 602.47 78.1385C602.765 78.7318 602.912 79.4245 602.912 80.2166C602.912 81.0054 602.765 81.6948 602.47 82.2848C602.175 82.8748 601.761 83.3338 601.227 83.6619C600.693 83.9901 600.069 84.1541 599.353 84.1541ZM599.358 82.9062C599.822 82.9062 600.206 82.7836 600.511 82.5384C600.816 82.2931 601.041 81.9666 601.187 81.5589C601.336 81.1513 601.411 80.7022 601.411 80.2116C601.411 79.7244 601.336 79.277 601.187 78.8693C601.041 78.4583 600.816 78.1286 600.511 77.88C600.206 77.6314 599.822 77.5071 599.358 77.5071C598.89 77.5071 598.502 77.6314 598.194 77.88C597.889 78.1286 597.662 78.4583 597.513 78.8693C597.367 79.277 597.294 79.7244 597.294 80.2116C597.294 80.7022 597.367 81.1513 597.513 81.5589C597.662 81.9666 597.889 82.2931 598.194 82.5384C598.502 82.7836 598.89 82.9062 599.358 82.9062ZM609.409 80.8331V76.3636H610.9V84H609.439V82.6776H609.359C609.184 83.0852 608.902 83.425 608.514 83.6967C608.13 83.9652 607.651 84.0994 607.077 84.0994C606.587 84.0994 606.153 83.9917 605.775 83.7763C605.4 83.5575 605.105 83.2344 604.89 82.8068C604.678 82.3793 604.572 81.8506 604.572 81.2209V76.3636H606.058V81.0419C606.058 81.5623 606.202 81.9766 606.491 82.2848C606.779 82.593 607.153 82.7472 607.614 82.7472C607.893 82.7472 608.169 82.6776 608.444 82.5384C608.723 82.3991 608.953 82.1887 609.135 81.907C609.321 81.6252 609.412 81.2673 609.409 80.8331ZM614.384 79.4659V84H612.898V76.3636H614.325V77.6065H614.419C614.595 77.2022 614.87 76.8774 615.244 76.6321C615.622 76.3868 616.098 76.2642 616.671 76.2642C617.192 76.2642 617.647 76.3736 618.038 76.5923C618.429 76.8078 618.733 77.1293 618.948 77.5568C619.164 77.9844 619.271 78.513 619.271 79.1428V84H617.785V79.3217C617.785 78.7682 617.641 78.3357 617.352 78.0241C617.064 77.7093 616.668 77.5518 616.164 77.5518C615.819 77.5518 615.513 77.6264 615.244 77.7756C614.979 77.9247 614.769 78.1435 614.613 78.4318C614.46 78.7169 614.384 79.0616 614.384 79.4659ZM624.124 84.1491C623.507 84.1491 622.957 83.9917 622.473 83.6768C621.992 83.3587 621.615 82.9062 621.339 82.3196C621.068 81.7296 620.932 81.022 620.932 80.1967C620.932 79.3714 621.069 78.6655 621.344 78.0788C621.623 77.4922 622.004 77.0431 622.488 76.7315C622.972 76.42 623.52 76.2642 624.134 76.2642C624.607 76.2642 624.989 76.3438 625.277 76.5028C625.569 76.6586 625.794 76.8409 625.953 77.0497C626.116 77.2585 626.241 77.4425 626.331 77.6016H626.42V73.8182H627.907V84H626.455V82.8118H626.331C626.241 82.9742 626.112 83.1598 625.943 83.3686C625.777 83.5774 625.549 83.7597 625.257 83.9155C624.965 84.0713 624.588 84.1491 624.124 84.1491ZM624.452 82.8814C624.879 82.8814 625.241 82.7687 625.536 82.5433C625.834 82.3146 626.059 81.9981 626.212 81.5938C626.367 81.1894 626.445 80.7187 626.445 80.1818C626.445 79.6515 626.369 79.1875 626.217 78.7898C626.064 78.392 625.84 78.0821 625.545 77.8601C625.25 77.638 624.886 77.527 624.452 77.527C624.004 77.527 623.631 77.643 623.333 77.875C623.035 78.107 622.809 78.4235 622.657 78.8246C622.508 79.2256 622.433 79.678 622.433 80.1818C622.433 80.6922 622.509 81.1513 622.662 81.5589C622.814 81.9666 623.04 82.2898 623.338 82.5284C623.64 82.7637 624.011 82.8814 624.452 82.8814Z" fill="#E4A361"/>
<path d="M633.755 77.5L633.824 75.5903L632.21 76.6146L631.793 75.8854L633.494 75L631.793 74.1146L632.21 73.3854L633.824 74.4097L633.755 72.5H634.588L634.519 74.4097L636.133 73.3854L636.55 74.1146L634.849 75L636.55 75.8854L636.133 76.6146L634.519 75.5903L634.588 77.5H633.755Z" fill="#E4A361"/>
<path d="M562.351 101.5L562.424 99.5903L560.727 100.615L560.289 99.8854L562.077 99L560.289 98.1146L560.727 97.3854L562.424 98.4097L562.351 96.5H563.227L563.154 98.4097L564.851 97.3854L565.289 98.1146L563.501 99L565.289 99.8854L564.851 100.615L563.154 99.5903L563.227 101.5H562.351Z" fill="white" fill-opacity="0.6"/>
<path d="M570.05 95.7273V103H569.17V95.7273H570.05ZM574.132 97.5455V98.2557H571.191V97.5455H574.132ZM572.072 103V96.7926C572.072 96.4801 572.145 96.2197 572.292 96.0114C572.439 95.803 572.629 95.6468 572.864 95.5426C573.098 95.4384 573.346 95.3864 573.606 95.3864C573.812 95.3864 573.98 95.4029 574.11 95.4361C574.24 95.4692 574.338 95.5 574.401 95.5284L574.16 96.2528C574.117 96.2386 574.058 96.2209 573.982 96.1996C573.909 96.1783 573.812 96.1676 573.691 96.1676C573.414 96.1676 573.214 96.2375 573.091 96.3771C572.97 96.5168 572.91 96.7216 572.91 96.9915V103H572.072ZM578.531 103H577.607L580.278 95.7273H581.187L583.857 103H582.934L580.761 96.8778H580.704L578.531 103ZM578.871 100.159H582.593V100.94H578.871V100.159ZM588.653 97.5455L586.636 103H585.784L583.767 97.5455H584.676L586.181 101.892H586.238L587.744 97.5455H588.653ZM591.198 103.128C590.853 103.128 590.539 103.063 590.257 102.933C589.976 102.8 589.752 102.609 589.586 102.361C589.42 102.11 589.338 101.807 589.338 101.452C589.338 101.139 589.399 100.886 589.522 100.692C589.645 100.495 589.81 100.341 590.016 100.23C590.222 100.119 590.449 100.036 590.698 99.9815C590.949 99.9247 591.201 99.8797 591.454 99.8466C591.785 99.804 592.054 99.772 592.26 99.7507C592.468 99.727 592.62 99.688 592.715 99.6335C592.812 99.5791 592.86 99.4844 592.86 99.3494V99.321C592.86 98.9706 592.764 98.6984 592.573 98.5043C592.383 98.3101 592.096 98.2131 591.71 98.2131C591.31 98.2131 590.996 98.3007 590.769 98.4759C590.541 98.651 590.382 98.8381 590.289 99.0369L589.494 98.7528C589.636 98.4214 589.825 98.1634 590.062 97.9787C590.301 97.7917 590.561 97.6615 590.843 97.5881C591.127 97.5123 591.407 97.4744 591.681 97.4744C591.856 97.4744 592.058 97.4957 592.285 97.5384C592.515 97.5786 592.736 97.6626 592.949 97.7905C593.164 97.9183 593.343 98.1113 593.485 98.3693C593.627 98.6274 593.698 98.973 593.698 99.4062V103H592.86V102.261H592.818C592.761 102.38 592.666 102.506 592.534 102.641C592.401 102.776 592.225 102.891 592.004 102.986C591.784 103.08 591.516 103.128 591.198 103.128ZM591.326 102.375C591.658 102.375 591.937 102.31 592.164 102.18C592.394 102.049 592.567 101.881 592.683 101.675C592.801 101.469 592.86 101.253 592.86 101.026V100.259C592.825 100.301 592.747 100.34 592.626 100.376C592.508 100.409 592.37 100.438 592.214 100.464C592.06 100.488 591.91 100.509 591.763 100.528C591.619 100.545 591.501 100.559 591.411 100.571C591.194 100.599 590.99 100.646 590.801 100.71C590.614 100.771 590.462 100.865 590.346 100.99C590.232 101.113 590.176 101.281 590.176 101.494C590.176 101.786 590.283 102.006 590.499 102.155C590.717 102.302 590.992 102.375 591.326 102.375ZM595.228 103V97.5455H596.066V103H595.228ZM595.654 96.6364C595.491 96.6364 595.35 96.5807 595.232 96.4695C595.116 96.3582 595.058 96.2244 595.058 96.0682C595.058 95.9119 595.116 95.7782 595.232 95.6669C595.35 95.5556 595.491 95.5 595.654 95.5C595.817 95.5 595.957 95.5556 596.073 95.6669C596.192 95.7782 596.251 95.9119 596.251 96.0682C596.251 96.2244 596.192 96.3582 596.073 96.4695C595.957 96.5807 595.817 96.6364 595.654 96.6364ZM598.439 95.7273V103H597.601V95.7273H598.439ZM601.579 103.128C601.234 103.128 600.92 103.063 600.638 102.933C600.356 102.8 600.133 102.609 599.967 102.361C599.801 102.11 599.718 101.807 599.718 101.452C599.718 101.139 599.78 100.886 599.903 100.692C600.026 100.495 600.191 100.341 600.397 100.23C600.603 100.119 600.83 100.036 601.078 99.9815C601.329 99.9247 601.582 99.8797 601.835 99.8466C602.166 99.804 602.435 99.772 602.641 99.7507C602.849 99.727 603.001 99.688 603.096 99.6335C603.193 99.5791 603.241 99.4844 603.241 99.3494V99.321C603.241 98.9706 603.145 98.6984 602.953 98.5043C602.764 98.3101 602.476 98.2131 602.091 98.2131C601.69 98.2131 601.377 98.3007 601.15 98.4759C600.922 98.651 600.762 98.8381 600.67 99.0369L599.875 98.7528C600.017 98.4214 600.206 98.1634 600.443 97.9787C600.682 97.7917 600.942 97.6615 601.224 97.5881C601.508 97.5123 601.788 97.4744 602.062 97.4744C602.237 97.4744 602.439 97.4957 602.666 97.5384C602.895 97.5786 603.117 97.6626 603.33 97.7905C603.545 97.9183 603.724 98.1113 603.866 98.3693C604.008 98.6274 604.079 98.973 604.079 99.4062V103H603.241V102.261H603.199C603.142 102.38 603.047 102.506 602.914 102.641C602.782 102.776 602.605 102.891 602.385 102.986C602.165 103.08 601.896 103.128 601.579 103.128ZM601.707 102.375C602.038 102.375 602.318 102.31 602.545 102.18C602.775 102.049 602.948 101.881 603.064 101.675C603.182 101.469 603.241 101.253 603.241 101.026V100.259C603.206 100.301 603.127 100.34 603.007 100.376C602.888 100.409 602.751 100.438 602.595 100.464C602.441 100.488 602.291 100.509 602.144 100.528C601.999 100.545 601.882 100.559 601.792 100.571C601.574 100.599 601.371 100.646 601.181 100.71C600.994 100.771 600.843 100.865 600.727 100.99C600.613 101.113 600.556 101.281 600.556 101.494C600.556 101.786 600.664 102.006 600.88 102.155C601.097 102.302 601.373 102.375 601.707 102.375ZM605.722 103V95.7273H606.561V98.4119H606.632C606.693 98.3172 606.778 98.1965 606.887 98.0497C606.999 97.9006 607.157 97.768 607.363 97.652C607.571 97.5336 607.853 97.4744 608.208 97.4744C608.668 97.4744 609.072 97.5893 609.423 97.8189C609.773 98.0485 610.047 98.3741 610.243 98.7955C610.44 99.2169 610.538 99.714 610.538 100.287C610.538 100.865 610.44 101.365 610.243 101.789C610.047 102.21 609.774 102.537 609.426 102.769C609.078 102.999 608.677 103.114 608.222 103.114C607.872 103.114 607.592 103.056 607.381 102.94C607.17 102.821 607.008 102.687 606.894 102.538C606.781 102.387 606.693 102.261 606.632 102.162H606.532V103H605.722ZM606.546 100.273C606.546 100.685 606.607 101.048 606.727 101.363C606.848 101.675 607.025 101.92 607.257 102.098C607.489 102.273 607.773 102.361 608.109 102.361C608.459 102.361 608.752 102.268 608.986 102.084C609.223 101.897 609.4 101.646 609.519 101.331C609.639 101.014 609.7 100.661 609.7 100.273C609.7 99.8892 609.641 99.5436 609.522 99.2358C609.406 98.9257 609.23 98.6806 608.993 98.5007C608.759 98.3184 608.464 98.2273 608.109 98.2273C607.768 98.2273 607.481 98.3137 607.249 98.4865C607.017 98.657 606.842 98.8961 606.724 99.2038C606.606 99.5092 606.546 99.8655 606.546 100.273ZM612.658 95.7273V103H611.82V95.7273H612.658ZM616.48 103.114C615.954 103.114 615.501 102.998 615.12 102.766C614.741 102.531 614.449 102.205 614.243 101.786C614.039 101.364 613.937 100.874 613.937 100.315C613.937 99.7566 614.039 99.2642 614.243 98.8381C614.449 98.4096 614.735 98.0758 615.102 97.8366C615.471 97.5952 615.902 97.4744 616.395 97.4744C616.679 97.4744 616.959 97.5218 617.236 97.6165C617.513 97.7112 617.765 97.8651 617.993 98.0781C618.22 98.2888 618.401 98.5682 618.536 98.9162C618.671 99.2642 618.738 99.6927 618.738 100.202V100.557H614.534V99.8324H617.886C617.886 99.5246 617.824 99.25 617.701 99.0085C617.581 98.767 617.408 98.5765 617.183 98.4368C616.96 98.2971 616.698 98.2273 616.395 98.2273C616.061 98.2273 615.772 98.3101 615.528 98.4759C615.287 98.6392 615.101 98.8523 614.971 99.1151C614.84 99.3778 614.775 99.6596 614.775 99.9602V100.443C614.775 100.855 614.846 101.204 614.988 101.491C615.133 101.775 615.333 101.991 615.588 102.141C615.844 102.287 616.141 102.361 616.48 102.361C616.7 102.361 616.899 102.33 617.076 102.268C617.256 102.205 617.411 102.11 617.542 101.984C617.672 101.857 617.772 101.698 617.843 101.509L618.653 101.736C618.568 102.01 618.425 102.252 618.223 102.46C618.022 102.666 617.774 102.827 617.478 102.943C617.182 103.057 616.849 103.114 616.48 103.114Z" fill="white" fill-opacity="0.6"/>
<path d="M735.613 79C735.613 72.9249 740.538 68 746.613 68H787.613C793.688 68 798.613 72.9249 798.613 79C798.613 85.0751 793.688 90 787.613 90H746.613C740.538 90 735.613 85.0751 735.613 79Z" fill="#3E4551"/>
<path d="M753.189 77.1293H751.637C751.578 76.7978 751.467 76.5062 751.304 76.2543C751.142 76.0024 750.943 75.7886 750.708 75.6129C750.472 75.4373 750.209 75.3047 749.917 75.2152C749.629 75.1257 749.322 75.081 748.998 75.081C748.411 75.081 747.886 75.2285 747.422 75.5234C746.961 75.8184 746.596 76.2509 746.328 76.821C746.063 77.3911 745.93 78.0871 745.93 78.9091C745.93 79.7377 746.063 80.437 746.328 81.0071C746.596 81.5772 746.962 82.008 747.426 82.2997C747.891 82.5914 748.413 82.7372 748.993 82.7372C749.314 82.7372 749.619 82.6941 749.907 82.608C750.199 82.5185 750.462 82.3875 750.698 82.2152C750.933 82.0429 751.132 81.8324 751.294 81.5838C751.46 81.3319 751.574 81.0436 751.637 80.7188L753.189 80.7237C753.106 81.2242 752.945 81.6849 752.706 82.1058C752.471 82.5234 752.168 82.8847 751.797 83.1896C751.429 83.4912 751.008 83.7249 750.534 83.8906C750.06 84.0563 749.543 84.1392 748.983 84.1392C748.101 84.1392 747.315 83.9304 746.626 83.5128C745.937 83.0919 745.393 82.4903 744.995 81.7081C744.601 80.9259 744.404 79.9929 744.404 78.9091C744.404 77.822 744.603 76.889 745 76.1101C745.398 75.3279 745.942 74.728 746.631 74.3104C747.32 73.8894 748.104 73.679 748.983 73.679C749.523 73.679 750.027 73.7569 750.494 73.9126C750.965 74.0651 751.387 74.2905 751.762 74.5888C752.136 74.8838 752.446 75.245 752.691 75.6726C752.937 76.0968 753.102 76.5824 753.189 77.1293ZM756.394 73.8182V84H754.907V73.8182H756.394ZM761.61 84.1541C760.895 84.1541 760.27 83.9901 759.736 83.6619C759.203 83.3338 758.788 82.8748 758.493 82.2848C758.198 81.6948 758.051 81.0054 758.051 80.2166C758.051 79.4245 758.198 78.7318 758.493 78.1385C758.788 77.5452 759.203 77.0845 759.736 76.7564C760.27 76.4283 760.895 76.2642 761.61 76.2642C762.326 76.2642 762.951 76.4283 763.485 76.7564C764.018 77.0845 764.433 77.5452 764.728 78.1385C765.023 78.7318 765.17 79.4245 765.17 80.2166C765.17 81.0054 765.023 81.6948 764.728 82.2848C764.433 82.8748 764.018 83.3338 763.485 83.6619C762.951 83.9901 762.326 84.1541 761.61 84.1541ZM761.615 82.9062C762.079 82.9062 762.464 82.7836 762.769 82.5384C763.074 82.2931 763.299 81.9666 763.445 81.5589C763.594 81.1513 763.669 80.7022 763.669 80.2116C763.669 79.7244 763.594 79.277 763.445 78.8693C763.299 78.4583 763.074 78.1286 762.769 77.88C762.464 77.6314 762.079 77.5071 761.615 77.5071C761.148 77.5071 760.76 77.6314 760.452 77.88C760.147 78.1286 759.92 78.4583 759.771 78.8693C759.625 79.277 759.552 79.7244 759.552 80.2116C759.552 80.7022 759.625 81.1513 759.771 81.5589C759.92 81.9666 760.147 82.2931 760.452 82.5384C760.76 82.7836 761.148 82.9062 761.615 82.9062ZM772.552 78.228L771.204 78.4666C771.148 78.2943 771.059 78.1302 770.936 77.9744C770.817 77.8187 770.654 77.6911 770.449 77.5916C770.243 77.4922 769.986 77.4425 769.678 77.4425C769.257 77.4425 768.906 77.5369 768.624 77.7259C768.342 77.9115 768.202 78.1518 768.202 78.4467C768.202 78.7019 768.296 78.9074 768.485 79.0632C768.674 79.219 768.979 79.3466 769.4 79.446L770.613 79.7244C771.315 79.8868 771.839 80.1371 772.184 80.4751C772.528 80.8132 772.701 81.2524 772.701 81.7926C772.701 82.25 772.568 82.6577 772.303 83.0156C772.041 83.3703 771.675 83.6487 771.204 83.8509C770.737 84.053 770.195 84.1541 769.579 84.1541C768.724 84.1541 768.026 83.9718 767.486 83.6072C766.945 83.2393 766.614 82.7173 766.491 82.0412L767.928 81.8224C768.018 82.197 768.202 82.4804 768.48 82.6726C768.758 82.8615 769.121 82.956 769.569 82.956C770.056 82.956 770.445 82.8549 770.737 82.6527C771.029 82.4472 771.175 82.197 771.175 81.902C771.175 81.6634 771.085 81.4628 770.906 81.3004C770.73 81.138 770.46 81.0154 770.096 80.9325L768.803 80.6491C768.09 80.4867 767.564 80.2282 767.222 79.8736C766.884 79.5189 766.715 79.0698 766.715 78.5263C766.715 78.0755 766.841 77.6811 767.093 77.343C767.345 77.005 767.693 76.7415 768.137 76.5526C768.581 76.3603 769.09 76.2642 769.663 76.2642C770.488 76.2642 771.138 76.4432 771.612 76.8011C772.086 77.1558 772.399 77.6314 772.552 78.228ZM777.626 84.1541C776.874 84.1541 776.226 83.9934 775.683 83.6719C775.142 83.3471 774.725 82.8913 774.43 82.3047C774.138 81.7147 773.992 81.0237 773.992 80.2315C773.992 79.4493 774.138 78.7599 774.43 78.1634C774.725 77.5668 775.136 77.1011 775.663 76.7663C776.193 76.4316 776.813 76.2642 777.522 76.2642C777.953 76.2642 778.371 76.3355 778.775 76.478C779.179 76.6205 779.542 76.8442 779.864 77.1491C780.185 77.4541 780.439 77.8501 780.624 78.3374C780.81 78.8213 780.903 79.4096 780.903 80.1023V80.6293H774.832V79.5156H779.446C779.446 79.1245 779.366 78.7782 779.207 78.4766C779.048 78.1716 778.825 77.9313 778.536 77.7557C778.251 77.58 777.916 77.4922 777.532 77.4922C777.114 77.4922 776.75 77.5949 776.438 77.8004C776.13 78.0026 775.891 78.2678 775.722 78.5959C775.557 78.9207 775.474 79.2737 775.474 79.6548V80.5249C775.474 81.0353 775.563 81.4695 775.742 81.8274C775.924 82.1854 776.178 82.4588 776.503 82.6477C776.828 82.8333 777.207 82.9261 777.641 82.9261C777.923 82.9261 778.18 82.8864 778.412 82.8068C778.644 82.724 778.844 82.6013 779.013 82.4389C779.183 82.2765 779.312 82.076 779.401 81.8374L780.808 82.0909C780.696 82.5052 780.493 82.8681 780.202 83.1797C779.913 83.4879 779.55 83.7282 779.113 83.9006C778.679 84.0696 778.183 84.1541 777.626 84.1541ZM785.411 84.1491C784.794 84.1491 784.244 83.9917 783.76 83.6768C783.28 83.3587 782.902 82.9062 782.627 82.3196C782.355 81.7296 782.219 81.022 782.219 80.1967C782.219 79.3714 782.356 78.6655 782.632 78.0788C782.91 77.4922 783.291 77.0431 783.775 76.7315C784.259 76.42 784.807 76.2642 785.421 76.2642C785.895 76.2642 786.276 76.3438 786.564 76.5028C786.856 76.6586 787.081 76.8409 787.24 77.0497C787.403 77.2585 787.529 77.4425 787.618 77.6016H787.708V73.8182H789.194V84H787.742V82.8118H787.618C787.529 82.9742 787.399 83.1598 787.23 83.3686C787.065 83.5774 786.836 83.7597 786.544 83.9155C786.253 84.0713 785.875 84.1491 785.411 84.1491ZM785.739 82.8814C786.166 82.8814 786.528 82.7687 786.823 82.5433C787.121 82.3146 787.346 81.9981 787.499 81.5938C787.655 81.1894 787.732 80.7187 787.732 80.1818C787.732 79.6515 787.656 79.1875 787.504 78.7898C787.351 78.392 787.128 78.0821 786.833 77.8601C786.538 77.638 786.173 77.527 785.739 77.527C785.291 77.527 784.919 77.643 784.62 77.875C784.322 78.107 784.097 78.4235 783.944 78.8246C783.795 79.2256 783.72 79.678 783.72 80.1818C783.72 80.6922 783.797 81.1513 783.949 81.5589C784.102 81.9666 784.327 82.2898 784.625 82.5284C784.927 82.7637 785.298 82.8814 785.739 82.8814Z" fill="white" fill-opacity="0.8"/>
</g>
<defs>
<linearGradient id="paint0_linear_6372_78941" x1="0" y1="62" x2="880" y2="62" gradientUnits="userSpaceOnUse">
<stop stop-color="#8FA0B3"/>
<stop offset="1" stop-color="#CCE5FF"/>
</linearGradient>
<linearGradient id="paint1_linear_6372_78941" x1="14" y1="64" x2="866" y2="64" gradientUnits="userSpaceOnUse">
<stop stop-color="white"/>
<stop offset="1" stop-color="#D9D9D9" stop-opacity="0.6"/>
</linearGradient>
<linearGradient id="paint2_linear_6372_78941" x1="88" y1="45.5" x2="14" y2="45.5" gradientUnits="userSpaceOnUse">
<stop stop-color="white" stop-opacity="0.25"/>
<stop offset="0.676263" stop-color="#6D6F73" stop-opacity="0.2"/>
<stop offset="1" stop-color="#272A30" stop-opacity="0"/>
</linearGradient>
<linearGradient id="paint3_linear_6372_78941" x1="784" y1="45.5" x2="866" y2="45.5" gradientUnits="userSpaceOnUse">
<stop stop-color="white" stop-opacity="0.25"/>
<stop offset="0.365385" stop-color="#6D6F73" stop-opacity="0.3"/>
<stop offset="1" stop-color="white" stop-opacity="0"/>
</linearGradient>
</defs>
</svg>
