<svg width="20" height="21" viewBox="0 0 20 21" fill="none" xmlns="http://www.w3.org/2000/svg">
<path d="M3.37838 2.15552C3.37838 2.15552 3.49581 3.61699 3.95323 4.22688C4.41066 4.83678 5.50676 4.99336 5.50676 4.99336C5.50676 4.99336 4.41066 5.14993 3.95323 5.75983C3.49581 6.36972 3.37838 7.83119 3.37838 7.83119C3.37838 7.83119 3.26094 6.36972 2.80352 5.75983C2.3461 5.14993 1.25 4.99336 1.25 4.99336C1.25 4.99336 2.3461 4.83678 2.80352 4.22688C3.26094 3.61699 3.37838 2.15552 3.37838 2.15552Z" fill="url(#paint0_linear_6356_43683)"/>
<path d="M4.7973 13.9798C4.7973 13.9798 4.88864 15.1977 5.24441 15.706C5.60018 16.2142 6.4527 16.3447 6.4527 16.3447C6.4527 16.3447 5.60018 16.4752 5.24441 16.9834C4.88864 17.4917 4.7973 18.7096 4.7973 18.7096C4.7973 18.7096 4.70596 17.4917 4.35019 16.9834C3.99442 16.4752 3.14189 16.3447 3.14189 16.3447C3.14189 16.3447 3.99442 16.2142 4.35019 15.706C4.70596 15.1977 4.7973 13.9798 4.7973 13.9798Z" fill="url(#paint1_linear_6356_43683)"/>
<path d="M10.625 2.8143C10.625 2.8143 11.0733 6.77245 12.8195 8.42425C14.5657 10.076 18.75 10.5001 18.75 10.5001C18.75 10.5001 14.5657 10.9242 12.8195 12.576C11.0733 14.2278 10.625 18.1859 10.625 18.1859C10.625 18.1859 10.1767 14.2278 8.43051 12.576C6.68432 10.9242 2.5 10.5001 2.5 10.5001C2.5 10.5001 6.68432 10.076 8.43051 8.42425C10.1767 6.77245 10.625 2.8143 10.625 2.8143Z" fill="url(#paint2_linear_6356_43683)"/>
<defs>
<linearGradient id="paint0_linear_6356_43683" x1="-5.01502e-09" y1="10" x2="19.9911" y2="10.4225" gradientUnits="userSpaceOnUse">
<stop stop-color="#FE4308"/>
<stop offset="1" stop-color="#F8F7D3"/>
</linearGradient>
<linearGradient id="paint1_linear_6356_43683" x1="-5.01502e-09" y1="10" x2="19.9911" y2="10.4225" gradientUnits="userSpaceOnUse">
<stop stop-color="#FE4308"/>
<stop offset="1" stop-color="#F8F7D3"/>
</linearGradient>
<linearGradient id="paint2_linear_6356_43683" x1="-5.01502e-09" y1="10" x2="19.9911" y2="10.4225" gradientUnits="userSpaceOnUse">
<stop stop-color="#FE4308"/>
<stop offset="1" stop-color="#F8F7D3"/>
</linearGradient>
</defs>
</svg>
