<svg width="139" height="18" viewBox="0 0 139 18" fill="none" xmlns="http://www.w3.org/2000/svg">
<path d="M62.8393 11.3415C62.8393 12.5797 62.5592 13.4789 61.999 14.0392C61.4388 14.5994 60.5398 14.8795 59.3023 14.8795H53.3814C52.1424 14.8795 51.2432 14.5994 50.6836 14.0392C50.1241 13.4789 49.844 12.5797 49.8433 11.3415V6.53806C49.8433 5.29912 50.1234 4.39989 50.6836 3.84037C51.2439 3.28084 52.0646 3.00071 53.3028 3H59.2238C60.4613 3 61.4388 3.28013 61.999 3.84037C62.5592 4.4006 62.8393 5.29983 62.8393 6.53806V11.3415ZM59.9983 6.6736C59.9983 5.96635 59.6448 5.61235 58.9375 5.61163H53.7462C53.0389 5.61163 52.6849 5.96564 52.6842 6.6736V11.2059C52.6842 11.9132 53.0382 12.2672 53.7462 12.2679H58.9396C59.6476 12.2679 60.0012 11.9139 60.0005 11.2059L59.9983 6.6736Z" fill="white"/>
<path d="M13.4361 14.7029H16.622L20.2296 6.60546L23.8372 14.7029H27.022L21.9424 3.17664H18.5168L13.4361 14.7029Z" fill="white"/>
<path d="M7.86056 8.91971L12.7828 3.15712H9.32719L5.42774 7.77453H2.89254V3.17664H0V14.7029H2.89254V10.104H5.46056L9.32719 14.6834H12.7828L7.86056 8.91971Z" fill="white"/>
<path d="M31.9111 3.17664H28.9319V14.7029H31.9111V3.17664Z" fill="white"/>
<path d="M47.2965 3.17668V5.63772H42.3668V14.7029H39.3875V5.63772H34.4567V3.17668H47.2965Z" fill="white"/>
<defs>
<linearGradient id="paint0_linear_4477_12006" x1="70.8389" y1="8.93994" x2="138.839" y2="8.93994" gradientUnits="userSpaceOnUse">
<stop stop-color="#42A5FF"/>
<stop offset="1" stop-color="#32FFDC"/>
</linearGradient>
<linearGradient id="paint1_linear_4477_12006" x1="70.8389" y1="8.93994" x2="138.839" y2="8.93994" gradientUnits="userSpaceOnUse">
<stop stop-color="#42A5FF"/>
<stop offset="1" stop-color="#32FFDC"/>
</linearGradient>
</defs>
</svg>
