<svg width="16" height="16" viewBox="0 0 16 16" fill="none" xmlns="http://www.w3.org/2000/svg">
<path d="M10.0147 7.11106C10.3114 7.11106 10.4602 6.75248 10.2507 6.54235L7.87065 4.15565C7.74079 4.02542 7.74094 3.81462 7.87098 3.68458L8.65324 2.90232C8.78341 2.77214 8.99447 2.77214 9.12464 2.90232L13.9866 7.76425C14.1167 7.89442 14.1167 8.10548 13.9866 8.23565L9.12464 13.0976C8.99447 13.2278 8.78341 13.2278 8.65324 13.0976L7.87098 12.3153C7.74094 12.1853 7.74079 11.9745 7.87065 11.8442L10.2507 9.45755C10.4602 9.24742 10.3114 8.88884 10.0147 8.88884L2.11117 8.88884C1.92707 8.88884 1.77783 8.7396 1.77783 8.5555L1.77783 7.44439C1.77783 7.2603 1.92707 7.11106 2.11117 7.11106L10.0147 7.11106Z" fill="url(#paint0_linear_6040_50276)"/>
<defs>
<linearGradient id="paint0_linear_6040_50276" x1="1.77783" y1="7.99995" x2="5.95577" y2="7.99995" gradientUnits="userSpaceOnUse">
<stop stop-color="#37FBDE"/>
<stop offset="1" stop-color="#87B1FF"/>
</linearGradient>
</defs>
</svg>
