<svg width="85" height="57" viewBox="0 0 85 57" fill="none" xmlns="http://www.w3.org/2000/svg">
<g filter="url(#filter0_i_5953_50521)">
<rect x="0.592278" y="17.3863" width="77" height="39" rx="11.5" transform="rotate(-11.8883 0.592278 17.3863)" stroke="#10C2A3"/>
<path d="M25.9501 38.1068L22.2639 38.8828L19.8667 27.496L23.6697 26.6954C24.7854 26.4605 25.7916 26.4868 26.6882 26.7741C27.584 27.0578 28.3344 27.5792 28.9394 28.3383C29.5473 29.0928 29.9757 30.0614 30.2246 31.2438C30.4743 32.4299 30.472 33.4949 30.2178 34.4387C29.9673 35.3817 29.4827 36.1689 28.764 36.8002C28.0446 37.4278 27.1066 37.8633 25.9501 38.1068ZM23.6659 37.0199L25.5396 36.6255C26.4069 36.4429 27.0935 36.128 27.5994 35.6809C28.1045 35.23 28.4342 34.6632 28.5885 33.9804C28.742 33.2939 28.724 32.5003 28.5344 31.5996C28.3463 30.7063 28.044 29.9783 27.6275 29.4157C27.2147 28.8523 26.6945 28.4683 26.0669 28.2636C25.4394 28.059 24.7104 28.044 23.8801 28.2188L21.9008 28.6355L23.6659 37.0199ZM42.2557 28.7284C42.5116 29.9442 42.5093 31.0363 42.2486 32.0047C41.9872 32.9694 41.5187 33.7686 40.8431 34.4025C40.1705 35.0318 39.343 35.4499 38.3607 35.6567C37.3748 35.8642 36.4453 35.816 35.5723 35.5121C34.7022 35.2036 33.9527 34.6589 33.3237 33.8777C32.6948 33.0966 32.2527 32.1 31.9976 30.8879C31.7416 29.6722 31.7443 28.5819 32.0058 27.6172C32.2664 26.6488 32.7331 25.85 33.4057 25.2206C34.0813 24.5868 34.9121 24.1661 35.898 23.9585C36.8803 23.7517 37.8065 23.8026 38.6766 24.111C39.5496 24.4149 40.3005 24.9575 40.9295 25.7386C41.5577 26.516 41.9997 27.5126 42.2557 28.7284ZM40.5543 29.0866C40.3592 28.1599 40.0449 27.4113 39.6112 26.8406C39.1804 26.2655 38.6713 25.8695 38.0837 25.6526C37.499 25.4311 36.8805 25.3891 36.2281 25.5264C35.572 25.6645 35.0211 25.9528 34.5753 26.3911C34.1288 26.8258 33.8225 27.3935 33.6565 28.0942C33.4934 28.7905 33.5094 29.6019 33.7045 30.5286C33.8995 31.4553 34.2125 32.2062 34.6432 32.7813C35.0769 33.3519 35.586 33.7479 36.1707 33.9693C36.7546 34.1871 37.3746 34.2269 38.0307 34.0888C38.683 33.9514 39.2325 33.6654 39.679 33.2308C40.1285 32.7916 40.4348 32.2239 40.5979 31.5277C40.7639 30.8269 40.7494 30.0132 40.5543 29.0866ZM52.3897 20.6493L54.7868 32.0361L53.2078 32.3685L45.6618 25.2359L45.5562 25.2581L47.3142 33.6092L45.5962 33.9709L43.1991 22.5841L44.7892 22.2493L52.3431 29.3919L52.4487 29.3696L50.6883 21.0075L52.3897 20.6493ZM57.2929 31.5085L54.8958 20.1217L62.0348 18.6188L62.3461 20.0977L56.9252 21.239L57.6556 24.7084L62.704 23.6456L63.0142 25.119L57.9657 26.1818L58.6996 29.6678L64.1873 28.5126L64.4986 29.9915L57.2929 31.5085Z" fill="#10C2A3"/>
</g>
<defs>
<filter id="filter0_i_5953_50521" x="0" y="0.931641" width="84.5671" height="60.538" filterUnits="userSpaceOnUse" color-interpolation-filters="sRGB">
<feFlood flood-opacity="0" result="BackgroundImageFix"/>
<feBlend mode="normal" in="SourceGraphic" in2="BackgroundImageFix" result="shape"/>
<feColorMatrix in="SourceAlpha" type="matrix" values="0 0 0 0 0 0 0 0 0 0 0 0 0 0 0 0 0 0 127 0" result="hardAlpha"/>
<feOffset dy="5.32753"/>
<feGaussianBlur stdDeviation="2.66377"/>
<feComposite in2="hardAlpha" operator="arithmetic" k2="-1" k3="1"/>
<feColorMatrix type="matrix" values="0 0 0 0 0 0 0 0 0 0 0 0 0 0 0 0 0 0 0.25 0"/>
<feBlend mode="normal" in2="shape" result="effect1_innerShadow_5953_50521"/>
</filter>
</defs>
</svg>
